<svg width="25" height="19" viewBox="0 0 25 19" fill="none" xmlns="http://www.w3.org/2000/svg">
<path d="M12.5 14.1064C11.7252 14.1064 10.9503 13.8523 10.2894 13.3372L0.5 5.72519V16.3564C0.5 17.5986 1.50734 18.6064 2.75 18.6064H22.25C23.4927 18.6064 24.5 17.5991 24.5 16.3564V5.72519L14.7125 13.3424C14.0516 13.8533 13.2734 14.1064 12.5 14.1064ZM1.26359 4.41738L11.2105 12.1564C11.9694 12.7471 13.0325 12.7471 13.7914 12.1564L23.7383 4.41738C24.1766 4.04238 24.5 3.46582 24.5 2.85645C24.5 1.61379 23.4922 0.606445 22.25 0.606445H2.75C1.50734 0.606445 0.5 1.61379 0.5 2.85645C0.5 3.46582 0.781719 4.04238 1.26359 4.41738Z" fill="url(#paint0_linear_69_8859)"/>
<defs>
<linearGradient id="paint0_linear_69_8859" x1="12.5" y1="-10.0222" x2="28.3603" y2="12.9445" gradientUnits="userSpaceOnUse">
<stop stop-color="#8A2387"/>
<stop offset="0.422991" stop-color="#E94057"/>
<stop offset="0.784813" stop-color="#F27121"/>
</linearGradient>
</defs>
</svg>
