<svg width="24" height="25" viewBox="0 0 24 25" fill="none" xmlns="http://www.w3.org/2000/svg">
<path d="M11.9985 5.60648C13.6151 5.60648 15.0996 6.16002 16.2846 7.08056L19.9215 3.61056C17.8069 1.74641 15.039 0.606445 11.9985 0.606445C7.39107 0.606445 3.39553 3.20638 1.38477 7.01635L5.429 10.2093C6.40869 7.52587 8.97607 5.60648 11.9985 5.60648Z" fill="#F44336"/>
<path d="M23.8955 14.1083C23.958 13.6167 23.9994 13.1151 23.9994 12.6065C23.9994 11.7486 23.9057 10.9133 23.7347 10.1064H12V15.1065H18.4859C17.9612 16.4703 17.027 17.6243 15.8378 18.426L19.8971 21.6308C22.0489 19.742 23.5214 17.0969 23.8955 14.1083Z" fill="#2196F3"/>
<path d="M4.99976 12.6073C4.99976 11.7638 5.15661 10.9589 5.42998 10.21L1.38574 7.01709C0.504309 8.68727 0 10.5874 0 12.6073C0 14.6046 0.495032 16.4837 1.35815 18.1403L5.40752 14.9432C5.14819 14.2117 4.99976 13.4277 4.99976 12.6073Z" fill="#FFC107"/>
<path d="M11.9987 19.606C8.95331 19.606 6.36939 17.6575 5.40679 14.9419L1.35742 18.1389C3.35836 21.9795 7.36873 24.606 11.9987 24.606C15.0263 24.606 17.7872 23.4812 19.8958 21.6303L15.8365 18.4254C14.7398 19.1649 13.427 19.606 11.9987 19.606Z" fill="#00B060"/>
<path opacity="0.1" d="M11.9999 24.3564C8.46837 24.3564 5.29292 22.8992 3.04785 20.5776C5.24556 23.0441 8.43651 24.6064 11.9999 24.6064C15.5303 24.6064 18.6948 23.075 20.8876 20.6471C18.6491 22.931 15.4978 24.3564 11.9999 24.3564Z" fill="#434343"/>
<path opacity="0.1" d="M12 14.8564V15.1064H18.4859L18.5872 14.8564H12Z" fill="#434343"/>
<path d="M23.9942 12.7534C23.995 12.7042 23.9998 12.6558 23.9998 12.6064C23.9998 12.5924 23.9976 12.5789 23.9975 12.5649C23.9968 12.6279 23.9937 12.6902 23.9942 12.7534Z" fill="#E6E6E6"/>
<path opacity="0.2" d="M12 10.1064V10.3564H23.785C23.7693 10.2739 23.7521 10.1884 23.7347 10.1064H12Z" fill="white"/>
<path d="M23.7341 10.1065H11.9994V15.1066H18.4853C17.4767 17.7282 14.9765 19.6066 11.9994 19.6066C8.13364 19.6066 4.99976 16.4725 4.99976 12.6065C4.99976 8.74048 8.13364 5.60648 11.9994 5.60648C13.4012 5.60648 14.6932 6.03715 15.7878 6.74718C15.9553 6.85607 16.1281 6.9583 16.2855 7.08056L19.9225 3.61056L19.8405 3.54745C17.7361 1.72352 15.0028 0.606445 11.9994 0.606445C5.3723 0.606445 0 5.97905 0 12.6065C0 19.234 5.3723 24.6066 11.9994 24.6066C18.1168 24.6066 23.1543 20.0254 23.8949 14.1084C23.9574 13.6167 23.9988 13.1152 23.9988 12.6065C23.9988 11.7487 23.9052 10.9133 23.7341 10.1065Z" fill="url(#paint0_linear_69_8844)"/>
<path opacity="0.1" d="M15.787 6.49746C14.6925 5.78743 13.4005 5.35676 11.9987 5.35676C8.13291 5.35676 4.99902 8.49076 4.99902 12.3568C4.99902 12.399 4.99959 12.432 5.00032 12.474C5.06776 8.6663 8.17508 5.60677 11.9987 5.60677C13.4005 5.60677 14.6925 6.03743 15.787 6.74746C15.9545 6.85635 16.1274 6.95858 16.2848 7.08084L19.9218 3.61084L16.2848 6.83084C16.1274 6.70858 15.9545 6.60635 15.787 6.49746Z" fill="#434343"/>
<path opacity="0.2" d="M11.9994 0.856447C14.9743 0.856447 17.6821 1.95484 19.7783 3.74807L19.9225 3.61056L19.8125 3.51474C17.7081 1.69081 15.0028 0.606445 11.9994 0.606445C5.3723 0.606445 0 5.97905 0 12.6065C0 12.6487 0.00585912 12.6894 0.0062863 12.7315C0.074032 6.16234 5.41447 0.856447 11.9994 0.856447Z" fill="white"/>
<defs>
<linearGradient id="paint0_linear_69_8844" x1="0" y1="12.6065" x2="23.9988" y2="12.6065" gradientUnits="userSpaceOnUse">
<stop stop-color="white" stop-opacity="0.2"/>
<stop offset="1" stop-color="white" stop-opacity="0"/>
</linearGradient>
</defs>
</svg>
