<svg width="24" height="25" viewBox="0 0 24 25" fill="none" xmlns="http://www.w3.org/2000/svg">
<path d="M22.9033 18.025C21.9079 17.0022 19.0783 15.0863 17.2238 15.0863C16.7942 15.0863 16.4192 15.1818 16.1124 15.3795C15.2056 15.9591 14.4829 16.4091 14.1351 16.4091C13.9442 16.4091 13.7397 16.2386 13.2897 15.85L13.2147 15.7818C11.967 14.6977 11.7011 14.4181 11.217 13.9136L11.0942 13.7841C11.0056 13.6954 10.9306 13.6136 10.8556 13.5386C10.4329 13.1022 10.1261 12.7886 9.04196 11.5613L8.99424 11.5068C8.47605 10.9204 8.13515 10.5386 8.11469 10.2591C8.09424 9.98633 8.33287 9.54315 8.93969 8.71815C9.67605 7.72269 9.70333 6.49542 9.02833 5.07042C8.48969 3.94542 7.61014 2.86815 6.83287 1.92042L6.76469 1.8386C6.09651 1.02042 5.31924 0.611328 4.45333 0.611328C3.49196 0.611328 2.69424 1.12951 2.27151 1.40224C2.23742 1.42269 2.20333 1.44996 2.16924 1.47042C1.22151 2.07042 0.532872 2.89542 0.273781 3.73406C-0.114855 4.99542 -0.373946 6.63178 1.48742 10.0341C3.09651 12.9795 4.5556 14.9568 6.87378 17.3363C9.0556 19.5727 10.0238 20.2954 12.192 21.8636C14.6056 23.6091 16.9238 24.6113 18.5465 24.6113C20.0533 24.6113 21.2397 24.6113 22.9306 22.5727C24.7033 20.4318 23.967 19.1227 22.9033 18.025Z" fill="url(#paint0_linear_69_8863)"/>
<defs>
<linearGradient id="paint0_linear_69_8863" x1="11.9977" y1="-13.5602" x2="34.5336" y2="10.9181" gradientUnits="userSpaceOnUse">
<stop stop-color="#8A2387"/>
<stop offset="0.422991" stop-color="#E94057"/>
<stop offset="0.784813" stop-color="#F27121"/>
</linearGradient>
</defs>
</svg>
