<svg width="200" height="125" viewBox="0 0 200 125" fill="none" xmlns="http://www.w3.org/2000/svg">
<path d="M107.592 41.0295C107.472 41.4555 107.196 41.8423 106.76 42.0919L81.79 56.5161L66.3899 65.4128C65.1892 66.1097 63.6875 65.2399 63.6875 63.8513V17.2094C63.6875 15.8226 65.1874 14.9527 66.3899 15.6479L81.79 24.5446L106.76 38.9688C107.193 39.2184 107.47 39.6052 107.592 40.0295C107.684 40.3557 107.684 40.7033 107.592 41.0295Z" fill="white"/>
<path d="M136.338 8.04102C136.338 10.0018 135.609 12 133.984 13.6257L108.76 38.8664L81.7969 23.2871V7.9822C81.7969 3.57399 85.3686 0 89.7739 0C91.9757 0 93.9709 0.894834 95.4156 2.33691C96.8585 3.78076 97.751 5.7772 97.751 7.9822V27.3085L122.706 2.33691C124.203 0.839575 126.23 0 128.345 0C133.153 0.00178254 136.338 3.93762 136.338 8.04102Z" fill="white"/>
<path d="M106.767 42.0948L81.7969 56.5191V24.5439L106.767 38.9682C107.199 39.2178 107.477 39.6046 107.598 40.0288L107.098 40.5297L107.598 41.0306C107.481 41.4567 107.203 41.8435 106.767 42.0948Z" fill="white"/>
<path d="M128.345 81.0602C127.286 81.0602 126.251 80.8498 125.293 80.4523C124.335 80.053 123.453 79.4683 122.705 78.7197L97.751 53.7499V73.0779C97.751 77.4862 94.1793 81.0602 89.7739 81.0602C87.5721 81.0602 85.577 80.1689 84.1323 78.7232C82.6894 77.2794 81.7969 75.2812 81.7969 73.0779V57.8426L108.806 42.2383L133.984 67.4344C139.01 72.463 135.451 81.0602 128.345 81.0602Z" fill="white"/>
<path d="M101.502 40.9188C101.409 41.2504 101.193 41.5498 100.855 41.7441L81.4735 52.9403L69.5186 59.8458C68.5869 60.3859 67.4219 59.7103 67.4219 58.6337V22.4286C67.4219 21.3519 68.5869 20.6763 69.5186 21.2164L81.4735 28.122L100.855 39.3181C101.192 39.5124 101.407 39.8119 101.502 40.1416C101.573 40.3965 101.573 40.6657 101.502 40.9188Z" fill="url(#paint0_linear_69_8813)"/>
<path d="M96.0706 40.823C96.0011 41.0725 95.839 41.2971 95.5843 41.4433L81.0107 49.8622L72.0218 55.0548C71.32 55.4612 70.4453 54.9532 70.4453 54.1439V26.9192C70.4453 26.1099 71.3218 25.6019 72.0218 26.0083L81.0107 31.2009L95.5843 39.6198C95.8372 39.7659 95.9993 39.9923 96.0706 40.2383C96.124 40.4291 96.124 40.6305 96.0706 40.823Z" fill="white"/>
<path d="M100.002 85.0566H100" stroke="white" stroke-width="0.216389" stroke-miterlimit="10"/>
<path d="M100.002 90.7607H100" stroke="white" stroke-width="0.216389" stroke-miterlimit="10"/>
<path d="M57.3933 106.832C57.3458 107.003 57.2341 107.16 57.0584 107.26L46.9828 113.08L40.767 116.669C40.2824 116.949 39.6768 116.6 39.6768 116.039V97.218C39.6768 96.6571 40.2824 96.3077 40.767 96.5881L46.9828 100.177L57.0584 105.998C57.2341 106.097 57.3458 106.254 57.3933 106.425C57.4313 106.561 57.4313 106.701 57.3933 106.832Z" fill="white"/>
<path d="M54.9291 106.787C54.8911 106.92 54.8056 107.042 54.6678 107.12L46.8463 111.638L42.0223 114.424C41.647 114.642 41.1768 114.369 41.1768 113.934V99.3244C41.1768 98.8895 41.647 98.6161 42.0223 98.8348L46.8463 101.625L54.6678 106.143C54.8032 106.222 54.8911 106.343 54.9291 106.476C54.9576 106.578 54.9576 106.685 54.9291 106.787Z" fill="url(#paint1_linear_69_8813)"/>
<path d="M52.7263 106.75C52.6978 106.849 52.6337 106.942 52.5292 106.999L46.6482 110.395L43.0213 112.492C42.7387 112.656 42.3848 112.451 42.3848 112.123V101.138C42.3848 100.81 42.7387 100.606 43.0213 100.77L46.6482 102.866L52.5292 106.262C52.6313 106.322 52.6954 106.412 52.7263 106.512C52.7477 106.59 52.7477 106.673 52.7263 106.75Z" fill="white"/>
<path d="M4.80176 96.8359H13.6089C17.8558 96.8359 20.991 99.5739 20.991 103.453C20.991 107.332 17.8558 110.069 13.6089 110.069H8.99158V116.43H4.80176V96.8359ZM13.1529 106.219C15.2336 106.219 16.6587 105.135 16.6587 103.453C16.6587 101.77 15.2336 100.686 13.1529 100.686H8.99158V106.219H13.1529Z" fill="white"/>
<path d="M37.4348 112.636V116.43H23.4688V96.8359H27.6871V112.636H37.4348Z" fill="white"/>
<path d="M61.8966 109.356L54.2295 96.8359H59.1319L64.0058 105.421L69.0791 96.8359H73.782L66.1434 109.356V116.43H61.8966V109.356Z" fill="white"/>
<path d="M76.5205 96.8359H78.7437V107.674L88.6624 96.8359H91.5982L83.361 105.791L92.1397 116.43H89.261L81.8219 107.303L78.7437 110.554V116.43H76.5205V96.8359Z" fill="white"/>
<path d="M93.333 106.618C93.333 101.113 97.9504 96.4932 103.366 96.4932C108.81 96.4932 113.37 101.113 113.37 106.618C113.37 112.122 108.81 116.771 103.366 116.771C97.9504 116.771 93.333 112.122 93.333 106.618ZM111.118 106.618C111.118 102.254 107.584 98.5467 103.366 98.5467C99.1475 98.5467 95.5847 102.254 95.5847 106.618C95.5847 111.01 99.1475 114.718 103.366 114.718C107.584 114.718 111.118 111.01 111.118 106.618Z" fill="white"/>
<path d="M116.146 113.635L117.542 111.895C119.195 113.55 121.219 114.719 123.955 114.719C126.976 114.719 128.515 113.065 128.515 111.297C128.515 109.215 126.663 108.387 123.243 107.589C119.309 106.676 116.83 105.45 116.83 102.056C116.83 98.9186 119.623 96.4658 123.385 96.4658C126.292 96.4658 128.458 97.6066 130.254 99.2608L128.886 101.001C127.261 99.432 125.323 98.4908 123.271 98.4908C120.848 98.4908 119.081 100.088 119.081 101.885C119.081 103.91 121.019 104.623 124.354 105.421C128.088 106.305 130.767 107.646 130.767 111.097C130.767 114.206 128.43 116.744 123.87 116.744C120.649 116.744 118.112 115.575 116.146 113.635Z" fill="white"/>
<path d="M135.011 96.8359H137.234L144.502 110.497L151.77 96.8359H153.993V116.43H151.77V101.627L144.502 115.289L137.234 101.627V116.43H135.011V96.8359Z" fill="white"/>
<path d="M158.146 106.618C158.146 101.113 162.763 96.4932 168.178 96.4932C173.622 96.4932 178.183 101.113 178.183 106.618C178.183 112.122 173.622 116.771 168.178 116.771C162.763 116.771 158.146 112.122 158.146 106.618ZM175.931 106.618C175.931 102.254 172.397 98.5467 168.178 98.5467C163.96 98.5467 160.397 102.254 160.397 106.618C160.397 111.01 163.96 114.718 168.178 114.718C172.397 114.718 175.931 111.01 175.931 106.618Z" fill="white"/>
<path d="M180.958 113.635L182.355 111.895C184.008 113.55 186.031 114.719 188.768 114.719C191.789 114.719 193.328 113.065 193.328 111.297C193.328 109.215 191.475 108.387 188.055 107.589C184.122 106.676 181.642 105.45 181.642 102.056C181.642 98.9186 184.435 96.4658 188.198 96.4658C191.105 96.4658 193.271 97.6066 195.067 99.2608L193.698 101.001C192.074 99.432 190.136 98.4908 188.084 98.4908C185.661 98.4908 183.894 100.088 183.894 101.885C183.894 103.91 185.832 104.623 189.167 105.421C192.9 106.305 195.58 107.646 195.58 111.097C195.58 114.206 193.242 116.744 188.682 116.744C185.461 116.744 182.925 115.575 180.958 113.635Z" fill="white"/>
<defs>
<linearGradient id="paint0_linear_69_8813" x1="84.4885" y1="-2.00802" x2="121.196" y2="32.8745" gradientUnits="userSpaceOnUse">
<stop stop-color="#8A2387"/>
<stop offset="0.422991" stop-color="#E94057"/>
<stop offset="0.784813" stop-color="#F27121"/>
</linearGradient>
<linearGradient id="paint1_linear_69_8813" x1="48.0636" y1="89.4619" x2="62.8773" y2="103.538" gradientUnits="userSpaceOnUse">
<stop stop-color="#8A2387"/>
<stop offset="0.422991" stop-color="#E94057"/>
<stop offset="0.784813" stop-color="#F27121"/>
</linearGradient>
</defs>
</svg>
