<svg width="266" height="38" viewBox="0 0 266 38" fill="none" xmlns="http://www.w3.org/2000/svg">
<path d="M74.593 17.2228C74.5257 17.4405 74.3713 17.6423 74.1219 17.7729L59.9203 25.3408L51.161 30.0074C50.4762 30.3716 49.6134 29.9362 49.6055 29.2277L49.3126 5.31679C49.3046 4.60433 50.1556 4.14915 50.8483 4.49746L59.7184 8.95033L74.0982 16.1699C74.3475 16.2966 74.5098 16.4905 74.5811 16.7082C74.6365 16.8744 74.6365 17.0526 74.589 17.2228H74.593Z" fill="url(#paint0_linear_67_4893)"/>
<path d="M71.1116 17.2065C71.0601 17.3767 70.9414 17.5311 70.7475 17.634L59.7241 23.5078L52.9241 27.1295C52.3937 27.4145 51.7248 27.0741 51.7169 26.5239L51.4913 7.96435C51.4834 7.41417 52.1483 7.05794 52.6827 7.32709L59.5698 10.7825L70.7316 16.3872C70.9256 16.4861 71.0522 16.6366 71.1076 16.8028C71.1512 16.9334 71.1512 17.0719 71.1116 17.2026V17.2065Z" fill="white"/>
<path d="M67.9921 17.1957C67.9525 17.3223 67.8615 17.4411 67.719 17.5163L59.4307 21.9335L54.3169 24.6567C53.9171 24.8704 53.4144 24.6171 53.4105 24.2015L53.2403 10.2452C53.2363 9.82964 53.735 9.56445 54.1387 9.76631L59.3159 12.3668L67.7111 16.5822C67.8575 16.6534 67.9525 16.7682 67.9921 16.8949C68.0238 16.9938 68.0238 17.0967 67.9921 17.1957Z" fill="url(#paint1_linear_67_4893)"/>
<path d="M2.60745 30V3.65708H14.456C20.1694 3.65708 24.3873 7.33819 24.3873 12.5531C24.3873 17.768 20.1694 21.4491 14.456 21.4491H8.24414V30H2.60745ZM8.24414 16.2725H13.8425C16.6417 16.2725 18.5589 14.8154 18.5589 12.5531C18.5589 10.2907 16.6417 8.83364 13.8425 8.83364H8.24414V16.2725ZM33.4044 24.9001H46.5183V30H27.7293V3.65708H33.4044V24.9001ZM79.4439 30V20.4905L69.1292 3.65708H75.7245L82.2815 15.1989L89.1068 3.65708H95.4337L85.1573 20.4905V30H79.4439ZM98.3992 30V3.65708H104.036V15.7357L114.696 3.65708H121.559L111.283 15.0839L122.288 30H115.424L107.334 19.1101L104.036 22.6378V30H98.3992ZM136.931 30.4601C129.377 30.4601 122.935 24.2099 122.935 16.8094C122.935 9.40881 129.377 3.19695 136.931 3.19695C144.562 3.19695 150.927 9.40881 150.927 16.8094C150.927 24.2099 144.562 30.4601 136.931 30.4601ZM136.931 25.3219C141.379 25.3219 145.137 21.4108 145.137 16.8094C145.137 12.2463 141.379 8.33516 136.931 8.33516C132.521 8.33516 128.764 12.2463 128.764 16.8094C128.764 21.4108 132.521 25.3219 136.931 25.3219ZM165.058 30.4601C160.495 30.4601 156.43 28.9263 153.363 26.0888L156.622 22.216C159.114 24.3633 161.952 25.667 165.288 25.667C168.125 25.667 169.583 24.3633 169.583 22.7145C169.583 20.8356 168.049 20.2604 164.022 19.3401C158.462 18.0748 154.513 16.5026 154.513 11.4027C154.513 6.53295 158.501 3.19695 164.253 3.19695C168.547 3.19695 171.883 4.53902 174.567 6.83971L171.615 10.9043C169.276 9.02536 166.63 7.99005 164.099 7.99005C161.683 7.99005 160.226 9.25543 160.226 10.8276C160.226 12.7448 161.798 13.3583 165.863 14.2786C171.538 15.544 175.296 17.2312 175.296 22.101C175.296 27.1241 171.5 30.4601 165.058 30.4601ZM179.583 30V3.65708H185.22L193.387 18.5349L201.517 3.65708H207.192V30H201.517V13.5884L193.387 28.4662L185.22 13.5884V30H179.583ZM225.566 30.4601C218.012 30.4601 211.57 24.2099 211.57 16.8094C211.57 9.40881 218.012 3.19695 225.566 3.19695C233.197 3.19695 239.562 9.40881 239.562 16.8094C239.562 24.2099 233.197 30.4601 225.566 30.4601ZM225.566 25.3219C230.014 25.3219 233.772 21.4108 233.772 16.8094C233.772 12.2463 230.014 8.33516 225.566 8.33516C221.156 8.33516 217.399 12.2463 217.399 16.8094C217.399 21.4108 221.156 25.3219 225.566 25.3219ZM253.693 30.4601C249.13 30.4601 245.065 28.9263 241.998 26.0888L245.257 22.216C247.749 24.3633 250.587 25.667 253.923 25.667C256.76 25.667 258.218 24.3633 258.218 22.7145C258.218 20.8356 256.684 20.2604 252.658 19.3401C247.098 18.0748 243.148 16.5026 243.148 11.4027C243.148 6.53295 247.136 3.19695 252.888 3.19695C257.182 3.19695 260.518 4.53902 263.202 6.83971L260.25 10.9043C257.911 9.02536 255.265 7.99005 252.734 7.99005C250.318 7.99005 248.861 9.25543 248.861 10.8276C248.861 12.7448 250.434 13.3583 254.498 14.2786C260.173 15.544 263.931 17.2312 263.931 22.101C263.931 27.1241 260.135 30.4601 253.693 30.4601Z" fill="url(#paint2_linear_67_4893)"/>
<defs>
<linearGradient id="paint0_linear_67_4893" x1="61.9681" y1="-10.8334" x2="86.1892" y2="15.0126" gradientUnits="userSpaceOnUse">
<stop stop-color="#8A2387"/>
<stop offset="0.422991" stop-color="#E94057"/>
<stop offset="0.784813" stop-color="#F27121"/>
</linearGradient>
<linearGradient id="paint1_linear_67_4893" x1="60.628" y1="0.818247" x2="74.766" y2="15.906" gradientUnits="userSpaceOnUse">
<stop stop-color="#8A2387"/>
<stop offset="0.422991" stop-color="#E94057"/>
<stop offset="0.784813" stop-color="#F27121"/>
</linearGradient>
<linearGradient id="paint2_linear_67_4893" x1="133" y1="-22.4383" x2="142.259" y2="47.9515" gradientUnits="userSpaceOnUse">
<stop stop-color="#8A2387"/>
<stop offset="0.422991" stop-color="#E94057"/>
<stop offset="0.784813" stop-color="#F27121"/>
</linearGradient>
</defs>
</svg>
