<svg width="225" height="225" viewBox="0 0 225 225" fill="none" xmlns="http://www.w3.org/2000/svg">
<rect width="225" height="225" rx="112.5" fill="white"/>
<path d="M120.092 96.0295C119.972 96.4555 119.696 96.8423 119.26 97.0919L94.29 111.516L78.8899 120.413C77.6892 121.11 76.1875 120.24 76.1875 118.851V72.2094C76.1875 70.8226 77.6874 69.9527 78.8899 70.6479L94.29 79.5446L119.26 93.9688C119.693 94.2184 119.97 94.6052 120.092 95.0295C120.184 95.3557 120.184 95.7033 120.092 96.0295Z" fill="url(#paint0_linear_67_4648)"/>
<path d="M148.838 63.041C148.838 65.0018 148.109 67 146.484 68.6257L121.26 93.8664L94.2969 78.2871V62.9822C94.2969 58.574 97.8686 55 102.274 55C104.476 55 106.471 55.8948 107.916 57.3369C109.359 58.7808 110.251 60.7772 110.251 62.9822V82.3085L135.206 57.3369C136.703 55.8396 138.73 55 140.845 55C145.653 55.0018 148.838 58.9376 148.838 63.041Z" fill="url(#paint1_linear_67_4648)"/>
<path d="M119.267 97.0948L94.2969 111.519V79.5439L119.267 93.9682C119.699 94.2178 119.977 94.6046 120.098 95.0288L119.598 95.5297L120.098 96.0306C119.981 96.4567 119.703 96.8435 119.267 97.0948Z" fill="url(#paint2_linear_67_4648)"/>
<path d="M140.845 136.06C139.786 136.06 138.751 135.85 137.793 135.452C136.835 135.053 135.953 134.468 135.205 133.72L110.251 108.75V128.078C110.251 132.486 106.679 136.06 102.274 136.06C100.072 136.06 98.077 135.169 96.6323 133.723C95.1894 132.279 94.2969 130.281 94.2969 128.078V112.843L121.306 97.2383L146.484 122.434C151.51 127.463 147.951 136.06 140.845 136.06Z" fill="url(#paint3_linear_67_4648)"/>
<path d="M114.002 95.9188C113.909 96.2504 113.693 96.5498 113.355 96.7441L93.9735 107.94L82.0186 114.846C81.0869 115.386 79.9219 114.71 79.9219 113.634V77.4286C79.9219 76.3519 81.0869 75.6763 82.0186 76.2164L93.9735 83.122L113.355 94.3181C113.692 94.5124 113.907 94.8119 114.002 95.1416C114.073 95.3965 114.073 95.6657 114.002 95.9188Z" fill="white"/>
<path d="M108.571 95.823C108.501 96.0725 108.339 96.2971 108.084 96.4433L93.5107 104.862L84.5218 110.055C83.82 110.461 82.9453 109.953 82.9453 109.144V81.9192C82.9453 81.1099 83.8218 80.6019 84.5218 81.0083L93.5107 86.2009L108.084 94.6198C108.337 94.7659 108.499 94.9923 108.571 95.2383C108.624 95.4291 108.624 95.6305 108.571 95.823Z" fill="url(#paint4_linear_67_4648)"/>
<path d="M112.502 140.338H112.5" stroke="#434343" stroke-width="0.162292" stroke-miterlimit="10"/>
<path d="M112.502 144.616H112.5" stroke="#434343" stroke-width="0.162292" stroke-miterlimit="10"/>
<path d="M80.5452 156.669C80.5096 156.797 80.4258 156.915 80.294 156.99L72.7374 161.355L68.0755 164.047C67.7121 164.257 67.2578 163.995 67.2578 163.575V149.459C67.2578 149.038 67.7121 148.776 68.0755 148.986L72.7374 151.678L80.294 156.043C80.4258 156.118 80.5096 156.236 80.5452 156.364C80.5737 156.466 80.5737 156.571 80.5452 156.669Z" fill="url(#paint5_linear_67_4648)"/>
<path d="M78.697 156.635C78.6685 156.735 78.6044 156.826 78.5011 156.885L72.635 160.274L69.017 162.363C68.7355 162.527 68.3828 162.322 68.3828 161.995V151.038C68.3828 150.712 68.7355 150.507 69.017 150.671L72.635 152.764L78.5011 156.152C78.6026 156.211 78.6685 156.302 78.697 156.402C78.7184 156.479 78.7184 156.559 78.697 156.635Z" fill="white"/>
<path d="M77.0452 156.607C77.0238 156.682 76.9758 156.752 76.8974 156.794L72.4867 159.342L69.7665 160.914C69.5545 161.037 69.2891 160.884 69.2891 160.638V152.399C69.2891 152.153 69.5545 151.999 69.7665 152.122L72.4867 153.695L76.8974 156.242C76.974 156.286 77.0221 156.354 77.0452 156.429C77.0613 156.488 77.0613 156.55 77.0452 156.607Z" fill="url(#paint6_linear_67_4648)"/>
<path d="M41.1016 149.172H47.7069C50.8921 149.172 53.2435 151.225 53.2435 154.134C53.2435 157.044 50.8921 159.097 47.7069 159.097H44.2439V163.867H41.1016V149.172ZM47.3649 156.209C48.9254 156.209 49.9942 155.396 49.9942 154.134C49.9942 152.872 48.9254 152.06 47.3649 152.06H44.2439V156.209H47.3649Z" fill="url(#paint7_linear_67_4648)"/>
<path d="M65.5761 161.022V163.867H55.1016V149.172H58.2653V161.022H65.5761Z" fill="url(#paint8_linear_67_4648)"/>
<path d="M83.9222 158.562L78.1719 149.172H81.8487L85.5041 155.61L89.3091 149.172H92.8363L87.1073 158.562V163.867H83.9222V158.562Z" fill="url(#paint9_linear_67_4648)"/>
<path d="M94.8906 149.172H96.558V157.3L103.997 149.172H106.199L100.021 155.888L106.605 163.867H104.446L98.8667 157.022L96.558 159.461V163.867H94.8906V149.172Z" fill="url(#paint10_linear_67_4648)"/>
<path d="M107.5 156.509C107.5 152.38 110.963 148.915 115.025 148.915C119.108 148.915 122.528 152.38 122.528 156.509C122.528 160.637 119.108 164.124 115.025 164.124C110.963 164.124 107.5 160.637 107.5 156.509ZM120.839 156.509C120.839 153.236 118.188 150.455 115.025 150.455C111.861 150.455 109.189 153.236 109.189 156.509C109.189 159.803 111.861 162.584 115.025 162.584C118.188 162.584 120.839 159.803 120.839 156.509Z" fill="url(#paint11_linear_67_4648)"/>
<path d="M124.609 161.772L125.657 160.467C126.897 161.707 128.414 162.584 130.467 162.584C132.732 162.584 133.887 161.344 133.887 160.018C133.887 158.456 132.497 157.836 129.932 157.237C126.982 156.552 125.122 155.633 125.122 153.087C125.122 150.734 127.217 148.895 130.039 148.895C132.219 148.895 133.844 149.75 135.191 150.991L134.165 152.296C132.946 151.119 131.493 150.413 129.954 150.413C128.137 150.413 126.811 151.611 126.811 152.959C126.811 154.477 128.265 155.012 130.766 155.611C133.566 156.274 135.576 157.28 135.576 159.868C135.576 162.199 133.823 164.103 130.402 164.103C127.987 164.103 126.084 163.226 124.609 161.772Z" fill="url(#paint12_linear_67_4648)"/>
<path d="M138.758 149.172H140.425L145.876 159.418L151.327 149.172H152.995V163.867H151.327V152.765L145.876 163.011L140.425 152.765V163.867H138.758V149.172Z" fill="url(#paint13_linear_67_4648)"/>
<path d="M156.109 156.509C156.109 152.38 159.572 148.915 163.634 148.915C167.717 148.915 171.137 152.38 171.137 156.509C171.137 160.637 167.717 164.124 163.634 164.124C159.572 164.124 156.109 160.637 156.109 156.509ZM169.448 156.509C169.448 153.236 166.798 150.455 163.634 150.455C160.47 150.455 157.798 153.236 157.798 156.509C157.798 159.803 160.47 162.584 163.634 162.584C166.798 162.584 169.448 159.803 169.448 156.509Z" fill="url(#paint14_linear_67_4648)"/>
<path d="M173.219 161.772L174.266 160.467C175.506 161.707 177.024 162.584 179.076 162.584C181.342 162.584 182.496 161.344 182.496 160.018C182.496 158.456 181.107 157.836 178.542 157.237C175.592 156.552 173.732 155.633 173.732 153.087C173.732 150.734 175.827 148.895 178.648 148.895C180.829 148.895 182.453 149.75 183.8 150.991L182.774 152.296C181.556 151.119 180.102 150.413 178.563 150.413C176.746 150.413 175.421 151.611 175.421 152.959C175.421 154.477 176.874 155.012 179.375 155.611C182.176 156.274 184.185 157.28 184.185 159.868C184.185 162.199 182.432 164.103 179.012 164.103C176.596 164.103 174.694 163.226 173.219 161.772Z" fill="url(#paint15_linear_67_4648)"/>
<defs>
<linearGradient id="paint0_linear_67_4648" x1="98.1743" y1="40.7287" x2="145.463" y2="85.6676" gradientUnits="userSpaceOnUse">
<stop stop-color="#8A2387"/>
<stop offset="0.422991" stop-color="#E94057"/>
<stop offset="0.784813" stop-color="#F27121"/>
</linearGradient>
<linearGradient id="paint1_linear_67_4648" x1="121.567" y1="32.0501" x2="155.161" y2="83.248" gradientUnits="userSpaceOnUse">
<stop stop-color="#8A2387"/>
<stop offset="0.422991" stop-color="#E94057"/>
<stop offset="0.784813" stop-color="#F27121"/>
</linearGradient>
<linearGradient id="paint2_linear_67_4648" x1="107.198" y1="60.6632" x2="137.064" y2="86.8373" gradientUnits="userSpaceOnUse">
<stop stop-color="#8A2387"/>
<stop offset="0.422991" stop-color="#E94057"/>
<stop offset="0.784813" stop-color="#F27121"/>
</linearGradient>
<linearGradient id="paint3_linear_67_4648" x1="121.567" y1="74.3147" x2="155.107" y2="125.489" gradientUnits="userSpaceOnUse">
<stop stop-color="#8A2387"/>
<stop offset="0.422991" stop-color="#E94057"/>
<stop offset="0.784813" stop-color="#F27121"/>
</linearGradient>
<linearGradient id="paint4_linear_67_4648" x1="95.778" y1="63.5449" x2="123.379" y2="89.7736" gradientUnits="userSpaceOnUse">
<stop stop-color="#8A2387"/>
<stop offset="0.422991" stop-color="#E94057"/>
<stop offset="0.784813" stop-color="#F27121"/>
</linearGradient>
<linearGradient id="paint5_linear_67_4648" x1="73.9122" y1="139.931" x2="88.2236" y2="153.532" gradientUnits="userSpaceOnUse">
<stop stop-color="#8A2387"/>
<stop offset="0.422991" stop-color="#E94057"/>
<stop offset="0.784813" stop-color="#F27121"/>
</linearGradient>
<linearGradient id="paint6_linear_67_4648" x1="73.1732" y1="146.837" x2="81.5274" y2="154.775" gradientUnits="userSpaceOnUse">
<stop stop-color="#8A2387"/>
<stop offset="0.422991" stop-color="#E94057"/>
<stop offset="0.784813" stop-color="#F27121"/>
</linearGradient>
<linearGradient id="paint7_linear_67_4648" x1="47.1725" y1="140.495" x2="60.9377" y2="152.847" gradientUnits="userSpaceOnUse">
<stop stop-color="#8A2387"/>
<stop offset="0.422991" stop-color="#E94057"/>
<stop offset="0.784813" stop-color="#F27121"/>
</linearGradient>
<linearGradient id="paint8_linear_67_4648" x1="60.3388" y1="140.495" x2="73.7431" y2="150.871" gradientUnits="userSpaceOnUse">
<stop stop-color="#8A2387"/>
<stop offset="0.422991" stop-color="#E94057"/>
<stop offset="0.784813" stop-color="#F27121"/>
</linearGradient>
<linearGradient id="paint9_linear_67_4648" x1="85.5041" y1="140.495" x2="99.3053" y2="155.452" gradientUnits="userSpaceOnUse">
<stop stop-color="#8A2387"/>
<stop offset="0.422991" stop-color="#E94057"/>
<stop offset="0.784813" stop-color="#F27121"/>
</linearGradient>
<linearGradient id="paint10_linear_67_4648" x1="100.748" y1="140.495" x2="114.451" y2="152.358" gradientUnits="userSpaceOnUse">
<stop stop-color="#8A2387"/>
<stop offset="0.422991" stop-color="#E94057"/>
<stop offset="0.784813" stop-color="#F27121"/>
</linearGradient>
<linearGradient id="paint11_linear_67_4648" x1="115.014" y1="139.935" x2="129.308" y2="155.274" gradientUnits="userSpaceOnUse">
<stop stop-color="#8A2387"/>
<stop offset="0.422991" stop-color="#E94057"/>
<stop offset="0.784813" stop-color="#F27121"/>
</linearGradient>
<linearGradient id="paint12_linear_67_4648" x1="130.092" y1="139.914" x2="144.004" y2="150.808" gradientUnits="userSpaceOnUse">
<stop stop-color="#8A2387"/>
<stop offset="0.422991" stop-color="#E94057"/>
<stop offset="0.784813" stop-color="#F27121"/>
</linearGradient>
<linearGradient id="paint13_linear_67_4648" x1="145.876" y1="140.495" x2="159.704" y2="155.044" gradientUnits="userSpaceOnUse">
<stop stop-color="#8A2387"/>
<stop offset="0.422991" stop-color="#E94057"/>
<stop offset="0.784813" stop-color="#F27121"/>
</linearGradient>
<linearGradient id="paint14_linear_67_4648" x1="163.623" y1="139.935" x2="177.917" y2="155.274" gradientUnits="userSpaceOnUse">
<stop stop-color="#8A2387"/>
<stop offset="0.422991" stop-color="#E94057"/>
<stop offset="0.784813" stop-color="#F27121"/>
</linearGradient>
<linearGradient id="paint15_linear_67_4648" x1="178.702" y1="139.914" x2="192.614" y2="150.808" gradientUnits="userSpaceOnUse">
<stop stop-color="#8A2387"/>
<stop offset="0.422991" stop-color="#E94057"/>
<stop offset="0.784813" stop-color="#F27121"/>
</linearGradient>
</defs>
</svg>
