<svg width="32" height="32" viewBox="0 0 32 32" fill="none" xmlns="http://www.w3.org/2000/svg">
<rect width="32" height="32" rx="16" fill="#151583" fill-opacity="0.1"/>
<path d="M22.0733 7.53125H9.92773V16.0014H22.0733V7.53125Z" stroke="#151583" stroke-width="0.25" stroke-linecap="round" stroke-linejoin="round"/>
<path d="M22.0733 7.53125H9.92773V16.0014H22.0733V7.53125Z" fill="#151583" fill-opacity="0.3"/>
<path d="M22.1256 15.3496H9.85613C9.74898 15.3496 9.66211 15.4361 9.66211 15.5429C9.66211 15.6496 9.74898 15.7361 9.85613 15.7361H22.1256C22.2328 15.7361 22.3197 15.6496 22.3197 15.5429C22.3197 15.4361 22.2328 15.3496 22.1256 15.3496Z" stroke="#151583" stroke-width="0.25" stroke-linecap="round" stroke-linejoin="round"/>
<path d="M22.1903 7.28125H9.79146C9.72002 7.28125 9.66211 7.33893 9.66211 7.41007C9.66211 7.48122 9.72002 7.53889 9.79146 7.53889H22.1903C22.2618 7.53889 22.3197 7.48122 22.3197 7.41007C22.3197 7.33893 22.2618 7.28125 22.1903 7.28125Z" stroke="#151583" stroke-width="0.25" stroke-linecap="round" stroke-linejoin="round"/>
<path d="M9.91241 6.98316C10.0463 6.98316 10.1549 6.875 10.1549 6.74158C10.1549 6.60816 10.0463 6.5 9.91241 6.5C9.77849 6.5 9.66992 6.60816 9.66992 6.74158C9.66992 6.875 9.77849 6.98316 9.91241 6.98316Z" stroke="#151583" stroke-width="0.25" stroke-linecap="round" stroke-linejoin="round"/>
<path d="M9.91241 8.3191C10.0463 8.3191 10.1549 8.21094 10.1549 8.07752C10.1549 7.9441 10.0463 7.83594 9.91241 7.83594C9.77849 7.83594 9.66992 7.9441 9.66992 8.07752C9.66992 8.21094 9.77849 8.3191 9.91241 8.3191Z" stroke="#151583" stroke-width="0.25" stroke-linecap="round" stroke-linejoin="round"/>
<path d="M9.90894 6.74023H9.90885C9.83299 6.74023 9.77148 6.80151 9.77148 6.87709V7.94016C9.77148 8.01574 9.83299 8.07701 9.90885 8.07701H9.90894C9.98481 8.07701 10.0463 8.01574 10.0463 7.94016V6.87709C10.0463 6.80151 9.98481 6.74023 9.90894 6.74023Z" stroke="#151583" stroke-width="0.25" stroke-linecap="round" stroke-linejoin="round"/>
<path d="M22.0843 6.98316C22.2182 6.98316 22.3268 6.875 22.3268 6.74158C22.3268 6.60816 22.2182 6.5 22.0843 6.5C21.9504 6.5 21.8418 6.60816 21.8418 6.74158C21.8418 6.875 21.9504 6.98316 22.0843 6.98316Z" stroke="#151583" stroke-width="0.25" stroke-linecap="round" stroke-linejoin="round"/>
<path d="M22.0843 8.3191C22.2182 8.3191 22.3268 8.21094 22.3268 8.07752C22.3268 7.9441 22.2182 7.83594 22.0843 7.83594C21.9504 7.83594 21.8418 7.9441 21.8418 8.07752C21.8418 8.21094 21.9504 8.3191 22.0843 8.3191Z" stroke="#151583" stroke-width="0.25" stroke-linecap="round" stroke-linejoin="round"/>
<path d="M22.0886 6.74023H22.0885C22.0127 6.74023 21.9512 6.80151 21.9512 6.87709V7.94016C21.9512 8.01574 22.0127 8.07701 22.0885 8.07701H22.0886C22.1645 8.07701 22.226 8.01574 22.226 7.94016V6.87709C22.226 6.80151 22.1645 6.74023 22.0886 6.74023Z" stroke="#151583" stroke-width="0.25" stroke-linecap="round" stroke-linejoin="round"/>
<path d="M6.08549 22.1113H5.99805V23.3308H6.08549V22.1113Z" stroke="#151583" stroke-width="0.5" stroke-linecap="round" stroke-linejoin="round"/>
<path d="M6.71831 21.457H6.63086V22.6765H6.71831V21.457Z" stroke="#151583" stroke-width="0.5" stroke-linecap="round" stroke-linejoin="round"/>
<path d="M25.9996 22.1113H25.9121V23.3308H25.9996V22.1113Z" stroke="#151583" stroke-width="0.5" stroke-linecap="round" stroke-linejoin="round"/>
<path d="M25.2808 21.457H25.1934V22.6765H25.2808V21.457Z" stroke="#151583" stroke-width="0.5" stroke-linecap="round" stroke-linejoin="round"/>
<path d="M21.907 21.586C22.2612 21.6633 22.5833 21.8463 22.8305 22.1104H26.0015L25.2802 21.457H21.5059C21.6725 21.5164 21.8307 21.5622 21.907 21.586Z" stroke="#151583" stroke-width="0.5" stroke-linecap="round" stroke-linejoin="round"/>
<path d="M10.0925 21.5859C10.1688 21.5621 10.327 21.5163 10.4933 21.457H6.63195L5.99805 22.1104H9.16895C9.4162 21.8462 9.73835 21.6633 10.0925 21.5859V21.5859Z" stroke="#151583" stroke-width="0.5" stroke-linecap="round" stroke-linejoin="round"/>
<path d="M18.0996 21.5859C18.1759 21.5621 18.3341 21.5163 18.5004 21.457H13.5059C13.6725 21.5163 13.8307 21.5621 13.9067 21.5859C14.2608 21.6632 14.5829 21.8461 14.8302 22.1104H17.1754C17.4228 21.846 17.7452 21.6631 18.0996 21.5859V21.5859Z" stroke="#151583" stroke-width="0.5" stroke-linecap="round" stroke-linejoin="round"/>
<path d="M24.317 23.1537C24.2751 22.7867 24.1198 22.4444 23.8749 22.1793C23.63 21.9142 23.309 21.7411 22.9615 21.6866C22.753 21.6181 21.9968 21.3988 21.8927 21.1522C21.8573 21.0192 21.8485 20.88 21.8668 20.7432C21.9293 20.6637 21.9875 20.5806 22.0414 20.4943C21.6649 20.6912 21.2497 20.7922 20.8292 20.7891C20.4088 20.786 19.9949 20.679 19.6211 20.4766C19.678 20.5692 19.74 20.6582 19.8068 20.7432C19.825 20.88 19.8162 21.0192 19.7809 21.1522C19.6767 21.3992 18.9206 21.6185 18.7121 21.6866C18.3645 21.7411 18.0436 21.9142 17.7987 22.1793C17.5538 22.4444 17.3984 22.7867 17.3566 23.1537L17.1934 24.4698C17.3045 24.6268 17.4522 24.751 17.6223 24.8302C17.7925 24.9095 17.9792 24.9412 18.1644 24.9222C18.9801 25.2838 19.8536 25.4794 20.7386 25.4986C20.7635 25.4986 20.8382 25.4975 20.8382 25.4975C20.8382 25.4975 20.9117 25.4988 20.9366 25.4986C21.8214 25.4795 22.6947 25.2839 23.5102 24.9222C23.6953 24.9412 23.8819 24.9095 24.052 24.8302C24.222 24.751 24.3697 24.6268 24.4807 24.4698L24.317 23.1537Z" fill="#151583"/>
<path d="M20.8257 20.388C22.0249 20.388 22.9971 19.3655 22.9971 18.1042C22.9971 16.8428 22.0249 15.8203 20.8257 15.8203C19.6265 15.8203 18.6543 16.8428 18.6543 18.1042C18.6543 19.3655 19.6265 20.388 20.8257 20.388Z" fill="#151583"/>
<path d="M14.6061 23.1537C14.5642 22.7867 14.4088 22.4444 14.1639 22.1793C13.919 21.9142 13.5981 21.7411 13.2505 21.6866C13.042 21.6181 12.2859 21.3988 12.1818 21.1522C12.1464 21.0192 12.1376 20.88 12.1558 20.7432C12.2183 20.6637 12.2766 20.5806 12.3304 20.4943C11.9539 20.6912 11.5387 20.7922 11.1183 20.7891C10.6978 20.786 10.284 20.679 9.91018 20.4766C9.96706 20.5692 10.029 20.6582 10.0958 20.7432C10.1141 20.88 10.1053 21.0192 10.0699 21.1522C9.96576 21.3992 9.20965 21.6185 9.00114 21.6866C8.65357 21.7411 8.33265 21.9142 8.08774 22.1793C7.84283 22.4444 7.68749 22.7867 7.64561 23.1537L7.48242 24.4698C7.59351 24.6268 7.74129 24.751 7.91141 24.8302C8.08154 24.9095 8.26825 24.9412 8.45344 24.9222C9.26913 25.2838 10.1426 25.4794 11.0276 25.4986C11.0525 25.4986 11.1273 25.4975 11.1273 25.4975C11.1273 25.4975 11.2008 25.4988 11.2257 25.4986C12.1105 25.4795 12.9838 25.2839 13.7992 24.9222C13.9844 24.9412 14.171 24.9095 14.3411 24.8302C14.5111 24.751 14.6588 24.6268 14.7698 24.4698L14.6061 23.1537Z" fill="#151583"/>
<path d="M11.1147 20.388C12.314 20.388 13.2861 19.3655 13.2861 18.1042C13.2861 16.8428 12.314 15.8203 11.1147 15.8203C9.91552 15.8203 8.94336 16.8428 8.94336 18.1042C8.94336 19.3655 9.91552 20.388 11.1147 20.388Z" fill="#151583"/>
<path d="M19.6066 11.1602H11.1727C11.1539 11.1602 11.1387 11.2954 11.1387 11.4622V11.4631C11.1387 11.6299 11.1539 11.7652 11.1727 11.7652H19.6066C19.6253 11.7652 19.6406 11.6299 19.6406 11.4631V11.4622C19.6406 11.2954 19.6253 11.1602 19.6066 11.1602Z" fill="#151583"/>
<path d="M20.8163 8.74023H11.1775C11.1561 8.74023 11.1387 8.87546 11.1387 9.04227V9.04321C11.1387 9.21002 11.1561 9.34525 11.1775 9.34525H20.8163C20.8377 9.34525 20.8551 9.21002 20.8551 9.04321V9.04227C20.8551 8.87546 20.8377 8.74023 20.8163 8.74023Z" fill="#151583"/>
<path d="M18.3544 13.5801H11.1676C11.1516 13.5801 11.1387 13.7153 11.1387 13.8821V13.8831C11.1387 14.0499 11.1516 14.1851 11.1676 14.1851H18.3544C18.3704 14.1851 18.3834 14.0499 18.3834 13.8831V13.8821C18.3834 13.7153 18.3704 13.5801 18.3544 13.5801Z" fill="#151583"/>
</svg>
