<svg width="33" height="32" viewBox="0 0 33 32" fill="none" xmlns="http://www.w3.org/2000/svg">
<path d="M16.875 32C25.7116 32 32.875 24.8366 32.875 16C32.875 7.16344 25.7116 0 16.875 0C8.03844 0 0.875 7.16344 0.875 16C0.875 24.8366 8.03844 32 16.875 32Z" fill="#097835" fill-opacity="0.1"/>
<path d="M7.18897 23.4297L6 24.9426H26.8992L25.7392 23.4297H7.18897Z" fill="#097835"/>
<path d="M26.8988 24.9434H6V26.1258H26.8988V24.9434Z" fill="#097835"/>
<path d="M12.8665 14.459H8.5751C8.39124 14.459 8.24219 14.5969 8.24219 14.7669V23.4924C8.24219 23.6625 8.39124 23.8003 8.5751 23.8003H12.8665C13.0504 23.8003 13.1994 23.6625 13.1994 23.4924V14.7669C13.1994 14.5969 13.0504 14.459 12.8665 14.459Z" fill="#097835"/>
<path d="M24.3924 16.3867H20.0308C19.8671 16.3867 19.7344 16.5095 19.7344 16.6609V23.5229C19.7344 23.6743 19.8671 23.7971 20.0308 23.7971H24.3924C24.5561 23.7971 24.6888 23.6743 24.6888 23.5229V16.6609C24.6888 16.5095 24.5561 16.3867 24.3924 16.3867Z" fill="#097835"/>
<path d="M18.5672 12.3125H14.3459C14.1419 12.3125 13.9766 12.4655 13.9766 12.6541V23.4649C13.9766 23.6535 14.1419 23.8065 14.3459 23.8065H18.5672C18.7712 23.8065 18.9366 23.6535 18.9366 23.4649V12.6541C18.9366 12.4655 18.7712 12.3125 18.5672 12.3125Z" fill="#097835"/>
<path d="M17.3392 15.7656V20.3497H16.2249V16.5222H15.5781V15.7656H17.3392Z" fill="white"/>
<path d="M10.4033 17.7747V18.3801H9.28906V17.6306C9.28906 17.1021 9.61631 16.8379 10.2708 16.8379H11.1123C11.7772 16.8379 12.1097 17.1021 12.1097 17.6306V18.2144C12.1145 18.4099 12.0788 18.6044 12.0045 18.7874C11.9165 18.9766 11.8026 19.1547 11.6656 19.3171L10.6683 20.6649H12.1253V21.4216H9.31251V20.7226L10.6838 19.0218C10.7937 18.9038 10.8819 18.7699 10.9448 18.6255C10.9927 18.4882 11.0153 18.3445 11.0115 18.2003V17.775C11.0115 17.6549 10.9414 17.5948 10.8011 17.5948H10.6064C10.471 17.5949 10.4033 17.6549 10.4033 17.7747Z" fill="white"/>
<path d="M21.9033 18.7376V19.2782H20.7969V18.5935C20.7969 18.065 21.1241 17.8008 21.7786 17.8008H22.6434C23.3028 17.8008 23.6326 18.065 23.6331 18.5935V19.3791C23.6331 19.7347 23.5162 19.9581 23.2824 20.0493C23.5162 20.1312 23.6331 20.3378 23.6331 20.6692V21.5845C23.6331 22.1178 23.3032 22.3844 22.6434 22.3844H21.7786C21.1241 22.3844 20.7969 22.1178 20.7969 21.5845V20.9143H21.9033V21.4476C21.9033 21.5678 21.9734 21.6278 22.1136 21.6277H22.324C22.4642 21.6277 22.5343 21.5676 22.5343 21.4476V20.5971C22.5373 20.5719 22.5347 20.5465 22.5267 20.5224C22.5186 20.4982 22.5054 20.4758 22.4877 20.4566C22.44 20.4256 22.3819 20.4116 22.324 20.4169H21.7163V19.7035H22.324C22.3819 19.7088 22.44 19.6948 22.4877 19.6638C22.505 19.6457 22.5181 19.6245 22.5261 19.6015C22.5342 19.5785 22.537 19.5542 22.5343 19.5302V18.7373C22.5343 18.6173 22.4642 18.5572 22.324 18.5572H22.1136C21.9734 18.5574 21.9033 18.6175 21.9033 18.7376Z" fill="white"/>
<path d="M17.8994 4.44044C17.8992 4.35685 17.8631 4.27676 17.7993 4.21766C17.7354 4.15856 17.6488 4.12524 17.5584 4.125H15.3735C15.2831 4.12524 15.1965 4.15856 15.1326 4.21766C15.0687 4.27676 15.0327 4.35685 15.0324 4.44044C15.0324 4.44044 13.0434 5.20277 15.0324 7.97614C17.0215 10.7495 15.0324 11.5118 15.0324 11.5118C15.0327 11.5954 15.0687 11.6755 15.1326 11.7346C15.1965 11.7937 15.2831 11.827 15.3735 11.8273H17.5584C17.6488 11.827 17.7354 11.7937 17.7993 11.7346C17.8631 11.6755 17.8992 11.5954 17.8994 11.5118C17.8994 11.5118 15.9104 10.7496 17.8994 7.97614C19.8885 5.20267 17.8994 4.44044 17.8994 4.44044ZM17.1024 7.05624L16.4607 6.73967L15.8151 7.04915L15.9422 6.38692L15.4245 5.91413L16.1448 5.82162L16.4704 5.22024L16.7884 5.82522L17.5074 5.92584L16.9837 6.39247L17.1024 7.05624Z" fill="#097835"/>
</svg>
