<svg width="33" height="32" viewBox="0 0 33 32" fill="none" xmlns="http://www.w3.org/2000/svg">
<rect x="0.976562" width="32" height="32" rx="16" fill="#A91079" fill-opacity="0.1"/>
<path d="M10.6763 14.0238L9.74219 13.3007L10.1445 12.9889L10.6763 13.4009L12.0623 12.3281L12.4647 12.6396L10.6763 14.0238Z" fill="#A91079"/>
<path d="M14.3013 14.0238L13.3672 13.3007L13.7695 12.9889L14.3013 13.4009L15.6873 12.3281L16.0897 12.6396L14.3013 14.0238Z" fill="#A91079"/>
<path d="M18.8482 17.4144L17.9141 16.6914L18.3164 16.3795L18.8482 16.7916L20.2342 15.7188L20.6365 16.0302L18.8482 17.4144Z" fill="#A91079"/>
<path d="M22.4732 17.4144L21.5391 16.6914L21.9414 16.3795L22.4732 16.7916L23.8592 15.7188L24.2615 16.0302L22.4732 17.4144Z" fill="#A91079"/>
<path d="M26.6919 8.4794H7.308C7.23346 8.47375 7.15951 8.49556 7.10196 8.54017C7.04441 8.58479 7.00781 8.64867 7 8.71815V20.7472C7.00779 20.8167 7.04438 20.8806 7.10194 20.9252C7.1595 20.9698 7.23346 20.9916 7.308 20.9859H26.692C26.7665 20.9916 26.8405 20.9698 26.898 20.9252C26.9556 20.8805 26.9922 20.8167 27 20.7472V8.71815C26.9922 8.64865 26.9556 8.58476 26.898 8.54014C26.8404 8.49553 26.7665 8.47373 26.6919 8.4794ZM12.4794 17.6629C12.471 17.737 12.4319 17.8051 12.3704 17.8526C12.309 17.9001 12.2301 17.9233 12.1506 17.9173H9.52046C9.44098 17.9233 9.36212 17.9001 9.30071 17.8526C9.23929 17.8051 9.2002 17.737 9.19177 17.6629V15.6245C9.20009 15.5503 9.23913 15.4822 9.30055 15.4345C9.36198 15.3869 9.4409 15.3636 9.52046 15.3697H12.1506C12.2302 15.3636 12.3092 15.3869 12.3706 15.4345C12.432 15.4822 12.4711 15.5503 12.4794 15.6245V17.6629ZM12.4794 13.8409C12.471 13.915 12.4318 13.983 12.3704 14.0306C12.309 14.0781 12.2301 14.1013 12.1506 14.0953H9.52046C9.44099 14.1013 9.36214 14.0781 9.30073 14.0306C9.23932 13.983 9.20022 13.915 9.19177 13.8409V11.8024C9.2002 11.7284 9.23929 11.6603 9.30071 11.6128C9.36212 11.5652 9.44098 11.542 9.52046 11.5481H12.1506C12.2301 11.542 12.309 11.5652 12.3704 11.6128C12.4319 11.6603 12.471 11.7283 12.4794 11.8024V13.8409ZM16.589 17.6629C16.5805 17.737 16.5414 17.8051 16.48 17.8526C16.4186 17.9001 16.3397 17.9233 16.2602 17.9173H13.63C13.5506 17.9233 13.4717 17.9001 13.4103 17.8526C13.3489 17.8051 13.3098 17.737 13.3013 17.6629V15.6245C13.3097 15.5503 13.3487 15.4822 13.4101 15.4345C13.4715 15.3869 13.5505 15.3636 13.63 15.3697H16.2606C16.3401 15.3636 16.4191 15.3869 16.4805 15.4345C16.542 15.4822 16.581 15.5503 16.5894 15.6245L16.589 17.6629ZM16.589 13.8409C16.5805 13.915 16.5414 13.983 16.48 14.0306C16.4186 14.0781 16.3397 14.1013 16.2602 14.0953H13.63C13.5506 14.1013 13.4717 14.0781 13.4103 14.0306C13.3489 13.983 13.3098 13.915 13.3013 13.8409V11.8024C13.3098 11.7284 13.3489 11.6603 13.4103 11.6128C13.4717 11.5652 13.5506 11.542 13.63 11.5481H16.2606C16.3401 11.542 16.4189 11.5652 16.4804 11.6128C16.5418 11.6603 16.5809 11.7283 16.5894 11.8024L16.589 13.8409ZM20.6982 17.6629C20.6898 17.737 20.6507 17.8051 20.5892 17.8526C20.5278 17.9001 20.4489 17.9233 20.3694 17.9173H17.7398C17.6603 17.9233 17.5814 17.9001 17.52 17.8526C17.4585 17.8051 17.4194 17.737 17.411 17.6629V15.6245C17.4193 15.5503 17.4584 15.4821 17.5198 15.4345C17.5813 15.3869 17.6602 15.3636 17.7398 15.3697H20.3699C20.4494 15.3636 20.5284 15.3869 20.5898 15.4345C20.6513 15.4821 20.6903 15.5503 20.6987 15.6245L20.6982 17.6629ZM20.6982 13.8409C20.6898 13.915 20.6506 13.9831 20.5892 14.0306C20.5278 14.0781 20.4489 14.1013 20.3694 14.0953H17.7398C17.6603 14.1013 17.5814 14.0781 17.52 14.0306C17.4586 13.9831 17.4195 13.915 17.411 13.8409V11.8024C17.4194 11.7283 17.4585 11.6603 17.52 11.6127C17.5814 11.5652 17.6603 11.542 17.7398 11.5481H20.3699C20.4494 11.542 20.5283 11.5652 20.5897 11.6127C20.6511 11.6603 20.6902 11.7283 20.6987 11.8024L20.6982 13.8409ZM24.8078 17.6629C24.7993 17.737 24.7602 17.8051 24.6988 17.8526C24.6374 17.9001 24.5585 17.9233 24.479 17.9173H21.8493C21.7698 17.9233 21.6909 17.9001 21.6295 17.8526C21.568 17.8051 21.5289 17.737 21.5205 17.6629V15.6245C21.5288 15.5503 21.5679 15.4821 21.6293 15.4345C21.6907 15.3869 21.7697 15.3636 21.8493 15.3697H24.4794C24.5589 15.3636 24.6379 15.3869 24.6993 15.4345C24.7608 15.4821 24.7998 15.5503 24.8081 15.6245L24.8078 17.6629ZM24.8078 13.8409C24.7993 13.915 24.7602 13.9831 24.6988 14.0306C24.6374 14.0781 24.5585 14.1013 24.479 14.0953H21.8493C21.7698 14.1013 21.6909 14.0781 21.6295 14.0306C21.568 13.9831 21.5289 13.915 21.5205 13.8409V11.8024C21.5289 11.7283 21.568 11.6603 21.6295 11.6127C21.6909 11.5652 21.7698 11.542 21.8493 11.5481H24.4794C24.5588 11.542 24.6377 11.5652 24.6992 11.6127C24.7606 11.6603 24.7997 11.7283 24.8081 11.8024L24.8078 13.8409Z" fill="#A91079" fill-opacity="0.8"/>
<path d="M26.2333 5.33594H7.76665C7.34324 5.33594 7 5.65662 7 6.0522V7.12523C7 7.5208 7.34324 7.84148 7.76665 7.84148H26.2333C26.6567 7.84148 26.9999 7.5208 26.9999 7.12523V6.0522C26.9999 5.65662 26.6567 5.33594 26.2333 5.33594Z" fill="#A91079" fill-opacity="0.8"/>
<path d="M12.1626 3H11.6627C11.3614 3 11.1172 3.22817 11.1172 3.50964V6.48226C11.1172 6.76373 11.3614 6.9919 11.6627 6.9919H12.1626C12.4639 6.9919 12.7081 6.76373 12.7081 6.48226V3.50964C12.7081 3.22817 12.4639 3 12.1626 3Z" fill="#A91079" fill-opacity="0.8"/>
<path d="M22.3345 3H21.8346C21.5333 3 21.2891 3.22817 21.2891 3.50964V6.48226C21.2891 6.76373 21.5333 6.9919 21.8346 6.9919H22.3345C22.6358 6.9919 22.88 6.76373 22.88 6.48226V3.50964C22.88 3.22817 22.6358 3 22.3345 3Z" fill="#A91079" fill-opacity="0.8"/>
<path d="M14.9711 27.2049C14.9349 26.9239 14.8009 26.6617 14.5897 26.4588C14.3786 26.2558 14.1019 26.1233 13.8022 26.0815C13.6224 26.0291 12.9704 25.8614 12.8805 25.6719C12.8501 25.57 12.8425 25.4634 12.8582 25.3586C12.9121 25.2977 12.9624 25.234 13.0088 25.1679C12.6841 25.3188 12.326 25.3961 11.9635 25.3938C11.6009 25.3914 11.244 25.3094 10.9216 25.1543C10.9707 25.2252 11.0242 25.2934 11.0817 25.3586C11.0975 25.4633 11.0899 25.57 11.0594 25.6719C10.9695 25.8611 10.3176 26.0291 10.1377 26.0815C9.83803 26.1233 9.56131 26.2559 9.35013 26.4589C9.13895 26.6619 9.00501 26.9241 8.96891 27.2052L8.82812 28.2135C8.9239 28.3337 9.05131 28.4288 9.19801 28.4895C9.3447 28.5502 9.50569 28.5744 9.66537 28.5599C10.3688 28.8369 11.1221 28.9867 11.8854 29.0013C11.9069 29.0013 11.9714 29.0005 11.9714 29.0005C11.9714 29.0005 12.0346 29.0013 12.056 29.0013C12.819 28.9867 13.5721 28.8369 14.2753 28.5598C14.4349 28.5744 14.5958 28.5501 14.7425 28.4894C14.8891 28.4287 15.0164 28.3336 15.1121 28.2134L14.9711 27.2049Z" fill="#A91079" fill-opacity="0.7"/>
<path d="M11.974 25.153C13.0081 25.153 13.8465 24.3698 13.8465 23.4037C13.8465 22.4375 13.0081 21.6543 11.974 21.6543C10.9399 21.6543 10.1016 22.4375 10.1016 23.4037C10.1016 24.3698 10.9399 25.153 11.974 25.153Z" fill="#A91079" fill-opacity="0.7"/>
<path d="M24.8852 27.2049C24.849 26.9239 24.715 26.6617 24.5038 26.4588C24.2926 26.2558 24.0159 26.1233 23.7162 26.0815C23.5364 26.0291 22.8844 25.8614 22.7946 25.6719C22.7641 25.57 22.7565 25.4633 22.7722 25.3586C22.8262 25.2977 22.8764 25.234 22.9229 25.1679C22.5982 25.3188 22.2401 25.3961 21.8775 25.3938C21.5149 25.3914 21.158 25.3094 20.8357 25.1543C20.8848 25.2252 20.9382 25.2934 20.9958 25.3586C21.0116 25.4633 21.004 25.57 20.9735 25.6719C20.8836 25.8611 20.2316 26.0291 20.0518 26.0815C19.7521 26.1233 19.4754 26.2559 19.2642 26.4589C19.053 26.6619 18.9191 26.9241 18.883 27.2052L18.7422 28.2135C18.838 28.3337 18.9654 28.4288 19.1121 28.4895C19.2588 28.5502 19.4198 28.5744 19.5794 28.5599C20.2828 28.8369 21.0361 28.9867 21.7992 29.0013C21.8207 29.0013 21.8852 29.0005 21.8852 29.0005C21.8852 29.0005 21.9485 29.0015 21.97 29.0013C22.733 28.9867 23.4861 28.8369 24.1893 28.5598C24.349 28.5744 24.5099 28.5501 24.6565 28.4894C24.8031 28.4287 24.9305 28.3336 25.0262 28.2134L24.8852 27.2049Z" fill="#A91079" fill-opacity="0.7"/>
<path d="M21.8803 25.153C22.9144 25.153 23.7527 24.3698 23.7527 23.4037C23.7527 22.4375 22.9144 21.6543 21.8803 21.6543C20.8461 21.6543 20.0078 22.4375 20.0078 23.4037C20.0078 24.3698 20.8461 25.153 21.8803 25.153Z" fill="#A91079" fill-opacity="0.7"/>
</svg>
