<svg width="33" height="32" viewBox="0 0 33 32" fill="none" xmlns="http://www.w3.org/2000/svg">
<rect x="0.828125" width="32" height="32" rx="16" fill="#8A39E1" fill-opacity="0.1"/>
<path d="M15.5611 2.38844C15.4872 2.2281 15.3528 2.10354 15.1874 2.04196C15.0219 1.98038 14.8388 1.98679 14.678 2.05979L10.3884 4.02343C10.2281 4.09737 10.1035 4.23176 10.042 4.39723C9.98038 4.56271 9.98679 4.74583 10.0598 4.9066L12.0233 9.19615C12.0972 9.35651 12.2316 9.48109 12.3971 9.54267C12.5626 9.60425 12.7457 9.59783 12.9065 9.52479L17.1961 7.56115C17.3565 7.48724 17.4811 7.35286 17.5427 7.18737C17.6043 7.02188 17.5978 6.83875 17.5248 6.67798L15.5611 2.38844ZM13.9947 6.23305C13.9075 6.27296 13.8104 6.28611 13.7158 6.27086C13.6211 6.2556 13.5331 6.21262 13.4629 6.14735C13.3927 6.08208 13.3434 5.99745 13.3212 5.90416C13.2991 5.81088 13.3051 5.71312 13.3386 5.62326C13.372 5.53341 13.4313 5.45548 13.5091 5.39934C13.5868 5.34319 13.6794 5.31136 13.7752 5.30786C13.871 5.30436 13.9657 5.32935 14.0473 5.37967C14.1289 5.42999 14.1938 5.50338 14.2337 5.59056C14.2602 5.64843 14.275 5.71097 14.2774 5.77459C14.2797 5.83821 14.2695 5.90166 14.2473 5.96132C14.2251 6.02099 14.1913 6.0757 14.148 6.12232C14.1047 6.16894 14.0526 6.20657 13.9947 6.23305Z" fill="#8A39E1"/>
<path d="M17.0657 5.94922C16.8891 5.94975 16.72 6.02012 16.5951 6.14495C16.4703 6.26978 16.3999 6.43894 16.3994 6.61548V11.333C16.3999 11.5096 16.4703 11.6788 16.5951 11.8036C16.7199 11.9285 16.8891 11.9989 17.0657 11.9994H21.7833C21.9599 11.9989 22.1291 11.9285 22.2539 11.8036C22.3788 11.6788 22.4491 11.5096 22.4496 11.333V6.61548C22.4491 6.43894 22.3787 6.26978 22.2539 6.14495C22.129 6.02012 21.9599 5.94975 21.7833 5.94922H17.0657ZM18.6078 11.171C18.4966 11.171 18.388 11.138 18.2955 11.0763C18.2031 11.0145 18.1311 10.9267 18.0886 10.8241C18.046 10.7214 18.0349 10.6084 18.0566 10.4994C18.0783 10.3903 18.1318 10.2902 18.2104 10.2116C18.289 10.133 18.3891 10.0795 18.4981 10.0578C18.6071 10.0361 18.7201 10.0473 18.8228 10.0898C18.9255 10.1323 19.0133 10.2044 19.075 10.2968C19.1368 10.3892 19.1697 10.4978 19.1697 10.609C19.1697 10.6829 19.1552 10.756 19.1269 10.8242C19.0986 10.8924 19.0572 10.9544 19.0049 11.0066C18.9527 11.0588 18.8906 11.1002 18.8224 11.1284C18.7541 11.1566 18.681 11.1711 18.6071 11.171H18.6078ZM18.6078 9.53623C18.4966 9.53638 18.3879 9.50356 18.2954 9.44192C18.2029 9.38029 18.1307 9.2926 18.0881 9.18995C18.0454 9.08731 18.0341 8.97432 18.0557 8.86527C18.0773 8.75622 18.1307 8.65601 18.2092 8.57732C18.2877 8.49863 18.3878 8.44499 18.4968 8.42319C18.6058 8.40139 18.7188 8.4124 18.8215 8.45483C18.9243 8.49727 19.0121 8.56922 19.074 8.66159C19.1358 8.75395 19.1689 8.86259 19.169 8.97374C19.1691 9.04758 19.1546 9.1207 19.1264 9.18893C19.0982 9.25716 19.0568 9.31917 19.0046 9.37141C18.9524 9.42364 18.8905 9.46509 18.8223 9.49337C18.7541 9.52165 18.681 9.53621 18.6071 9.53623H18.6078ZM18.6078 7.90148C18.4966 7.90163 18.3879 7.8688 18.2953 7.80714C18.2028 7.74548 18.1307 7.65777 18.088 7.55509C18.0454 7.45242 18.0341 7.3394 18.0557 7.23033C18.0773 7.12127 18.1308 7.02106 18.2094 6.94239C18.2879 6.86372 18.3881 6.81013 18.4971 6.78838C18.6061 6.76663 18.7192 6.77772 18.8219 6.82023C18.9246 6.86274 19.0124 6.93477 19.0742 7.02721C19.136 7.11964 19.169 7.22832 19.169 7.33951C19.169 7.48853 19.1098 7.63145 19.0044 7.73684C18.8991 7.84223 18.7562 7.90145 18.6071 7.90148H18.6078ZM20.2425 11.171C20.1314 11.171 20.0227 11.138 19.9303 11.0763C19.8379 11.0145 19.7658 10.9267 19.7233 10.8241C19.6808 10.7214 19.6696 10.6084 19.6913 10.4994C19.713 10.3903 19.7665 10.2902 19.8451 10.2116C19.9237 10.133 20.0239 10.0795 20.1329 10.0578C20.2419 10.0361 20.3549 10.0473 20.4576 10.0898C20.5603 10.1323 20.648 10.2044 20.7098 10.2968C20.7715 10.3892 20.8045 10.4978 20.8045 10.609C20.8045 10.6829 20.7899 10.756 20.7617 10.8242C20.7334 10.8924 20.6919 10.9544 20.6397 11.0066C20.5874 11.0588 20.5254 11.1002 20.4571 11.1284C20.3889 11.1566 20.3157 11.1711 20.2419 11.171H20.2425ZM20.2425 9.53623C20.1314 9.53623 20.0227 9.50327 19.9303 9.44152C19.8379 9.37977 19.7658 9.292 19.7233 9.18931C19.6808 9.08662 19.6696 8.97363 19.6913 8.86461C19.713 8.7556 19.7665 8.65547 19.8451 8.57687C19.9237 8.49828 20.0239 8.44475 20.1329 8.42307C20.2419 8.40139 20.3549 8.41251 20.4576 8.45505C20.5603 8.49758 20.648 8.56962 20.7098 8.66203C20.7715 8.75445 20.8045 8.8631 20.8045 8.97425C20.8045 9.0481 20.7899 9.12123 20.7617 9.18946C20.7334 9.25768 20.6919 9.31966 20.6397 9.37185C20.5874 9.42405 20.5254 9.46543 20.4571 9.49363C20.3889 9.52184 20.3157 9.53631 20.2419 9.53623H20.2425ZM20.2425 7.90148C20.1314 7.90148 20.0227 7.86852 19.9303 7.80677C19.8379 7.74502 19.7658 7.65725 19.7233 7.55456C19.6808 7.45188 19.6696 7.33888 19.6913 7.22987C19.713 7.12085 19.7665 7.02072 19.8451 6.94213C19.9237 6.86353 20.0239 6.81001 20.1329 6.78832C20.2419 6.76664 20.3549 6.77777 20.4576 6.8203C20.5603 6.86284 20.648 6.93487 20.7098 7.02729C20.7715 7.1197 20.8045 7.22836 20.8045 7.33951C20.8045 7.41336 20.7899 7.48649 20.7617 7.55471C20.7334 7.62294 20.6919 7.68492 20.6397 7.73711C20.5874 7.7893 20.5254 7.83068 20.4571 7.85889C20.3889 7.88709 20.3157 7.90157 20.2419 7.90148H20.2425Z" fill="#8A39E1"/>
<path d="M26.5598 22.8156C26.5215 23.1683 26.5033 23.5247 26.4399 23.8728C26.3756 24.3184 26.2724 24.7574 26.1313 25.1848C26.0216 25.5331 25.7889 25.8294 25.4766 26.0187C25.1644 26.2079 24.794 26.277 24.4345 26.2132C24.1972 26.1736 23.9705 26.0855 23.7687 25.9543C23.0765 25.4995 22.4469 24.956 21.896 24.3376C21.5482 23.9749 21.2179 23.5956 20.8826 23.2212C20.7526 23.0678 20.5903 22.945 20.4073 22.8616C20.2243 22.7783 20.0252 22.7365 19.8241 22.7392H13.7531C13.5457 22.7356 13.3402 22.7788 13.1518 22.8656C12.9633 22.9523 12.7969 23.0805 12.6649 23.2404C11.9536 24.0983 11.1641 24.8881 10.3065 25.5996C10.1276 25.7414 9.93437 25.8652 9.74417 25.9925C9.55558 26.1121 9.34358 26.19 9.12242 26.2209C8.90125 26.2518 8.67603 26.2351 8.46187 26.1718C8.2477 26.1085 8.04955 26.0002 7.88069 25.854C7.71184 25.7079 7.5762 25.5273 7.48287 25.3244C7.29188 24.8867 7.17209 24.4213 7.12804 23.9458C6.84943 21.947 7.02686 19.9111 7.64701 17.9906C7.9703 16.9572 8.45216 15.9803 9.07536 15.0948C9.59012 14.2749 10.3916 13.6759 11.3237 13.4144C12.2558 13.1529 13.2519 13.2477 14.118 13.6802C14.4894 13.8453 14.8468 14.0399 15.1871 14.2622C15.5481 14.5043 15.9727 14.6341 16.4074 14.6352C16.6428 14.6329 16.8787 14.6309 17.1137 14.6352C17.5811 14.6433 18.0388 14.5009 18.4192 14.2292C19.1397 13.7203 19.9777 13.4028 20.8545 13.3064C21.4878 13.2345 22.1289 13.3279 22.7154 13.5776C23.3018 13.8273 23.8135 14.2247 24.2005 14.7311C25.0196 15.7583 25.6259 16.9383 25.9843 18.2022C26.2862 19.1748 26.4685 20.1806 26.5269 21.1973C26.5345 21.2659 26.5455 21.3342 26.56 21.4018L26.5598 22.8156ZM11.7369 19.0314C11.7369 19.4314 11.7295 19.8004 11.7428 20.1681C11.747 20.2121 11.7606 20.2546 11.7826 20.293C11.8045 20.3314 11.8344 20.3646 11.8701 20.3906C12.0209 20.4739 12.1888 20.5218 12.3608 20.5306C12.5329 20.5395 12.7047 20.509 12.8633 20.4416C12.9379 20.428 13.0042 20.3858 13.048 20.324C13.0919 20.2622 13.1098 20.1857 13.098 20.1108C13.079 19.7572 13.0926 19.4017 13.0926 19.0318C13.5102 19.0318 13.9039 19.0349 14.2974 19.0284C14.3293 19.0285 14.3608 19.0218 14.3899 19.0087C14.419 18.9956 14.4449 18.9765 14.466 18.9525C14.5678 18.79 14.6264 18.6041 14.6361 18.4126C14.6457 18.2211 14.6062 18.0302 14.5212 17.8583C14.4978 17.7939 14.4532 17.7393 14.3946 17.7036C14.3361 17.6679 14.2671 17.6532 14.1991 17.6619C13.8518 17.6764 13.504 17.6663 13.1461 17.6663C13.1461 17.2595 13.1511 16.8787 13.141 16.4984C13.138 16.4618 13.1266 16.4265 13.1077 16.3951C13.0888 16.3638 13.063 16.3372 13.0321 16.3174C12.6823 16.1726 12.2926 16.1557 11.9315 16.2698C11.9071 16.2737 11.8838 16.2824 11.8628 16.2955C11.8418 16.3086 11.8237 16.3257 11.8094 16.3459C11.7952 16.3661 11.7851 16.389 11.7799 16.4131C11.7746 16.4373 11.7743 16.4622 11.7788 16.4865C11.7862 16.8729 11.7815 17.2594 11.7815 17.6664C11.3697 17.6664 10.977 17.6696 10.5845 17.6641C10.5411 17.6576 10.4969 17.6667 10.4596 17.6897C10.4223 17.7127 10.3943 17.7482 10.3807 17.7899C10.3072 17.9596 10.2685 18.1424 10.267 18.3273C10.2654 18.5122 10.301 18.6956 10.3717 18.8665C10.3869 18.9213 10.4215 18.9686 10.4691 18.9997C10.5166 19.0308 10.5739 19.0435 10.6301 19.0353C10.9912 19.0243 11.3527 19.0314 11.7369 19.0314ZM22.164 18.092C22.1654 18.3009 22.2288 18.5048 22.3462 18.6777C22.4635 18.8506 22.6295 18.9848 22.8231 19.0633C23.0167 19.1418 23.2293 19.1612 23.4339 19.1189C23.6386 19.0766 23.826 18.9745 23.9726 18.8256C24.1192 18.6767 24.2184 18.4877 24.2575 18.2825C24.2967 18.0772 24.2741 17.865 24.1926 17.6726C24.111 17.4802 23.9743 17.3163 23.7996 17.2016C23.6249 17.087 23.4201 17.0267 23.2112 17.0285C22.9314 17.031 22.664 17.1443 22.4677 17.3437C22.2714 17.5431 22.1621 17.8122 22.164 18.092ZM21.6362 16.5378C21.6385 16.3289 21.5789 16.1241 21.4648 15.9491C21.3507 15.7741 21.1873 15.6369 20.9953 15.5548C20.8032 15.4727 20.5912 15.4494 20.3859 15.4878C20.1806 15.5263 19.9913 15.6247 19.8419 15.7707C19.6925 15.9167 19.5898 16.1038 19.5468 16.3081C19.5037 16.5125 19.5222 16.7251 19.6 16.9189C19.6777 17.1128 19.8112 17.2793 19.9835 17.3973C20.1559 17.5153 20.3593 17.5795 20.5682 17.5819C20.7069 17.5836 20.8446 17.5579 20.9734 17.5064C21.1022 17.4548 21.2195 17.3783 21.3187 17.2814C21.4179 17.1844 21.497 17.0688 21.5515 16.9412C21.606 16.8136 21.6347 16.6765 21.6362 16.5378ZM20.5749 20.4951C20.7841 20.4962 20.9889 20.4352 21.1633 20.3198C21.3378 20.2043 21.474 20.0397 21.5548 19.8467C21.6356 19.6538 21.6573 19.4412 21.6172 19.2359C21.577 19.0306 21.4768 18.8419 21.3292 18.6936C21.1817 18.5453 20.9934 18.4442 20.7883 18.403C20.5832 18.3618 20.3705 18.3825 20.1772 18.4623C19.9838 18.5422 19.8185 18.6777 19.7022 18.8516C19.586 19.0254 19.5239 19.2299 19.524 19.4391C19.5231 19.5776 19.5496 19.715 19.602 19.8432C19.6544 19.9714 19.7317 20.088 19.8294 20.1861C19.9271 20.2843 20.0433 20.3622 20.1712 20.4152C20.2992 20.4682 20.4364 20.4954 20.5749 20.4951Z" fill="#8A39E1" fill-opacity="0.5" stroke="#8A39E1" stroke-opacity="0.7" stroke-width="0.314" stroke-linecap="round" stroke-linejoin="round"/>
<path d="M11.8447 18.9317C11.8447 19.2715 11.8385 19.5849 11.8497 19.8977C11.8533 19.9351 11.8649 19.9713 11.8835 20.0039C11.9022 20.0365 11.9276 20.0647 11.9579 20.0868C12.0861 20.1576 12.2288 20.1983 12.375 20.2058C12.5213 20.2133 12.6673 20.1874 12.8021 20.1301C12.8654 20.1186 12.9218 20.0827 12.9591 20.0302C12.9963 19.9776 13.0116 19.9126 13.0015 19.849C12.985 19.5483 12.9969 19.2462 12.9969 18.9319C13.3519 18.9319 13.6865 18.9346 14.0209 18.9289C14.048 18.9291 14.0748 18.9234 14.0995 18.9123C14.1243 18.9011 14.1463 18.8848 14.1642 18.8644C14.2507 18.7264 14.3004 18.5684 14.3086 18.4057C14.3168 18.243 14.2832 18.0808 14.2111 17.9347C14.1912 17.88 14.1533 17.8336 14.1035 17.8032C14.0537 17.7729 13.9951 17.7604 13.9373 17.7679C13.6424 17.7801 13.3466 17.7716 13.0423 17.7716C13.0423 17.4258 13.0466 17.1023 13.0381 16.7793C13.0355 16.7483 13.0258 16.7182 13.0098 16.6916C12.9937 16.6649 12.9717 16.6423 12.9455 16.6255C12.6482 16.5024 12.317 16.4881 12.0101 16.585C11.9894 16.5883 11.9695 16.5958 11.9517 16.6069C11.9338 16.618 11.9184 16.6326 11.9063 16.6497C11.8942 16.6669 11.8857 16.6863 11.8812 16.7069C11.8768 16.7274 11.8765 16.7486 11.8804 16.7693C11.8867 17.0976 11.8827 17.4261 11.8827 17.7719C11.5327 17.7719 11.199 17.7747 10.8656 17.7701C10.8287 17.7645 10.7911 17.7721 10.7594 17.7917C10.7276 17.8113 10.7039 17.8415 10.6924 17.8769C10.6299 18.0212 10.5971 18.1765 10.5957 18.3337C10.5944 18.4908 10.6247 18.6467 10.6848 18.7919C10.6977 18.8384 10.7271 18.8787 10.7675 18.9051C10.8079 18.9315 10.8566 18.9423 10.9044 18.9354C11.2106 18.9256 11.5183 18.9317 11.8447 18.9317Z" fill="#8A39E1"/>
<path d="M22.4629 18.0913C22.4639 18.2404 22.5092 18.3859 22.593 18.5094C22.6767 18.6328 22.7952 18.7286 22.9334 18.7847C23.0717 18.8408 23.2234 18.8546 23.3695 18.8244C23.5156 18.7942 23.6494 18.7213 23.7541 18.6151C23.8588 18.5088 23.9296 18.3738 23.9575 18.2273C23.9855 18.0808 23.9693 17.9292 23.9111 17.7919C23.8529 17.6545 23.7553 17.5375 23.6306 17.4557C23.5059 17.3738 23.3597 17.3308 23.2105 17.3321C23.0108 17.3338 22.8199 17.4148 22.6797 17.5571C22.5396 17.6994 22.4616 17.8915 22.4629 18.0913Z" fill="#8A39E1"/>
<path d="M21.3267 16.5337C21.3284 16.3861 21.2863 16.2414 21.2057 16.1179C21.1251 15.9943 21.0097 15.8974 20.8741 15.8394C20.7384 15.7814 20.5887 15.7649 20.4437 15.792C20.2986 15.8192 20.1649 15.8887 20.0595 15.9918C19.954 16.0949 19.8814 16.227 19.851 16.3714C19.8206 16.5157 19.8336 16.6658 19.8885 16.8028C19.9434 16.9397 20.0377 17.0573 20.1594 17.1406C20.2811 17.224 20.4249 17.2693 20.5724 17.271C20.6703 17.2722 20.7676 17.2541 20.8585 17.2177C20.9495 17.1813 21.0324 17.1273 21.1025 17.0588C21.1725 16.9903 21.2284 16.9087 21.2669 16.8185C21.3053 16.7284 21.3257 16.6316 21.3267 16.5337Z" fill="#8A39E1"/>
<path d="M20.58 20.1497C20.7209 20.1504 20.8589 20.1093 20.9764 20.0315C21.0939 19.9537 21.1856 19.8428 21.24 19.7129C21.2944 19.5829 21.309 19.4397 21.282 19.3014C21.2549 19.1631 21.1874 19.036 21.0879 18.9361C20.9885 18.8363 20.8617 18.7682 20.7236 18.7405C20.5854 18.7127 20.4421 18.7267 20.3119 18.7805C20.1817 18.8343 20.0704 18.9256 19.9921 19.0427C19.9138 19.1599 19.872 19.2976 19.8721 19.4385C19.8715 19.5318 19.8893 19.6243 19.9247 19.7107C19.96 19.797 20.0121 19.8755 20.0779 19.9416C20.1437 20.0077 20.2219 20.0602 20.3081 20.0959C20.3943 20.1316 20.4867 20.1499 20.58 20.1497Z" fill="#8A39E1"/>
</svg>
