<svg width="32" height="32" viewBox="0 0 32 32" fill="none" xmlns="http://www.w3.org/2000/svg">
<rect x="-0.000976562" width="32" height="32" rx="16" fill="#0F82D6" fill-opacity="0.1"/>
<path d="M20.4126 8.5H11.5855C8.50016 8.5 5.99902 11.2986 5.99902 14.751V17.249C5.99902 20.7014 8.50016 23.5 11.5855 23.5H20.4126C23.4979 23.5 25.999 20.7014 25.999 17.249V14.751C25.999 11.2986 23.4979 8.5 20.4126 8.5Z" fill="#0F82D6"/>
<path d="M20.7235 18.141C21.7407 18.141 22.5652 17.2184 22.5652 16.0803C22.5652 14.9422 21.7407 14.0195 20.7235 14.0195C19.7064 14.0195 18.8818 14.9422 18.8818 16.0803C18.8818 17.2184 19.7064 18.141 20.7235 18.141Z" fill="white"/>
<path d="M15.997 18.141C17.0141 18.141 17.8386 17.2184 17.8386 16.0803C17.8386 14.9422 17.0141 14.0195 15.997 14.0195C14.9798 14.0195 14.1553 14.9422 14.1553 16.0803C14.1553 17.2184 14.9798 18.141 15.997 18.141Z" fill="white"/>
<path d="M11.2782 18.141C12.2953 18.141 13.1199 17.2184 13.1199 16.0803C13.1199 14.9422 12.2953 14.0195 11.2782 14.0195C10.2611 14.0195 9.43652 14.9422 9.43652 16.0803C9.43652 17.2184 10.2611 18.141 11.2782 18.141Z" fill="white"/>
</svg>
