<svg width="32" height="32" viewBox="0 0 32 32" fill="none" xmlns="http://www.w3.org/2000/svg">
<rect width="32" height="32" rx="16" fill="#810955" fill-opacity="0.1"/>
<path d="M14.504 8.40619C14.5012 8.02485 14.6123 7.65128 14.8232 7.33273C15.0341 7.01419 15.3353 6.76498 15.6887 6.61665C16.042 6.46832 16.4317 6.42752 16.8084 6.49941C17.1851 6.57131 17.5319 6.75268 17.8049 7.02056C18.0779 7.28845 18.2649 7.63081 18.3421 8.00435C18.4194 8.37789 18.3834 8.76581 18.2388 9.11903C18.0943 9.47225 17.8476 9.77491 17.5299 9.98871C17.2123 10.2025 16.838 10.3178 16.4544 10.3201C15.9406 10.3232 15.4465 10.1233 15.0808 9.76443C14.7151 9.40557 14.5076 8.91704 14.504 8.40619Z" fill="#810955" fill-opacity="0.7"/>
<path d="M16.0965 5.54317C16.0965 5.47719 16.0943 5.41108 16.0972 5.34535C16.0962 5.30103 16.104 5.25694 16.1201 5.2156C16.1362 5.17426 16.1604 5.13648 16.1912 5.10442C16.222 5.07236 16.2588 5.04665 16.2996 5.02874C16.3404 5.01084 16.3844 5.00111 16.4289 5.00009C16.4735 4.99907 16.5179 5.0068 16.5595 5.02282C16.601 5.03884 16.639 5.06285 16.6713 5.09347C16.7035 5.12409 16.7294 5.16073 16.7474 5.20129C16.7654 5.24185 16.7752 5.28554 16.7762 5.32986C16.7852 5.47098 16.7859 5.6125 16.7783 5.7537C16.7699 5.97405 16.6579 6.12062 16.4305 6.11634C16.203 6.11206 16.0979 5.9631 16.0963 5.74111C16.0958 5.67513 16.0962 5.60915 16.0965 5.54317Z" fill="#810955" fill-opacity="0.7"/>
<path d="M18.6827 5.89453C18.7271 5.93004 18.8561 5.98532 18.8963 6.07862C18.9169 6.13315 18.9256 6.19142 18.9218 6.24955C18.9179 6.30768 18.9017 6.36432 18.874 6.4157C18.7701 6.5728 18.6349 6.70713 18.4769 6.81045C18.4202 6.83797 18.3585 6.85345 18.2955 6.8559C18.2326 6.85835 18.1698 6.84771 18.1112 6.82468C18.0669 6.79313 18.03 6.75248 18.0029 6.70549C17.9758 6.65849 17.9592 6.60626 17.9541 6.55232C17.9286 6.33939 18.3897 5.89365 18.6827 5.89453Z" fill="#810955" fill-opacity="0.7"/>
<path d="M13.5499 8.73295C13.4836 8.73295 13.417 8.73622 13.3509 8.73194C13.3058 8.73312 13.2609 8.72537 13.2188 8.70914C13.1768 8.6929 13.1384 8.66851 13.1059 8.63737C13.0735 8.60624 13.0475 8.56899 13.0297 8.52779C13.0118 8.4866 13.0024 8.44229 13.002 8.39743C13.0015 8.35258 13.0101 8.30809 13.0271 8.26656C13.0441 8.22502 13.0693 8.18727 13.1011 8.1555C13.133 8.12374 13.1709 8.09859 13.2126 8.08153C13.2543 8.06447 13.2991 8.05584 13.3442 8.05614C13.4763 8.0467 13.6102 8.05237 13.7423 8.0535C13.9763 8.05564 14.1356 8.16229 14.1303 8.4043C14.1253 8.62995 13.9707 8.73169 13.749 8.7332C13.6826 8.7337 13.6162 8.73332 13.5499 8.73295Z" fill="#810955" fill-opacity="0.7"/>
<path d="M19.2645 8.73372C19.2076 8.73372 19.1505 8.73372 19.0939 8.73372C18.8593 8.73258 18.6999 8.62757 18.7042 8.38493C18.7082 8.15828 18.8629 8.05666 19.0842 8.05402C19.2074 8.05263 19.3306 8.05201 19.4539 8.05402C19.6755 8.05818 19.8265 8.16231 19.8296 8.38908C19.8328 8.61586 19.6869 8.72503 19.4637 8.73271C19.3974 8.73535 19.331 8.73346 19.2645 8.73372Z" fill="#810955" fill-opacity="0.7"/>
<path d="M14.9242 10.1773C14.9164 10.4575 14.4874 10.9037 14.2797 10.884C14.2216 10.8791 14.1653 10.8618 14.1146 10.8334C14.0639 10.8049 14.0199 10.7658 13.9857 10.7189C13.9635 10.6608 13.954 10.5986 13.9579 10.5366C13.9618 10.4745 13.979 10.414 14.0084 10.3591C14.1044 10.2079 14.2331 10.0798 14.3851 9.98422C14.4407 9.95515 14.5017 9.9377 14.5644 9.93296C14.6271 9.92822 14.69 9.93628 14.7495 9.95665C14.8403 9.99215 14.8902 10.1304 14.9242 10.1773Z" fill="#810955" fill-opacity="0.7"/>
<path d="M16.0961 11.232C16.0961 10.8257 16.195 10.6607 16.4381 10.6621C16.6811 10.6635 16.7801 10.8298 16.7801 11.235C16.7801 11.2821 16.7792 11.3293 16.7801 11.3764C16.7839 11.6046 16.6938 11.7658 16.4491 11.7884C16.2371 11.8081 16.1035 11.6425 16.0961 11.3729C16.0951 11.3262 16.0963 11.2791 16.0961 11.232Z" fill="#810955" fill-opacity="0.7"/>
<path d="M14.6195 6.8827C14.3402 6.87275 13.8912 6.44199 13.9129 6.23839C13.9192 6.18078 13.9374 6.12509 13.9663 6.07479C13.9953 6.02448 14.0343 5.98065 14.0811 5.94601C14.1343 5.92204 14.1923 5.9105 14.2507 5.91229C14.3091 5.91408 14.3663 5.92915 14.418 5.95634C14.5819 6.06733 14.7236 6.20768 14.8359 6.37022C14.8624 6.42255 14.8769 6.48001 14.8785 6.53854C14.8801 6.59707 14.8688 6.65525 14.8453 6.70894C14.8008 6.79985 14.6685 6.84807 14.6195 6.8827Z" fill="#810955" fill-opacity="0.7"/>
<path d="M18.9499 10.5521C18.9532 10.6087 18.9414 10.6653 18.9157 10.7159C18.89 10.7666 18.8512 10.8096 18.8034 10.8405C18.7555 10.8715 18.7003 10.8893 18.6432 10.8921C18.5862 10.895 18.5295 10.8828 18.4787 10.8568C18.2894 10.7337 18.1263 10.5746 17.9988 10.3888C17.9681 10.3378 17.9523 10.2793 17.9532 10.2199C17.954 10.1605 17.9714 10.1025 18.0036 10.0524C18.0357 10.0023 18.0812 9.96203 18.135 9.93618C18.1888 9.91033 18.2488 9.89988 18.3082 9.906C18.4579 9.95745 18.5937 10.0425 18.705 10.1545C18.8162 10.2666 18.9 10.4026 18.9499 10.5521Z" fill="#810955" fill-opacity="0.7"/>
<path d="M17.1829 17.5747C17.1829 17.6218 17.1643 17.6671 17.1311 17.7005C17.0979 17.7339 17.0529 17.7529 17.0058 17.7532L12.4935 17.7682C12.3795 17.7629 12.2695 17.7247 12.1765 17.6584L11.5825 17.1876C11.5647 17.175 11.5502 17.1583 11.5401 17.139C11.53 17.1197 11.5246 17.0982 11.5244 17.0764C11.5242 17.0546 11.5292 17.0331 11.5389 17.0135C11.5487 16.994 11.5629 16.9771 11.5805 16.9642L12.1742 16.4755C12.2657 16.4075 12.3753 16.368 12.4891 16.362L17.0014 16.3477C17.0485 16.3476 17.0937 16.3663 17.1271 16.3995C17.1605 16.4328 17.1794 16.4779 17.1797 16.5251L17.1829 17.5747Z" fill="#810955" fill-opacity="0.8"/>
<path d="M11.4477 19.5497C11.4479 19.5968 11.4668 19.6419 11.5002 19.6752C11.5336 19.7084 11.5788 19.7271 11.6258 19.7271L16.1381 19.7128C16.2521 19.7067 16.3619 19.6679 16.4544 19.601L17.0455 19.1265C17.0632 19.1138 17.0776 19.0971 17.0876 19.0777C17.0976 19.0583 17.1028 19.0368 17.1029 19.015C17.1029 18.9932 17.0978 18.9717 17.0879 18.9523C17.0781 18.9328 17.0637 18.916 17.0461 18.9032L16.4494 18.4183C16.3574 18.3508 16.2476 18.312 16.1337 18.3066L11.6214 18.3209C11.5743 18.3212 11.5293 18.3402 11.4961 18.3736C11.4629 18.4071 11.4443 18.4524 11.4443 18.4995L11.4477 19.5497Z" fill="#810955" fill-opacity="0.8"/>
<path d="M14.3372 19.7012H14.3013C14.2083 19.7012 14.1328 19.7768 14.1328 19.8701V25.3394C14.1328 25.4327 14.2083 25.5083 14.3013 25.5083H14.3372C14.4303 25.5083 14.5057 25.4327 14.5057 25.3394V19.8701C14.5057 19.7768 14.4303 19.7012 14.3372 19.7012Z" fill="#810955" fill-opacity="0.7"/>
<path d="M5 26.1745V25.5083C5.47716 25.5083 22.3502 25.5347 22.8275 25.5347V24.0645H24.2549V25.5262H27.1043V26.5003C24.2514 26.5004 8.03684 26.1745 5 26.1745Z" fill="#810955" fill-opacity="0.7"/>
<path d="M20.4021 19.249C20.267 19.013 20.1466 18.7688 20.0417 18.5178C19.9012 18.1162 19.9156 17.6765 20.082 17.2849C20.2484 16.8934 20.5548 16.5783 20.9412 16.4014C21.059 16.3452 21.1798 16.2954 21.303 16.2523C21.3331 16.2459 21.3599 16.2289 21.3787 16.2044C21.3974 16.18 21.4069 16.1496 21.4053 16.1188C21.42 15.7762 21.5156 15.4419 21.6843 15.1436C21.853 14.8452 22.0899 14.5912 22.3757 14.4024C22.677 14.2043 23.0236 14.0861 23.3831 14.0588C23.7425 14.0316 24.1029 14.0962 24.4306 14.2466C24.7583 14.3971 25.0425 14.6284 25.2565 14.919C25.4706 15.2095 25.6075 15.5498 25.6545 15.9078C25.65 16.0025 25.678 16.096 25.7338 16.1726C25.7896 16.2492 25.8698 16.3044 25.9612 16.3291C26.1817 16.3986 26.3845 16.5151 26.5558 16.6704C26.7272 16.8258 26.8629 17.0165 26.9539 17.2293C27.0722 17.4908 27.1257 17.7771 27.1099 18.0638C27.0941 18.3505 27.0093 18.6292 26.8629 18.876C26.7926 18.9996 26.7126 19.1175 26.6382 19.2354C26.8207 19.3859 27.0107 19.522 27.176 19.6839C27.4564 19.9401 27.6584 20.271 27.7584 20.6378C27.8584 21.0047 27.8523 21.3924 27.7409 21.7559C27.6518 22.1212 27.4643 22.4548 27.1987 22.7205C26.9332 22.9862 26.5999 23.1736 26.2352 23.2624C26.0402 23.3143 25.839 23.3396 25.6371 23.3377C24.2386 23.3439 22.8398 23.3448 21.4408 23.3403C20.9508 23.3559 20.4705 23.2018 20.0807 22.9039C19.6909 22.6061 19.4155 22.1828 19.3008 21.7053C19.2084 21.3555 19.211 20.9872 19.3086 20.6388C19.4061 20.2904 19.5949 19.9745 19.8555 19.7239C20.0255 19.5487 20.2253 19.4014 20.4021 19.249Z" fill="#810955" fill-opacity="0.7"/>
<path d="M18.5737 24.9785H15.5273V25.2062H18.5737V24.9785Z" fill="#810955" fill-opacity="0.7"/>
<path d="M19.4116 22.9148H19.0393L17.0357 21.3681L15.0334 22.9148H14.6611L16.8502 21.2241L17.0357 21.0801L17.2225 21.2241L19.4116 22.9148Z" fill="#810955" fill-opacity="0.8"/>
<path d="M17.0589 21.4766L15.5273 22.6142H18.5737L17.0589 21.4766ZM16.7383 22.4444V21.9034H17.3544V22.4444H16.7383Z" fill="#810955" fill-opacity="0.7"/>
<path d="M17.0278 21.9512H17.0039V22.1371H17.0278V21.9512Z" stroke="#810955" stroke-opacity="0.7" stroke-width="0.1" stroke-linecap="round" stroke-linejoin="round"/>
<path d="M15.5273 22.7031V24.8886H18.5737V22.7031H15.5273ZM17.5315 24.7746H16.5694V23.4641H17.5315V24.7746Z" fill="#810955" fill-opacity="0.7"/>
<path d="M10.1358 23.4543C9.91157 23.4639 9.68697 23.4574 9.46371 23.4347C9.34441 23.416 9.23001 23.3737 9.1272 23.3103C9.02438 23.2468 8.9352 23.1635 8.86484 23.0652C8.83346 23.0295 8.78946 23.0076 8.74217 23.0039C8.53997 22.9975 8.33735 22.9996 8.13493 23.0022C8.08783 23.0033 8.04117 23.0116 7.99659 23.0269C7.67355 23.1361 7.35093 23.2467 7.02874 23.3587C6.87742 23.4111 6.84372 23.4809 6.89534 23.6347C6.99912 23.9436 7.1014 24.2529 7.20916 24.5603C7.22503 24.5981 7.23011 24.6396 7.22382 24.6801C7.21752 24.7207 7.20011 24.7586 7.17352 24.7898C7.07886 24.9126 6.99172 25.0413 6.89717 25.1641C6.8756 25.1928 6.84365 25.2119 6.80819 25.2172C6.48869 25.2208 6.16919 25.2193 5.84968 25.2187C5.8381 25.217 5.82673 25.214 5.81577 25.2098V22.2285L5.51419 22.1777V25.2196C5.40375 25.2196 5.30072 25.2189 5.1978 25.2196C5.07888 25.2205 5.00902 25.2775 5.00891 25.372C5.00763 25.4025 5.01659 25.4326 5.03437 25.4574C5.05215 25.4823 5.07772 25.5005 5.107 25.5091H8.91174C8.88502 25.4538 8.85808 25.3986 8.83168 25.3434C8.81683 25.303 8.78894 25.2688 8.75246 25.2462C8.71597 25.2236 8.67299 25.2138 8.63034 25.2185C8.54834 25.2229 8.46592 25.2194 8.38349 25.2194C8.28862 25.2194 8.19364 25.2169 8.09887 25.2203C8.048 25.2223 8.02729 25.2044 8.01688 25.154C7.9483 24.8193 7.87542 24.4853 7.80631 24.1505C7.77797 24.0131 7.834 23.9422 7.97126 23.9394C8.28121 23.9331 8.59117 23.9267 8.90122 23.9254C9.00667 23.9202 9.11121 23.9471 9.2012 24.0024C9.29119 24.0577 9.36244 24.1389 9.40565 24.2354C9.61375 24.659 9.81895 25.0842 10.0246 25.5091H10.9185C10.7178 24.8681 10.5162 24.2273 10.3187 23.5854C10.3159 23.5644 10.3089 23.5443 10.2981 23.5261C10.2872 23.508 10.2728 23.4923 10.2556 23.48C10.2385 23.4677 10.219 23.4591 10.1984 23.4547C10.1778 23.4503 10.1564 23.4501 10.1358 23.4543Z" fill="#810955" fill-opacity="0.8"/>
<path d="M10.0673 20.5966C9.8205 20.5957 9.57366 20.5951 9.32681 20.5966C9.23463 20.593 9.14285 20.6108 9.05864 20.6485C8.97442 20.6863 8.90005 20.743 8.8413 20.8143C8.78256 20.8855 8.74103 20.9694 8.71995 21.0594C8.69887 21.1494 8.69882 21.2431 8.71979 21.3331C8.80876 21.7733 8.90975 22.2112 9.01536 22.6478C9.05039 22.796 9.13507 22.9276 9.25527 23.0207C9.37546 23.1139 9.52391 23.1629 9.67583 23.1596C9.8307 23.1631 9.98567 23.1596 10.1406 23.1596C10.2894 23.1596 10.438 23.1607 10.5867 23.1596C10.6837 23.1661 10.7807 23.1487 10.8694 23.1089C10.9581 23.0691 11.0358 23.0082 11.0955 22.9314C11.1553 22.8546 11.1954 22.7643 11.2123 22.6685C11.2292 22.5726 11.2224 22.474 11.1925 22.3814C11.1014 22.0097 11.0102 21.6379 10.9187 21.2662C10.8781 21.0721 10.7705 20.8985 10.6148 20.776C10.459 20.6536 10.2652 20.59 10.0673 20.5966Z" fill="#810955" fill-opacity="0.8"/>
<path d="M5.66428 21.8974C5.70707 21.9083 5.75118 21.9132 5.79532 21.9118C6.19371 21.9129 6.5922 21.9111 6.99069 21.9131C7.13049 21.9155 7.2679 21.8766 7.38575 21.8013C7.48986 21.7353 7.59611 21.6722 7.70193 21.6093C7.84682 21.5233 7.94384 21.5648 7.97765 21.7285C8.03914 22.0259 8.10182 22.3231 8.15902 22.621C8.17051 22.6811 8.19347 22.6989 8.25164 22.6977C8.40254 22.6945 8.55355 22.6967 8.71528 22.6967C8.64692 22.3909 8.58166 22.0985 8.5162 21.8061C8.48915 21.6857 8.46135 21.5655 8.43452 21.445C8.38898 21.2513 8.40347 21.0483 8.47606 20.8631C8.26627 20.8275 8.07762 20.7138 7.94781 20.5449C7.91669 20.5676 7.88889 20.5869 7.86195 20.6074C7.65589 20.7649 7.44929 20.9218 7.2443 21.0805C7.15455 21.152 7.04278 21.19 6.92812 21.188C6.54233 21.1861 6.1565 21.1861 5.77064 21.188C5.68356 21.1874 5.59918 21.2183 5.53298 21.275C5.46678 21.3317 5.42321 21.4104 5.41027 21.4966C5.39733 21.5829 5.41588 21.671 5.46252 21.7447C5.50916 21.8183 5.58076 21.8727 5.66417 21.8977L5.66428 21.8974Z" fill="#810955" fill-opacity="0.8"/>
<path d="M8.56392 19.5741C8.46196 19.5724 8.36203 19.6028 8.27814 19.6609C8.19425 19.719 8.13061 19.8019 8.09614 19.8981C8.06167 19.9942 8.05809 20.0988 8.08592 20.1971C8.11374 20.2954 8.17156 20.3825 8.25128 20.4462C8.35396 20.5278 8.48417 20.5665 8.61468 20.5542C8.645 20.5499 8.67332 20.5365 8.69603 20.516C8.87006 20.3653 9.09396 20.2851 9.32388 20.2912C9.62685 20.2957 9.9309 20.2878 10.2324 20.3121C10.3721 20.3348 10.5069 20.3811 10.6312 20.4491C10.6528 20.4631 10.6787 20.4691 10.7043 20.4661C10.7299 20.463 10.7537 20.4511 10.7715 20.4324C10.8461 20.3703 10.9003 20.287 10.9268 20.1934C10.9533 20.0999 10.9509 20.0005 10.92 19.9083C10.8875 19.8097 10.8243 19.7242 10.7398 19.6641C10.6553 19.604 10.5539 19.5725 10.4502 19.5742C10.1344 19.5706 9.81832 19.5733 9.50236 19.5733C9.18951 19.573 8.87666 19.5707 8.56392 19.5741Z" fill="#810955" fill-opacity="0.8"/>
<path d="M7.10794 19.111C7.32249 19.1125 7.53705 19.111 7.76523 19.111C7.74271 19.3034 7.78947 19.4975 7.89708 19.6584C7.95081 19.5677 8.02229 19.4888 8.10722 19.4264C8.19215 19.3641 8.28879 19.3196 8.39131 19.2957C8.49038 19.2774 8.59095 19.2685 8.69169 19.2691C8.87406 19.265 9.05708 19.268 9.24299 19.268C9.25508 19.0772 9.2535 18.8859 9.23827 18.6954C9.21059 18.5131 9.11482 18.3482 8.97036 18.2341C8.82591 18.1199 8.64357 18.0651 8.46029 18.0807C8.28207 18.0919 8.11392 18.1674 7.98689 18.2932C7.85985 18.4189 7.78253 18.5866 7.7692 18.765C7.76824 18.7744 7.7663 18.7836 7.76255 18.8068H7.4081C7.30705 18.8068 7.20588 18.8053 7.10483 18.8068C7.08346 18.8045 7.06186 18.8068 7.04144 18.8135C7.02103 18.8202 7.00226 18.8312 6.98636 18.8457C6.97047 18.8601 6.95781 18.8778 6.94922 18.8976C6.94064 18.9173 6.93631 18.9386 6.93653 18.9602C6.93675 18.9817 6.94151 19.003 6.95051 19.0225C6.9595 19.0421 6.97251 19.0595 6.9887 19.0737C7.00489 19.0878 7.02388 19.0984 7.04443 19.1047C7.06498 19.1109 7.08662 19.1128 7.10794 19.1101V19.111Z" fill="#810955" fill-opacity="0.8"/>
<path d="M5.80525 20.8719C5.80525 20.6813 5.81094 20.4829 5.80247 20.2853C5.80147 20.2668 5.79667 20.2487 5.78837 20.2322C5.78008 20.2156 5.76845 20.201 5.75424 20.1892C5.74002 20.1773 5.72352 20.1686 5.70577 20.1635C5.68802 20.1583 5.66941 20.1569 5.6511 20.1594C5.63203 20.1591 5.6131 20.1627 5.59542 20.1698C5.57774 20.177 5.56167 20.1876 5.54815 20.2011C5.53463 20.2146 5.52394 20.2307 5.51669 20.2483C5.50944 20.266 5.50579 20.285 5.50595 20.3041C5.50219 20.5124 5.50477 20.7208 5.50477 20.9278L5.80525 20.8719Z" fill="#810955" fill-opacity="0.8"/>
</svg>
