<svg width="32" height="32" viewBox="0 0 32 32" fill="none" xmlns="http://www.w3.org/2000/svg">
<rect width="32" height="32" rx="16" fill="#0093AB" fill-opacity="0.1"/>
<path d="M19.5422 7.36667C19.5074 7.13488 19.3787 6.91865 19.1758 6.75124C18.9728 6.58382 18.7068 6.47449 18.4188 6.44005C18.246 6.39678 17.6194 6.25827 17.5331 6.10254C17.5038 6.01853 17.4965 5.93058 17.5116 5.8442C17.5634 5.79396 17.6117 5.74148 17.6563 5.68699C17.3443 5.81135 17.0002 5.87513 16.6518 5.87319C16.3034 5.87124 15.9604 5.80362 15.6506 5.67578C15.6977 5.73428 15.7491 5.79052 15.8044 5.8442C15.8196 5.93058 15.8123 6.01853 15.783 6.10254C15.6967 6.25854 15.0701 6.39705 14.8973 6.44005C14.6092 6.47449 14.3433 6.58382 14.1403 6.75124C13.9373 6.91865 13.8086 7.13488 13.7739 7.36667L13.6387 8.1979C13.7307 8.29706 13.8532 8.37547 13.9942 8.42554C14.1352 8.4756 14.2899 8.49562 14.4434 8.48364C15.1193 8.71204 15.8432 8.83557 16.5766 8.84769C16.5973 8.84769 16.6593 8.84701 16.6593 8.84701C16.6593 8.84701 16.7201 8.84782 16.7408 8.84769C17.474 8.83559 18.1977 8.71206 18.8735 8.48364C19.0269 8.49562 19.1816 8.47561 19.3225 8.42554C19.4635 8.37548 19.5858 8.29706 19.6778 8.1979L19.5422 7.36667Z" fill="#0093AB" fill-opacity="0.7"/>
<path d="M16.654 5.61158C17.6478 5.61158 18.4534 4.86694 18.4534 3.94837C18.4534 3.0298 17.6478 2.28516 16.654 2.28516C15.6601 2.28516 14.8545 3.0298 14.8545 3.94837C14.8545 4.86694 15.6601 5.61158 16.654 5.61158Z" fill="#0093AB" fill-opacity="0.8"/>
<path d="M19.7995 4.60393C19.8134 4.59117 19.8242 4.57435 19.8311 4.55509C19.8379 4.53583 19.8406 4.51477 19.8387 4.49395C19.8336 4.467 19.8224 4.44226 19.8063 4.42251C19.7124 4.31482 19.6174 4.20867 19.5214 4.10405C19.4917 4.06972 19.4566 4.04284 19.4181 4.025C19.3797 4.00715 19.3386 3.99871 19.2974 4.00016C19.2562 4.00161 19.2156 4.01292 19.1781 4.03343C19.1406 4.05395 19.1069 4.08325 19.0789 4.11961C19.051 4.15597 19.0294 4.19866 19.0154 4.24518C19.0014 4.29169 18.9953 4.34109 18.9975 4.39046C18.9997 4.43984 19.01 4.4882 19.028 4.5327C19.046 4.5772 19.0712 4.61695 19.1021 4.64961C19.1951 4.75474 19.2892 4.85859 19.383 4.9627C19.3918 4.97513 19.4029 4.985 19.4153 4.99156C19.4278 4.99813 19.4413 5.00122 19.4549 5.00061C19.4685 4.99999 19.4818 4.99569 19.4938 4.98801C19.5057 4.98034 19.5161 4.96951 19.5241 4.95632C19.5431 4.9308 19.5561 4.9308 19.579 4.94892C19.6622 5.01424 19.7469 5.07651 19.8312 5.13953C19.8797 5.17602 19.8912 5.17526 19.9389 5.13468L20.143 5.37914C20.5686 5.89101 20.9938 6.40313 21.4185 6.91552C21.4277 6.93141 21.4354 6.94854 21.4413 6.96655C21.4575 6.99947 21.4528 7.04463 21.4898 7.06632C21.506 7.07576 21.5122 7.1074 21.5249 7.12705C21.5377 7.1467 21.5537 7.16303 21.5675 7.18191C21.5798 7.19855 21.5907 7.21648 21.6003 7.2355C21.6083 7.25943 21.6177 7.28263 21.6286 7.30491C21.6442 7.32989 21.6564 7.35772 21.6647 7.38733C21.672 7.41055 21.6871 7.42968 21.6954 7.45265C21.7023 7.47562 21.708 7.49905 21.7126 7.52282L21.7301 7.59197C21.7403 7.61795 21.746 7.64618 21.7467 7.6749C21.7473 7.6923 21.75 7.70949 21.7548 7.72594L21.7677 7.80019L21.7737 7.86704C21.775 7.89818 21.7756 7.92956 21.7737 7.96069L21.768 8.03724C21.7653 8.06263 21.7646 8.08825 21.7658 8.11379C21.7694 8.14669 21.769 8.18005 21.7646 8.2128C21.7632 8.24002 21.7645 8.26734 21.7684 8.2942L21.766 8.31563C21.7654 8.32583 21.7654 8.33606 21.766 8.34625L21.7714 8.36157C21.7635 8.39632 21.7628 8.43285 21.7694 8.46797C21.769 8.4937 21.7666 8.51932 21.7622 8.54452C21.7607 8.57463 21.7622 8.60474 21.7622 8.63791C21.7286 8.64659 21.7197 8.67619 21.7197 8.71778C21.7214 8.79306 21.7197 8.86859 21.7197 8.94412C21.7197 8.9607 21.7197 8.97499 21.7386 8.97678C21.8197 8.98392 21.9003 8.99234 21.9812 9L21.9969 8.99617V8.82904C21.9969 8.79127 21.9957 8.75248 21.9969 8.71574C21.9982 8.679 21.9906 8.64838 21.9612 8.63919C21.9591 8.60117 21.9557 8.56723 21.9552 8.53304C21.9552 8.50752 21.9586 8.48201 21.9603 8.45649V8.42918C21.9603 8.41898 21.9603 8.40852 21.9603 8.39831V8.37101V8.34345L21.9629 8.32303C21.9518 8.30721 21.9606 8.29445 21.9629 8.27863C21.9626 8.25045 21.9607 8.22232 21.9574 8.19443C21.9574 8.16891 21.9614 8.14339 21.9631 8.11788V8.09006V8.05995C21.9655 8.03574 21.966 8.01131 21.9648 7.98698C21.9618 7.95305 21.9618 7.91883 21.9648 7.88491C21.9635 7.85409 21.96 7.82346 21.9546 7.7933C21.9535 7.78284 21.9595 7.77085 21.9578 7.76089L21.9395 7.67159C21.9378 7.66138 21.9442 7.64862 21.9418 7.63867C21.9346 7.60958 21.9231 7.58177 21.9163 7.55242C21.9095 7.52308 21.9078 7.49679 21.9031 7.46898L21.8965 7.44576L21.8859 7.4131L21.8595 7.3294L21.8503 7.30388L21.8375 7.27326L21.8267 7.25285L21.8124 7.21993L21.8031 7.20182L21.7863 7.16686L21.7778 7.14696L21.7629 7.11608L21.7488 7.09056L21.736 7.06734L21.7207 7.04336L21.7052 7.01784L21.6896 6.99385L21.6875 6.98696L21.6335 6.92113L21.6279 6.91883C21.6045 6.85963 21.5592 6.85274 21.5124 6.84483C21.5007 6.84305 21.4898 6.82621 21.48 6.81421C21.0766 6.32939 20.6733 5.84457 20.2702 5.35974C20.1894 5.26227 20.1084 5.16497 20.0272 5.06783C20.0149 5.05303 20.0059 5.04231 20.0166 5.01833C20.021 5.00461 20.022 4.98967 20.0195 4.97528C20.017 4.96089 20.0111 4.94767 20.0025 4.93718C19.9387 4.83512 19.8761 4.73152 19.8131 4.62868L19.7995 4.60393Z" fill="#0093AB" fill-opacity="0.8"/>
<path d="M22.7461 8.29492H10.0518V8.74017H22.7461V8.29492Z" fill="white"/>
<path d="M22.7461 7.43359H10.0518V8.29343H22.7461V7.43359Z" fill="#0093AB" fill-opacity="0.7"/>
<path d="M10.9612 19.932V13.6493L10.0518 8.72266H22.7452L21.8358 13.6493V19.932H11.2919" fill="#0093AB" fill-opacity="0.7"/>
<path d="M20.9597 13.4844H11.5732V18.9738H20.9597V13.4844Z" fill="#0093AB" fill-opacity="0.7" stroke="#F8F8F8" stroke-width="0.1627" stroke-linecap="round" stroke-linejoin="round"/>
<path d="M15.7371 26.3777C15.6984 26.0791 15.5545 25.8005 15.3277 25.5848C15.1009 25.3691 14.8038 25.2283 14.4819 25.1839C14.2888 25.1281 13.5887 24.9497 13.4922 24.749C13.4595 24.6408 13.4513 24.5275 13.4682 24.4162C13.5261 24.3515 13.5801 24.2839 13.6299 24.2137C13.2813 24.3739 12.8968 24.4561 12.5075 24.4536C12.1181 24.451 11.7349 24.3639 11.3887 24.1992C11.4414 24.2746 11.4988 24.347 11.5607 24.4162C11.5776 24.5275 11.5694 24.6408 11.5367 24.749C11.4402 24.95 10.74 25.1285 10.547 25.1839C10.2251 25.2283 9.92794 25.3691 9.70115 25.5848C9.47436 25.8005 9.33052 26.0791 9.29174 26.3777L9.14062 27.4487C9.2435 27.5764 9.38033 27.6775 9.53787 27.742C9.69541 27.8065 9.8683 27.8323 10.0398 27.8168C10.7951 28.1111 11.604 28.2703 12.4235 28.2859C12.4466 28.2859 12.5158 28.285 12.5158 28.285C12.5158 28.285 12.5838 28.286 12.6069 28.2859C13.4262 28.2703 14.2349 28.1111 14.99 27.8168C15.1615 27.8323 15.3343 27.8065 15.4918 27.742C15.6492 27.6775 15.786 27.5764 15.8887 27.4487L15.7371 26.3777Z" fill="#0093AB" fill-opacity="0.7"/>
<path d="M12.5215 24.1271C13.6319 24.1271 14.5322 23.295 14.5322 22.2686C14.5322 21.2422 13.6319 20.4102 12.5215 20.4102C11.411 20.4102 10.5107 21.2422 10.5107 22.2686C10.5107 23.295 11.411 24.1271 12.5215 24.1271Z" fill="#0093AB" fill-opacity="0.7"/>
<path d="M23.9901 26.3777C23.9513 26.0791 23.8075 25.8005 23.5807 25.5848C23.3539 25.3691 23.0567 25.2283 22.7349 25.1839C22.5418 25.1281 21.8416 24.9497 21.7452 24.749C21.7124 24.6408 21.7042 24.5275 21.7212 24.4162C21.779 24.3515 21.833 24.2839 21.8828 24.2137C21.5342 24.3739 21.1497 24.4561 20.7604 24.4536C20.3711 24.451 19.9878 24.3639 19.6417 24.1992C19.6943 24.2746 19.7517 24.347 19.8136 24.4162C19.8305 24.5275 19.8223 24.6408 19.7896 24.749C19.6931 24.95 18.993 25.1285 18.7999 25.1839C18.478 25.2283 18.1809 25.3691 17.9541 25.5848C17.7273 25.8005 17.5834 26.0791 17.5447 26.3777L17.3936 27.4487C17.4964 27.5764 17.6333 27.6775 17.7908 27.742C17.9483 27.8065 18.1212 27.8323 18.2927 27.8168C19.0481 28.1111 19.8569 28.2703 20.6764 28.2859C20.6995 28.2859 20.7687 28.285 20.7687 28.285C20.7687 28.285 20.8368 28.286 20.8598 28.2859C21.6792 28.2703 22.4878 28.1111 23.243 27.8168C23.4144 27.8323 23.5872 27.8065 23.7447 27.742C23.9021 27.6775 24.0389 27.5764 24.1417 27.4487L23.9901 26.3777Z" fill="#0093AB" fill-opacity="0.7"/>
<path d="M20.7744 24.1271C21.8849 24.1271 22.7851 23.295 22.7851 22.2686C22.7851 21.2422 21.8849 20.4102 20.7744 20.4102C19.6639 20.4102 18.7637 21.2422 18.7637 22.2686C18.7637 23.295 19.6639 24.1271 20.7744 24.1271Z" fill="#0093AB" fill-opacity="0.7"/>
</svg>
