<svg width="32" height="32" viewBox="0 0 32 32" fill="none" xmlns="http://www.w3.org/2000/svg">
<rect x="-0.000976562" width="32" height="32" rx="16" fill="#E89600" fill-opacity="0.12"/>
<path d="M20.1937 9.90694C21.2726 9.90694 22.1472 9.03234 22.1472 7.95347C22.1472 6.8746 21.2726 6 20.1937 6C19.1148 6 18.2402 6.8746 18.2402 7.95347C18.2402 9.03234 19.1148 9.90694 20.1937 9.90694Z" fill="#E89600"/>
<path d="M24.9221 10.6388C24.4337 10.3946 23.8477 10.5655 23.6035 11.0539L22.7489 12.6655L18.9884 10.2969C18.8419 10.1992 18.671 10.1504 18.4757 10.1504H14.3245C13.9583 10.1504 13.6408 10.3457 13.4699 10.6632L11.8827 13.5934C11.6141 14.0573 11.8094 14.6678 12.2734 14.912C12.4199 14.9852 12.5908 15.0341 12.7373 15.0341C13.0792 15.0341 13.4211 14.8387 13.592 14.5213L14.9106 12.1039H16.3513L12.0292 20.1619H7.97576C7.43855 20.1619 6.99902 20.6015 6.99902 21.1387C6.99902 21.6759 7.43855 22.1154 7.97576 22.1154H12.6152C12.9815 22.1154 13.299 21.92 13.4699 21.6026L15.1792 18.4526L17.9873 21.0654L17.7675 25.9735C17.7187 26.5107 18.1338 26.9746 18.671 26.9991C18.6954 26.9991 18.6954 26.9991 18.7198 26.9991C19.2326 26.9991 19.6722 26.584 19.6966 26.0712L19.9408 20.6991C19.9652 20.4061 19.8431 20.1375 19.6233 19.9422L17.2547 17.7445L19.7454 13.105L22.5779 14.8876C22.7977 15.0341 23.0907 15.0829 23.3593 15.0096C23.6279 14.9364 23.8477 14.7655 23.9698 14.5213L25.3128 11.9573C25.5814 11.4934 25.4105 10.9074 24.9221 10.6388Z" fill="#E89600"/>
</svg>
