<svg width="32" height="32" viewBox="0 0 32 32" fill="none" xmlns="http://www.w3.org/2000/svg">
<rect x="-0.000976562" width="32" height="32" rx="16" fill="#A91010" fill-opacity="0.1"/>
<path d="M20.0822 21.2578H8.33691V26.0014H20.0822V21.2578Z" fill="#A91010"/>
<path d="M23.5503 20.3289V20.4691C23.5503 20.9018 22.9434 21.2572 22.2013 21.2572H6.34709C5.605 21.2572 4.99805 20.9025 4.99805 20.4691V20.3289H5.00036C5.02585 19.6932 5.57489 19.1732 6.25675 19.1318C6.28609 19.1296 6.31621 19.1289 6.34632 19.1289H22.2005C22.2306 19.1289 22.2615 19.1296 22.2901 19.1318C22.972 19.1732 23.521 19.6924 23.5465 20.3289H23.5488H23.5503Z" fill="#A91010"/>
<path d="M17.4647 15.6152C17.4175 15.2273 17.2425 14.8654 16.9665 14.5852C16.6904 14.3049 16.3288 14.122 15.9371 14.0643C15.7021 13.9919 14.85 13.7601 14.7326 13.4994C14.6927 13.3588 14.6828 13.2116 14.7034 13.067C14.7738 12.983 14.8395 12.8951 14.9001 12.8039C14.4758 13.0121 14.0079 13.1188 13.5341 13.1156C13.0602 13.1123 12.5938 12.9991 12.1726 12.7852C12.2367 12.8831 12.3065 12.9772 12.3818 13.067C12.4024 13.2116 12.3924 13.3588 12.3526 13.4994C12.2352 13.7605 11.3831 13.9924 11.1481 14.0643C10.7564 14.122 10.3947 14.3049 10.1187 14.5852C9.84269 14.8654 9.66763 15.2273 9.62044 15.6152L9.43652 17.0064C9.56172 17.1724 9.72826 17.3036 9.91999 17.3874C10.1117 17.4712 10.3221 17.5047 10.5308 17.4847C11.4501 17.867 12.4345 18.0737 13.4319 18.094C13.46 18.094 13.5442 18.0929 13.5442 18.0929C13.5442 18.0929 13.627 18.0942 13.6551 18.094C14.6522 18.0738 15.6364 17.867 16.5555 17.4847C16.7641 17.5047 16.9744 17.4712 17.1661 17.3874C17.3577 17.3037 17.5241 17.1724 17.6492 17.0064L17.4647 15.6152Z" fill="#A91010"/>
<path d="M13.5243 12.6879C14.8758 12.6879 15.9714 11.607 15.9714 10.2737C15.9714 8.94029 14.8758 7.85938 13.5243 7.85938C12.1728 7.85938 11.0771 8.94029 11.0771 10.2737C11.0771 11.607 12.1728 12.6879 13.5243 12.6879Z" fill="#A91010"/>
<line x1="18.7852" y1="7.67039" x2="25.9713" y2="7.67039" stroke="#A91010" stroke-width="0.377962"/>
<line x1="18.7852" y1="9.06688" x2="25.9713" y2="9.06688" stroke="#A91010" stroke-width="0.377962"/>
<line x1="18.7852" y1="10.4634" x2="25.9713" y2="10.4634" stroke="#A91010" stroke-width="0.377962"/>
<path d="M27.001 8.01137V10.1643C27.001 11.2752 26.0073 12.1757 24.7814 12.1757H21.2306L20.1079 13.3269V12.1757H19.9813C18.7554 12.1757 17.7617 11.2752 17.7617 10.1643V8.01137C17.7617 6.90051 18.7554 6 19.9813 6H24.7814C26.0073 6 27.001 6.90051 27.001 8.01137Z" fill="#A91010" fill-opacity="0.3" stroke="#A91010" stroke-width="0.59115" stroke-miterlimit="10"/>
</svg>
