<svg width="32" height="32" viewBox="0 0 32 32" fill="none" xmlns="http://www.w3.org/2000/svg">
<g clip-path="url(#clip0_177_15780)">
<rect x="-0.000976562" width="32" height="32" rx="16" fill="#865439" fill-opacity="0.12"/>
<path d="M13.392 12.8324C14.4548 12.8324 15.3163 12.0086 15.3163 10.9924C15.3163 9.97616 14.4548 9.15234 13.392 9.15234C12.3293 9.15234 11.4678 9.97616 11.4678 10.9924C11.4678 12.0086 12.3293 12.8324 13.392 12.8324Z" fill="#865439"/>
<path d="M16.3293 6.70583C16.3293 6.99149 16.1733 7.2413 15.9398 7.38587H15.9386C15.5903 7.35348 15.2649 7.33961 14.9638 7.33845C14.3929 7.33729 13.9115 7.38355 13.539 7.4356C12.6501 7.55934 12.1385 7.63799 11.6595 8.03468C11.1322 8.47069 10.9508 9.03854 10.825 9.43176C10.7149 9.77409 10.5432 10.3362 10.7197 11.0035C10.7476 11.1076 10.8383 11.421 11.085 11.7772C11.7006 12.6677 12.9198 13.2992 13.643 13.6739C13.7471 13.7283 14.001 13.8566 14.1389 14.1238C14.2079 14.2568 14.2212 14.3724 14.2429 14.6477C14.2925 15.2815 14.2949 15.4954 14.2949 15.4954C14.3034 16.2483 14.307 16.6265 14.2949 16.6681C14.1292 17.2695 13.643 17.6269 13.4858 17.7414C13.1254 18.0074 12.7843 18.1011 12.3646 18.2156C11.697 18.3983 11.7067 18.2503 11.033 18.4399C10.6327 18.5533 10.4017 18.6701 10.0678 18.5903C9.98801 18.5706 9.66992 18.4955 9.62396 18.2908C9.58163 18.1022 9.79087 17.8906 9.98922 17.8166C10.0836 17.7819 10.1356 17.7923 10.3811 17.7911C10.6714 17.7911 10.8467 17.7911 11.0076 17.7668C11.1237 17.7495 11.1431 17.7321 11.7115 17.4927C12.2098 17.2823 12.234 17.2788 12.3126 17.2175C12.459 17.103 12.4408 17.0648 12.7553 16.719C13.0056 16.4449 13.0214 16.4646 13.0685 16.3698C13.1726 16.1616 13.152 15.9604 13.1205 15.6701C13.1012 15.4815 13.0855 15.3381 13.0165 15.3208C12.9597 15.3081 12.8895 15.3832 12.7033 15.6458C12.5073 15.9233 12.407 16.0922 12.338 16.1951C12.1288 16.5062 11.8833 16.6901 11.7115 16.8185C11.4563 17.0093 11.2072 17.1146 10.7197 17.317C9.91061 17.6535 9.6675 17.6674 9.51995 17.916C9.37602 18.1577 9.4244 18.448 9.49334 18.6655C9.56712 18.7221 9.68081 18.7938 9.8332 18.8401C10.1561 18.9372 10.4355 18.8517 10.5371 18.8147C10.5371 18.8147 11.0439 18.7291 11.6861 18.8147C11.974 18.8528 12.2751 18.8933 12.5606 19.0656C13.0444 19.3605 13.1955 19.8729 13.2971 20.1632C13.464 20.6373 13.4544 21.078 13.2149 22.3559C13.1859 22.5098 13.158 22.6844 13.1048 22.9203C12.8254 24.1347 12.638 24.9489 12.0683 25.1744C11.4624 25.4149 10.5141 24.95 10.4307 24.4701C10.3835 24.1983 10.6 24.1046 10.8407 23.6085C10.9774 23.3263 10.9882 22.8949 11.004 22.0425C11.027 20.8259 10.9387 20.5055 10.8685 20.3679C10.86 20.3517 10.8528 20.3366 10.8407 20.3193C10.6411 20.0198 10.0763 20.0533 9.80659 20.0625C8.85353 20.0961 8.02867 20.1238 7.55818 19.7306C7.15543 19.3941 7.2534 18.95 6.99094 18.9095C6.68615 18.8621 6.48054 19.4357 5.84436 20.2407C5.48394 20.6963 4.92153 21.1196 3.79672 21.9639C2.46025 22.9666 2.65982 22.6277 1.33907 23.6085C0.907291 23.93 0.372704 24.3486 -0.461832 24.5776C-1.09922 24.7523 -1.36773 24.669 -1.52738 24.5776C-1.89264 24.3671 -2.04382 23.8999 -1.99061 23.5298C-1.91562 23.0163 -1.44997 22.7214 -1.11737 22.5121C-0.654139 22.2195 -0.33 22.1859 0.111458 22.0425C0.837142 21.8066 1.28344 21.4677 2.07685 20.8675C2.45058 20.5841 2.40946 20.5749 3.96 19.0656C4.97233 18.0814 5.14649 17.9334 5.51659 17.4997C5.87702 17.0776 5.84194 17.066 6.58093 16.0899C7.23163 15.2306 7.35499 15.1138 8.21976 13.9758C8.52576 13.5721 8.83902 13.1535 9.20186 12.5659C9.37965 12.2791 9.51753 12.0339 9.61187 11.8616C9.50302 11.6592 9.36997 11.3678 9.2841 11C9.24903 10.8485 9.07849 10.0736 9.36635 9.12065C9.4631 8.79798 9.70379 8.03583 10.4307 7.39743C10.9048 6.98108 11.362 6.81339 11.905 6.61446C12.2582 6.48493 12.4602 6.53582 14.526 6.14376C14.6856 6.11369 14.8344 6.08824 14.9698 6.06858C15.3702 6.01076 15.6689 5.99456 15.8963 6.0015C16.1551 6.13913 16.3293 6.40282 16.3293 6.70583Z" fill="#865439"/>
<path d="M26.0717 12.8324C27.1345 12.8324 27.996 12.0086 27.996 10.9924C27.996 9.97616 27.1345 9.15234 26.0717 9.15234C25.009 9.15234 24.1475 9.97616 24.1475 10.9924C24.1475 12.0086 25.009 12.8324 26.0717 12.8324Z" fill="#865439"/>
<path d="M28.9933 6.70583C28.9933 6.99149 28.8373 7.2413 28.6039 7.38587H28.6027C28.2544 7.35348 27.929 7.33961 27.6278 7.33845C27.057 7.33729 26.5756 7.38355 26.2031 7.4356C25.3141 7.55934 24.8025 7.63799 24.3236 8.03468C23.7962 8.47069 23.6148 9.03854 23.489 9.43176C23.379 9.77409 23.2072 10.3362 23.3838 11.0035C23.4116 11.1076 23.5023 11.421 23.7491 11.7772C24.3647 12.6677 25.5838 13.2992 26.3071 13.6739C26.4111 13.7283 26.6651 13.8566 26.803 14.1238C26.8719 14.2568 26.8852 14.3724 26.907 14.6477C26.9566 15.2815 26.959 15.4954 26.959 15.4954C26.9675 16.2483 26.9711 16.6265 26.959 16.6681C26.7933 17.2695 26.3071 17.6269 26.1499 17.7414C25.7894 18.0074 25.4484 18.1011 25.0287 18.2156C24.3611 18.3983 24.3707 18.2503 23.6971 18.4399C23.2967 18.5533 23.0657 18.6701 22.7319 18.5903C22.6521 18.5706 22.334 18.4955 22.288 18.2908C22.2457 18.1022 22.4549 17.8906 22.6533 17.8166C22.7476 17.7819 22.7996 17.7923 23.0452 17.7911C23.3354 17.7911 23.5108 17.7911 23.6717 17.7668C23.7878 17.7495 23.8071 17.7321 24.3756 17.4927C24.8739 17.2823 24.8981 17.2788 24.9767 17.2175C25.123 17.103 25.1049 17.0648 25.4194 16.719C25.6697 16.4449 25.6854 16.4646 25.7326 16.3698C25.8366 16.1616 25.8161 15.9604 25.7846 15.6701C25.7653 15.4815 25.7495 15.3381 25.6806 15.3208C25.6238 15.3081 25.5536 15.3832 25.3673 15.6458C25.1714 15.9233 25.071 16.0922 25.0021 16.1951C24.7928 16.5062 24.5473 16.6901 24.3756 16.8185C24.1204 17.0093 23.8712 17.1146 23.3838 17.317C22.5747 17.6535 22.3316 17.6674 22.184 17.916C22.0401 18.1577 22.0885 18.448 22.1574 18.6655C22.2312 18.7221 22.3449 18.7938 22.4973 18.8401C22.8202 18.9372 23.0996 18.8517 23.2012 18.8147C23.2012 18.8147 23.7079 18.7291 24.3502 18.8147C24.638 18.8528 24.9392 18.8933 25.2246 19.0656C25.7084 19.3605 25.8596 19.8729 25.9612 20.1632C26.1281 20.6373 26.1184 21.078 25.879 22.3559C25.8499 22.5098 25.8221 22.6844 25.7689 22.9203C25.4895 24.1347 25.302 24.9489 24.7324 25.1744C24.1264 25.4149 23.1782 24.95 23.0947 24.4701C23.0476 24.1983 23.2641 24.1046 23.5048 23.6085C23.6414 23.3263 23.6523 22.8949 23.668 22.0425C23.691 20.8259 23.6027 20.5055 23.5326 20.3679C23.5241 20.3517 23.5168 20.3366 23.5048 20.3193C23.3052 20.0198 22.7404 20.0533 22.4707 20.0625C21.5176 20.0961 20.6927 20.1238 20.2222 19.7306C19.8195 19.3941 19.9175 18.95 19.655 18.9095C19.3502 18.8621 19.1446 19.4357 18.5084 20.2407C18.148 20.6963 17.5856 21.1196 16.4608 21.9639C15.1243 22.9666 15.3239 22.6277 14.0031 23.6085C13.5714 23.93 13.0368 24.3486 12.2022 24.5776C11.5648 24.7523 11.2963 24.669 11.1367 24.5776C10.7714 24.3671 10.6202 23.8999 10.6735 23.5298C10.7484 23.0163 11.2141 22.7214 11.5467 22.5121C12.0099 22.2195 12.3341 22.1859 12.7755 22.0425C13.5012 21.8066 13.9475 21.4677 14.7409 20.8675C15.1146 20.5841 15.0735 20.5749 16.6241 19.0656C17.6364 18.0814 17.8106 17.9334 18.1807 17.4997C18.5411 17.0776 18.506 17.066 19.245 16.0899C19.8957 15.2306 20.0191 15.1138 20.8838 13.9758C21.1898 13.5721 21.5031 13.1535 21.8659 12.5659C22.0437 12.2791 22.1816 12.0339 22.2759 11.8616C22.1671 11.6592 22.034 11.3678 21.9482 11C21.9131 10.8485 21.7426 10.0736 22.0304 9.12065C22.1272 8.79798 22.3679 8.03583 23.0947 7.39743C23.5689 6.98108 24.026 6.81339 24.5691 6.61446C24.9223 6.48493 25.1242 6.53582 27.19 6.14376C27.3497 6.11369 27.4984 6.08824 27.6339 6.06858C28.0342 6.01076 28.333 5.99456 28.5604 6.0015C28.8192 6.13913 28.9933 6.40282 28.9933 6.70583Z" fill="#865439"/>
</g>
<defs>
<clipPath id="clip0_177_15780">
<rect x="-0.000976562" width="32" height="32" rx="16" fill="white"/>
</clipPath>
</defs>
</svg>
