<svg width="32" height="32" viewBox="0 0 32 32" fill="none" xmlns="http://www.w3.org/2000/svg">
<rect x="-0.000976562" width="32" height="32" rx="16" fill="#ED1B0D" fill-opacity="0.12"/>
<path d="M17.2967 9.53471C18.2727 9.53471 19.064 8.74344 19.064 7.76736C19.064 6.79127 18.2727 6 17.2967 6C16.3206 6 15.5293 6.79127 15.5293 7.76736C15.5293 8.74344 16.3206 9.53471 17.2967 9.53471Z" fill="#ED1B0D"/>
<path d="M21.7801 14.6601L19.5046 13.9089C19.5046 13.9089 18.2454 10.9928 18.2012 10.9044C17.8919 10.3521 17.3175 9.97656 16.6547 9.97656C16.3896 9.97656 16.1245 10.0428 15.9036 10.1533L12.8107 11.3684C12.5898 11.4567 12.4131 11.6335 12.3247 11.8544L11.2201 14.5054C11.0434 14.9473 11.2422 15.4775 11.7061 15.6542C11.8166 15.6984 11.9271 15.7205 12.0375 15.7205C12.391 15.7205 12.7224 15.5216 12.8549 15.1682L13.7607 12.8706L14.6885 12.5171L13.1642 19.9621L10.2039 23.5631C9.89459 23.9387 9.93878 24.491 10.3143 24.8003C10.469 24.9328 10.6678 24.9991 10.8666 24.9991C11.1317 24.9991 11.3748 24.8886 11.5515 24.6677L14.6444 20.9121C14.7327 20.8016 14.799 20.6691 14.8211 20.5365L15.3513 17.9739L17.7372 19.697V24.1154C17.7372 24.6014 18.1349 24.9991 18.6209 24.9991C19.1069 24.9991 19.5046 24.6014 19.5046 24.1154V19.2552C19.5046 18.968 19.372 18.7029 19.1511 18.5482L17.0082 16.9797L17.6047 13.9973L18.0244 14.9693C18.1349 15.1903 18.3116 15.367 18.5546 15.4554L21.2057 16.339C21.294 16.3611 21.3824 16.3832 21.4929 16.3832C21.8684 16.3832 22.1998 16.1402 22.3324 15.7867C22.487 15.3228 22.244 14.8147 21.7801 14.6601Z" fill="#ED1B0D"/>
</svg>
