<svg width="32" height="32" viewBox="0 0 32 32" fill="none" xmlns="http://www.w3.org/2000/svg">
<rect x="-0.000976562" width="32" height="32" rx="16" fill="#962AAC" fill-opacity="0.1"/>
<path d="M-nan -nanL26.2669 16.0916V21.9991C26.2669 22.5514 25.8192 22.9991 25.2669 22.9991H6.00195C5.44967 22.9991 5.00195 22.5514 5.00195 21.9991V11.5664C5.00195 11.0141 5.44967 10.5664 6.00195 10.5664H15.8154C16.0422 10.5664 16.2092 10.7797 16.2092 11.0065V14.5532C16.2092 15.2024 16.523 15.7789 17.0102 16.1453C17.2399 16.318 17.3908 16.5984 17.323 16.8776C17.1856 17.4427 17.8654 17.8421 18.2922 17.4471L18.9984 16.7935C19.1606 16.6435 19.3734 16.5601 19.5943 16.5601H24.9512C25.4522 16.5601 25.9109 16.3846 26.2669 16.0916L-nan -nanZ" fill="#F7F7F7" stroke="#962AAC" stroke-miterlimit="10"/>
<path d="M24.947 9H18.2551C17.2769 9 16.4595 9.67113 16.2552 10.5668C16.2222 10.7075 16.2051 10.8559 16.2051 11.0069V14.5536C16.2051 15.3783 16.7113 16.0856 17.4364 16.3941L17.502 18C18.4343 17.1371 18.3141 17.4234 19.2465 16.5606H24.947C25.448 16.5606 25.9068 16.385 26.2627 16.092C26.7123 15.7242 26.9971 15.1718 26.9971 14.5536V11.0069C26.9971 9.89957 26.0795 9 24.947 9ZM20.2392 14.32V11.2405L22.9629 12.7803L20.2392 14.32Z" fill="#962AAC"/>
<path d="M24.0224 12.9999L19.5402 15.6286L19.5048 10.4326L24.0224 12.9999Z" fill="white"/>
<path d="M13.6791 19.6606C13.6327 19.2426 13.4605 18.8527 13.1891 18.5508C12.9176 18.2488 12.5619 18.0517 12.1767 17.9896C11.9455 17.9115 11.1075 17.6618 10.992 17.3809C10.9528 17.2294 10.943 17.0708 10.9633 16.915C11.0325 16.8244 11.0971 16.7298 11.1568 16.6315C10.7395 16.8558 10.2793 16.9708 9.81324 16.9673C9.34723 16.9638 8.88851 16.8419 8.47416 16.6113C8.53721 16.7168 8.60592 16.8182 8.67994 16.915C8.7002 17.0708 8.69042 17.2294 8.65122 17.3809C8.53577 17.6622 7.69769 17.912 7.46657 17.9896C7.08132 18.0517 6.72561 18.2488 6.45414 18.5508C6.18268 18.8527 6.0105 19.2426 5.96409 19.6606L5.7832 21.1596C5.90634 21.3384 6.07013 21.4798 6.2587 21.5701C6.44727 21.6604 6.65422 21.6965 6.8595 21.6749C7.76361 22.0868 8.73182 22.3095 9.71276 22.3314C9.74035 22.3314 9.82325 22.3302 9.82325 22.3302C9.82325 22.3302 9.90468 22.3316 9.93227 22.3314C10.913 22.3096 11.881 22.0868 12.7849 21.6749C12.99 21.6965 13.1969 21.6604 13.3854 21.5701C13.5739 21.4798 13.7376 21.3384 13.8606 21.1596L13.6791 19.6606Z" fill="#962AAC"/>
<path d="M9.80718 16.5092C11.1364 16.5092 12.214 15.3446 12.214 13.9079C12.214 12.4713 11.1364 11.3066 9.80718 11.3066C8.47795 11.3066 7.40039 12.4713 7.40039 13.9079C7.40039 15.3446 8.47795 16.5092 9.80718 16.5092Z" fill="#962AAC"/>
</svg>
