<svg width="33" height="32" viewBox="0 0 33 32" fill="none" xmlns="http://www.w3.org/2000/svg">
<rect x="0.108398" width="32" height="32" rx="16" fill="#00BE08" fill-opacity="0.1"/>
<path d="M11.7205 19.0925C11.671 18.6375 11.4876 18.2131 11.1983 17.8844C10.909 17.5558 10.53 17.3412 10.1195 17.2736C9.87319 17.1887 8.98013 16.9168 8.85712 16.6111C8.81534 16.4462 8.80492 16.2736 8.82651 16.104C8.90031 16.0054 8.96914 15.9024 9.0327 15.7954C8.58805 16.0395 8.09761 16.1647 7.60103 16.1609C7.10445 16.1571 6.61564 16.0244 6.17411 15.7734C6.2413 15.8883 6.31451 15.9987 6.39338 16.104C6.41497 16.2736 6.40455 16.4462 6.36278 16.6111C6.23976 16.9173 5.34671 17.1892 5.10043 17.2736C4.68991 17.3412 4.31086 17.5558 4.02159 17.8844C3.73232 18.2131 3.54885 18.6375 3.49939 19.0925L3.30664 20.7241C3.43785 20.9187 3.61239 21.0727 3.81333 21.1709C4.01427 21.2692 4.2348 21.3085 4.45353 21.285C5.41696 21.7333 6.44867 21.9758 7.49395 21.9996C7.52336 21.9996 7.61169 21.9982 7.61169 21.9982C7.61169 21.9982 7.69846 21.9998 7.72787 21.9996C8.77292 21.9758 9.8044 21.7333 10.7676 21.285C10.9862 21.3085 11.2067 21.2692 11.4075 21.1709C11.6083 21.0727 11.7828 20.9187 11.9139 20.7241L11.7205 19.0925Z" fill="#00BE08"/>
<path d="M7.59787 15.6629C9.01429 15.6629 10.1625 14.3952 10.1625 12.8314C10.1625 11.2677 9.01429 10 7.59787 10C6.18144 10 5.0332 11.2677 5.0332 12.8314C5.0332 14.3952 6.18144 15.6629 7.59787 15.6629Z" fill="#00BE08"/>
<path d="M28.9098 11.4185V19.5406C28.9098 20.3207 28.4076 20.9591 27.7949 20.9591H14.0309C13.4172 20.9591 12.916 20.3207 12.916 19.5406V11.4185C12.916 10.6383 13.4183 10 14.0309 10H27.7949C28.4087 10 28.9098 10.6383 28.9098 11.4185Z" fill="white" stroke="#00BE08" stroke-width="1.441" stroke-miterlimit="10"/>
<path d="M21.4165 11.6216C21.2251 11.5861 21.0269 11.5684 20.8253 11.5684C20.6237 11.5684 20.4255 11.5861 20.234 11.6216V12.4384C19.93 12.5105 19.6462 12.6358 19.3917 12.8048L18.841 12.2268C18.5166 12.4667 18.2328 12.7646 18.0054 13.1051L18.5549 13.6819C18.3939 13.9491 18.2734 14.2469 18.2058 14.5661H17.4276C17.3938 14.7671 17.377 14.9751 17.377 15.1867C17.377 15.3983 17.3938 15.6063 17.4276 15.8073H18.2058C18.2745 16.1265 18.3939 16.4243 18.5549 16.6915L18.0054 17.2683C18.234 17.6088 18.5166 17.9067 18.8421 18.1466L19.3917 17.5698C19.6462 17.7388 19.9311 17.8653 20.234 17.9362V18.753C20.4255 18.7885 20.6237 18.8062 20.8253 18.8062C21.0269 18.8062 21.2251 18.7885 21.4165 18.753V17.9362C21.7206 17.8641 22.0032 17.7388 22.2589 17.5698L22.8085 18.1466C23.1328 17.9067 23.4166 17.61 23.6452 17.2695L23.0945 16.6915C23.2555 16.4243 23.376 16.1253 23.4436 15.8073H24.2218C24.2556 15.6063 24.2725 15.3983 24.2725 15.1867C24.2725 14.9751 24.2556 14.7671 24.2218 14.5661H23.4436C23.3749 14.2469 23.2555 13.9502 23.0945 13.6819L23.6452 13.1039C23.4166 12.7634 23.1328 12.4656 22.8085 12.2256L22.2578 12.8036C22.0033 12.6346 21.7195 12.5081 21.4154 12.4372V11.6204L21.4165 11.6216ZM21.1203 13.9987C21.2251 14.0271 21.3253 14.0708 21.4165 14.1276C21.5888 14.2339 21.733 14.3853 21.8343 14.5661C21.8884 14.6619 21.9289 14.7659 21.9571 14.877C21.9819 14.9763 21.9942 15.0803 21.9942 15.1879C21.9942 15.2955 21.9807 15.3995 21.9571 15.4988C21.93 15.6087 21.8884 15.7127 21.8343 15.8085C21.733 15.9893 21.5888 16.1406 21.4165 16.247C21.3253 16.3038 21.2262 16.3463 21.1203 16.3759C21.0257 16.4019 20.9266 16.4149 20.8242 16.4149C20.7217 16.4149 20.6226 16.4007 20.528 16.3759C20.4232 16.3475 20.3241 16.3038 20.2329 16.247C20.0606 16.1406 19.9165 15.9893 19.8151 15.8085C19.7611 15.7127 19.7205 15.6087 19.6924 15.4988C19.6676 15.3995 19.6552 15.2955 19.6552 15.1879C19.6552 15.0803 19.6687 14.9763 19.6924 14.877C19.7194 14.7671 19.7611 14.6619 19.8151 14.5661C19.9165 14.3853 20.0606 14.2339 20.2329 14.1276C20.3241 14.0708 20.4232 14.0283 20.528 13.9987C20.6226 13.9727 20.7217 13.9597 20.8242 13.9597C20.9266 13.9597 21.0257 13.9739 21.1203 13.9987Z" fill="#00BE08"/>
</svg>
