<svg width="24" height="25" viewBox="0 0 24 25" fill="none" xmlns="http://www.w3.org/2000/svg">
<path fill-rule="evenodd" clip-rule="evenodd" d="M12 22.1C17.3019 22.1 21.6 17.8019 21.6 12.5C21.6 7.19807 17.3019 2.9 12 2.9C6.69807 2.9 2.4 7.19807 2.4 12.5C2.4 17.8019 6.69807 22.1 12 22.1ZM12 24.5C18.6274 24.5 24 19.1274 24 12.5C24 5.87258 18.6274 0.5 12 0.5C5.37258 0.5 0 5.87258 0 12.5C0 19.1274 5.37258 24.5 12 24.5Z" fill="#919191"/>
<path d="M10.8 12.5C10.8 11.8373 11.3373 11.3 12 11.3C12.6627 11.3 13.2 11.8373 13.2 12.5V17.3C13.2 17.9627 12.6627 18.5 12 18.5C11.3373 18.5 10.8 17.9627 10.8 17.3V12.5Z" fill="#919191"/>
<path d="M13.2 7.7C13.2 8.36274 12.6627 8.9 12 8.9C11.3373 8.9 10.8 8.36274 10.8 7.7C10.8 7.03726 11.3373 6.5 12 6.5C12.6627 6.5 13.2 7.03726 13.2 7.7Z" fill="#919191"/>
</svg>
