<svg width="24" height="26" viewBox="0 0 24 26" fill="none" xmlns="http://www.w3.org/2000/svg">
<path d="M22.868 4.10742H1.42188V24.4995H22.868V4.10742Z" stroke="#919191" stroke-width="1.5" stroke-miterlimit="10"/>
<path d="M23.2579 1.13477V4.10844H1V1.13477H8.21737V2.67157C8.21737 3.28353 8.98231 3.77863 9.92638 3.77863H14.3292C15.2733 3.77863 16.0382 3.28276 16.0382 2.67157V1.13477H23.2571H23.2579Z" fill="#919191"/>
<path d="M8.75781 0.5V2.46963C8.75781 3.0247 9.41666 3.47367 10.2293 3.47367H14.0202C14.8335 3.47367 15.4916 3.0247 15.4916 2.46963V0.5H8.75781ZM12.1259 2.41121C11.7822 2.41121 11.5039 2.22132 11.5039 1.98684C11.5039 1.75236 11.7822 1.56247 12.1259 1.56247C12.4695 1.56247 12.7463 1.75236 12.7463 1.98684C12.7463 2.22132 12.468 2.41121 12.1259 2.41121Z" fill="#919191"/>
<path d="M8.75781 0.5V2.46963C8.75781 3.0247 9.41666 3.47367 10.2293 3.47367H14.0202C14.8335 3.47367 15.4916 3.0247 15.4916 2.46963V0.5H8.75781ZM12.1259 2.41121C11.7822 2.41121 11.5039 2.22132 11.5039 1.98684C11.5039 1.75236 11.7822 1.56247 12.1259 1.56247C12.4695 1.56247 12.7463 1.75236 12.7463 1.98684C12.7463 2.22132 12.468 2.41121 12.1259 2.41121Z" fill="#919191"/>
<path d="M5 15.3955L7.31328 15.5316L9.62656 13.0823L10.8512 17.3006L13.8449 9L16.2942 19.4778L16.8385 12.1297L19.1518 16.4842L19.1841 16.415" stroke="#919191" stroke-width="1.3" stroke-miterlimit="10"/>
</svg>
