<svg width="34" height="24" viewBox="0 0 34 24" fill="none" xmlns="http://www.w3.org/2000/svg">
<path d="M21.7645 10.5111L24.2441 8.5C23.8219 8.20037 23.533 7.93809 23.2441 7.5L21.2266 9.02275L21.7645 10.5111Z" fill="url(#paint0_linear_1063_60626)"/>
<path d="M26.9785 10.3345H26.2456V21.3945L21.4936 15.4412C21.3092 15.9344 21.0684 16.4029 20.7763 16.8365L25.2593 22.5107H2.30623L6.34096 17.3946C6.12779 16.798 6.00675 16.1701 5.98231 15.5342L1.67861 20.9294V6.5113L6.43062 11.3483C6.60267 10.8662 6.81259 10.3995 7.05824 9.95304L2.39589 5.20902H22.4799C22.4064 4.93686 22.3761 4.6541 22.3902 4.37184C22.3696 4.15048 22.4004 3.92724 22.4799 3.7207H2.57521C1.95695 3.7207 1.364 3.97551 0.926823 4.42907C0.489643 4.88263 0.244037 5.49779 0.244037 6.13922V21.5805C0.234097 21.8934 0.264248 22.2062 0.333698 22.5107H0.423358C0.589907 22.959 0.886207 23.3428 1.27153 23.6093C1.65685 23.8758 2.11228 24.012 2.57521 23.9991H25.349C25.9673 23.9991 26.5602 23.7443 26.9974 23.2907C27.4346 22.8371 27.6802 22.222 27.6802 21.5805L27.9749 10.3345H26.9785Z" fill="url(#paint1_linear_1063_60626)"/>
<path d="M14.6797 6.13926C13.613 6.12603 12.5548 6.33736 11.5691 6.76046C10.5833 7.18357 9.69053 7.80966 8.94464 8.60089C8.19874 9.39212 7.61525 10.3321 7.22943 11.3639C6.84361 12.3957 6.66347 13.498 6.69992 14.6041C6.67519 15.5272 6.83222 16.4459 7.1614 17.3039C7.49059 18.162 7.98501 18.9413 8.61444 19.5943C9.24387 20.2473 9.99508 20.7603 10.8221 21.1018C11.6492 21.4433 12.5347 21.6062 13.4245 21.5806C14.7571 21.6442 16.0836 21.3561 17.2799 20.7434L16.9212 19.5341C15.9269 19.964 14.8603 20.1853 13.7831 20.1853C10.645 20.1853 8.40347 18.1388 8.40347 14.418C8.40347 10.6972 11.1829 7.53456 14.5004 7.53456C17.8178 7.53456 19.611 9.76704 19.611 12.6507C19.611 15.5343 18.4455 16.3715 17.5488 16.3715C16.6522 16.3715 16.8316 15.7203 17.0109 14.418L17.6385 10.3252C16.8454 9.96899 15.9922 9.7793 15.128 9.76704C14.4619 9.74093 13.7977 9.85781 13.1772 10.1104C12.5566 10.3629 11.993 10.7457 11.5217 11.2347C11.0503 11.7237 10.6814 12.3084 10.4379 12.9522C10.1945 13.596 10.0819 14.2851 10.107 14.9762C10.107 16.7435 11.0933 17.8598 12.4382 17.8598C13.0003 17.8479 13.5502 17.688 14.0364 17.3951C14.5226 17.1022 14.9291 16.686 15.2177 16.1854H15.3073C15.3059 16.4219 15.3528 16.6559 15.4449 16.8722C15.537 17.0885 15.6721 17.2821 15.8416 17.4403C16.011 17.5985 16.2107 17.7177 16.4277 17.79C16.6447 17.8623 16.874 17.8861 17.1005 17.8598C19.4317 17.8598 21.2249 15.8133 21.2249 12.5576C21.2249 9.30194 18.5351 6.13926 14.6797 6.13926ZM15.128 13.7669C14.9487 14.9762 14.1417 16.0924 13.3348 16.0924C12.5279 16.0924 12.2589 15.5343 12.2589 14.6971C12.2589 13.8599 13.3348 11.5344 14.7694 11.5344H15.397L15.128 13.7669Z" fill="url(#paint2_linear_1063_60626)"/>
<path d="M33.2617 7C33.2617 10.5899 30.3516 13.5 26.7617 13.5C23.1719 13.5 20.2617 10.5899 20.2617 7C20.2617 3.41015 23.1719 0.5 26.7617 0.5C30.3516 0.5 33.2617 3.41015 33.2617 7Z" fill="white" stroke="url(#paint3_linear_1063_60626)"/>
<path d="M27.1825 2.66016H26.4825C26.2505 2.66016 26.0625 2.8482 26.0625 3.08016V11.0602C26.0625 11.2921 26.2505 11.4802 26.4825 11.4802H27.1825C27.4145 11.4802 27.6025 11.2921 27.6025 11.0602V3.08016C27.6025 2.8482 27.4145 2.66016 27.1825 2.66016Z" fill="url(#paint4_linear_1063_60626)"/>
<path d="M30.8219 6.29883H22.8419C22.6099 6.29883 22.4219 6.48687 22.4219 6.71883V7.43283C22.4219 7.66479 22.6099 7.85283 22.8419 7.85283H30.8219C31.0538 7.85283 31.2419 7.66479 31.2419 7.43283V6.71883C31.2419 6.48687 31.0538 6.29883 30.8219 6.29883Z" fill="url(#paint5_linear_1063_60626)"/>
<defs>
<linearGradient id="paint0_linear_1063_60626" x1="22.7354" y1="5.72202" x2="25.5623" y2="8.79881" gradientUnits="userSpaceOnUse">
<stop stop-color="#8A2387"/>
<stop offset="0.422991" stop-color="#E94057"/>
<stop offset="0.784813" stop-color="#F27121"/>
</linearGradient>
<linearGradient id="paint1_linear_1063_60626" x1="14.1086" y1="-8.25378" x2="31.8125" y2="18.0405" gradientUnits="userSpaceOnUse">
<stop stop-color="#8A2387"/>
<stop offset="0.422991" stop-color="#E94057"/>
<stop offset="0.784813" stop-color="#F27121"/>
</linearGradient>
<linearGradient id="paint2_linear_1063_60626" x1="13.9601" y1="-2.98458" x2="28.5145" y2="11.88" gradientUnits="userSpaceOnUse">
<stop stop-color="#8A2387"/>
<stop offset="0.422991" stop-color="#E94057"/>
<stop offset="0.784813" stop-color="#F27121"/>
</linearGradient>
<linearGradient id="paint3_linear_1063_60626" x1="26.7617" y1="-8.26674" x2="39.9078" y2="6.01055" gradientUnits="userSpaceOnUse">
<stop stop-color="#8A2387"/>
<stop offset="0.422991" stop-color="#E94057"/>
<stop offset="0.784813" stop-color="#F27121"/>
</linearGradient>
<linearGradient id="paint4_linear_1063_60626" x1="26.8325" y1="-2.54789" x2="29.8748" y2="-1.97098" gradientUnits="userSpaceOnUse">
<stop stop-color="#8A2387"/>
<stop offset="0.422991" stop-color="#E94057"/>
<stop offset="0.784813" stop-color="#F27121"/>
</linearGradient>
<linearGradient id="paint5_linear_1063_60626" x1="26.8319" y1="5.38122" x2="27.2948" y2="8.2345" gradientUnits="userSpaceOnUse">
<stop stop-color="#8A2387"/>
<stop offset="0.422991" stop-color="#E94057"/>
<stop offset="0.784813" stop-color="#F27121"/>
</linearGradient>
</defs>
</svg>
