<svg width="24" height="25" viewBox="0 0 24 25" fill="none" xmlns="http://www.w3.org/2000/svg">
<path d="M12 2.5C6.489 2.5 2 6.989 2 12.5C2 18.011 6.489 22.5 12 22.5C17.511 22.5 22 18.011 22 12.5C22 6.989 17.511 2.5 12 2.5ZM12 4.5C13.8532 4.5 15.5505 5.13256 16.9043 6.18359L5.68164 17.4062C4.63016 16.0523 4 14.3536 4 12.5C4 8.06988 7.56988 4.5 12 4.5ZM18.3203 7.5957C19.3708 8.94929 20 10.6474 20 12.5C20 16.9301 16.4301 20.5 12 20.5C10.1474 20.5 8.44929 19.8708 7.0957 18.8203L18.3203 7.5957Z" fill="#919191"/>
</svg>
