<svg xmlns="http://www.w3.org/2000/svg" width="20" height="20" fill="none"><path fill="url(#a)" d="m19.451 8.76-.306-.283a1.686 1.686 0 0 1-.47-1.748l.132-.393a1.672 1.672 0 0 0-1.234-2.14l-.404-.087a1.68 1.68 0 0 1-1.278-1.278l-.087-.404a1.665 1.665 0 0 0-2.14-1.234l-.393.131c-.623.197-1.3.011-1.748-.47L11.24.55a1.674 1.674 0 0 0-2.478 0l-.284.305a1.686 1.686 0 0 1-1.748.47l-.393-.131a1.672 1.672 0 0 0-2.14 1.234l-.087.404A1.68 1.68 0 0 1 2.83 4.109l-.404.087a1.665 1.665 0 0 0-1.234 2.14l.131.393c.197.623.011 1.3-.47 1.748L.55 8.76a1.674 1.674 0 0 0 0 2.478l.305.284c.481.437.667 1.125.47 1.748l-.131.393a1.672 1.672 0 0 0 1.234 2.14l.404.087a1.68 1.68 0 0 1 1.278 1.278l.087.404a1.665 1.665 0 0 0 2.14 1.234l.393-.131c.623-.197 1.3-.011 1.748.47l.284.305a1.674 1.674 0 0 0 2.478 0l.284-.306a1.686 1.686 0 0 1 1.748-.47l.393.132a1.672 1.672 0 0 0 2.14-1.234l.087-.404a1.68 1.68 0 0 1 1.278-1.278l.404-.087a1.665 1.665 0 0 0 1.234-2.14l-.131-.393c-.197-.623-.011-1.3.47-1.748l.305-.284a1.674 1.674 0 0 0 0-2.478Zm-1.08 2.338-.274.25c-.426.394-.59.994-.415 1.551l.11.35c.261.83-.24 1.714-1.093 1.9l-.36.076a1.492 1.492 0 0 0-1.136 1.136l-.076.36a1.478 1.478 0 0 1-1.9 1.092l-.35-.109a1.496 1.496 0 0 0-1.55.415l-.251.273a1.488 1.488 0 0 1-2.195 0l-.251-.273a1.496 1.496 0 0 0-1.551-.415l-.35.11a1.486 1.486 0 0 1-1.9-1.093l-.076-.36a1.492 1.492 0 0 0-1.136-1.136l-.36-.076a1.478 1.478 0 0 1-1.092-1.9l.11-.35a1.496 1.496 0 0 0-.416-1.55l-.273-.252a1.488 1.488 0 0 1 0-2.194l.273-.252c.426-.393.59-.993.415-1.55l-.11-.35a1.485 1.485 0 0 1 1.093-1.9l.36-.076a1.492 1.492 0 0 0 1.136-1.136l.076-.36a1.478 1.478 0 0 1 1.9-1.092l.35.109c.557.175 1.157.01 1.55-.415l.252-.273a1.488 1.488 0 0 1 2.195 0l.25.273c.394.426.994.59 1.551.415l.35-.11c.83-.261 1.714.241 1.9 1.093l.076.36c.12.568.568 1.005 1.136 1.136l.36.076a1.478 1.478 0 0 1 1.092 1.9l-.109.35a1.496 1.496 0 0 0 .415 1.55l.273.252c.645.59.645 1.605 0 2.194Z"/><path fill="url(#b)" d="m18.37 8.892-.273-.251a1.496 1.496 0 0 1-.415-1.551l.11-.35a1.485 1.485 0 0 0-1.093-1.9l-.36-.076a1.492 1.492 0 0 1-1.135-1.136l-.077-.36a1.478 1.478 0 0 0-1.9-1.092l-.35.11a1.496 1.496 0 0 1-1.55-.416l-.251-.273a1.488 1.488 0 0 0-2.195 0l-.251.273c-.393.426-.994.59-1.551.415l-.35-.109a1.485 1.485 0 0 0-1.9 1.092l-.076.36a1.492 1.492 0 0 1-1.136 1.136l-.36.076a1.478 1.478 0 0 0-1.092 1.9l.11.35c.174.557.01 1.158-.416 1.55l-.273.252a1.488 1.488 0 0 0 0 2.195l.273.25c.426.394.59.995.415 1.552l-.109.349c-.262.83.24 1.714 1.092 1.9l.36.076c.568.12 1.005.568 1.136 1.136l.076.36a1.478 1.478 0 0 0 1.9 1.092l.35-.109a1.496 1.496 0 0 1 1.55.415l.252.273c.59.645 1.605.645 2.195 0l.25-.273c.394-.426.995-.59 1.551-.415l.35.11c.83.262 1.714-.24 1.9-1.093l.076-.36a1.492 1.492 0 0 1 1.136-1.136l.36-.076a1.478 1.478 0 0 0 1.092-1.9l-.109-.35a1.496 1.496 0 0 1 .415-1.55l.273-.251a1.488 1.488 0 0 0 0-2.195Zm-8.386 8.965A7.876 7.876 0 0 1 2.11 9.984 7.876 7.876 0 0 1 9.984 2.11a7.876 7.876 0 0 1 7.873 7.874 7.876 7.876 0 0 1-7.873 7.873Z"/><path fill="url(#c)" d="M9.984 17.867a7.873 7.873 0 1 0 0-15.746 7.873 7.873 0 0 0 0 15.746Z"/><path fill="url(#d)" d="m10.42 6.052.95 2.425 2.6.153a.47.47 0 0 1 .273.83l-2.01 1.648.656 2.523c.109.415-.35.742-.7.513l-2.194-1.398L7.8 14.144a.464.464 0 0 1-.699-.513l.655-2.523-2.01-1.649a.47.47 0 0 1 .274-.83l2.599-.152.95-2.425a.463.463 0 0 1 .863 0h-.011Z"/><path stroke="#DD7B39" stroke-miterlimit="10" stroke-width=".1" d="M16.405 11.044A6.508 6.508 0 1 0 3.56 8.94a6.508 6.508 0 0 0 12.845 2.105Z"/><path fill="url(#e)" d="M10.344 2.45s0 .032-.021.043l-.219.218-.23-.13v-.132s.034-.065.066-.065c.022 0 .033 0 .044.022.01.01.022.032.022.043v.164l.218-.218s.033-.022.044-.022c.044 0 .065.033.065.065l.011.011Z"/><path fill="url(#f)" d="M10.278 3.082h-.021s-.011 0-.022-.01l-.219-.22v.164s-.032.066-.065.066c-.022 0-.033 0-.044-.022a.083.083 0 0 1-.022-.044v-.13l.23-.132.218.219s.01.12-.044.12l-.01-.011Z"/><path fill="url(#g)" d="m10.093 2.722-.218-.131-.131-.077s-.022 0-.022.011v.404s.01.022.022.011l.13-.076.219-.12v-.022Zm-.055 0-.163.11-.099.054h-.022v-.317s0-.01.022 0l.099.055.163.098Z"/><path fill="url(#h)" d="m9.995 2.733-.132.076-.076.044h-.01v-.24s0-.011.01 0l.076.043.132.077Z"/><path fill="url(#i)" d="M11.163 8.947a.217.217 0 0 1-.076.175l-.83.797-.885-.492v-.48c0-.142.12-.251.262-.251a.263.263 0 0 1 .262.25v.612l.82-.797s.12-.076.185-.076c.153 0 .262.12.262.251v.01Z"/><path fill="url(#j)" d="M10.901 11.262s-.065 0-.098-.021a.238.238 0 0 1-.088-.055l-.819-.797V11c0 .142-.12.252-.262.252a.264.264 0 0 1-.185-.077.258.258 0 0 1-.077-.175v-.48l.885-.491.83.797c.164.163.043.436-.186.436Z"/><path fill="url(#k)" d="M10.224 9.962s-.011-.022-.033-.033l-.819-.458-.502-.284s-.088 0-.088.054v1.475s.055.076.088.054l.502-.284.82-.458.032-.033v-.033Zm-.197.033s0 .022-.021.022l-.634.36-.393.218s-.065 0-.065-.043V9.405s.032-.054.065-.044l.393.219.633.36s.022.011.022.022v.032Z"/><path fill="url(#l)" d="M9.842 9.984s0 .01-.01.022l-.481.262-.295.164s-.055 0-.055-.033v-.863s.033-.043.055-.033l.295.164.48.262s.011.011.011.022v.032Z"/><path fill="url(#m)" d="M11.437 2.613s-.011.033-.033.044l-.262.153-.186-.186.033-.13s.043-.055.087-.045c.022 0 .033.022.044.033 0 .011.01.033 0 .055l-.044.164.262-.153s.033-.011.055 0c.043 0 .054.054.043.087v-.022Z"/><path fill="url(#n)" d="M11.207 3.203s-.022 0-.022-.01c0 0-.01-.012-.022-.022l-.153-.263-.043.164s-.044.055-.088.044c-.021 0-.032-.022-.043-.033 0-.01-.011-.033 0-.054l.032-.131.262-.066.153.262s-.021.12-.076.098v.011Z"/><path fill="url(#o)" d="m11.12 2.82-.175-.185-.11-.11h-.021l-.11.394s0 .021.023.021l.153-.043.24-.066h.01l-.01-.01Zm-.055-.022-.185.055-.12.033s-.022 0-.011-.011l.076-.306s.01-.01.022 0l.087.087.142.142h-.01Z"/><path fill="url(#p)" d="m11.021 2.799-.142.043-.087.022s-.011 0-.011-.01l.065-.23h.011l.066.066.098.098v.01Z"/><path fill="url(#q)" d="M9.241 2.996s-.01-.033-.032-.044l-.262-.164-.197.186.033.131s.043.066.087.055c.022 0 .033-.011.044-.033 0-.011.01-.033 0-.055l-.033-.164.262.164s.033.011.055 0c.043 0 .054-.043.054-.087l-.01.01Z"/><path fill="url(#r)" d="M9.034 2.396s-.022 0-.022.01c0 0-.01.012-.022.023l-.164.262-.032-.164s-.044-.066-.088-.055c-.022 0-.033.011-.043.033 0 .011-.011.033 0 .055l.032.13.262.077.164-.262s-.01-.12-.076-.109h-.011Z"/><path fill="url(#s)" d="m8.936 2.777-.24-.077-.142-.043s-.022 0-.022.022l.087.393s.022.01.022 0l.11-.11.185-.174v-.022.01Zm-.055.022-.142.142-.087.076H8.63l-.066-.306s0-.022.011-.01l.11.032.185.055.011.01Z"/><path fill="url(#t)" d="m8.838 2.8-.142-.044-.087-.022h-.011l.054.23h.011l.066-.066.109-.098Z"/><path fill="url(#u)" d="M12.834 3.629a.251.251 0 1 0 0-.502.251.251 0 0 0 0 .502Z"/><path fill="url(#v)" d="M7.1 3.64a.251.251 0 1 0 0-.503.251.251 0 0 0 0 .503Z"/><path fill="url(#w)" d="M7.91 3.367a.251.251 0 1 0 0-.503.251.251 0 0 0 0 .503Z"/><path fill="url(#x)" d="M11.97 3.367a.251.251 0 1 0 0-.502.251.251 0 0 0 0 .502Z"/><path fill="url(#y)" d="M10.41 17.561s0-.032-.023-.043l-.218-.219-.23.131v.131s.033.066.066.066c.022 0 .033 0 .044-.022a.083.083 0 0 0 .022-.044v-.163l.218.218s.033.022.044.022c.043 0 .065-.033.065-.066l.011-.01Z"/><path fill="url(#z)" d="M10.344 16.928h-.022s-.011 0-.022.011l-.219.219v-.164s-.032-.066-.065-.066c-.022 0-.033 0-.044.022a.083.083 0 0 0-.022.044v.131l.23.131.218-.218s.011-.12-.043-.12l-.011.01Z"/><path fill="url(#A)" d="m10.158 17.278-.218-.131-.131-.076s-.022 0-.022.01v.404s.01.022.022.011l.13-.076.22-.12v-.022Zm-.054 0-.164.11-.099.054H9.82v-.317s0-.01.021 0l.099.055.164.098Z"/><path fill="url(#B)" d="m10.06 17.278-.131-.077-.077-.043h-.01v.24s0 .01.01 0l.077-.044.13-.076Z"/><path fill="url(#C)" d="M11.501 17.357s-.01-.033-.033-.044l-.25-.175-.208.175.022.13s.043.066.076.055c.022 0 .033-.01.044-.032 0-.011.01-.033.01-.055l-.032-.164.251.175s.033.011.055.011c.043 0 .065-.044.054-.076h.011Z"/><path fill="url(#D)" d="M11.326 16.745h-.021l-.022.022-.175.25-.033-.163s-.043-.066-.076-.055c-.022 0-.033.011-.044.033 0 .011-.01.033-.01.055l.021.13.251.088.175-.251s0-.12-.066-.11Z"/><path fill="url(#E)" d="m11.207 17.116-.24-.088-.143-.054s-.021 0-.021.021l.076.394s.01.021.022 0l.12-.099.185-.163v-.022.01Zm-.055.021-.153.131-.087.077h-.022l-.055-.306s0-.022.011-.01l.11.043.185.065h.01Z"/><path fill="url(#F)" d="m11.108 17.138-.142-.055-.087-.033h-.01l.043.23h.01l.066-.055.11-.098.01.01Z"/><path fill="url(#G)" d="M9.394 16.91s-.01.032-.032.043l-.262.164-.197-.186.033-.131s.044-.066.087-.055c.022 0 .033.011.044.033 0 .011.01.033 0 .055l-.033.164.262-.164s.033-.011.055 0c.043 0 .065.043.054.087l-.01-.01Z"/><path fill="url(#H)" d="M9.187 17.52h-.022l-.022-.021-.164-.262-.032.164s-.044.065-.088.054c-.022 0-.032-.01-.043-.033 0-.01-.011-.032 0-.054l.032-.131.262-.088.164.262s-.01.12-.076.11h-.011Z"/><path fill="url(#I)" d="m9.089 17.128-.186-.175-.11-.098h-.021l-.087.393s0 .022.021.022l.142-.044.24-.076v-.022Zm-.055-.022-.186.066-.109.032s-.022 0-.01-.01l.065-.306s.01-.011.022 0l.087.076.142.131-.011.011Z"/><path fill="url(#J)" d="m8.99 17.117-.142.043-.087.033H8.75l.055-.23h.01l.066.066.11.099v-.011Z"/><path fill="url(#K)" d="M12.965 16.819a.251.251 0 1 0 0-.502.251.251 0 0 0 0 .502Z"/><path fill="url(#L)" d="M12.124 17.148a.251.251 0 1 0 0-.502.251.251 0 0 0 0 .502Z"/><path fill="url(#M)" d="M8.083 17.224a.251.251 0 1 0 0-.503.251.251 0 0 0 0 .503Z"/><path fill="url(#N)" d="M7.243 16.819a.251.251 0 1 0 0-.502.251.251 0 0 0 0 .502Z"/><path fill="url(#O)" d="M2.47 9.655s.033 0 .044.022l.219.219-.131.229H2.47s-.066-.033-.066-.066c0-.021 0-.032.022-.043a.083.083 0 0 1 .044-.022h.164l-.219-.219s-.022-.032-.022-.043c0-.044.033-.066.066-.066l.01-.01Z"/><path fill="url(#P)" d="M3.104 9.732v.022s0 .01-.01.021l-.22.219h.165s.065.033.065.065c0 .022 0 .033-.022.044a.082.082 0 0 1-.043.022h-.131l-.131-.23.218-.218s.12-.01.12.044l-.01.01Z"/><path fill="url(#Q)" d="m2.744 9.908-.12.218-.077.131s0 .022.011.022h.404s.022-.01.011-.022l-.076-.13-.12-.219h-.033Zm0 .044.098.174.055.099v.021H2.58s-.011 0 0-.021l.054-.099.099-.163h.01v-.011Z"/><path fill="url(#R)" d="m2.755 10.006.076.13.044.077v.011h-.24s-.011 0 0-.01l.043-.077.077-.131Z"/><path fill="url(#S)" d="M2.601 8.574s.033.011.044.033l.175.251-.175.208-.131-.022S2.448 9 2.459 8.968c0-.022.011-.033.033-.044.01 0 .033-.011.055-.011l.163.033-.174-.251s-.011-.033-.011-.055c0-.044.043-.066.076-.055v-.01Z"/><path fill="url(#T)" d="M3.213 8.76v.022l-.022.022-.251.175.164.033s.065.043.054.076c0 .022-.01.033-.032.044-.011 0-.033.01-.055.01l-.131-.021-.087-.251.25-.175s.12 0 .11.065Z"/><path fill="url(#U)" d="m2.83 8.868-.163.196-.099.12v.022l.393.077s.022 0 .022-.022l-.054-.142-.088-.24h-.01v-.011Zm0 .044.066.185.044.11s0 .021-.011.01l-.306-.054s-.011-.011 0-.022l.076-.087.12-.153h.011v.01Z"/><path fill="url(#V)" d="m2.82 8.967.055.142.032.087v.01l-.229-.043v-.01l.055-.066.098-.11h.01l-.021-.01Z"/><path fill="url(#W)" d="M3.028 10.694s-.033.01-.044.033l-.163.262.185.196.131-.033s.066-.043.055-.087c0-.022-.011-.033-.033-.043-.01 0-.033-.011-.055 0l-.163.032.163-.262s.011-.033 0-.054c0-.044-.043-.066-.087-.055l.011.01Z"/><path fill="url(#X)" d="M2.427 10.89v.022l.022.022.262.164-.163.033s-.066.043-.055.087c0 .022.01.033.033.044.01 0 .033.01.054 0l.131-.033.088-.262-.262-.164s-.12.01-.11.076v.011Z"/><path fill="url(#Y)" d="m2.799 10.989-.077.25-.043.143s0 .022.022.022l.393-.088s.01-.022 0-.022l-.099-.109L2.832 11H2.81l-.011-.011Zm.022.043.13.153.077.088v.021l-.306.066s-.021 0-.01-.01l.032-.11.055-.186h.01l.012-.022Z"/><path fill="url(#Z)" d="m2.82 11.087-.043.142-.033.088v.01l.23-.054v-.011l-.066-.066-.098-.109h-.011.022Z"/><path fill="url(#aa)" d="M3.366 7.363a.251.251 0 1 0 0-.502.251.251 0 0 0 0 .502Z"/><path fill="url(#ab)" d="M3.039 8.215a.251.251 0 1 0 0-.503.251.251 0 0 0 0 .503Z"/><path fill="url(#ac)" d="M2.962 12.245a.251.251 0 1 0 0-.503.251.251 0 0 0 0 .503Z"/><path fill="url(#ad)" d="M3.366 13.097a.251.251 0 1 0 0-.502.251.251 0 0 0 0 .502Z"/><path fill="url(#ae)" d="M17.399 9.72s-.033 0-.044.022l-.218.218.131.23h.131s.066-.033.066-.066 0-.033-.022-.043a.083.083 0 0 0-.044-.022h-.164l.219-.219s.021-.032.021-.043c0-.011-.032-.066-.065-.066l-.011-.01Z"/><path fill="url(#af)" d="M16.766 9.785v.022s0 .011.01.022l.219.219h-.164s-.065.032-.065.065c0 .022 0 .033.021.044.011.01.033.022.044.022h.131l.131-.23-.218-.218s-.12-.011-.12.044l.01.01Z"/><path fill="url(#ag)" d="m17.114 9.961-.12.219-.076.13s0 .022.01.022h.405s.022-.01.01-.021l-.076-.131-.12-.219h-.032Zm0 .044.099.175.054.098v.022h-.316s-.011 0 0-.022l.054-.098.099-.164h.01v-.011Z"/><path fill="url(#ah)" d="m17.114 10.07-.076.131-.044.077v.01h.24s.011 0 0-.01l-.044-.077-.076-.13Z"/><path fill="url(#ai)" d="M17.267 8.63s-.032.01-.043.032l-.175.252.175.207.13-.022s.066-.043.055-.076c0-.022-.01-.033-.032-.044-.011 0-.033-.01-.055-.01L17.158 9l.175-.251s.01-.033.01-.055c0-.044-.043-.065-.076-.054V8.63Z"/><path fill="url(#aj)" d="M16.656 8.816v.021l.022.022.251.175-.164.033s-.065.043-.054.076c0 .022.01.033.032.044.011 0 .033.01.055.01l.131-.021.087-.251-.25-.175s-.12 0-.11.066Z"/><path fill="url(#ak)" d="m17.027 8.936-.088.24-.054.142s0 .022.022.022l.393-.077s.022-.01 0-.022l-.099-.12-.163-.185h-.022.01Zm.022.043.12.153.076.087v.022l-.306.055s-.021 0-.01-.011l.043-.11.066-.185h.01v-.01Z"/><path fill="url(#al)" d="m17.049 9.033-.055.142-.033.088v.01l.23-.043v-.011l-.055-.066-.098-.109h-.011l.021-.01Z"/><path fill="url(#am)" d="M16.841 10.75s.033.01.044.032l.164.262-.186.197-.13-.033s-.066-.044-.055-.088c0-.021.01-.032.032-.043.011 0 .033-.011.055 0l.164.032-.164-.262s-.01-.032 0-.054c0-.044.044-.066.087-.055l-.01.011Z"/><path fill="url(#an)" d="M17.442 10.946v.022l-.021.021-.263.164.164.033s.066.044.055.087c0 .022-.011.033-.033.044-.01 0-.033.011-.055 0l-.13-.033-.088-.262.262-.164s.12.011.11.077v.01Z"/><path fill="url(#ao)" d="m17.06 11.043-.163.185-.099.11v.021l.394.088s.021 0 .021-.022l-.043-.142-.077-.24h-.033Zm0 .043.055.197.033.109s0 .022-.011.01l-.306-.065s-.01-.01 0-.021l.076-.088.132-.142H17.06Z"/><path fill="url(#ap)" d="m17.039 11.14.043.143.033.087v.011l-.23-.055v-.01l.066-.066.098-.11h.012-.022Z"/><path fill="url(#aq)" d="M16.503 7.418a.251.251 0 1 0 0-.502.251.251 0 0 0 0 .502Z"/><path fill="url(#ar)" d="M16.82 8.27a.251.251 0 1 0 0-.502.251.251 0 0 0 0 .502Z"/><path fill="url(#as)" d="M16.896 12.3a.251.251 0 1 0 0-.503.251.251 0 0 0 0 .502Z"/><path fill="url(#at)" d="M16.492 13.151a.251.251 0 1 0 0-.502.251.251 0 0 0 0 .502Z"/><defs><radialGradient id="b" cx="0" cy="0" r="1" gradientTransform="translate(9.984 9.995) scale(8.86705)" gradientUnits="userSpaceOnUse"><stop stop-color="#F69754"/><stop offset="1" stop-color="#DD7B39"/></radialGradient><radialGradient id="d" cx="0" cy="0" r="1" gradientTransform="translate(9.984 9.995) scale(4.32432)" gradientUnits="userSpaceOnUse"><stop stop-color="#F69754"/><stop offset="1" stop-color="#DD7B39"/></radialGradient><radialGradient id="e" cx="0" cy="0" r="1" gradientTransform="translate(10.115 2.548) scale(.20748)" gradientUnits="userSpaceOnUse"><stop stop-color="#F69754"/><stop offset="1" stop-color="#DD7B39"/></radialGradient><radialGradient id="f" cx="0" cy="0" r="1" gradientTransform="translate(10.115 2.907) scale(.20748)" gradientUnits="userSpaceOnUse"><stop stop-color="#F69754"/><stop offset="1" stop-color="#DD7B39"/></radialGradient><radialGradient id="g" cx="0" cy="0" r="1" gradientTransform="translate(9.907 2.733) scale(.20748)" gradientUnits="userSpaceOnUse"><stop stop-color="#F69754"/><stop offset="1" stop-color="#DD7B39"/></radialGradient><radialGradient id="h" cx="0" cy="0" r="1" gradientTransform="translate(9.885 2.733) scale(.12012)" gradientUnits="userSpaceOnUse"><stop stop-color="#F69754"/><stop offset="1" stop-color="#DD7B39"/></radialGradient><radialGradient id="m" cx="0" cy="0" r="1" gradientTransform="translate(11.185 2.624) scale(.2184)" gradientUnits="userSpaceOnUse"><stop stop-color="#F69754"/><stop offset="1" stop-color="#DD7B39"/></radialGradient><radialGradient id="n" cx="0" cy="0" r="1" gradientTransform="translate(11.054 3.029) scale(.20748)" gradientUnits="userSpaceOnUse"><stop stop-color="#F69754"/><stop offset="1" stop-color="#DD7B39"/></radialGradient><radialGradient id="o" cx="0" cy="0" r="1" gradientTransform="translate(10.912 2.722) scale(.20748)" gradientUnits="userSpaceOnUse"><stop stop-color="#F69754"/><stop offset="1" stop-color="#DD7B39"/></radialGradient><radialGradient id="p" cx="0" cy="0" r="1" gradientTransform="translate(10.9 2.744) scale(.12012)" gradientUnits="userSpaceOnUse"><stop stop-color="#F69754"/><stop offset="1" stop-color="#DD7B39"/></radialGradient><radialGradient id="q" cx="0" cy="0" r="1" gradientTransform="rotate(-8.48 24.476 -59.15) scale(.20748)" gradientUnits="userSpaceOnUse"><stop stop-color="#F69754"/><stop offset="1" stop-color="#DD7B39"/></radialGradient><radialGradient id="r" cx="0" cy="0" r="1" gradientTransform="rotate(-8.48 21.925 -58.663) scale(.20748)" gradientUnits="userSpaceOnUse"><stop stop-color="#F69754"/><stop offset="1" stop-color="#DD7B39"/></radialGradient><radialGradient id="s" cx="0" cy="0" r="1" gradientTransform="rotate(-8.48 23.482 -57.523) scale(.20748)" gradientUnits="userSpaceOnUse"><stop stop-color="#F69754"/><stop offset="1" stop-color="#DD7B39"/></radialGradient><radialGradient id="t" cx="0" cy="0" r="1" gradientTransform="rotate(-8.48 23.494 -57.451) scale(.12012)" gradientUnits="userSpaceOnUse"><stop stop-color="#F69754"/><stop offset="1" stop-color="#DD7B39"/></radialGradient><radialGradient id="u" cx="0" cy="0" r="1" gradientTransform="translate(12.834 3.378) scale(.25116)" gradientUnits="userSpaceOnUse"><stop stop-color="#F69754"/><stop offset="1" stop-color="#DD7B39"/></radialGradient><radialGradient id="v" cx="0" cy="0" r="1" gradientTransform="translate(7.1 3.388) scale(.25116)" gradientUnits="userSpaceOnUse"><stop stop-color="#F69754"/><stop offset="1" stop-color="#DD7B39"/></radialGradient><radialGradient id="w" cx="0" cy="0" r="1" gradientTransform="translate(7.91 3.116) scale(.25116)" gradientUnits="userSpaceOnUse"><stop stop-color="#F69754"/><stop offset="1" stop-color="#DD7B39"/></radialGradient><radialGradient id="x" cx="0" cy="0" r="1" gradientTransform="translate(11.97 3.116) scale(.25116)" gradientUnits="userSpaceOnUse"><stop stop-color="#F69754"/><stop offset="1" stop-color="#DD7B39"/></radialGradient><radialGradient id="y" cx="0" cy="0" r="1" gradientTransform="translate(10.169 17.463) scale(.20748)" gradientUnits="userSpaceOnUse"><stop stop-color="#F69754"/><stop offset="1" stop-color="#DD7B39"/></radialGradient><radialGradient id="z" cx="0" cy="0" r="1" gradientTransform="translate(10.169 17.103) scale(.20748)" gradientUnits="userSpaceOnUse"><stop stop-color="#F69754"/><stop offset="1" stop-color="#DD7B39"/></radialGradient><radialGradient id="A" cx="0" cy="0" r="1" gradientTransform="translate(9.973 17.289) scale(.20748)" gradientUnits="userSpaceOnUse"><stop stop-color="#F69754"/><stop offset="1" stop-color="#DD7B39"/></radialGradient><radialGradient id="B" cx="0" cy="0" r="1" gradientTransform="translate(9.95 17.289) scale(.12012)" gradientUnits="userSpaceOnUse"><stop stop-color="#F69754"/><stop offset="1" stop-color="#DD7B39"/></radialGradient><radialGradient id="C" cx="0" cy="0" r="1" gradientTransform="matrix(.218401 0 0 .2184 11.26 17.324)" gradientUnits="userSpaceOnUse"><stop stop-color="#F69754"/><stop offset="1" stop-color="#DD7B39"/></radialGradient><radialGradient id="D" cx="0" cy="0" r="1" gradientTransform="translate(11.174 16.93) scale(.20748)" gradientUnits="userSpaceOnUse"><stop stop-color="#F69754"/><stop offset="1" stop-color="#DD7B39"/></radialGradient><radialGradient id="E" cx="0" cy="0" r="1" gradientTransform="translate(11 17.192) scale(.20748)" gradientUnits="userSpaceOnUse"><stop stop-color="#F69754"/><stop offset="1" stop-color="#DD7B39"/></radialGradient><radialGradient id="F" cx="0" cy="0" r="1" gradientTransform="translate(10.988 17.181) scale(.12012)" gradientUnits="userSpaceOnUse"><stop stop-color="#F69754"/><stop offset="1" stop-color="#DD7B39"/></radialGradient><radialGradient id="G" cx="0" cy="0" r="1" gradientTransform="translate(9.143 16.942) scale(.2184)" gradientUnits="userSpaceOnUse"><stop stop-color="#F69754"/><stop offset="1" stop-color="#DD7B39"/></radialGradient><radialGradient id="H" cx="0" cy="0" r="1" gradientTransform="translate(9.045 17.335) scale(.20748)" gradientUnits="userSpaceOnUse"><stop stop-color="#F69754"/><stop offset="1" stop-color="#DD7B39"/></radialGradient><radialGradient id="I" cx="0" cy="0" r="1" gradientTransform="translate(8.881 17.063) scale(.20748)" gradientUnits="userSpaceOnUse"><stop stop-color="#F69754"/><stop offset="1" stop-color="#DD7B39"/></radialGradient><radialGradient id="J" cx="0" cy="0" r="1" gradientTransform="translate(8.87 17.073) scale(.12012)" gradientUnits="userSpaceOnUse"><stop stop-color="#F69754"/><stop offset="1" stop-color="#DD7B39"/></radialGradient><radialGradient id="K" cx="0" cy="0" r="1" gradientTransform="translate(12.965 16.568) scale(.25116)" gradientUnits="userSpaceOnUse"><stop stop-color="#F69754"/><stop offset="1" stop-color="#DD7B39"/></radialGradient><radialGradient id="L" cx="0" cy="0" r="1" gradientTransform="translate(12.124 16.897) scale(.25116)" gradientUnits="userSpaceOnUse"><stop stop-color="#F69754"/><stop offset="1" stop-color="#DD7B39"/></radialGradient><radialGradient id="M" cx="0" cy="0" r="1" gradientTransform="translate(8.083 16.972) scale(.25116)" gradientUnits="userSpaceOnUse"><stop stop-color="#F69754"/><stop offset="1" stop-color="#DD7B39"/></radialGradient><radialGradient id="N" cx="0" cy="0" r="1" gradientTransform="translate(7.243 16.568) scale(.25116)" gradientUnits="userSpaceOnUse"><stop stop-color="#F69754"/><stop offset="1" stop-color="#DD7B39"/></radialGradient><radialGradient id="O" cx="0" cy="0" r="1" gradientTransform="translate(2.569 9.896) scale(.20748)" gradientUnits="userSpaceOnUse"><stop stop-color="#F69754"/><stop offset="1" stop-color="#DD7B39"/></radialGradient><radialGradient id="P" cx="0" cy="0" r="1" gradientTransform="translate(2.93 9.896) scale(.20748)" gradientUnits="userSpaceOnUse"><stop stop-color="#F69754"/><stop offset="1" stop-color="#DD7B39"/></radialGradient><radialGradient id="Q" cx="0" cy="0" r="1" gradientTransform="translate(2.744 10.104) scale(.20748)" gradientUnits="userSpaceOnUse"><stop stop-color="#F69754"/><stop offset="1" stop-color="#DD7B39"/></radialGradient><radialGradient id="R" cx="0" cy="0" r="1" gradientTransform="translate(2.744 10.126) scale(.12012)" gradientUnits="userSpaceOnUse"><stop stop-color="#F69754"/><stop offset="1" stop-color="#DD7B39"/></radialGradient><radialGradient id="S" cx="0" cy="0" r="1" gradientTransform="translate(2.634 8.826) scale(.2184)" gradientUnits="userSpaceOnUse"><stop stop-color="#F69754"/><stop offset="1" stop-color="#DD7B39"/></radialGradient><radialGradient id="T" cx="0" cy="0" r="1" gradientTransform="translate(3.027 8.913) scale(.20748)" gradientUnits="userSpaceOnUse"><stop stop-color="#F69754"/><stop offset="1" stop-color="#DD7B39"/></radialGradient><radialGradient id="U" cx="0" cy="0" r="1" gradientTransform="translate(2.765 9.075) scale(.20748)" gradientUnits="userSpaceOnUse"><stop stop-color="#F69754"/><stop offset="1" stop-color="#DD7B39"/></radialGradient><radialGradient id="V" cx="0" cy="0" r="1" gradientTransform="translate(2.776 9.087) scale(.12012)" gradientUnits="userSpaceOnUse"><stop stop-color="#F69754"/><stop offset="1" stop-color="#DD7B39"/></radialGradient><radialGradient id="W" cx="0" cy="0" r="1" gradientTransform="translate(3.006 10.934) scale(.2184)" gradientUnits="userSpaceOnUse"><stop stop-color="#F69754"/><stop offset="1" stop-color="#DD7B39"/></radialGradient><radialGradient id="X" cx="0" cy="0" r="1" gradientTransform="translate(2.602 11.043) scale(.20748)" gradientUnits="userSpaceOnUse"><stop stop-color="#F69754"/><stop offset="1" stop-color="#DD7B39"/></radialGradient><radialGradient id="Y" cx="0" cy="0" r="1" gradientTransform="translate(2.886 11.196) scale(.20748)" gradientUnits="userSpaceOnUse"><stop stop-color="#F69754"/><stop offset="1" stop-color="#DD7B39"/></radialGradient><radialGradient id="Z" cx="0" cy="0" r="1" gradientTransform="translate(2.875 11.207) scale(.12012)" gradientUnits="userSpaceOnUse"><stop stop-color="#F69754"/><stop offset="1" stop-color="#DD7B39"/></radialGradient><radialGradient id="aa" cx="0" cy="0" r="1" gradientTransform="translate(3.366 7.112) scale(.25116)" gradientUnits="userSpaceOnUse"><stop stop-color="#F69754"/><stop offset="1" stop-color="#DD7B39"/></radialGradient><radialGradient id="ab" cx="0" cy="0" r="1" gradientTransform="translate(3.039 7.964) scale(.25116)" gradientUnits="userSpaceOnUse"><stop stop-color="#F69754"/><stop offset="1" stop-color="#DD7B39"/></radialGradient><radialGradient id="ac" cx="0" cy="0" r="1" gradientTransform="translate(2.962 11.994) scale(.25116)" gradientUnits="userSpaceOnUse"><stop stop-color="#F69754"/><stop offset="1" stop-color="#DD7B39"/></radialGradient><radialGradient id="ad" cx="0" cy="0" r="1" gradientTransform="translate(3.366 12.846) scale(.25116)" gradientUnits="userSpaceOnUse"><stop stop-color="#F69754"/><stop offset="1" stop-color="#DD7B39"/></radialGradient><radialGradient id="ae" cx="0" cy="0" r="1" gradientTransform="matrix(.207481 0 0 .20748 17.3 9.95)" gradientUnits="userSpaceOnUse"><stop stop-color="#F69754"/><stop offset="1" stop-color="#DD7B39"/></radialGradient><radialGradient id="af" cx="0" cy="0" r="1" gradientTransform="translate(16.94 9.95) scale(.20748)" gradientUnits="userSpaceOnUse"><stop stop-color="#F69754"/><stop offset="1" stop-color="#DD7B39"/></radialGradient><radialGradient id="ag" cx="0" cy="0" r="1" gradientTransform="translate(17.114 10.158) scale(.20748)" gradientUnits="userSpaceOnUse"><stop stop-color="#F69754"/><stop offset="1" stop-color="#DD7B39"/></radialGradient><radialGradient id="ah" cx="0" cy="0" r="1" gradientTransform="translate(17.114 10.18) scale(.12012)" gradientUnits="userSpaceOnUse"><stop stop-color="#F69754"/><stop offset="1" stop-color="#DD7B39"/></radialGradient><radialGradient id="ai" cx="0" cy="0" r="1" gradientTransform="translate(17.224 8.88) scale(.2184)" gradientUnits="userSpaceOnUse"><stop stop-color="#F69754"/><stop offset="1" stop-color="#DD7B39"/></radialGradient><radialGradient id="aj" cx="0" cy="0" r="1" gradientTransform="translate(16.842 8.968) scale(.20748)" gradientUnits="userSpaceOnUse"><stop stop-color="#F69754"/><stop offset="1" stop-color="#DD7B39"/></radialGradient><radialGradient id="ak" cx="0" cy="0" r="1" gradientTransform="translate(17.103 9.132) scale(.207481)" gradientUnits="userSpaceOnUse"><stop stop-color="#F69754"/><stop offset="1" stop-color="#DD7B39"/></radialGradient><radialGradient id="al" cx="0" cy="0" r="1" gradientTransform="translate(17.092 9.142) scale(.120121)" gradientUnits="userSpaceOnUse"><stop stop-color="#F69754"/><stop offset="1" stop-color="#DD7B39"/></radialGradient><radialGradient id="am" cx="0" cy="0" r="1" gradientTransform="translate(16.863 10.99) scale(.2184)" gradientUnits="userSpaceOnUse"><stop stop-color="#F69754"/><stop offset="1" stop-color="#DD7B39"/></radialGradient><radialGradient id="an" cx="0" cy="0" r="1" gradientTransform="translate(17.257 11.099) scale(.20748)" gradientUnits="userSpaceOnUse"><stop stop-color="#F69754"/><stop offset="1" stop-color="#DD7B39"/></radialGradient><radialGradient id="ao" cx="0" cy="0" r="1" gradientTransform="translate(16.984 11.25) scale(.207481)" gradientUnits="userSpaceOnUse"><stop stop-color="#F69754"/><stop offset="1" stop-color="#DD7B39"/></radialGradient><radialGradient id="ap" cx="0" cy="0" r="1" gradientTransform="translate(16.995 11.261) scale(.120121)" gradientUnits="userSpaceOnUse"><stop stop-color="#F69754"/><stop offset="1" stop-color="#DD7B39"/></radialGradient><radialGradient id="aq" cx="0" cy="0" r="1" gradientTransform="translate(16.503 7.167) scale(.251161)" gradientUnits="userSpaceOnUse"><stop stop-color="#F69754"/><stop offset="1" stop-color="#DD7B39"/></radialGradient><radialGradient id="ar" cx="0" cy="0" r="1" gradientTransform="translate(16.82 8.019) scale(.25116)" gradientUnits="userSpaceOnUse"><stop stop-color="#F69754"/><stop offset="1" stop-color="#DD7B39"/></radialGradient><radialGradient id="as" cx="0" cy="0" r="1" gradientTransform="translate(16.896 12.048) scale(.25116)" gradientUnits="userSpaceOnUse"><stop stop-color="#F69754"/><stop offset="1" stop-color="#DD7B39"/></radialGradient><radialGradient id="at" cx="0" cy="0" r="1" gradientTransform="translate(16.492 12.9) scale(.251161)" gradientUnits="userSpaceOnUse"><stop stop-color="#F69754"/><stop offset="1" stop-color="#DD7B39"/></radialGradient><linearGradient id="a" x1="3.661" x2="17.551" y1="16.558" y2="2.143" gradientUnits="userSpaceOnUse"><stop stop-color="#EE8834"/><stop offset=".5" stop-color="#FFAC75"/><stop offset="1" stop-color="#FE933A"/></linearGradient><linearGradient id="c" x1="4.819" x2="17.573" y1="6.249" y2="15.487" gradientUnits="userSpaceOnUse"><stop stop-color="#EE8834"/><stop offset=".25" stop-color="#F9B88C"/><stop offset=".53" stop-color="#FF9D4E"/><stop offset=".78" stop-color="#F9B687"/><stop offset="1" stop-color="#FE933A"/></linearGradient><linearGradient id="i" x1="8.992" x2="10.781" y1="9.364" y2="9.364" gradientUnits="userSpaceOnUse"><stop stop-color="#EE8834"/><stop offset=".25" stop-color="#FEAD76"/><stop offset=".53" stop-color="#FF9D4E"/><stop offset=".78" stop-color="#FFAC75"/><stop offset="1" stop-color="#FE933A"/></linearGradient><linearGradient id="j" x1="291.043" x2="10.781" y1="10.695" y2="10.695" gradientUnits="userSpaceOnUse"><stop stop-color="#EE8834"/><stop offset=".25" stop-color="#FEAD76"/><stop offset=".53" stop-color="#FF9D4E"/><stop offset=".78" stop-color="#FFAC75"/><stop offset="1" stop-color="#FE933A"/></linearGradient><linearGradient id="k" x1="8.39" x2="9.831" y1="10.036" y2="10.036" gradientUnits="userSpaceOnUse"><stop stop-color="#EE8834"/><stop offset=".25" stop-color="#FEAD76"/><stop offset=".53" stop-color="#FF9D4E"/><stop offset=".78" stop-color="#FFAC75"/><stop offset="1" stop-color="#FE933A"/></linearGradient><linearGradient id="l" x1="8.612" x2="9.467" y1="10.036" y2="10.036" gradientUnits="userSpaceOnUse"><stop stop-color="#EE8834"/><stop offset=".25" stop-color="#FEAD76"/><stop offset=".53" stop-color="#FF9D4E"/><stop offset=".78" stop-color="#FFAC75"/><stop offset="1" stop-color="#FE933A"/></linearGradient></defs></svg>