<svg width="18" height="18" viewBox="0 0 18 18" fill="none" xmlns="http://www.w3.org/2000/svg">
<path d="M9 18C4.0293 18 0 13.9707 0 9C0 4.0293 4.0293 0 9 0C13.9707 0 18 4.0293 18 9C18 13.9707 13.9707 18 9 18ZM9 16.2C10.9096 16.2 12.7409 15.4414 14.0912 14.0912C15.4414 12.7409 16.2 10.9096 16.2 9C16.2 7.09044 15.4414 5.25909 14.0912 3.90883C12.7409 2.55857 10.9096 1.8 9 1.8C7.09044 1.8 5.25909 2.55857 3.90883 3.90883C2.55857 5.25909 1.8 7.09044 1.8 9C1.8 10.9096 2.55857 12.7409 3.90883 14.0912C5.25909 15.4414 7.09044 16.2 9 16.2ZM13.05 4.95L10.8 10.8L4.95 13.05L7.2 7.2L13.05 4.95ZM9 9.9C9.23869 9.9 9.46761 9.80518 9.6364 9.6364C9.80518 9.46761 9.9 9.23869 9.9 9C9.9 8.7613 9.80518 8.53239 9.6364 8.3636C9.46761 8.19482 9.23869 8.1 9 8.1C8.7613 8.1 8.53239 8.19482 8.3636 8.3636C8.19482 8.53239 8.1 8.7613 8.1 9C8.1 9.23869 8.19482 9.46761 8.3636 9.6364C8.53239 9.80518 8.7613 9.9 9 9.9Z" fill="url(#paint0_linear_199_30622)"/>
<defs>
<linearGradient id="paint0_linear_199_30622" x1="9" y1="-10.6287" x2="25.9021" y2="7.72785" gradientUnits="userSpaceOnUse">
<stop stop-color="#8A2387"/>
<stop offset="0.422991" stop-color="#E94057"/>
<stop offset="0.784813" stop-color="#F27121"/>
</linearGradient>
</defs>
</svg>
