<svg width="18" height="20" viewBox="0 0 18 20" fill="none" xmlns="http://www.w3.org/2000/svg">
<path d="M3.62412 8.42616C3.62412 8.42616 2.67477 7.67968 2.29656 8.13959C1.91835 8.59951 2.09498 9.32759 2.31923 9.69022C2.6931 10.2947 4.80989 13.1317 6.92739 14.1399C7.55696 14.4168 10.1052 15.0004 10.7894 17.3989C10.9639 17.9072 12.0495 18.8556 14.4878 16.194C17.4575 12.1363 14.3933 13.1175 14.1601 11.8457C13.9269 10.574 14.5964 9.15193 13.1355 7.33496C11.6745 5.51797 11.4572 5.34131 11.2041 4.85228C11.2041 4.85228 10.9317 4.21939 10.5216 4.34433C10.1115 4.46926 9.51894 5.40879 9.92379 6.24354L6.55533 2.73583C6.55533 2.73583 5.64904 2.0335 5.14326 2.69145C4.43954 3.60689 5.20452 4.42982 5.20452 4.42982C5.20452 4.42982 4.27227 3.04576 3.41004 3.90968C3.20538 4.11474 2.82445 4.81198 3.50767 5.55239C3.50767 5.55239 2.92308 5.29933 2.46369 5.86993C2.17458 6.22905 2.17957 7.36039 3.62412 8.42616Z" fill="#FCCC44"/>
<path d="M7.76049 9.60206C7.84767 9.42594 7.40116 8.89203 7.17332 8.62576C6.04503 7.3073 4.80857 6.20713 3.66282 4.90767C3.45619 4.67333 3.41538 4.1545 3.56761 3.77853C3.51627 3.81467 3.46496 3.8574 3.4139 3.90855C3.20927 4.11359 2.82834 4.81078 3.51152 5.55111C3.51152 5.55111 3.50461 5.54835 3.49443 5.54461C4.56651 6.74645 5.81754 7.83545 6.88887 9.03812C7.11627 9.29341 7.71141 9.70121 7.76049 9.60206Z" fill="#DF9A17"/>
<path d="M5.20779 4.42921C5.19509 4.41546 5.18493 4.40156 5.17287 4.38777C5.1943 4.41462 5.20779 4.42921 5.20779 4.42921Z" fill="#FCCC44"/>
<path d="M5.08753 4.28949C5.06915 4.26704 5.0488 4.24289 5.02627 4.21716C5.06581 4.27468 5.11004 4.33199 5.15985 4.38901C5.14089 4.36524 5.11574 4.33184 5.08753 4.28949Z" fill="#DF9A17"/>
<path d="M5.1811 4.38841C5.19315 4.4022 5.20331 4.41612 5.216 4.42987C5.216 4.42987 5.17712 4.37245 5.10878 4.28888C5.13699 4.33123 5.16214 4.36463 5.1811 4.38841Z" fill="#DF9A17"/>
<path d="M5.10217 4.28833C5.17052 4.3719 5.2094 4.42932 5.2094 4.42932C5.2094 4.42932 5.41707 4.6601 5.40687 4.65637C6.47896 5.85822 6.87323 6.03067 7.94455 7.23332C8.17196 7.48862 8.76707 7.89643 8.81615 7.79729C8.90334 7.62115 8.45684 7.08723 8.229 6.82096C7.10072 5.50251 6.52676 5.08352 5.38101 3.78407C5.17468 3.55009 5.10912 2.94947 5.26052 2.57339C5.2215 2.6069 5.18363 2.64489 5.14812 2.69108C4.6191 3.37928 4.92014 4.01508 5.10217 4.28833Z" fill="#DF9A17"/>
<path d="M10.8054 17.3946C10.8058 17.3956 10.8061 17.3966 10.8064 17.3976C10.8222 17.4438 10.8458 17.4936 10.8771 17.5441C10.8642 17.5177 10.851 17.4923 10.839 17.4634C10.8284 17.4381 10.8171 17.4156 10.8054 17.3946Z" fill="#FCCC44"/>
<path d="M14.1742 16.5163C14.0332 16.5598 13.9112 16.5991 13.8896 16.5992C12.6265 16.601 11.7408 15.7526 10.823 14.9724C10.5511 14.7413 10.213 14.7433 9.8905 14.6307C7.72219 13.8744 7.11398 14.2766 4.9957 12.3435C4.66554 12.0422 4.29862 11.6668 4.00833 11.3181C3.52593 10.7386 3.14596 10.2169 2.68892 9.61311C2.48275 9.34072 2.16622 8.80515 2.41112 8.36295C2.59353 8.03356 3.31474 8.32061 3.53967 8.59665C3.65118 8.73353 4.03991 9.16024 4.1569 9.29164C4.80862 10.0238 5.0441 10.2064 5.70786 10.925C5.86826 11.0986 6.39885 11.4692 6.48794 11.3581C6.58253 11.2403 5.99292 10.4402 5.78323 10.1907C5.16871 9.4595 4.94461 9.28746 4.31163 8.59836C3.73616 7.97188 2.37817 6.77968 2.52958 5.78942C2.50579 5.81422 2.48205 5.83957 2.45882 5.86843C2.17071 6.2263 2.17513 7.35099 3.6046 8.41347C3.6135 8.42019 3.61928 8.42465 3.61928 8.42465C3.61422 8.42092 3.60963 8.41718 3.6046 8.41347C3.48725 8.32468 2.64326 7.71056 2.2917 8.13808C1.9135 8.598 1.94488 9.39639 2.16915 9.75901C2.543 10.3635 5.08833 13.7015 8.09479 14.9871C8.72649 15.2573 9.66712 15.3251 10.7836 17.3944C10.7953 17.4154 10.8066 17.4379 10.8172 17.4632C10.8292 17.4921 10.8424 17.5175 10.8553 17.5439C11.1528 18.0243 12.1641 18.5562 14.1742 16.5163Z" fill="#DF9A17"/>
<path d="M5.21599 4.42987C5.21599 4.42987 5.17711 4.37245 5.10877 4.28888C5.16885 4.37908 5.21599 4.42987 5.21599 4.42987Z" fill="#FCCC44"/>
<path d="M14.1714 11.8437C13.9383 10.5719 14.6078 9.14984 13.1468 7.33287C11.6859 5.5159 11.4686 5.3392 11.2154 4.85018C11.2154 4.85018 10.9431 4.21731 10.533 4.34223C10.1228 4.46718 9.4447 5.44355 10.0784 6.42638C10.5639 7.17931 10.6106 7.14723 11.4447 8.05267C11.6227 8.246 11.8819 8.47235 11.9774 8.21057C12.0159 8.10511 11.7907 7.92734 11.6515 7.76884C11.5543 7.65824 11.4382 7.49532 11.3348 7.38973C10.7785 6.82167 10.1685 6.35535 10.1462 5.48677C10.1411 5.29012 10.2831 4.66491 10.5122 4.56275C10.7693 4.4481 11.0134 4.8039 11.0925 5.00677C11.4034 5.80444 12.0277 6.28041 12.4516 6.94816C13.2974 8.28082 13.8491 9.32714 13.7509 11.4688C13.7367 11.7767 13.5496 12.2947 13.8383 12.4411C14.3789 12.7151 15.178 13.3625 15.7538 13.8914C16.0431 12.4962 14.3428 12.7782 14.1714 11.8437Z" fill="#DF9A17"/>
</svg>
