<svg width="24" height="24" viewBox="0 0 24 24" fill="none" xmlns="http://www.w3.org/2000/svg">
<path d="M6.75008 9.75001C5.92039 9.75001 5.25008 10.4156 5.25008 11.2078C5.25008 12.0797 5.92039 12.75 6.75008 12.75C7.57977 12.75 8.20789 12.082 8.20789 11.25C8.20789 10.418 7.58446 9.75001 6.75008 9.75001ZM12.0001 9.70782C11.168 9.70782 10.5423 10.3758 10.5423 11.2078C10.5423 12.0399 11.2102 12.6656 12.0001 12.6656C12.7899 12.6656 13.4579 11.9977 13.4579 11.2078C13.4579 10.418 12.8345 9.70782 12.0001 9.70782ZM17.2501 9.75001C16.418 9.75001 15.7923 10.418 15.7923 11.25C15.7923 12.082 16.4602 12.75 17.2501 12.75C18.0821 12.75 18.7496 12.082 18.7496 11.25C18.7501 10.4156 18.0845 9.75001 17.2501 9.75001ZM12.0001 1.45782C5.37196 1.45782 0.0422683 5.82282 0.0422683 11.2078C0.0422683 13.44 0.97555 15.4852 2.52242 17.1281C1.82539 18.9797 0.372268 20.5444 0.348831 20.5617C0.0383308 20.8899 -0.0436536 21.3703 0.132081 21.7805C0.2728 22.2281 0.674143 22.5 1.12508 22.5C4.00742 22.5 6.23914 21.293 7.64539 20.332C8.99868 20.7539 10.4654 21 12.0001 21C18.6282 21 23.9579 16.6345 23.9579 11.2922C23.9579 5.94986 18.6282 1.45782 12.0001 1.45782ZM12.0001 18.75C10.7462 18.75 9.51008 18.5567 8.32696 18.1819L7.26055 17.8479L6.34696 18.4922C5.67899 18.9666 4.7593 19.4944 3.65211 19.8516C3.99777 19.2834 4.32571 18.6445 4.58352 17.9649L5.08133 16.6524L4.11477 15.6272C3.27242 14.7234 2.25289 13.2281 2.25289 11.25C2.25289 7.11329 6.62352 3.75001 11.9607 3.75001C17.2979 3.75001 21.6685 7.11329 21.6685 11.25C21.6685 15.3867 17.3813 18.75 12.0001 18.75Z" fill="#A1A1A1"/>
</svg>
