<svg xmlns="http://www.w3.org/2000/svg" width="20" height="20" fill="none"><path fill="url(#a)" d="m19.451 8.76-.306-.283a1.686 1.686 0 0 1-.47-1.748l.132-.393a1.672 1.672 0 0 0-1.234-2.14l-.404-.087a1.68 1.68 0 0 1-1.278-1.278l-.087-.404a1.665 1.665 0 0 0-2.14-1.234l-.393.131c-.623.197-1.3.011-1.748-.47L11.24.55a1.674 1.674 0 0 0-2.478 0l-.284.305a1.686 1.686 0 0 1-1.748.47l-.393-.131a1.672 1.672 0 0 0-2.14 1.234l-.087.404A1.68 1.68 0 0 1 2.83 4.109l-.404.087a1.665 1.665 0 0 0-1.234 2.14l.131.393c.197.623.011 1.3-.47 1.748L.55 8.76a1.674 1.674 0 0 0 0 2.478l.305.284c.481.437.667 1.125.47 1.748l-.131.393a1.672 1.672 0 0 0 1.234 2.14l.404.087a1.68 1.68 0 0 1 1.278 1.278l.087.404a1.665 1.665 0 0 0 2.14 1.234l.393-.131c.623-.197 1.3-.011 1.748.47l.284.305a1.674 1.674 0 0 0 2.478 0l.284-.306a1.686 1.686 0 0 1 1.748-.47l.393.132a1.672 1.672 0 0 0 2.14-1.234l.087-.404a1.68 1.68 0 0 1 1.278-1.278l.404-.087a1.665 1.665 0 0 0 1.234-2.14l-.131-.393c-.197-.623-.011-1.3.47-1.748l.305-.284a1.674 1.674 0 0 0 0-2.478Zm-1.08 2.338-.274.25c-.426.394-.59.994-.415 1.551l.11.35c.261.83-.24 1.714-1.093 1.9l-.36.076a1.492 1.492 0 0 0-1.136 1.136l-.076.36a1.478 1.478 0 0 1-1.9 1.092l-.35-.109a1.496 1.496 0 0 0-1.55.415l-.251.273a1.488 1.488 0 0 1-2.195 0l-.251-.273a1.496 1.496 0 0 0-1.551-.415l-.35.11a1.486 1.486 0 0 1-1.9-1.093l-.076-.36a1.492 1.492 0 0 0-1.136-1.136l-.36-.076a1.478 1.478 0 0 1-1.092-1.9l.11-.35a1.496 1.496 0 0 0-.416-1.55l-.273-.252a1.488 1.488 0 0 1 0-2.194l.273-.252c.426-.393.59-.993.415-1.55l-.11-.35a1.485 1.485 0 0 1 1.093-1.9l.36-.076a1.492 1.492 0 0 0 1.136-1.136l.076-.36a1.478 1.478 0 0 1 1.9-1.092l.35.109c.557.175 1.157.01 1.55-.415l.252-.273a1.488 1.488 0 0 1 2.195 0l.25.273c.394.426.994.59 1.551.415l.35-.11c.83-.261 1.714.241 1.9 1.093l.076.36c.12.568.568 1.005 1.136 1.136l.36.076a1.478 1.478 0 0 1 1.092 1.9l-.109.35a1.496 1.496 0 0 0 .415 1.55l.273.252c.645.59.645 1.605 0 2.194Z"/><path fill="url(#b)" d="m18.37 8.892-.273-.251a1.496 1.496 0 0 1-.415-1.55l.11-.35a1.485 1.485 0 0 0-1.093-1.9l-.36-.077a1.492 1.492 0 0 1-1.135-1.135l-.077-.36a1.478 1.478 0 0 0-1.9-1.093l-.35.11a1.496 1.496 0 0 1-1.55-.415l-.251-.273a1.488 1.488 0 0 0-2.195 0l-.251.273c-.393.425-.994.59-1.551.415l-.35-.11a1.485 1.485 0 0 0-1.9 1.092l-.076.36a1.492 1.492 0 0 1-1.136 1.136l-.36.077a1.478 1.478 0 0 0-1.092 1.9l.11.35c.174.556.01 1.157-.416 1.55l-.273.251a1.488 1.488 0 0 0 0 2.195l.273.251c.426.393.59.994.415 1.55l-.109.35c-.262.83.24 1.715 1.092 1.9l.36.077c.568.12 1.005.568 1.136 1.136l.076.36a1.478 1.478 0 0 0 1.9 1.092l.35-.11a1.497 1.497 0 0 1 1.55.416l.252.273c.59.644 1.605.644 2.195 0l.25-.273c.394-.426.995-.59 1.551-.415l.35.109c.83.262 1.714-.24 1.9-1.092l.076-.36a1.492 1.492 0 0 1 1.136-1.136l.36-.077a1.478 1.478 0 0 0 1.092-1.9l-.109-.35a1.497 1.497 0 0 1 .415-1.55l.273-.25a1.488 1.488 0 0 0 0-2.196Zm-8.386 8.966A7.876 7.876 0 0 1 2.11 9.984a7.876 7.876 0 0 1 7.874-7.873 7.876 7.876 0 0 1 7.873 7.873 7.876 7.876 0 0 1-7.873 7.874Z"/><path fill="url(#c)" d="M9.984 17.867a7.873 7.873 0 1 0 0-15.747 7.873 7.873 0 0 0 0 15.747Z"/><path fill="url(#d)" d="m10.42 6.052.95 2.424 2.6.153a.47.47 0 0 1 .273.83l-2.01 1.65.656 2.522c.109.415-.35.742-.7.513l-2.194-1.398L7.8 14.144a.464.464 0 0 1-.699-.513l.655-2.523-2.01-1.649a.47.47 0 0 1 .274-.83l2.599-.153.95-2.424a.463.463 0 0 1 .863 0h-.011Z"/><path stroke="#5097F7" stroke-miterlimit="10" stroke-width=".1" d="M16.406 11.044A6.508 6.508 0 1 0 3.56 8.94a6.508 6.508 0 0 0 12.846 2.105Z"/><path fill="url(#e)" d="M10.344 2.45s0 .032-.022.043l-.218.219-.23-.131v-.132s.033-.065.066-.065c.022 0 .033 0 .044.022.01.01.022.033.022.043v.164l.218-.218s.033-.022.044-.022c.043 0 .065.033.065.066l.011.01Z"/><path fill="url(#f)" d="M10.278 3.083h-.022s-.01 0-.021-.011l-.219-.219v.164s-.033.066-.065.066c-.022 0-.033 0-.044-.022a.083.083 0 0 1-.022-.044v-.131l.23-.131.218.218s.01.12-.044.12l-.01-.01Z"/><path fill="url(#g)" d="m10.093 2.722-.218-.13-.131-.077s-.022 0-.022.01v.405s.01.022.022.01l.13-.076.219-.12v-.022Zm-.055 0-.163.11-.099.054h-.022v-.317s0-.01.022 0l.099.055.163.098Z"/><path fill="url(#h)" d="m9.995 2.733-.131.076-.077.044h-.01v-.24s0-.011.01 0l.077.044.13.076Z"/><path fill="url(#i)" d="M11.163 8.948a.217.217 0 0 1-.076.174l-.83.798-.885-.492v-.48c0-.142.12-.252.262-.252a.263.263 0 0 1 .262.252v.611l.82-.797s.12-.076.185-.076c.153 0 .262.12.262.25v.012Z"/><path fill="url(#j)" d="M10.901 11.263s-.065 0-.098-.022a.237.237 0 0 1-.088-.055l-.819-.797v.612c0 .142-.12.25-.262.25a.263.263 0 0 1-.262-.25v-.48l.885-.492.83.797c.164.164.043.437-.186.437Z"/><path fill="url(#k)" d="M10.224 9.961s-.011-.021-.033-.032l-.82-.459-.501-.284s-.088 0-.088.055v1.474s.055.076.088.055l.502-.284.819-.459.033-.033v-.033Zm-.197.033s0 .022-.022.022l-.633.36-.393.219s-.066 0-.066-.044V9.405s.033-.055.066-.044l.393.218.633.36s.022.012.022.022v.033Z"/><path fill="url(#l)" d="M9.842 9.983s0 .011-.011.022l-.48.262-.296.164s-.054 0-.054-.033v-.863s.033-.043.054-.032l.295.163.48.262s.012.011.012.022v.033Z"/><path fill="url(#m)" d="M11.437 2.613s-.011.032-.033.043l-.262.153-.186-.186.033-.13s.044-.055.087-.044c.022 0 .033.022.044.032 0 .011.01.033 0 .055l-.044.164.262-.153s.033-.01.055 0c.044 0 .055.055.044.087v-.021Z"/><path fill="url(#n)" d="M11.208 3.203s-.022 0-.022-.011l-.022-.022-.153-.262-.044.164s-.043.054-.087.043c-.022 0-.033-.022-.044-.032 0-.011-.01-.033 0-.055l.033-.131.262-.066.153.263s-.022.12-.076.098v.01Z"/><path fill="url(#o)" d="m11.12 2.82-.175-.185-.109-.11h-.022l-.109.394s0 .021.022.021l.153-.043.24-.066h.011l-.011-.01Zm-.055-.022-.185.055-.12.033s-.022 0-.011-.011l.076-.306s.011-.01.022 0l.087.087.142.142h-.01Z"/><path fill="url(#p)" d="m11.021 2.799-.142.044-.087.021s-.011 0-.011-.01l.066-.23h.01l.066.066.098.098v.01Z"/><path fill="url(#q)" d="M9.242 2.997s-.011-.033-.033-.044l-.262-.164-.197.186.033.131s.044.066.087.055c.022 0 .033-.011.044-.033 0-.011.011-.033 0-.055l-.033-.164.262.164s.033.011.055 0c.044 0 .055-.043.055-.087l-.011.01Z"/><path fill="url(#r)" d="M9.034 2.397s-.022 0-.022.011l-.021.022-.164.262-.033-.164s-.044-.065-.087-.054c-.022 0-.033.01-.044.032 0 .011-.011.033 0 .055l.033.131.262.076.164-.262s-.011-.12-.077-.109h-.01Z"/><path fill="url(#s)" d="m8.936 2.778-.24-.077-.142-.043s-.022 0-.022.022l.087.393s.022.01.022 0l.11-.11.185-.174v-.022.01Zm-.054.022-.142.142-.088.076H8.63l-.065-.306s0-.022.01-.01l.11.032.186.055.01.01Z"/><path fill="url(#t)" d="m8.839 2.8-.142-.043-.088-.022H8.6l.054.23h.011l.066-.066.109-.099Z"/><path fill="url(#u)" d="M12.834 3.63a.251.251 0 1 0 0-.503.251.251 0 0 0 0 .503Z"/><path fill="url(#v)" d="M7.1 3.64a.251.251 0 1 0 0-.503.251.251 0 0 0 0 .502Z"/><path fill="url(#w)" d="M7.909 3.367a.251.251 0 1 0 0-.502.251.251 0 0 0 0 .502Z"/><path fill="url(#x)" d="M11.971 3.367a.251.251 0 1 0 0-.502.251.251 0 0 0 0 .502Z"/><path fill="url(#y)" d="M10.41 17.562s0-.033-.023-.044l-.218-.218-.23.131v.131s.034.066.066.066c.022 0 .033 0 .044-.022a.083.083 0 0 0 .022-.044v-.164l.218.219s.033.021.044.021c.044 0 .066-.032.066-.065l.01-.011Z"/><path fill="url(#z)" d="M10.343 16.929h-.022s-.01 0-.021.01l-.219.22v-.165s-.033-.065-.065-.065c-.022 0-.033 0-.044.022a.083.083 0 0 0-.022.043v.131l.23.131.218-.218s.01-.12-.044-.12l-.01.01Z"/><path fill="url(#A)" d="m10.158 17.278-.218-.13-.131-.077s-.022 0-.022.01v.405s.01.021.022.01l.13-.076.22-.12v-.022Zm-.054 0-.164.11-.098.054H9.82v-.317s0-.01.022 0l.098.055.164.098Z"/><path fill="url(#B)" d="m10.06 17.278-.13-.077-.077-.044h-.011v.24s0 .012.01 0l.077-.043.131-.076Z"/><path fill="url(#C)" d="M11.501 17.357s-.01-.033-.032-.044l-.252-.175-.207.175.022.13s.043.066.076.055c.022 0 .033-.01.044-.032 0-.011.01-.033.01-.055l-.032-.164.251.175s.033.01.055.01c.044 0 .065-.043.055-.075h.01Z"/><path fill="url(#D)" d="M11.326 16.745h-.021l-.022.022-.175.25-.033-.163s-.043-.066-.076-.055c-.022 0-.033.011-.044.033 0 .011-.01.033-.01.055l.021.13.251.088.175-.251s0-.12-.066-.11Z"/><path fill="url(#E)" d="m11.207 17.116-.24-.087-.143-.055s-.021 0-.021.022l.076.393s.011.022.022 0l.12-.098.186-.164v-.021.01Zm-.055.022L11 17.27l-.087.077h-.022l-.055-.306s0-.022.011-.01l.11.043.185.065h.011Z"/><path fill="url(#F)" d="m11.109 17.138-.142-.055-.088-.032h-.01l.043.229h.011l.066-.055.109-.098.01.011Z"/><path fill="url(#G)" d="M9.394 16.91s-.01.032-.032.043l-.262.164-.197-.186.033-.131s.044-.066.087-.055c.022 0 .033.011.044.033 0 .011.01.033 0 .055l-.033.164.262-.164s.033-.011.055 0c.043 0 .065.043.054.087l-.01-.01Z"/><path fill="url(#H)" d="M9.187 17.521h-.022l-.022-.022-.164-.262-.032.164s-.044.066-.088.055c-.022 0-.032-.011-.043-.033 0-.011-.011-.033 0-.055l.032-.13.262-.088.164.262s-.01.12-.076.11h-.011Z"/><path fill="url(#I)" d="m9.089 17.128-.186-.175-.11-.098h-.02l-.088.393s0 .022.022.022l.141-.044.24-.076v-.022Zm-.055-.022-.186.066-.109.032s-.022 0-.01-.01l.065-.306s.01-.011.022 0l.087.076.142.131-.01.011Z"/><path fill="url(#J)" d="m8.99 17.116-.142.044-.087.033h-.01l.054-.23h.01l.066.066.11.098v-.01Z"/><path fill="url(#K)" d="M12.965 16.82a.251.251 0 1 0 0-.503.251.251 0 0 0 0 .503Z"/><path fill="url(#L)" d="M12.124 17.147a.251.251 0 1 0 0-.502.251.251 0 0 0 0 .502Z"/><path fill="url(#M)" d="M8.083 17.223a.251.251 0 1 0 0-.502.251.251 0 0 0 0 .502Z"/><path fill="url(#N)" d="M7.242 16.82a.251.251 0 1 0 0-.503.251.251 0 0 0 0 .503Z"/><path fill="url(#O)" d="M2.471 9.654s.033 0 .044.022l.218.219-.131.229h-.131s-.066-.033-.066-.066c0-.021 0-.032.022-.043a.082.082 0 0 1 .044-.022h.164l-.219-.219s-.021-.032-.021-.043c0-.044.032-.066.065-.066l.011-.01Z"/><path fill="url(#P)" d="M3.105 9.732v.021s0 .011-.011.022l-.219.219h.164s.066.032.066.065c0 .022 0 .033-.022.044a.083.083 0 0 1-.044.022h-.131l-.131-.23.218-.218s.12-.011.12.044l-.01.01Z"/><path fill="url(#Q)" d="m2.744 9.907-.12.218-.077.131s0 .022.011.022h.404s.022-.01.011-.022l-.076-.13-.12-.219h-.033Zm0 .044.098.174.055.099v.021H2.58s-.01 0 0-.021l.055-.099.098-.163h.01V9.95Z"/><path fill="url(#R)" d="m2.755 10.005.076.13.044.077v.011h-.24s-.011 0 0-.01l.043-.077.077-.131Z"/><path fill="url(#S)" d="M2.6 8.574s.034.011.045.033l.174.251-.174.208-.132-.022S2.448 9 2.46 8.967c0-.022.01-.032.033-.043.01 0 .032-.011.054-.011l.164.032-.175-.25s-.01-.033-.01-.055c0-.044.043-.066.076-.055v-.01Z"/><path fill="url(#T)" d="M3.213 8.76v.022l-.022.022-.25.175.163.032s.065.044.055.077c0 .022-.011.033-.033.044-.011 0-.033.01-.055.01l-.13-.021-.088-.252.25-.174s.121 0 .11.065Z"/><path fill="url(#U)" d="m2.83 8.867-.163.197-.099.12v.022l.394.076s.021 0 .021-.022l-.054-.142-.088-.24h-.01v-.01Zm0 .044.066.186.044.109s0 .022-.011.01l-.306-.054s-.01-.01 0-.022l.077-.087.12-.153h.01v.01Z"/><path fill="url(#V)" d="m2.82 8.966.055.142.032.087v.011l-.229-.043v-.011l.055-.066.098-.11h.01l-.02-.01Z"/><path fill="url(#W)" d="M3.028 10.693s-.033.011-.044.033l-.163.262.185.197.131-.033s.066-.044.055-.087c0-.022-.011-.033-.033-.044-.01 0-.033-.01-.054 0l-.164.033.164-.262s.01-.033 0-.055c0-.044-.044-.065-.088-.055l.011.011Z"/><path fill="url(#X)" d="M2.427 10.89v.021l.022.022.262.164-.163.033s-.066.043-.055.087c0 .022.01.033.033.044.01 0 .033.01.054 0l.131-.033.088-.262-.262-.164s-.12.011-.11.077v.01Z"/><path fill="url(#Y)" d="m2.799 10.99-.076.25-.044.143s0 .022.022.022l.393-.088s.01-.022 0-.022l-.098-.109-.164-.185H2.81l-.011-.011Zm.022.043.13.153.077.088v.021l-.305.066s-.022 0-.011-.011l.032-.11.055-.185h.01l.012-.022Z"/><path fill="url(#Z)" d="m2.821 11.088-.044.142-.032.088v.01l.229-.054v-.01l-.066-.066-.098-.11H2.8h.021Z"/><path fill="url(#aa)" d="M3.366 7.363a.251.251 0 1 0 0-.502.251.251 0 0 0 0 .502Z"/><path fill="url(#ab)" d="M3.039 8.215a.251.251 0 1 0 0-.502.251.251 0 0 0 0 .502Z"/><path fill="url(#ac)" d="M2.962 12.245a.251.251 0 1 0 0-.502.251.251 0 0 0 0 .502Z"/><path fill="url(#ad)" d="M3.366 13.097a.251.251 0 1 0 0-.503.251.251 0 0 0 0 .503Z"/><path fill="url(#ae)" d="M17.4 9.72s-.033 0-.044.023l-.219.218.131.23h.131s.066-.034.066-.066c0-.033 0-.033-.022-.044a.082.082 0 0 0-.044-.022h-.163l.218-.218s.022-.033.022-.044c0-.01-.033-.065-.066-.065l-.01-.011Z"/><path fill="url(#af)" d="M16.766 9.786v.022s0 .01.01.022l.22.218h-.165s-.065.033-.065.066c0 .021 0 .032.022.043a.083.083 0 0 0 .043.022h.131l.131-.23-.218-.218s-.12-.01-.12.044l.01.011Z"/><path fill="url(#ag)" d="m17.114 9.961-.12.219-.076.13s0 .023.01.023h.405s.022-.011.01-.022l-.076-.131-.12-.219h-.032Zm0 .044.099.175.054.098v.022h-.316s-.011 0 0-.022l.054-.098.099-.164h.01v-.011Z"/><path fill="url(#ah)" d="m17.114 10.07-.076.13-.044.077v.011h.24s.01 0 0-.01l-.044-.077-.076-.131Z"/><path fill="url(#ai)" d="M17.268 8.629s-.033.01-.044.033l-.175.25.175.208.131-.022s.066-.043.055-.076c0-.022-.011-.033-.033-.044-.011 0-.033-.01-.055-.01L17.158 9l.175-.251s.011-.033.011-.055c0-.043-.044-.065-.076-.054v-.011Z"/><path fill="url(#aj)" d="M16.656 8.815v.022l.022.022.251.174-.164.033s-.065.044-.054.077c0 .021.01.032.032.043.011 0 .033.011.055.011l.131-.022.087-.25-.25-.176s-.12 0-.11.066Z"/><path fill="url(#ak)" d="m17.027 8.935-.088.24-.054.142s0 .022.022.022l.393-.076s.022-.011 0-.022l-.099-.12-.163-.186h-.022.01Zm.022.044.12.153.076.087v.022l-.306.055s-.021 0-.01-.011l.043-.11.066-.185h.01v-.011Z"/><path fill="url(#al)" d="m17.049 9.033-.055.142-.033.087v.011l.23-.044v-.01l-.055-.066-.098-.11h-.011l.022-.01Z"/><path fill="url(#am)" d="M16.842 10.75s.033.011.044.033l.163.262-.185.196-.131-.032s-.066-.044-.055-.088c0-.021.01-.032.033-.043.01 0 .033-.011.054 0l.164.032-.164-.262s-.01-.032 0-.054c0-.044.044-.066.088-.055l-.011.011Z"/><path fill="url(#an)" d="M17.443 10.946v.022l-.022.022-.262.164.164.033s.066.043.055.087c0 .022-.011.033-.033.044-.011 0-.033.01-.055 0l-.13-.033-.088-.262.262-.164s.12.01.11.076v.011Z"/><path fill="url(#ao)" d="m17.06 11.043-.164.186-.098.109v.022l.393.087s.022 0 .022-.022l-.044-.142-.076-.24h-.033Zm0 .044.055.196.033.11s0 .021-.011.01l-.306-.065s-.011-.011 0-.022l.076-.087.131-.142h.022Z"/><path fill="url(#ap)" d="m17.038 11.142.044.142.033.087v.01l-.23-.054v-.01l.066-.066.098-.11h.011-.022Z"/><path fill="url(#aq)" d="M16.503 7.419a.251.251 0 1 0 0-.503.251.251 0 0 0 0 .503Z"/><path fill="url(#ar)" d="M16.819 8.27a.251.251 0 1 0 0-.502.251.251 0 0 0 0 .502Z"/><path fill="url(#as)" d="M16.896 12.3a.251.251 0 1 0 0-.503.251.251 0 0 0 0 .502Z"/><path fill="url(#at)" d="M16.492 13.151a.251.251 0 1 0 0-.502.251.251 0 0 0 0 .502Z"/><defs><linearGradient id="a" x1="-.03" x2="19.997" y1="9.995" y2="9.995" gradientUnits="userSpaceOnUse"><stop stop-color="#8AB5FF"/><stop offset=".24" stop-color="#B4E0E3"/><stop offset=".48" stop-color="#64A5F7"/><stop offset=".77" stop-color="#C6F1DC"/><stop offset="1" stop-color="#739CEE"/></linearGradient><linearGradient id="c" x1="4.819" x2="17.573" y1="6.248" y2="15.486" gradientUnits="userSpaceOnUse"><stop stop-color="#8AB5FF"/><stop offset=".24" stop-color="#B4E0E3"/><stop offset=".48" stop-color="#64A5F7"/><stop offset=".77" stop-color="#C6F1DC"/><stop offset="1" stop-color="#739CEE"/></linearGradient><linearGradient id="d" x1="5.561" x2="14.406" y1="9.994" y2="9.994" gradientUnits="userSpaceOnUse"><stop stop-color="#8AB5FF"/><stop offset=".48" stop-color="#64A5F7"/><stop offset="1" stop-color="#739CEE"/></linearGradient><linearGradient id="e" x1="9.875" x2="10.344" y1="2.548" y2="2.548" gradientUnits="userSpaceOnUse"><stop stop-color="#8AB5FF"/><stop offset=".48" stop-color="#64A5F7"/><stop offset="1" stop-color="#739CEE"/></linearGradient><linearGradient id="f" x1="9.874" x2="10.344" y1="2.908" y2="2.908" gradientUnits="userSpaceOnUse"><stop stop-color="#8AB5FF"/><stop offset=".48" stop-color="#64A5F7"/><stop offset="1" stop-color="#739CEE"/></linearGradient><linearGradient id="g" x1="9.722" x2="10.093" y1="2.733" y2="2.733" gradientUnits="userSpaceOnUse"><stop stop-color="#8AB5FF"/><stop offset=".48" stop-color="#64A5F7"/><stop offset="1" stop-color="#739CEE"/></linearGradient><linearGradient id="h" x1="9.776" x2="9.995" y1="2.733" y2="2.733" gradientUnits="userSpaceOnUse"><stop stop-color="#8AB5FF"/><stop offset=".48" stop-color="#64A5F7"/><stop offset="1" stop-color="#739CEE"/></linearGradient><linearGradient id="i" x1="9.077" x2="10.866" y1="9.365" y2="9.365" gradientUnits="userSpaceOnUse"><stop stop-color="#8AB5FF"/><stop offset=".24" stop-color="#B4E0E3"/><stop offset=".48" stop-color="#64A5F7"/><stop offset=".77" stop-color="#C6F1DC"/><stop offset="1" stop-color="#739CEE"/></linearGradient><linearGradient id="j" x1="9.077" x2="10.866" y1="10.695" y2="10.695" gradientUnits="userSpaceOnUse"><stop stop-color="#8AB5FF"/><stop offset=".24" stop-color="#B4E0E3"/><stop offset=".48" stop-color="#64A5F7"/><stop offset=".77" stop-color="#C6F1DC"/><stop offset="1" stop-color="#739CEE"/></linearGradient><linearGradient id="k" x1="8.475" x2="9.916" y1="10.036" y2="10.036" gradientUnits="userSpaceOnUse"><stop stop-color="#8AB5FF"/><stop offset=".24" stop-color="#B4E0E3"/><stop offset=".48" stop-color="#64A5F7"/><stop offset=".77" stop-color="#C6F1DC"/><stop offset="1" stop-color="#739CEE"/></linearGradient><linearGradient id="l" x1="8.697" x2="9.552" y1="10.036" y2="10.036" gradientUnits="userSpaceOnUse"><stop stop-color="#8AB5FF"/><stop offset=".24" stop-color="#B4E0E3"/><stop offset=".48" stop-color="#64A5F7"/><stop offset=".77" stop-color="#C6F1DC"/><stop offset="1" stop-color="#739CEE"/></linearGradient><linearGradient id="m" x1="10.945" x2="11.437" y1="2.623" y2="2.623" gradientUnits="userSpaceOnUse"><stop stop-color="#8AB5FF"/><stop offset=".48" stop-color="#64A5F7"/><stop offset="1" stop-color="#739CEE"/></linearGradient><linearGradient id="n" x1="10.825" x2="11.295" y1="3.028" y2="3.028" gradientUnits="userSpaceOnUse"><stop stop-color="#8AB5FF"/><stop offset=".48" stop-color="#64A5F7"/><stop offset="1" stop-color="#739CEE"/></linearGradient><linearGradient id="o" x1="10.694" x2="11.12" y1="2.722" y2="2.722" gradientUnits="userSpaceOnUse"><stop stop-color="#8AB5FF"/><stop offset=".48" stop-color="#64A5F7"/><stop offset="1" stop-color="#739CEE"/></linearGradient><linearGradient id="p" x1="10.781" x2="11.021" y1="2.744" y2="2.744" gradientUnits="userSpaceOnUse"><stop stop-color="#8AB5FF"/><stop offset=".48" stop-color="#64A5F7"/><stop offset="1" stop-color="#739CEE"/></linearGradient><linearGradient id="q" x1="8.745" x2="9.221" y1="3" y2="2.929" gradientUnits="userSpaceOnUse"><stop stop-color="#8AB5FF"/><stop offset=".48" stop-color="#64A5F7"/><stop offset="1" stop-color="#739CEE"/></linearGradient><linearGradient id="r" x1="8.658" x2="9.123" y1="2.638" y2="2.569" gradientUnits="userSpaceOnUse"><stop stop-color="#8AB5FF"/><stop offset=".48" stop-color="#64A5F7"/><stop offset="1" stop-color="#739CEE"/></linearGradient><linearGradient id="s" x1="8.539" x2="8.939" y1="2.875" y2="2.816" gradientUnits="userSpaceOnUse"><stop stop-color="#8AB5FF"/><stop offset=".48" stop-color="#64A5F7"/><stop offset="1" stop-color="#739CEE"/></linearGradient><linearGradient id="t" x1="8.603" x2="8.83" y1="2.855" y2="2.822" gradientUnits="userSpaceOnUse"><stop stop-color="#8AB5FF"/><stop offset=".48" stop-color="#64A5F7"/><stop offset="1" stop-color="#739CEE"/></linearGradient><linearGradient id="u" x1="12.572" x2="13.085" y1="3.378" y2="3.378" gradientUnits="userSpaceOnUse"><stop stop-color="#8AB5FF"/><stop offset=".48" stop-color="#64A5F7"/><stop offset="1" stop-color="#739CEE"/></linearGradient><linearGradient id="v" x1="6.849" x2="7.352" y1="3.388" y2="3.388" gradientUnits="userSpaceOnUse"><stop stop-color="#8AB5FF"/><stop offset=".48" stop-color="#64A5F7"/><stop offset="1" stop-color="#739CEE"/></linearGradient><linearGradient id="w" x1="7.658" x2="8.16" y1="3.116" y2="3.116" gradientUnits="userSpaceOnUse"><stop stop-color="#8AB5FF"/><stop offset=".48" stop-color="#64A5F7"/><stop offset="1" stop-color="#739CEE"/></linearGradient><linearGradient id="x" x1="11.72" x2="12.222" y1="3.116" y2="3.116" gradientUnits="userSpaceOnUse"><stop stop-color="#8AB5FF"/><stop offset=".48" stop-color="#64A5F7"/><stop offset="1" stop-color="#739CEE"/></linearGradient><linearGradient id="y" x1="9.94" x2="10.409" y1="17.464" y2="17.464" gradientUnits="userSpaceOnUse"><stop stop-color="#8AB5FF"/><stop offset=".48" stop-color="#64A5F7"/><stop offset="1" stop-color="#739CEE"/></linearGradient><linearGradient id="z" x1="9.939" x2="10.409" y1="17.104" y2="17.104" gradientUnits="userSpaceOnUse"><stop stop-color="#8AB5FF"/><stop offset=".48" stop-color="#64A5F7"/><stop offset="1" stop-color="#739CEE"/></linearGradient><linearGradient id="A" x1="9.776" x2="10.158" y1="17.289" y2="17.289" gradientUnits="userSpaceOnUse"><stop stop-color="#8AB5FF"/><stop offset=".48" stop-color="#64A5F7"/><stop offset="1" stop-color="#739CEE"/></linearGradient><linearGradient id="B" x1="9.842" x2="10.06" y1="17.288" y2="17.288" gradientUnits="userSpaceOnUse"><stop stop-color="#8AB5FF"/><stop offset=".48" stop-color="#64A5F7"/><stop offset="1" stop-color="#739CEE"/></linearGradient><linearGradient id="C" x1="11.01" x2="11.501" y1="17.324" y2="17.324" gradientUnits="userSpaceOnUse"><stop stop-color="#8AB5FF"/><stop offset=".48" stop-color="#64A5F7"/><stop offset="1" stop-color="#739CEE"/></linearGradient><linearGradient id="D" x1="10.933" x2="11.403" y1="16.93" y2="16.93" gradientUnits="userSpaceOnUse"><stop stop-color="#8AB5FF"/><stop offset=".48" stop-color="#64A5F7"/><stop offset="1" stop-color="#739CEE"/></linearGradient><linearGradient id="E" x1="10.803" x2="11.207" y1="17.193" y2="17.193" gradientUnits="userSpaceOnUse"><stop stop-color="#8AB5FF"/><stop offset=".48" stop-color="#64A5F7"/><stop offset="1" stop-color="#739CEE"/></linearGradient><linearGradient id="F" x1="10.868" x2="11.109" y1="17.182" y2="17.182" gradientUnits="userSpaceOnUse"><stop stop-color="#8AB5FF"/><stop offset=".48" stop-color="#64A5F7"/><stop offset="1" stop-color="#739CEE"/></linearGradient><linearGradient id="G" x1="8.903" x2="9.394" y1="16.942" y2="16.942" gradientUnits="userSpaceOnUse"><stop stop-color="#8AB5FF"/><stop offset=".48" stop-color="#64A5F7"/><stop offset="1" stop-color="#739CEE"/></linearGradient><linearGradient id="H" x1="8.805" x2="9.274" y1="17.335" y2="17.335" gradientUnits="userSpaceOnUse"><stop stop-color="#8AB5FF"/><stop offset=".48" stop-color="#64A5F7"/><stop offset="1" stop-color="#739CEE"/></linearGradient><linearGradient id="I" x1="8.674" x2="9.089" y1="17.063" y2="17.063" gradientUnits="userSpaceOnUse"><stop stop-color="#8AB5FF"/><stop offset=".48" stop-color="#64A5F7"/><stop offset="1" stop-color="#739CEE"/></linearGradient><linearGradient id="J" x1="8.75" x2="8.99" y1="17.073" y2="17.073" gradientUnits="userSpaceOnUse"><stop stop-color="#8AB5FF"/><stop offset=".48" stop-color="#64A5F7"/><stop offset="1" stop-color="#739CEE"/></linearGradient><linearGradient id="K" x1="12.714" x2="13.216" y1="16.568" y2="16.568" gradientUnits="userSpaceOnUse"><stop stop-color="#8AB5FF"/><stop offset=".48" stop-color="#64A5F7"/><stop offset="1" stop-color="#739CEE"/></linearGradient><linearGradient id="L" x1="11.862" x2="12.375" y1="16.896" y2="16.896" gradientUnits="userSpaceOnUse"><stop stop-color="#8AB5FF"/><stop offset=".48" stop-color="#64A5F7"/><stop offset="1" stop-color="#739CEE"/></linearGradient><linearGradient id="M" x1="7.832" x2="8.334" y1="16.972" y2="16.972" gradientUnits="userSpaceOnUse"><stop stop-color="#8AB5FF"/><stop offset=".48" stop-color="#64A5F7"/><stop offset="1" stop-color="#739CEE"/></linearGradient><linearGradient id="N" x1="6.991" x2="7.493" y1="16.568" y2="16.568" gradientUnits="userSpaceOnUse"><stop stop-color="#8AB5FF"/><stop offset=".48" stop-color="#64A5F7"/><stop offset="1" stop-color="#739CEE"/></linearGradient><linearGradient id="O" x1="2.395" x2="2.733" y1="9.895" y2="9.895" gradientUnits="userSpaceOnUse"><stop stop-color="#8AB5FF"/><stop offset=".48" stop-color="#64A5F7"/><stop offset="1" stop-color="#739CEE"/></linearGradient><linearGradient id="P" x1="2.766" x2="3.105" y1="9.895" y2="9.895" gradientUnits="userSpaceOnUse"><stop stop-color="#8AB5FF"/><stop offset=".48" stop-color="#64A5F7"/><stop offset="1" stop-color="#739CEE"/></linearGradient><linearGradient id="Q" x1="2.525" x2="2.962" y1="10.104" y2="10.104" gradientUnits="userSpaceOnUse"><stop stop-color="#8AB5FF"/><stop offset=".48" stop-color="#64A5F7"/><stop offset="1" stop-color="#739CEE"/></linearGradient><linearGradient id="R" x1="2.624" x2="2.875" y1="10.125" y2="10.125" gradientUnits="userSpaceOnUse"><stop stop-color="#8AB5FF"/><stop offset=".48" stop-color="#64A5F7"/><stop offset="1" stop-color="#739CEE"/></linearGradient><linearGradient id="S" x1="2.459" x2="2.819" y1="8.825" y2="8.825" gradientUnits="userSpaceOnUse"><stop stop-color="#8AB5FF"/><stop offset=".48" stop-color="#64A5F7"/><stop offset="1" stop-color="#739CEE"/></linearGradient><linearGradient id="T" x1="2.853" x2="3.213" y1="8.913" y2="8.913" gradientUnits="userSpaceOnUse"><stop stop-color="#8AB5FF"/><stop offset=".48" stop-color="#64A5F7"/><stop offset="1" stop-color="#739CEE"/></linearGradient><linearGradient id="U" x1="2.547" x2="2.983" y1="9.075" y2="9.075" gradientUnits="userSpaceOnUse"><stop stop-color="#8AB5FF"/><stop offset=".48" stop-color="#64A5F7"/><stop offset="1" stop-color="#739CEE"/></linearGradient><linearGradient id="V" x1="2.645" x2="2.897" y1="9.086" y2="9.086" gradientUnits="userSpaceOnUse"><stop stop-color="#8AB5FF"/><stop offset=".48" stop-color="#64A5F7"/><stop offset="1" stop-color="#739CEE"/></linearGradient><linearGradient id="W" x1="2.821" x2="3.181" y1="10.934" y2="10.934" gradientUnits="userSpaceOnUse"><stop stop-color="#8AB5FF"/><stop offset=".48" stop-color="#64A5F7"/><stop offset="1" stop-color="#739CEE"/></linearGradient><linearGradient id="X" x1="2.427" x2="2.788" y1="11.043" y2="11.043" gradientUnits="userSpaceOnUse"><stop stop-color="#8AB5FF"/><stop offset=".48" stop-color="#64A5F7"/><stop offset="1" stop-color="#739CEE"/></linearGradient><linearGradient id="Y" x1="2.668" x2="3.094" y1="11.197" y2="11.197" gradientUnits="userSpaceOnUse"><stop stop-color="#8AB5FF"/><stop offset=".48" stop-color="#64A5F7"/><stop offset="1" stop-color="#739CEE"/></linearGradient><linearGradient id="Z" x1="2.745" x2="2.996" y1="11.209" y2="11.209" gradientUnits="userSpaceOnUse"><stop stop-color="#8AB5FF"/><stop offset=".48" stop-color="#64A5F7"/><stop offset="1" stop-color="#739CEE"/></linearGradient><linearGradient id="aa" x1="3.115" x2="3.617" y1="7.112" y2="7.112" gradientUnits="userSpaceOnUse"><stop stop-color="#8AB5FF"/><stop offset=".48" stop-color="#64A5F7"/><stop offset="1" stop-color="#739CEE"/></linearGradient><linearGradient id="ab" x1="2.788" x2="3.301" y1="7.964" y2="7.964" gradientUnits="userSpaceOnUse"><stop stop-color="#8AB5FF"/><stop offset=".48" stop-color="#64A5F7"/><stop offset="1" stop-color="#739CEE"/></linearGradient><linearGradient id="ac" x1="2.71" x2="3.224" y1="11.994" y2="11.994" gradientUnits="userSpaceOnUse"><stop stop-color="#8AB5FF"/><stop offset=".48" stop-color="#64A5F7"/><stop offset="1" stop-color="#739CEE"/></linearGradient><linearGradient id="ad" x1="3.115" x2="3.628" y1="12.845" y2="12.845" gradientUnits="userSpaceOnUse"><stop stop-color="#8AB5FF"/><stop offset=".48" stop-color="#64A5F7"/><stop offset="1" stop-color="#739CEE"/></linearGradient><linearGradient id="ae" x1="17.137" x2="17.476" y1="9.95" y2="9.95" gradientUnits="userSpaceOnUse"><stop stop-color="#8AB5FF"/><stop offset=".48" stop-color="#64A5F7"/><stop offset="1" stop-color="#739CEE"/></linearGradient><linearGradient id="af" x1="16.766" x2="17.104" y1="9.95" y2="9.95" gradientUnits="userSpaceOnUse"><stop stop-color="#8AB5FF"/><stop offset=".48" stop-color="#64A5F7"/><stop offset="1" stop-color="#739CEE"/></linearGradient><linearGradient id="ag" x1="16.896" x2="17.333" y1="10.158" y2="10.158" gradientUnits="userSpaceOnUse"><stop stop-color="#8AB5FF"/><stop offset=".48" stop-color="#64A5F7"/><stop offset="1" stop-color="#739CEE"/></linearGradient><linearGradient id="ah" x1="16.994" x2="17.245" y1="10.179" y2="10.179" gradientUnits="userSpaceOnUse"><stop stop-color="#8AB5FF"/><stop offset=".48" stop-color="#64A5F7"/><stop offset="1" stop-color="#739CEE"/></linearGradient><linearGradient id="ai" x1="17.049" x2="17.41" y1="8.88" y2="8.88" gradientUnits="userSpaceOnUse"><stop stop-color="#8AB5FF"/><stop offset=".48" stop-color="#64A5F7"/><stop offset="1" stop-color="#739CEE"/></linearGradient><linearGradient id="aj" x1="16.656" x2="17.016" y1="8.968" y2="8.968" gradientUnits="userSpaceOnUse"><stop stop-color="#8AB5FF"/><stop offset=".48" stop-color="#64A5F7"/><stop offset="1" stop-color="#739CEE"/></linearGradient><linearGradient id="ak" x1="16.885" x2="17.311" y1="9.132" y2="9.132" gradientUnits="userSpaceOnUse"><stop stop-color="#8AB5FF"/><stop offset=".48" stop-color="#64A5F7"/><stop offset="1" stop-color="#739CEE"/></linearGradient><linearGradient id="al" x1="16.961" x2="17.212" y1="9.142" y2="9.142" gradientUnits="userSpaceOnUse"><stop stop-color="#8AB5FF"/><stop offset=".48" stop-color="#64A5F7"/><stop offset="1" stop-color="#739CEE"/></linearGradient><linearGradient id="am" x1="16.678" x2="17.049" y1="10.99" y2="10.99" gradientUnits="userSpaceOnUse"><stop stop-color="#8AB5FF"/><stop offset=".48" stop-color="#64A5F7"/><stop offset="1" stop-color="#739CEE"/></linearGradient><linearGradient id="an" x1="17.083" x2="17.443" y1="11.099" y2="11.099" gradientUnits="userSpaceOnUse"><stop stop-color="#8AB5FF"/><stop offset=".48" stop-color="#64A5F7"/><stop offset="1" stop-color="#739CEE"/></linearGradient><linearGradient id="ao" x1="16.765" x2="17.191" y1="11.251" y2="11.251" gradientUnits="userSpaceOnUse"><stop stop-color="#8AB5FF"/><stop offset=".48" stop-color="#64A5F7"/><stop offset="1" stop-color="#739CEE"/></linearGradient><linearGradient id="ap" x1="16.875" x2="17.115" y1="11.262" y2="11.262" gradientUnits="userSpaceOnUse"><stop stop-color="#8AB5FF"/><stop offset=".48" stop-color="#64A5F7"/><stop offset="1" stop-color="#739CEE"/></linearGradient><linearGradient id="aq" x1="16.241" x2="16.755" y1="7.167" y2="7.167" gradientUnits="userSpaceOnUse"><stop stop-color="#8AB5FF"/><stop offset=".48" stop-color="#64A5F7"/><stop offset="1" stop-color="#739CEE"/></linearGradient><linearGradient id="ar" x1="16.568" x2="17.081" y1="8.019" y2="8.019" gradientUnits="userSpaceOnUse"><stop stop-color="#8AB5FF"/><stop offset=".48" stop-color="#64A5F7"/><stop offset="1" stop-color="#739CEE"/></linearGradient><linearGradient id="as" x1="16.645" x2="17.158" y1="12.048" y2="12.048" gradientUnits="userSpaceOnUse"><stop stop-color="#8AB5FF"/><stop offset=".48" stop-color="#64A5F7"/><stop offset="1" stop-color="#739CEE"/></linearGradient><linearGradient id="at" x1="16.241" x2="16.744" y1="12.9" y2="12.9" gradientUnits="userSpaceOnUse"><stop stop-color="#8AB5FF"/><stop offset=".48" stop-color="#64A5F7"/><stop offset="1" stop-color="#739CEE"/></linearGradient><radialGradient id="b" cx="0" cy="0" r="1" gradientTransform="translate(9.984 9.995) scale(8.86705)" gradientUnits="userSpaceOnUse"><stop stop-color="#8AB5FF"/><stop offset=".24" stop-color="#B4E0E3"/><stop offset=".48" stop-color="#64A5F7"/><stop offset=".77" stop-color="#C6F1DC"/><stop offset="1" stop-color="#739CEE"/></radialGradient></defs></svg>