<svg width="29" height="26" viewBox="0 0 29 26" fill="none" xmlns="http://www.w3.org/2000/svg">
<path d="M6.96709 12.8482C7.04035 12.8605 7.11564 12.8502 7.18284 12.8185C7.25003 12.7868 7.3059 12.7352 7.34292 12.6708C7.37995 12.6064 7.39636 12.5322 7.38994 12.4582C7.38352 12.3842 7.35458 12.3139 7.30702 12.2568C7.25945 12.1997 7.19555 12.1586 7.1239 12.1389C7.05225 12.1193 6.9763 12.122 6.90626 12.1468C6.83623 12.1716 6.77547 12.2173 6.73217 12.2777C6.68887 12.3381 6.6651 12.4102 6.66406 12.4845C6.66406 12.727 6.78527 12.8482 6.96709 12.8482Z" fill="#919191"/>
<path d="M10.7249 12.8483C10.8117 12.8495 10.8961 12.8196 10.9628 12.7641C11.0295 12.7085 11.0741 12.6309 11.0886 12.5453C11.0886 12.4975 11.0792 12.4502 11.0609 12.4061C11.0426 12.362 11.0158 12.3219 10.9821 12.2881C10.9483 12.2544 10.9082 12.2276 10.8641 12.2093C10.82 12.191 10.7727 12.1816 10.7249 12.1816C10.6446 12.1816 10.5675 12.2136 10.5107 12.2704C10.4538 12.3272 10.4219 12.4043 10.4219 12.4847C10.4207 12.5715 10.4506 12.6559 10.5062 12.7225C10.5617 12.7892 10.6393 12.8338 10.7249 12.8483Z" fill="#919191"/>
<path d="M3.21322 12.8482C3.28648 12.8605 3.36177 12.8502 3.42897 12.8185C3.49616 12.7868 3.55203 12.7352 3.58905 12.6708C3.62608 12.6064 3.64249 12.5322 3.63607 12.4582C3.62965 12.3842 3.60071 12.3139 3.55314 12.2568C3.50558 12.1997 3.44167 12.1586 3.37003 12.1389C3.29838 12.1193 3.22243 12.122 3.15239 12.1468C3.08236 12.1716 3.0216 12.2173 2.9783 12.2777C2.935 12.3381 2.91123 12.4102 2.91019 12.4845C2.90898 12.5713 2.93886 12.6557 2.99444 12.7224C3.05002 12.7891 3.12762 12.8337 3.21322 12.8482Z" fill="#919191"/>
<path d="M13.6959 8.78734C13.563 8.46309 13.3362 8.18598 13.0446 7.99159C12.753 7.7972 12.41 7.69442 12.0596 7.69644H1.93838C1.70529 7.68795 1.47296 7.72761 1.25588 7.81293C1.0388 7.89826 0.841645 8.02741 0.676717 8.19234C0.511789 8.35727 0.382631 8.55443 0.297307 8.77151C0.211984 8.98858 0.172326 9.22092 0.180811 9.45401V15.3934C0.170192 15.6913 0.244275 15.9861 0.394461 16.2435C0.544647 16.501 0.764776 16.7106 1.02929 16.848C1.40151 17.0439 1.82245 17.1281 2.24141 17.0904C2.3124 17.0878 2.38289 17.1031 2.44643 17.1349C2.50996 17.1667 2.5645 17.2139 2.60505 17.2722L3.1505 17.9995C3.21369 18.0913 3.29712 18.1673 3.39436 18.2217C3.4916 18.2761 3.60005 18.3075 3.71133 18.3134C3.82261 18.3192 3.93375 18.2994 4.03617 18.2555C4.13858 18.2116 4.22954 18.1447 4.30201 18.0601L5.08989 17.2722C5.13043 17.2139 5.18497 17.1667 5.24851 17.1349C5.31204 17.1031 5.38254 17.0878 5.45353 17.0904H7.81716C7.93837 17.0298 9.99897 17.2116 9.99897 17.0904H12.1202C12.3482 17.0905 12.5739 17.0447 12.7839 16.9557C12.9938 16.8666 13.1837 16.7362 13.3421 16.5721C13.5005 16.4081 13.6242 16.2138 13.7058 16.0008C13.7874 15.7879 13.8253 15.5607 13.8171 15.3328V9.45401C13.8059 9.22746 13.7652 9.00334 13.6959 8.78734ZM10.7262 11.6358C10.9673 11.6358 11.1986 11.7316 11.3691 11.9021C11.5395 12.0726 11.6353 12.3038 11.6353 12.5449C11.6353 12.786 11.5395 13.0173 11.3691 13.1877C11.1986 13.3582 10.9673 13.454 10.7262 13.454C10.4851 13.454 10.2539 13.3582 10.0834 13.1877C9.91293 13.0173 9.81715 12.786 9.81715 12.5449C9.81715 12.3038 9.91293 12.0726 10.0834 11.9021C10.2539 11.7316 10.4851 11.6358 10.7262 11.6358ZM6.96867 11.6358C7.20978 11.6358 7.44101 11.7316 7.6115 11.9021C7.78198 12.0726 7.87776 12.3038 7.87776 12.5449C7.87806 12.6616 7.85428 12.7772 7.8079 12.8843C7.76152 12.9914 7.69354 13.0877 7.60822 13.1674C7.52289 13.247 7.42206 13.3082 7.31201 13.3471C7.20197 13.386 7.08509 13.4017 6.96867 13.3934C6.74364 13.3934 6.52783 13.304 6.3687 13.1449C6.20958 12.9858 6.12019 12.77 6.12019 12.5449C6.11185 12.4285 6.12762 12.3116 6.16651 12.2016C6.20541 12.0915 6.26658 11.9907 6.34622 11.9054C6.42585 11.8201 6.52224 11.7521 6.62934 11.7057C6.73644 11.6593 6.85196 11.6355 6.96867 11.6358ZM3.27171 11.6358C3.50216 11.6512 3.71811 11.7538 3.8757 11.9226C4.03329 12.0915 4.12071 12.314 4.1202 12.5449C4.12934 12.6587 4.11367 12.773 4.07426 12.8801C4.03485 12.9872 3.97266 13.0845 3.89197 13.1652C3.81128 13.2459 3.71402 13.3081 3.60693 13.3475C3.49983 13.3869 3.38546 13.4026 3.27171 13.3934C3.04075 13.3939 2.81825 13.3065 2.6494 13.1489C2.48056 12.9913 2.37802 12.7754 2.36262 12.5449C2.36262 12.3038 2.4584 12.0726 2.62889 11.9021C2.79938 11.7316 3.03061 11.6358 3.27171 11.6358ZM3.93838 17.5752C3.87777 17.6964 3.93838 17.6358 3.93838 17.5752V17.5752Z" fill="#919191"/>
<path d="M18.3044 25.9995L17.0317 25.8783H16.9105C15.5166 25.757 14.062 25.5146 12.365 25.2116H11.6378C11.2741 25.2116 11.0923 25.0904 11.0923 24.6661V19.8176C11.0823 19.5335 11.1026 19.249 11.1529 18.9692C11.1476 18.8202 11.1847 18.6728 11.2598 18.5441C11.3348 18.4154 11.4449 18.3106 11.5772 18.2419C11.7407 18.1361 11.9284 18.0736 12.1226 18.0601C12.5597 17.9516 12.9454 17.6945 13.2135 17.3328L13.3954 17.0904L14.7893 15.5752C15.2614 15.0292 15.5572 14.3531 15.6378 13.6358C15.6378 13.3934 15.6984 13.151 15.6984 12.9086V12.7267C15.6981 12.618 15.7203 12.5103 15.7636 12.4105C15.8069 12.3108 15.8704 12.2211 15.9501 12.147C16.0298 12.073 16.124 12.0163 16.2267 11.9805C16.3294 11.9447 16.4384 11.9305 16.5469 11.9389C17.0785 11.9532 17.5854 12.1667 17.967 12.5372C18.3487 12.9076 18.5773 13.4079 18.6075 13.9389C18.6108 14.4538 18.5289 14.9658 18.365 15.454L18.0014 16.7267H20.4256C20.7692 16.6694 21.1221 16.7275 21.4291 16.892C21.7361 17.0565 21.98 17.3181 22.1226 17.6358C22.2435 17.961 22.2619 18.3154 22.1752 18.6514C22.0885 18.9873 21.9009 19.2886 21.6378 19.5146L21.3953 19.757C21.5233 20.0372 21.5628 20.3496 21.5087 20.6528C21.4545 20.956 21.3093 21.2355 21.0923 21.454C21.2367 21.8051 21.2676 22.1926 21.1807 22.5621C21.0937 22.9317 20.8933 23.2648 20.6075 23.5146C20.6553 23.7744 20.6756 24.0385 20.6681 24.3025C20.5912 24.7448 20.372 25.1499 20.0439 25.4562C19.7157 25.7625 19.2964 25.9533 18.8499 25.9995H18.3044Z" fill="#919191"/>
<path d="M12.0608 24.6056H12.4245C14.1214 24.9086 15.576 25.151 16.9699 25.2723H17.0911C17.6463 25.4053 18.2196 25.4463 18.7881 25.3935C19.1034 25.3579 19.3985 25.2202 19.6282 25.0014C19.858 24.7825 20.0099 24.4946 20.0608 24.1813V23.5753C20.0271 23.492 20.0207 23.4002 20.0425 23.3131C20.0642 23.226 20.1131 23.148 20.182 23.0904C20.3815 22.9124 20.5228 22.6785 20.5877 22.4191C20.6525 22.1597 20.6379 21.8868 20.5457 21.6359C20.5067 21.5477 20.4917 21.4508 20.5024 21.355C20.513 21.2592 20.5489 21.1679 20.6063 21.0904C20.7715 20.9402 20.8799 20.7376 20.913 20.5167C20.9461 20.2959 20.902 20.0704 20.7881 19.8783C20.7562 19.7799 20.7567 19.6739 20.7894 19.5757C20.8221 19.4776 20.8854 19.3925 20.9699 19.3329L21.2729 19.0904C21.4234 18.9315 21.5303 18.7364 21.5834 18.5241C21.6365 18.3118 21.6339 18.0894 21.576 17.8783C21.4909 17.6767 21.3472 17.5053 21.1634 17.3864C20.9797 17.2675 20.7645 17.2066 20.5457 17.2116L18.9699 17.3329H17.8184C17.7829 17.354 17.7434 17.3677 17.7025 17.373C17.6615 17.3783 17.6198 17.3752 17.5801 17.3639C17.5404 17.3525 17.5034 17.3332 17.4714 17.307C17.4394 17.2808 17.4131 17.2484 17.3942 17.2116C17.3658 17.1445 17.3512 17.0724 17.3512 16.9995C17.3512 16.9267 17.3658 16.8545 17.3942 16.7874V16.545C17.5278 16.0908 17.6897 15.6455 17.879 15.2116C17.995 14.7765 18.0561 14.3286 18.0608 13.8783C18.0193 13.5127 17.8511 13.1731 17.5854 12.9185C17.3197 12.6639 16.9733 12.5103 16.6063 12.4844C16.4245 12.4844 16.3639 12.545 16.3639 12.7874V12.9086C16.3639 13.151 16.3033 13.4541 16.3033 13.6965C16.1861 14.5285 15.828 15.3081 15.273 15.9389C14.7881 16.4238 14.3639 16.9692 13.9396 17.4541L13.7578 17.6359C13.3708 18.1143 12.8392 18.4545 12.2427 18.6056L11.9396 18.7268C11.879 18.7874 11.8184 18.848 11.8184 18.9086V19.0298C11.8184 19.2723 11.7578 19.5147 11.7578 19.8177V24.6056H12.1214H12.0608Z" fill="#919191"/>
<path d="M8.36392 25.5756H8.30331L6.96998 25.3938C6.75139 25.3366 6.55198 25.2222 6.39221 25.0625C6.23244 24.9027 6.11809 24.7033 6.06089 24.4847C5.93939 24.0899 5.85817 23.6838 5.81847 23.2726C5.76808 21.7857 5.91068 20.2985 6.24271 18.8483C6.25377 18.6612 6.29469 18.4771 6.36392 18.3029C6.48665 17.9865 6.72058 17.7258 7.02184 17.5696C7.3231 17.4133 7.67099 17.3724 8.00028 17.4544L9.81846 17.8786C10.1654 17.9918 10.4685 18.2102 10.6857 18.5034C10.9029 18.7966 11.0234 19.1502 11.0306 19.515V24.7877C11.0306 25.212 10.7882 25.3332 10.5457 25.3332C9.82636 25.4738 9.09661 25.5549 8.36392 25.5756Z" fill="#919191"/>
<path d="M7.63493 18.06C7.48554 18.0544 7.33859 18.0991 7.21768 18.1871C7.09678 18.275 7.00894 18.401 6.96827 18.5449C6.9009 18.6772 6.85974 18.8212 6.84706 18.9691C6.51844 20.3583 6.37578 21.7849 6.42282 23.2116C6.46322 23.6156 6.52383 23.9792 6.60463 24.3025C6.64477 24.4242 6.71636 24.5331 6.81214 24.6183C6.90793 24.7034 7.02451 24.7617 7.15009 24.7873L8.3016 24.9691L10.4228 24.7873V19.5146C10.4328 19.2866 10.3669 19.0616 10.2352 18.8752C10.1036 18.6887 9.91376 18.5512 9.69553 18.4843L7.87736 18.06H7.63493Z" fill="#919191"/>
<path d="M27.2727 0H1.55844C1.14511 0 0.74872 0.164193 0.456456 0.456457C0.164192 0.748722 0 1.14512 0 1.55844V4.44156C0 4.85488 0.164192 5.25128 0.456456 5.54354C0.74872 5.83581 1.14511 6 1.55844 6H27.2727C27.686 6 28.0824 5.83581 28.3746 5.54354C28.6669 5.25128 28.8311 4.85488 28.8311 4.44156V1.55844C28.8311 1.14512 28.6669 0.748722 28.3746 0.456457C28.0824 0.164193 27.686 0 27.2727 0ZM5.06492 4.67532L3.97402 4.12987L2.80519 4.75325L3.03895 3.42857L2.10389 2.57143L3.35064 2.41558L3.89609 1.24675L4.51947 2.33766L5.76622 2.57143L4.83116 3.42857L5.06492 4.67532ZM10.3636 4.67532L9.19478 4.12987L8.02595 4.75325L8.25972 3.42857L7.32466 2.57143L8.57141 2.41558L9.19478 1.24675L9.74024 2.33766L10.987 2.57143L10.1298 3.42857L10.3636 4.67532ZM15.5844 4.67532L14.4155 4.12987L13.3246 4.75325L13.4805 3.42857L12.5454 2.57143L13.8701 2.41558L14.4155 1.24675L14.961 2.33766L16.2857 2.57143L15.3506 3.42857L15.5844 4.67532ZM20.8051 4.67532L19.6363 4.12987L18.5454 4.75325L18.7792 3.42857L17.8441 2.57143L19.0909 2.41558L19.6363 1.24675L20.1818 2.33766L21.5064 2.57143L20.5714 3.42857L20.8051 4.67532ZM26.0259 4.67532L24.935 4.12987L23.7662 4.75325L23.9999 3.42857L23.0649 2.57143L24.3116 2.41558L24.8571 1.24675L25.4805 2.33766L26.7272 2.57143L25.7921 3.42857L26.0259 4.67532Z" fill="#919191"/>
</svg>
