<svg xmlns="http://www.w3.org/2000/svg" width="20" height="20" fill="none"><path fill="url(#a)" d="m19.45 8.76-.3-.28a1.69 1.69 0 0 1-.47-1.75l.13-.4c.3-.93-.28-1.93-1.24-2.13l-.4-.1a1.68 1.68 0 0 1-1.28-1.27l-.09-.4a1.67 1.67 0 0 0-2.14-1.24l-.39.13c-.62.2-1.3.01-1.75-.47l-.28-.3a1.67 1.67 0 0 0-2.48 0l-.28.3c-.44.48-1.13.67-1.75.47l-.4-.13C5.4.9 4.4 1.47 4.2 2.43l-.1.4a1.68 1.68 0 0 1-1.27 1.28l-.4.09c-.96.2-1.54 1.2-1.24 2.14l.13.39c.2.62.01 1.3-.47 1.75l-.3.28a1.67 1.67 0 0 0 0 2.48l.3.28c.48.44.67 1.13.47 1.75l-.13.4c-.3.93.28 1.93 1.24 2.13l.4.1c.63.13 1.14.62 1.28 1.27l.09.4c.2.96 1.2 1.54 2.14 1.24l.39-.13a1.7 1.7 0 0 1 1.75.47l.28.3c.67.73 1.81.73 2.48 0l.28-.3a1.69 1.69 0 0 1 1.75-.47l.4.13c.93.3 1.93-.28 2.13-1.24l.1-.4c.13-.63.62-1.14 1.27-1.28l.4-.09c.96-.2 1.54-1.2 1.24-2.14l-.13-.39a1.7 1.7 0 0 1 .47-1.75l.3-.28c.73-.67.73-1.81 0-2.48Zm-1.08 2.34-.27.25c-.43.4-.6 1-.42 1.55l.11.35c.26.83-.24 1.71-1.1 1.9l-.35.08c-.57.12-1 .56-1.14 1.13l-.07.36a1.48 1.48 0 0 1-1.9 1.1l-.35-.12a1.5 1.5 0 0 0-1.55.42l-.25.27c-.6.65-1.61.65-2.2 0l-.25-.27c-.4-.43-1-.6-1.55-.42l-.35.11a1.49 1.49 0 0 1-1.9-1.09l-.08-.36a1.5 1.5 0 0 0-1.13-1.13l-.36-.08a1.48 1.48 0 0 1-1.1-1.9l.11-.35a1.5 1.5 0 0 0-.41-1.55l-.27-.25a1.49 1.49 0 0 1 0-2.2l.27-.25c.43-.4.59-1 .41-1.55l-.1-.35a1.49 1.49 0 0 1 1.09-1.9l.36-.08c.57-.12 1-.56 1.13-1.13l.08-.36a1.48 1.48 0 0 1 1.9-1.1l.35.12a1.5 1.5 0 0 0 1.55-.42l.25-.27c.59-.65 1.6-.65 2.2 0l.25.27c.39.43.99.6 1.55.42l.35-.11c.83-.27 1.71.24 1.9 1.09l.07.36c.12.57.57 1 1.14 1.13l.36.08a1.48 1.48 0 0 1 1.1 1.9l-.12.35a1.5 1.5 0 0 0 .42 1.55l.27.25c.64.6.64 1.6 0 2.2Z"/><path fill="url(#b)" d="m18.37 8.9-.27-.26c-.43-.4-.6-1-.42-1.55l.11-.35a1.49 1.49 0 0 0-1.09-1.9l-.36-.08a1.5 1.5 0 0 1-1.14-1.13l-.07-.36a1.48 1.48 0 0 0-1.9-1.1l-.35.12a1.5 1.5 0 0 1-1.55-.42l-.25-.27a1.49 1.49 0 0 0-2.2 0l-.25.27c-.4.43-1 .59-1.55.42l-.35-.11a1.49 1.49 0 0 0-1.9 1.09l-.08.36c-.12.57-.56 1-1.13 1.13l-.36.08a1.48 1.48 0 0 0-1.1 1.9l.11.35a1.5 1.5 0 0 1-.41 1.55l-.27.25c-.65.6-.65 1.6 0 2.2l.27.25c.43.4.59 1 .41 1.55l-.1.35c-.27.83.24 1.71 1.09 1.9l.36.07c.57.12 1 .57 1.13 1.14l.08.36a1.48 1.48 0 0 0 1.9 1.1l.35-.12a1.5 1.5 0 0 1 1.55.42l.25.27c.6.65 1.6.65 2.2 0l.25-.27c.39-.43 1-.6 1.55-.42l.35.11c.83.26 1.71-.24 1.9-1.09l.07-.36c.12-.57.57-1 1.14-1.14l.36-.07a1.48 1.48 0 0 0 1.1-1.9l-.12-.35a1.5 1.5 0 0 1 .42-1.55l.27-.25c.64-.6.64-1.6 0-2.2Zm-8.39 8.96a7.88 7.88 0 1 1 0-15.76 7.88 7.88 0 0 1 0 15.76Z"/><path fill="url(#c)" d="M9.98 17.87a7.87 7.87 0 1 0 0-15.75 7.87 7.87 0 0 0 0 15.75Z"/><path fill="url(#d)" d="m10.42 6.05.95 2.43 2.6.15c.43.02.6.56.27.83l-2 1.65.65 2.52c.1.42-.35.74-.7.51l-2.2-1.4-2.19 1.4a.46.46 0 0 1-.7-.5l.66-2.53-2.01-1.65a.47.47 0 0 1 .27-.83l2.6-.15.95-2.43c.15-.4.7-.4.86 0Z"/><path stroke="#F2A201" stroke-miterlimit="10" stroke-width=".1" d="M16.4 11.04a6.5 6.5 0 1 0-12.84-2.1 6.5 6.5 0 0 0 12.85 2.1Z"/><path fill="url(#e)" d="M10.34 2.45s0 .03-.02.04l-.22.22-.23-.13v-.13s.04-.07.07-.07c.02 0 .03 0 .04.03l.03.04v.16l.21-.22.05-.02c.04 0 .06.04.06.07h.01Z"/><path fill="url(#f)" d="M10.28 3.08h-.05l-.21-.23v.17s-.04.06-.07.06c-.02 0-.03 0-.04-.02a.08.08 0 0 1-.02-.04v-.13l.22-.14.22.22s.01.12-.04.12h-.01Z"/><path fill="url(#g)" d="m10.1 2.72-.23-.13-.13-.08s-.02 0-.02.02v.4s.01.02.02.01l.13-.08.22-.12v-.02Zm-.06 0-.17.11-.1.06h-.02v-.32h.03l.1.05.16.1Z"/><path fill="url(#h)" d="m10 2.73-.14.08-.07.04h-.01v-.24l.08.05.13.07Z"/><path fill="url(#i)" d="M11.16 8.95c0 .06-.02.13-.07.17l-.83.8-.89-.5v-.47c0-.14.12-.25.26-.25a.26.26 0 0 1 .27.25v.6l.82-.79s.12-.08.18-.08c.15 0 .26.13.26.26Z"/><path fill="url(#j)" d="M10.9 11.26s-.06 0-.1-.02a.24.24 0 0 1-.08-.05l-.82-.8V11c0 .14-.12.25-.27.25a.26.26 0 0 1-.26-.25v-.48l.89-.5.83.8c.16.17.04.44-.19.44Z"/><path fill="url(#k)" d="M10.22 9.96s0-.02-.03-.03l-.82-.46-.5-.28s-.09 0-.09.05v1.48s.06.07.09.05l.5-.28.82-.46.03-.04v-.03Zm-.2.03-.01.03-.64.36-.4.22s-.06 0-.06-.05V9.41s.04-.06.07-.05l.4.22.63.36.02.02V10Z"/><path fill="url(#l)" d="M9.84 9.98v.03l-.49.26-.3.16s-.05 0-.05-.03v-.86s.03-.05.06-.04l.3.17.47.26.01.02v.03Z"/><path fill="url(#m)" d="M11.44 2.61s-.01.04-.04.05l-.26.15-.18-.19.03-.13s.04-.05.09-.04c.02 0 .03.02.04.03v.06l-.04.16.26-.15h.05c.05 0 .06.05.05.09V2.6Z"/><path fill="url(#n)" d="M11.2 3.2h-.01l-.03-.03-.15-.26-.04.16s-.05.06-.1.05l-.03-.04s-.02-.03 0-.05l.03-.13.26-.07.15.26s-.02.12-.07.1v.01Z"/><path fill="url(#o)" d="m11.12 2.82-.18-.19-.1-.1h-.03l-.1.39s0 .02.02.02l.15-.04.24-.07h.01l-.01-.01Zm-.05-.02-.2.05-.11.04s-.02 0-.01-.02l.07-.3h.03l.08.09.15.14h-.02Z"/><path fill="url(#p)" d="m11.02 2.8-.14.04-.09.02.06-.24.07.07.1.1Z"/><path fill="url(#q)" d="M9.24 3s0-.04-.03-.05l-.26-.16-.2.18.03.14s.05.06.09.05c.02 0 .03-.01.04-.03v-.06l-.03-.16.26.16h.06c.04 0 .05-.04.05-.09V3Z"/><path fill="url(#r)" d="M9.03 2.4h-.02s0 .02-.02.03l-.16.26-.04-.16s-.04-.07-.08-.06c-.03 0-.04.01-.05.04v.05l.04.13.26.08.16-.26s-.01-.12-.08-.11Z"/><path fill="url(#s)" d="M8.94 2.78 8.7 2.7l-.15-.04s-.02 0-.02.02l.09.4h.02l.11-.12.19-.17v-.02Zm-.06.02-.14.14-.09.08h-.02l-.07-.3s0-.03.02-.02l.1.03.19.06h.01Z"/><path fill="url(#t)" d="m8.84 2.8-.14-.04-.1-.03.05.23h.01l.07-.06.1-.1Z"/><path fill="url(#u)" d="M12.83 3.63a.25.25 0 1 0 0-.5.25.25 0 0 0 0 .5Z"/><path fill="url(#v)" d="M7.1 3.64a.25.25 0 1 0 0-.5.25.25 0 0 0 0 .5Z"/><path fill="url(#w)" d="M7.9 3.37a.25.25 0 1 0 0-.5.25.25 0 0 0 0 .5Z"/><path fill="url(#x)" d="M11.97 3.37a.25.25 0 1 0 0-.5.25.25 0 0 0 0 .5Z"/><path fill="url(#y)" d="m10.4 17.56-.01-.04-.22-.22-.23.13v.13s.03.07.07.07c.02 0 .03 0 .04-.02a.08.08 0 0 0 .02-.05v-.16l.22.22.04.02c.05 0 .07-.04.07-.07Z"/><path fill="url(#z)" d="M10.34 16.93h-.04l-.22.23v-.17s-.03-.06-.06-.06-.04 0-.05.02a.08.08 0 0 0-.02.04v.14l.23.13.22-.22s0-.12-.05-.12Z"/><path fill="url(#A)" d="m10.16 17.28-.22-.13-.13-.08-.02.01v.4s0 .03.02.02l.13-.08.22-.12v-.02Zm-.06 0-.16.1-.1.06h-.02v-.31s0-.02.02 0l.1.05.16.1Z"/><path fill="url(#B)" d="m10.06 17.28-.13-.08-.08-.04v.24l.08-.05.13-.07Z"/><path fill="url(#C)" d="M11.5 17.36s-.01-.04-.03-.05l-.25-.17-.21.17.02.13s.05.07.08.06c.02 0 .03-.01.04-.03l.01-.06-.03-.16.25.17.06.01c.04 0 .06-.04.05-.07h.01Z"/><path fill="url(#D)" d="M11.33 16.74h-.03s0 .02-.02.03l-.17.25-.03-.17s-.05-.06-.08-.05c-.02 0-.03.01-.04.03l-.02.06.03.13.25.09.17-.26s0-.12-.06-.1Z"/><path fill="url(#E)" d="m11.2 17.12-.23-.1-.15-.05s-.02 0-.02.03l.08.39s.01.02.02 0l.12-.1.19-.16v-.03.02Zm-.05.02-.15.13-.09.07h-.02l-.05-.3v-.01l.12.04.18.07h.01Z"/><path fill="url(#F)" d="m11.1 17.14-.13-.06-.1-.03.04.23h.01l.07-.05.1-.1h.02Z"/><path fill="url(#G)" d="m9.4 16.9-.04.05-.26.17-.2-.19.04-.13s.04-.07.08-.05c.03 0 .04 0 .05.03v.05l-.04.17.27-.17h.05c.04 0 .07.05.06.09l-.02-.01Z"/><path fill="url(#H)" d="M9.19 17.52h-.02l-.03-.02-.16-.26-.03.16s-.05.07-.1.06l-.03-.04s-.02-.03 0-.05l.03-.13.26-.09.16.26s0 .12-.07.11h-.01Z"/><path fill="url(#I)" d="m9.09 17.13-.19-.18-.1-.1h-.03l-.09.4s0 .02.03.02l.14-.04.24-.08v-.02Zm-.06-.02-.18.06-.11.03h-.01l.06-.31h.03l.08.07.14.14Z"/><path fill="url(#J)" d="m8.99 17.12-.14.04-.09.03h-.01l.05-.23h.02l.06.07.11.1v-.01Z"/><path fill="url(#K)" d="M12.96 16.82a.25.25 0 1 0 0-.5.25.25 0 0 0 0 .5Z"/><path fill="url(#L)" d="M12.12 17.15a.25.25 0 1 0 0-.5.25.25 0 0 0 0 .5Z"/><path fill="url(#M)" d="M8.08 17.22a.25.25 0 1 0 0-.5.25.25 0 0 0 0 .5Z"/><path fill="url(#N)" d="M7.24 16.82a.25.25 0 1 0 0-.5.25.25 0 0 0 0 .5Z"/><path fill="url(#O)" d="M2.47 9.66s.03 0 .04.02l.22.22-.13.22h-.13s-.07-.03-.07-.06c0-.02 0-.03.03-.04a.08.08 0 0 1 .04-.03h.16l-.21-.21-.03-.05c0-.04.04-.06.07-.06l.01-.01Z"/><path fill="url(#P)" d="M3.1 9.73v.05l-.23.21h.17s.06.04.06.07c0 .02 0 .03-.02.04a.08.08 0 0 1-.04.03H2.9l-.13-.23.22-.22s.12-.01.12.04l-.02.01Z"/><path fill="url(#Q)" d="m2.74 9.9-.12.23-.07.13v.02h.41s.02-.01.01-.02l-.07-.13-.12-.22h-.03Zm0 .05.1.18.06.1v.02h-.32v-.03l.05-.1.1-.16h.01Z"/><path fill="url(#R)" d="m2.75 10 .08.14.04.07v.01h-.24l.05-.08.07-.13Z"/><path fill="url(#S)" d="m2.6 8.57.04.04.18.25-.18.2-.13-.02s-.06-.04-.05-.07c0-.02.01-.04.03-.05h.06l.16.03-.17-.26-.02-.05c0-.04.05-.07.08-.05v-.02Z"/><path fill="url(#T)" d="M3.21 8.76v.02l-.02.02-.25.18.16.03s.07.05.06.08c0 .02-.01.03-.03.04l-.06.01-.13-.02-.09-.25.25-.18s.12 0 .11.07Z"/><path fill="url(#U)" d="m2.83 8.87-.16.2-.1.11v.03l.4.07.01-.02-.05-.14-.09-.24h-.01v-.01Zm0 .04.07.19.04.1s0 .03-.01.02l-.3-.06s-.02 0 0-.02l.07-.09.12-.15h.01v.01Z"/><path fill="url(#V)" d="m2.82 8.97.05.14.04.09-.23-.04.05-.07.1-.11h.01l-.02-.01Z"/><path fill="url(#W)" d="M3.03 10.7s-.03 0-.05.03l-.16.26.19.2.13-.04s.06-.04.05-.08c0-.03 0-.04-.03-.05H3.1l-.16.03.16-.26s.02-.03 0-.05c0-.05-.04-.07-.08-.06v.01Z"/><path fill="url(#X)" d="M2.43 10.89v.02l.02.02.26.17-.16.03s-.07.04-.06.09c0 .02.01.03.04.04h.05l.13-.03.09-.26-.26-.17s-.12.01-.11.08v.01Z"/><path fill="url(#Y)" d="m2.8 10.99-.08.25-.04.14s0 .02.02.02l.4-.08v-.03l-.1-.1-.17-.19h-.02l-.01-.01Zm.02.04.13.16.08.08v.02l-.3.07s-.03 0-.02-.01l.03-.11.06-.19h.01l.01-.02Z"/><path fill="url(#Z)" d="m2.82 11.09-.04.14-.04.09.23-.05-.06-.07-.1-.11H2.8h.02Z"/><path fill="url(#aa)" d="M3.37 7.36a.25.25 0 1 0 0-.5.25.25 0 0 0 0 .5Z"/><path fill="url(#ab)" d="M3.04 8.21a.25.25 0 1 0 0-.5.25.25 0 0 0 0 .5Z"/><path fill="url(#ac)" d="M2.96 12.24a.25.25 0 1 0 0-.5.25.25 0 0 0 0 .5Z"/><path fill="url(#ad)" d="M3.37 13.1a.25.25 0 1 0 0-.5.25.25 0 0 0 0 .5Z"/><path fill="url(#ae)" d="M17.4 9.72s-.03 0-.04.02l-.22.22.13.23h.13s.06-.03.06-.07c0-.03 0-.03-.02-.04a.08.08 0 0 0-.04-.02h-.16l.21-.22.03-.04c0-.01-.04-.07-.07-.07l-.01-.01Z"/><path fill="url(#af)" d="M16.77 9.79v.04l.22.22h-.16s-.06.03-.06.06 0 .04.02.05l.04.02h.13l.13-.23-.22-.22s-.12-.01-.12.04l.02.02Z"/><path fill="url(#ag)" d="m17.11 9.96-.12.22-.07.13v.02h.41s.02 0 .01-.02l-.07-.13-.12-.22h-.04Zm0 .04.1.18.06.1v.02h-.32v-.02l.06-.1.1-.16V10Z"/><path fill="url(#ah)" d="m17.11 10.07-.07.13-.05.08h.24s.02 0 0 0l-.04-.08-.08-.13Z"/><path fill="url(#ai)" d="M17.27 8.63s-.04.01-.05.03l-.17.25.17.21.14-.02s.06-.04.05-.08c0-.02-.01-.03-.03-.04l-.06-.01-.16.03.17-.25.01-.05c0-.05-.04-.07-.07-.06v-.01Z"/><path fill="url(#aj)" d="M16.66 8.82v.02l.02.02.25.17-.16.04s-.07.04-.06.07c0 .02.01.04.03.05h.06l.13-.01.09-.26-.25-.17s-.12 0-.11.07Z"/><path fill="url(#ak)" d="m17.03 8.94-.1.24-.05.14s0 .02.03.02l.39-.08s.02 0 0-.02l-.1-.12-.16-.18h-.02Zm.02.04.12.15.08.09v.02l-.31.06s-.02 0-.01-.02l.04-.1.07-.19v-.01Z"/><path fill="url(#al)" d="m17.05 9.03-.06.15-.03.08v.01l.23-.04v-.01l-.05-.07-.1-.1h-.01l.02-.02Z"/><path fill="url(#am)" d="m16.84 10.75.05.03.16.26-.19.2-.13-.03s-.06-.05-.05-.09c0-.02 0-.03.03-.04h.05l.17.03-.16-.26s-.02-.04 0-.06c0-.04.04-.06.08-.05Z"/><path fill="url(#an)" d="M17.44 10.95v.02l-.02.02-.26.16.16.04s.07.04.06.08c0 .03-.01.04-.04.05h-.05l-.13-.04-.09-.26.26-.16s.12 0 .11.07v.02Z"/><path fill="url(#ao)" d="m17.06 11.04-.16.19-.1.1v.03l.4.09.01-.03-.04-.14-.08-.24h-.03Zm0 .05.05.2.04.1s0 .02-.01.01l-.3-.06s-.02-.01 0-.02l.07-.1.13-.13h.02Z"/><path fill="url(#ap)" d="m17.04 11.14.04.14.04.09v.01l-.23-.05v-.01l.06-.07.1-.1h.01-.02Z"/><path fill="url(#aq)" d="M16.5 7.42a.25.25 0 1 0 0-.5.25.25 0 0 0 0 .5Z"/><path fill="url(#ar)" d="M16.82 8.27a.25.25 0 1 0 0-.5.25.25 0 0 0 0 .5Z"/><path fill="url(#as)" d="M16.9 12.3a.25.25 0 1 0 0-.5.25.25 0 0 0 0 .5Z"/><path fill="url(#at)" d="M16.5 13.15a.25.25 0 1 0 0-.5.25.25 0 0 0 0 .5Z"/><defs><radialGradient id="b" cx="0" cy="0" r="1" gradientTransform="translate(9.98 10) scale(8.86705)" gradientUnits="userSpaceOnUse"><stop stop-color="#F6F172"/><stop offset="1" stop-color="#F2A201"/></radialGradient><radialGradient id="d" cx="0" cy="0" r="1" gradientTransform="translate(9.98 10) scale(4.32432)" gradientUnits="userSpaceOnUse"><stop stop-color="#F6F172"/><stop offset="1" stop-color="#F2A201"/></radialGradient><radialGradient id="e" cx="0" cy="0" r="1" gradientTransform="translate(10.11 2.55) scale(.20748)" gradientUnits="userSpaceOnUse"><stop stop-color="#F6F172"/><stop offset="1" stop-color="#F2A201"/></radialGradient><radialGradient id="f" cx="0" cy="0" r="1" gradientTransform="translate(10.11 2.9) scale(.20748)" gradientUnits="userSpaceOnUse"><stop stop-color="#F6F172"/><stop offset="1" stop-color="#F2A201"/></radialGradient><radialGradient id="g" cx="0" cy="0" r="1" gradientTransform="translate(9.9 2.73) scale(.20748)" gradientUnits="userSpaceOnUse"><stop stop-color="#F6F172"/><stop offset="1" stop-color="#F2A201"/></radialGradient><radialGradient id="h" cx="0" cy="0" r="1" gradientTransform="translate(9.89 2.73) scale(.12012)" gradientUnits="userSpaceOnUse"><stop stop-color="#F6F172"/><stop offset="1" stop-color="#F2A201"/></radialGradient><radialGradient id="m" cx="0" cy="0" r="1" gradientTransform="translate(11.19 2.62) scale(.2184)" gradientUnits="userSpaceOnUse"><stop stop-color="#F6F172"/><stop offset="1" stop-color="#F2A201"/></radialGradient><radialGradient id="n" cx="0" cy="0" r="1" gradientTransform="translate(11.05 3.03) scale(.20748)" gradientUnits="userSpaceOnUse"><stop stop-color="#F6F172"/><stop offset="1" stop-color="#F2A201"/></radialGradient><radialGradient id="o" cx="0" cy="0" r="1" gradientTransform="translate(10.91 2.72) scale(.20748)" gradientUnits="userSpaceOnUse"><stop stop-color="#F6F172"/><stop offset="1" stop-color="#F2A201"/></radialGradient><radialGradient id="p" cx="0" cy="0" r="1" gradientTransform="translate(10.9 2.74) scale(.12012)" gradientUnits="userSpaceOnUse"><stop stop-color="#F6F172"/><stop offset="1" stop-color="#F2A201"/></radialGradient><radialGradient id="q" cx="0" cy="0" r="1" gradientTransform="rotate(-8.48 24.48 -59.12) scale(.20748)" gradientUnits="userSpaceOnUse"><stop stop-color="#F6F172"/><stop offset="1" stop-color="#F2A201"/></radialGradient><radialGradient id="r" cx="0" cy="0" r="1" gradientTransform="rotate(-8.48 22 -58.7) scale(.20748)" gradientUnits="userSpaceOnUse"><stop stop-color="#F6F172"/><stop offset="1" stop-color="#F2A201"/></radialGradient><radialGradient id="s" cx="0" cy="0" r="1" gradientTransform="rotate(-8.48 23.56 -57.5) scale(.20748)" gradientUnits="userSpaceOnUse"><stop stop-color="#F6F172"/><stop offset="1" stop-color="#F2A201"/></radialGradient><radialGradient id="t" cx="0" cy="0" r="1" gradientTransform="rotate(-8.48 23.5 -57.42) scale(.12012)" gradientUnits="userSpaceOnUse"><stop stop-color="#F6F172"/><stop offset="1" stop-color="#F2A201"/></radialGradient><radialGradient id="u" cx="0" cy="0" r="1" gradientTransform="translate(12.83 3.38) scale(.25116)" gradientUnits="userSpaceOnUse"><stop stop-color="#F6F172"/><stop offset="1" stop-color="#F2A201"/></radialGradient><radialGradient id="v" cx="0" cy="0" r="1" gradientTransform="translate(7.1 3.39) scale(.25116)" gradientUnits="userSpaceOnUse"><stop stop-color="#F6F172"/><stop offset="1" stop-color="#F2A201"/></radialGradient><radialGradient id="w" cx="0" cy="0" r="1" gradientTransform="translate(7.9 3.12) scale(.25116)" gradientUnits="userSpaceOnUse"><stop stop-color="#F6F172"/><stop offset="1" stop-color="#F2A201"/></radialGradient><radialGradient id="x" cx="0" cy="0" r="1" gradientTransform="translate(11.97 3.12) scale(.25116)" gradientUnits="userSpaceOnUse"><stop stop-color="#F6F172"/><stop offset="1" stop-color="#F2A201"/></radialGradient><radialGradient id="y" cx="0" cy="0" r="1" gradientTransform="translate(10.17 17.46) scale(.20748)" gradientUnits="userSpaceOnUse"><stop stop-color="#F6F172"/><stop offset="1" stop-color="#F2A201"/></radialGradient><radialGradient id="z" cx="0" cy="0" r="1" gradientTransform="translate(10.17 17.1) scale(.20748)" gradientUnits="userSpaceOnUse"><stop stop-color="#F6F172"/><stop offset="1" stop-color="#F2A201"/></radialGradient><radialGradient id="A" cx="0" cy="0" r="1" gradientTransform="translate(9.97 17.29) scale(.20748)" gradientUnits="userSpaceOnUse"><stop stop-color="#F6F172"/><stop offset="1" stop-color="#F2A201"/></radialGradient><radialGradient id="B" cx="0" cy="0" r="1" gradientTransform="translate(9.95 17.29) scale(.12012)" gradientUnits="userSpaceOnUse"><stop stop-color="#F6F172"/><stop offset="1" stop-color="#F2A201"/></radialGradient><radialGradient id="C" cx="0" cy="0" r="1" gradientTransform="matrix(.218401 0 0 .2184 11.26 17.32)" gradientUnits="userSpaceOnUse"><stop stop-color="#F6F172"/><stop offset="1" stop-color="#F2A201"/></radialGradient><radialGradient id="D" cx="0" cy="0" r="1" gradientTransform="translate(11.17 16.93) scale(.20748)" gradientUnits="userSpaceOnUse"><stop stop-color="#F6F172"/><stop offset="1" stop-color="#F2A201"/></radialGradient><radialGradient id="E" cx="0" cy="0" r="1" gradientTransform="translate(11 17.2) scale(.20748)" gradientUnits="userSpaceOnUse"><stop stop-color="#F6F172"/><stop offset="1" stop-color="#F2A201"/></radialGradient><radialGradient id="F" cx="0" cy="0" r="1" gradientTransform="translate(10.99 17.18) scale(.12012)" gradientUnits="userSpaceOnUse"><stop stop-color="#F6F172"/><stop offset="1" stop-color="#F2A201"/></radialGradient><radialGradient id="G" cx="0" cy="0" r="1" gradientTransform="translate(9.14 16.94) scale(.2184)" gradientUnits="userSpaceOnUse"><stop stop-color="#F6F172"/><stop offset="1" stop-color="#F2A201"/></radialGradient><radialGradient id="H" cx="0" cy="0" r="1" gradientTransform="translate(9.04 17.34) scale(.20748)" gradientUnits="userSpaceOnUse"><stop stop-color="#F6F172"/><stop offset="1" stop-color="#F2A201"/></radialGradient><radialGradient id="I" cx="0" cy="0" r="1" gradientTransform="translate(8.88 17.06) scale(.20748)" gradientUnits="userSpaceOnUse"><stop stop-color="#F6F172"/><stop offset="1" stop-color="#F2A201"/></radialGradient><radialGradient id="J" cx="0" cy="0" r="1" gradientTransform="translate(8.87 17.07) scale(.12012)" gradientUnits="userSpaceOnUse"><stop stop-color="#F6F172"/><stop offset="1" stop-color="#F2A201"/></radialGradient><radialGradient id="K" cx="0" cy="0" r="1" gradientTransform="translate(12.96 16.57) scale(.25116)" gradientUnits="userSpaceOnUse"><stop stop-color="#F6F172"/><stop offset="1" stop-color="#F2A201"/></radialGradient><radialGradient id="L" cx="0" cy="0" r="1" gradientTransform="translate(12.12 16.9) scale(.25116)" gradientUnits="userSpaceOnUse"><stop stop-color="#F6F172"/><stop offset="1" stop-color="#F2A201"/></radialGradient><radialGradient id="M" cx="0" cy="0" r="1" gradientTransform="translate(8.08 16.97) scale(.25116)" gradientUnits="userSpaceOnUse"><stop stop-color="#F6F172"/><stop offset="1" stop-color="#F2A201"/></radialGradient><radialGradient id="N" cx="0" cy="0" r="1" gradientTransform="translate(7.24 16.57) scale(.25116)" gradientUnits="userSpaceOnUse"><stop stop-color="#F6F172"/><stop offset="1" stop-color="#F2A201"/></radialGradient><radialGradient id="O" cx="0" cy="0" r="1" gradientTransform="translate(2.57 9.9) scale(.20748)" gradientUnits="userSpaceOnUse"><stop stop-color="#F6F172"/><stop offset="1" stop-color="#F2A201"/></radialGradient><radialGradient id="P" cx="0" cy="0" r="1" gradientTransform="translate(2.93 9.9) scale(.20748)" gradientUnits="userSpaceOnUse"><stop stop-color="#F6F172"/><stop offset="1" stop-color="#F2A201"/></radialGradient><radialGradient id="Q" cx="0" cy="0" r="1" gradientTransform="translate(2.74 10.1) scale(.20748)" gradientUnits="userSpaceOnUse"><stop stop-color="#F6F172"/><stop offset="1" stop-color="#F2A201"/></radialGradient><radialGradient id="R" cx="0" cy="0" r="1" gradientTransform="translate(2.74 10.13) scale(.12012)" gradientUnits="userSpaceOnUse"><stop stop-color="#F6F172"/><stop offset="1" stop-color="#F2A201"/></radialGradient><radialGradient id="S" cx="0" cy="0" r="1" gradientTransform="translate(2.63 8.83) scale(.2184)" gradientUnits="userSpaceOnUse"><stop stop-color="#F6F172"/><stop offset="1" stop-color="#F2A201"/></radialGradient><radialGradient id="T" cx="0" cy="0" r="1" gradientTransform="translate(3.03 8.91) scale(.20748)" gradientUnits="userSpaceOnUse"><stop stop-color="#F6F172"/><stop offset="1" stop-color="#F2A201"/></radialGradient><radialGradient id="U" cx="0" cy="0" r="1" gradientTransform="translate(2.76 9.08) scale(.20748)" gradientUnits="userSpaceOnUse"><stop stop-color="#F6F172"/><stop offset="1" stop-color="#F2A201"/></radialGradient><radialGradient id="V" cx="0" cy="0" r="1" gradientTransform="translate(2.78 9.09) scale(.12012)" gradientUnits="userSpaceOnUse"><stop stop-color="#F6F172"/><stop offset="1" stop-color="#F2A201"/></radialGradient><radialGradient id="W" cx="0" cy="0" r="1" gradientTransform="translate(3 10.93) scale(.2184)" gradientUnits="userSpaceOnUse"><stop stop-color="#F6F172"/><stop offset="1" stop-color="#F2A201"/></radialGradient><radialGradient id="X" cx="0" cy="0" r="1" gradientTransform="translate(2.6 11.04) scale(.20748)" gradientUnits="userSpaceOnUse"><stop stop-color="#F6F172"/><stop offset="1" stop-color="#F2A201"/></radialGradient><radialGradient id="Y" cx="0" cy="0" r="1" gradientTransform="translate(2.89 11.2) scale(.20748)" gradientUnits="userSpaceOnUse"><stop stop-color="#F6F172"/><stop offset="1" stop-color="#F2A201"/></radialGradient><radialGradient id="Z" cx="0" cy="0" r="1" gradientTransform="translate(2.88 11.2) scale(.12012)" gradientUnits="userSpaceOnUse"><stop stop-color="#F6F172"/><stop offset="1" stop-color="#F2A201"/></radialGradient><radialGradient id="aa" cx="0" cy="0" r="1" gradientTransform="translate(3.37 7.11) scale(.25116)" gradientUnits="userSpaceOnUse"><stop stop-color="#F6F172"/><stop offset="1" stop-color="#F2A201"/></radialGradient><radialGradient id="ab" cx="0" cy="0" r="1" gradientTransform="translate(3.04 7.96) scale(.25116)" gradientUnits="userSpaceOnUse"><stop stop-color="#F6F172"/><stop offset="1" stop-color="#F2A201"/></radialGradient><radialGradient id="ac" cx="0" cy="0" r="1" gradientTransform="translate(2.96 12) scale(.25116)" gradientUnits="userSpaceOnUse"><stop stop-color="#F6F172"/><stop offset="1" stop-color="#F2A201"/></radialGradient><radialGradient id="ad" cx="0" cy="0" r="1" gradientTransform="translate(3.37 12.85) scale(.25116)" gradientUnits="userSpaceOnUse"><stop stop-color="#F6F172"/><stop offset="1" stop-color="#F2A201"/></radialGradient><radialGradient id="ae" cx="0" cy="0" r="1" gradientTransform="matrix(.207481 0 0 .20748 17.3 9.95)" gradientUnits="userSpaceOnUse"><stop stop-color="#F6F172"/><stop offset="1" stop-color="#F2A201"/></radialGradient><radialGradient id="af" cx="0" cy="0" r="1" gradientTransform="translate(16.94 9.95) scale(.20748)" gradientUnits="userSpaceOnUse"><stop stop-color="#F6F172"/><stop offset="1" stop-color="#F2A201"/></radialGradient><radialGradient id="ag" cx="0" cy="0" r="1" gradientTransform="translate(17.11 10.16) scale(.20748)" gradientUnits="userSpaceOnUse"><stop stop-color="#F6F172"/><stop offset="1" stop-color="#F2A201"/></radialGradient><radialGradient id="ah" cx="0" cy="0" r="1" gradientTransform="translate(17.11 10.18) scale(.12012)" gradientUnits="userSpaceOnUse"><stop stop-color="#F6F172"/><stop offset="1" stop-color="#F2A201"/></radialGradient><radialGradient id="ai" cx="0" cy="0" r="1" gradientTransform="translate(17.22 8.88) scale(.2184)" gradientUnits="userSpaceOnUse"><stop stop-color="#F6F172"/><stop offset="1" stop-color="#F2A201"/></radialGradient><radialGradient id="aj" cx="0" cy="0" r="1" gradientTransform="translate(16.84 8.97) scale(.20748)" gradientUnits="userSpaceOnUse"><stop stop-color="#F6F172"/><stop offset="1" stop-color="#F2A201"/></radialGradient><radialGradient id="ak" cx="0" cy="0" r="1" gradientTransform="translate(17.1 9.13) scale(.207481)" gradientUnits="userSpaceOnUse"><stop stop-color="#F6F172"/><stop offset="1" stop-color="#F2A201"/></radialGradient><radialGradient id="al" cx="0" cy="0" r="1" gradientTransform="translate(17.1 9.14) scale(.120121)" gradientUnits="userSpaceOnUse"><stop stop-color="#F6F172"/><stop offset="1" stop-color="#F2A201"/></radialGradient><radialGradient id="am" cx="0" cy="0" r="1" gradientTransform="translate(16.86 10.99) scale(.2184)" gradientUnits="userSpaceOnUse"><stop stop-color="#F6F172"/><stop offset="1" stop-color="#F2A201"/></radialGradient><radialGradient id="an" cx="0" cy="0" r="1" gradientTransform="translate(17.26 11.1) scale(.20748)" gradientUnits="userSpaceOnUse"><stop stop-color="#F6F172"/><stop offset="1" stop-color="#F2A201"/></radialGradient><radialGradient id="ao" cx="0" cy="0" r="1" gradientTransform="translate(16.98 11.25) scale(.207481)" gradientUnits="userSpaceOnUse"><stop stop-color="#F6F172"/><stop offset="1" stop-color="#F2A201"/></radialGradient><radialGradient id="ap" cx="0" cy="0" r="1" gradientTransform="translate(17 11.26) scale(.120121)" gradientUnits="userSpaceOnUse"><stop stop-color="#F6F172"/><stop offset="1" stop-color="#F2A201"/></radialGradient><radialGradient id="aq" cx="0" cy="0" r="1" gradientTransform="translate(16.5 7.17) scale(.251161)" gradientUnits="userSpaceOnUse"><stop stop-color="#F6F172"/><stop offset="1" stop-color="#F2A201"/></radialGradient><radialGradient id="ar" cx="0" cy="0" r="1" gradientTransform="translate(16.82 8.02) scale(.25116)" gradientUnits="userSpaceOnUse"><stop stop-color="#F6F172"/><stop offset="1" stop-color="#F2A201"/></radialGradient><radialGradient id="as" cx="0" cy="0" r="1" gradientTransform="translate(16.9 12.05) scale(.25116)" gradientUnits="userSpaceOnUse"><stop stop-color="#F6F172"/><stop offset="1" stop-color="#F2A201"/></radialGradient><radialGradient id="at" cx="0" cy="0" r="1" gradientTransform="translate(16.5 12.9) scale(.251161)" gradientUnits="userSpaceOnUse"><stop stop-color="#F6F172"/><stop offset="1" stop-color="#F2A201"/></radialGradient><linearGradient id="a" x1="-.03" x2="20" y1="9.99" y2="9.99" gradientUnits="userSpaceOnUse"><stop stop-color="#F1B235"/><stop offset=".2" stop-color="#FFF172"/><stop offset=".5" stop-color="#FDCB3D"/><stop offset=".74" stop-color="#FFF476"/><stop offset="1" stop-color="#FFCA3B"/></linearGradient><linearGradient id="c" x1="4.82" x2="17.57" y1="6.25" y2="15.49" gradientUnits="userSpaceOnUse"><stop stop-color="#F1B235"/><stop offset=".2" stop-color="#FFF172"/><stop offset=".5" stop-color="#FDCB3D"/><stop offset=".74" stop-color="#FFF476"/><stop offset="1" stop-color="#FFCA3B"/></linearGradient><linearGradient id="i" x1="9.06" x2="10.85" y1="9.36" y2="9.36" gradientUnits="userSpaceOnUse"><stop offset=".2" stop-color="#FFF172"/><stop offset=".74" stop-color="#FFF476"/><stop offset="1" stop-color="#FFCA3B"/></linearGradient><linearGradient id="j" x1="248" x2="10.85" y1="10.69" y2="10.69" gradientUnits="userSpaceOnUse"><stop offset=".2" stop-color="#FFF172"/><stop offset=".74" stop-color="#FFF476"/><stop offset="1" stop-color="#FFCA3B"/></linearGradient><linearGradient id="k" x1="8.46" x2="9.9" y1="10.04" y2="10.04" gradientUnits="userSpaceOnUse"><stop offset=".2" stop-color="#FFF172"/><stop offset=".74" stop-color="#FFF476"/><stop offset="1" stop-color="#FFCA3B"/></linearGradient><linearGradient id="l" x1="8.68" x2="9.52" y1="10.04" y2="10.04" gradientUnits="userSpaceOnUse"><stop offset=".2" stop-color="#FFF172"/><stop offset=".74" stop-color="#FFF476"/><stop offset="1" stop-color="#FFCA3B"/></linearGradient></defs></svg>