<svg width="41" height="40" viewBox="0 0 41 40" fill="none" xmlns="http://www.w3.org/2000/svg">
<path d="M30.4232 40H21.7552C20.064 40.0016 18.3862 39.6838 16.8014 39.0616L10.0491 36.4184C9.67924 36.2698 9.38009 35.9733 9.21675 35.5933C9.05341 35.2133 9.03912 34.7807 9.17699 34.3897C9.31486 33.9987 9.59373 33.6809 9.95286 33.5056C10.312 33.3302 10.7223 33.3116 11.0944 33.4536L17.8458 36.0968C19.0967 36.5867 20.4207 36.8367 21.7552 36.8349H30.4232C30.8002 36.8349 31.1618 36.677 31.4284 36.396C31.695 36.1151 31.8447 35.734 31.8447 35.3366C31.8447 34.9393 31.695 34.5582 31.4284 34.2772C31.1618 33.9963 30.8002 33.8384 30.4232 33.8384C30.0253 33.8384 29.6436 33.6718 29.3622 33.3752C29.0808 33.0786 28.9227 32.6764 28.9227 32.2569C28.9227 31.8375 29.0808 31.4352 29.3622 31.1386C29.6436 30.842 30.0253 30.6754 30.4232 30.6754H32.4689C32.8459 30.6754 33.2075 30.5176 33.4741 30.2366C33.7407 29.9556 33.8904 29.5745 33.8904 29.1772C33.8904 28.7798 33.7407 28.3988 33.4741 28.1178C33.2075 27.8368 32.8459 27.679 32.4689 27.679C32.071 27.679 31.6893 27.5123 31.4079 27.2157C31.1265 26.9192 30.9684 26.5169 30.9684 26.0975C30.9684 25.678 31.1265 25.2757 31.4079 24.9792C31.6893 24.6826 32.071 24.5159 32.4689 24.5159H34.5137C34.7949 24.516 35.0698 24.4282 35.3036 24.2636C35.5375 24.099 35.7197 23.8649 35.8273 23.5911C35.935 23.3173 35.9631 23.016 35.9082 22.7253C35.8533 22.4346 35.7179 22.1676 35.519 21.9581C35.3874 21.8184 35.2307 21.7077 35.0581 21.6324C34.8855 21.5571 34.7005 21.5187 34.5137 21.5195C34.1157 21.5195 33.734 21.3529 33.4526 21.0563C33.1712 20.7597 33.0131 20.3574 33.0131 19.938C33.0131 19.5186 33.1712 19.1163 33.4526 18.8197C33.734 18.5231 34.1157 18.3565 34.5137 18.3565H36.5594C36.8402 18.3555 37.1144 18.267 37.3475 18.1019C37.5805 17.9369 37.762 17.7028 37.869 17.4292C37.976 17.1556 38.0037 16.8548 37.9487 16.5646C37.8937 16.2744 37.7583 16.0079 37.5597 15.7987C37.4288 15.6594 37.2729 15.5489 37.1013 15.4734C36.9296 15.398 36.7454 15.3591 36.5594 15.359H22.3904C22.1293 15.3593 21.8726 15.2878 21.6457 15.1516C21.4188 15.0154 21.2296 14.8191 21.0968 14.5821C20.9639 14.3452 20.892 14.0759 20.8882 13.8007C20.8844 13.5255 20.9487 13.254 21.0749 13.0131C21.5308 12.0383 21.8412 10.9953 21.9953 9.9207C22.3344 7.61486 21.9162 5.53043 20.7528 3.7254C20.6031 3.50058 20.3893 3.33179 20.1425 3.24344C19.8958 3.15509 19.6287 3.15176 19.38 3.23393C19.1313 3.3161 18.9139 3.47952 18.7591 3.70054C18.6043 3.92156 18.5202 4.18874 18.519 4.46343C18.5681 9.88064 16.1932 13.8175 11.6516 15.8503C11.4696 15.9361 11.2731 15.9829 11.0736 15.9877C10.8742 15.9926 10.6759 15.9555 10.4902 15.8786C10.3046 15.8017 10.1353 15.6866 9.99241 15.5399C9.84947 15.3933 9.73571 15.2181 9.65777 15.0246C9.57983 14.8311 9.53927 14.6231 9.53849 14.4129C9.5377 14.2026 9.57669 13.9943 9.65318 13.8002C9.72966 13.606 9.84211 13.4299 9.98395 13.2821C10.1258 13.1342 10.2942 13.0177 10.4792 12.9393C12.3519 12.0958 13.7164 10.857 14.5356 9.24065C15.2039 7.92167 15.536 6.3254 15.519 4.49612C15.504 2.49709 16.6734 0.810142 18.492 0.213385C20.3107 -0.383372 22.1743 0.295624 23.2387 1.94883C25.7106 5.78241 25.2644 9.7615 24.5872 12.1981H36.5594C37.5573 12.1982 38.5258 12.554 39.3076 13.2077C40.0893 13.8614 40.6383 14.7746 40.8654 15.7987C41.0924 16.8229 40.9842 17.8979 40.5582 18.849C40.1322 19.8002 39.4136 20.5715 38.5191 21.0377C39.0093 22.1424 39.0698 23.4054 38.6877 24.5566C38.3055 25.7077 37.5111 26.6555 36.4744 27.1971C36.9648 28.3021 37.0253 29.5655 36.643 30.7169C36.2607 31.8683 35.4658 32.8162 34.4286 33.3576C34.7445 34.0679 34.8852 34.8507 34.8378 35.6336C34.7904 36.4164 34.5565 37.174 34.1575 37.8362C33.7586 38.4985 33.2076 39.0439 32.5556 39.4221C31.9035 39.8004 31.1715 39.9991 30.4272 40H30.4232Z" fill="url(#paint0_linear_2318_111389)"/>
<path d="M11.072 37.6581H2.48197C2.08401 37.6581 1.70234 37.4915 1.42094 37.1949C1.13954 36.8983 0.981445 36.4961 0.981445 36.0766V14.3962C0.981445 13.9768 1.13954 13.5745 1.42094 13.2779C1.70234 12.9813 2.08401 12.8147 2.48197 12.8147H11.072C11.47 12.8147 11.8516 12.9813 12.133 13.2779C12.4144 13.5745 12.5725 13.9768 12.5725 14.3962V36.0766C12.5725 36.4961 12.4144 36.8983 12.133 37.1949C11.8516 37.4915 11.47 37.6581 11.072 37.6581ZM3.9855 34.4951H9.57146V15.9777H3.9825L3.9855 34.4951Z" fill="url(#paint1_linear_2318_111389)"/>
<defs>
<linearGradient id="paint0_linear_2318_111389" x1="25.0322" y1="-23.6192" x2="62.3343" y2="8.68729" gradientUnits="userSpaceOnUse">
<stop stop-color="#8A2387"/>
<stop offset="0.422991" stop-color="#E94057"/>
<stop offset="0.784813" stop-color="#F27121"/>
</linearGradient>
<linearGradient id="paint1_linear_2318_111389" x1="6.77698" y1="-1.85488" x2="25.6524" y2="7.70954" gradientUnits="userSpaceOnUse">
<stop stop-color="#8A2387"/>
<stop offset="0.422991" stop-color="#E94057"/>
<stop offset="0.784813" stop-color="#F27121"/>
</linearGradient>
</defs>
</svg>
