<svg width="24" height="20" viewBox="0 0 24 20" fill="none" xmlns="http://www.w3.org/2000/svg">
<path d="M12 11.5C14.0711 11.5 15.75 9.82107 15.75 7.75C15.75 5.67893 14.0711 4 12 4C9.92893 4 8.25 5.67893 8.25 7.75C8.25 9.82107 9.92893 11.5 12 11.5Z" stroke="#A1A1A1" stroke-width="1.5" stroke-linecap="round" stroke-linejoin="round"/>
<path d="M17.25 19C17.25 17.6076 16.6969 16.2723 15.7123 15.2877C14.7277 14.3031 13.3924 13.75 12 13.75C10.6076 13.75 9.27226 14.3031 8.28769 15.2877C7.30312 16.2723 6.75 17.6076 6.75 19H17.25Z" stroke="#A1A1A1" stroke-width="1.5" stroke-linecap="round" stroke-linejoin="round"/>
<path d="M18 8.5C18.6392 8.5 19.2678 8.33661 19.8261 8.02533C20.3844 7.71406 20.8539 7.26524 21.1899 6.72149C21.526 6.17775 21.7175 5.55712 21.7462 4.91856C21.7749 4.27999 21.64 3.64468 21.3541 3.07295C21.0682 2.50122 20.641 2.01205 20.1129 1.6519C19.5848 1.29174 18.9734 1.07256 18.3368 1.01515C17.7001 0.957749 17.0594 1.06403 16.4754 1.32391C15.8914 1.58379 15.3835 1.98863 15 2.5" stroke="#A1A1A1" stroke-width="1.5" stroke-linecap="round" stroke-linejoin="round"/>
<path d="M18.75 16H23.25C23.25 14.6076 22.6969 13.2723 21.7123 12.2877C20.7277 11.3031 19.3924 10.75 18 10.75" stroke="#A1A1A1" stroke-width="1.5" stroke-linecap="round" stroke-linejoin="round"/>
<path d="M9 2.5C8.61647 1.98863 8.1086 1.58379 7.5246 1.32391C6.9406 1.06403 6.29986 0.957749 5.66323 1.01515C5.0266 1.07256 4.41521 1.29174 3.88712 1.6519C3.35903 2.01205 2.93176 2.50122 2.6459 3.07295C2.36003 3.64468 2.22506 4.27999 2.25379 4.91856C2.28252 5.55712 2.47401 6.17775 2.81006 6.72149C3.14611 7.26524 3.61558 7.71406 4.17388 8.02533C4.73219 8.33661 5.36079 8.5 6 8.5" stroke="#A1A1A1" stroke-width="1.5" stroke-linecap="round" stroke-linejoin="round"/>
<path d="M6 10.75C4.60761 10.75 3.27226 11.3031 2.28769 12.2877C1.30312 13.2723 0.75 14.6076 0.75 16H5.25" stroke="#A1A1A1" stroke-width="1.5" stroke-linecap="round" stroke-linejoin="round"/>
</svg>
