<svg width="22" height="25" viewBox="0 0 22 25" fill="none" xmlns="http://www.w3.org/2000/svg">
<path d="M0 9.82755V2.24563C0 1.4032 0.0705129 1.33299 0.916667 1.5436C1.76282 1.75421 1.48077 1.75421 1.48077 1.12239C1.48077 0.49056 1.6218 0.420357 2.1859 0.560762L10.4359 2.87746C10.8045 2.98279 11.1955 2.98279 11.5641 2.87746L19.6731 0.630966C20.3782 0.420357 20.5192 0.420357 20.5192 1.26279C20.5192 2.10523 20.5897 1.68401 20.9423 1.61381C21.2949 1.5436 22 1.4032 22 2.38604V17.2691C22 18.1115 22 18.1115 21.1538 18.3923L14.1026 20.358C13.891 20.358 13.6795 20.4984 13.4679 20.2878C13.2564 20.0772 13.5385 19.8666 13.6795 19.7262C13.8999 19.418 14.0227 19.0513 14.0321 18.6731C14.0223 18.5901 14.0291 18.5059 14.0523 18.4255C14.0754 18.3451 14.1143 18.2701 14.1668 18.2048C14.2193 18.1395 14.2842 18.0852 14.3579 18.0451C14.4316 18.005 14.5126 17.9798 14.5962 17.9711L19.391 16.6372C19.7436 16.4968 19.8846 16.3564 19.8846 16.0054V1.68401C19.8846 1.26279 19.7436 1.19259 19.391 1.33299L11.8462 3.43908C11.4231 3.50928 11.2821 3.71989 11.2821 4.14111C11.3526 6.80882 11.2821 9.40633 11.2821 12.074V12.5655C11.2821 12.7761 11.2115 12.9165 11 12.9165C10.7885 12.9165 10.7179 12.7761 10.7179 12.5655V10.9508C10.7179 8.7043 10.6474 6.3876 10.7179 4.14111C10.7179 3.71989 10.5769 3.50928 10.1538 3.43908L2.60898 1.33299C2.25641 1.19259 2.11538 1.26279 2.11538 1.68401V16.0054C2.11538 16.3564 6.62821 18.1817 6.98077 18.2519C7.33333 18.3221 6.13462 18.6731 6.41667 19.6559C6.69872 20.6388 4.30128 19.3049 3.80769 19.1645L0.98718 18.3923C4.20289e-07 18.1115 0 18.3221 0 17.0584V9.82755Z" fill="#919191"/>
<path d="M3.45365 3.93061H3.66519L9.2357 5.54528H9.51775C9.65878 5.61548 9.87032 5.68568 9.79981 5.96649C9.72929 6.24731 9.51775 6.1771 9.30622 6.1069L6.83827 5.40487L3.45365 4.49223C3.24211 4.42203 2.96006 4.35183 3.03057 4.07102C3.10109 3.7902 3.24211 3.93061 3.45365 3.93061Z" fill="#919191"/>
<path d="M18.6135 3.93066C18.825 3.93066 18.966 3.93066 18.966 4.14127C18.966 4.35188 18.966 4.35188 18.825 4.42208L18.4019 4.56249L12.9725 6.10695C12.6904 6.17716 12.3378 6.38777 12.1968 5.96655C12.0558 5.54533 12.5494 5.61553 12.7609 5.54533L18.3314 4.00087L18.6135 3.93066Z" fill="#919191"/>
<path d="M3.38323 5.96704L5.56912 6.52866L9.37682 7.5817C9.65887 7.6519 9.87041 7.72211 9.79989 8.07312C9.7417 8.16387 9.65082 8.22898 9.54591 8.2551C9.441 8.28121 9.33003 8.26633 9.23579 8.21353L3.38323 6.59886C3.2422 6.52866 2.96015 6.45846 3.03066 6.17764C3.01653 6.13256 3.01803 6.08407 3.03491 6.03994C3.0518 5.99581 3.08309 5.95861 3.12376 5.93431C3.16443 5.91002 3.21213 5.90003 3.25918 5.90597C3.30624 5.9119 3.34992 5.93341 3.38323 5.96704Z" fill="#919191"/>
<path d="M12.5518 8.21231C12.3402 8.28251 12.1992 8.21231 12.1992 8.0017C12.1992 7.79109 12.3402 7.72089 12.4813 7.65068L15.0197 6.94866L18.4749 5.96582C18.6864 5.89561 18.8979 5.89561 18.9684 6.10622C18.979 6.15781 18.9778 6.21111 18.9649 6.26218C18.952 6.31324 18.9277 6.36076 18.8939 6.40121C18.86 6.44166 18.8174 6.47401 18.7693 6.49586C18.7212 6.51771 18.6688 6.5285 18.6159 6.52744L12.6928 8.21231H12.5518Z" fill="#919191"/>
<path d="M3.45365 7.93226H3.66519L9.2357 9.47673H9.44724C9.65878 9.54693 9.87032 9.61713 9.79981 9.89795C9.72929 10.1788 9.51776 10.1086 9.30622 10.0384L6.83827 9.33632L3.45365 8.42369C3.24211 8.35348 2.96006 8.28328 3.03057 8.00247C3.10109 7.72166 3.24211 7.93226 3.45365 7.93226Z" fill="#919191"/>
<path d="M18.6135 7.93164C18.825 7.93164 18.966 8.00184 18.966 8.14225C18.966 8.28266 18.966 8.35286 18.825 8.42306L18.4019 8.63367L12.9725 10.1079C12.6904 10.1781 12.3378 10.3887 12.1968 10.0377C12.0558 9.68671 12.5494 9.61651 12.7609 9.54631L18.3314 8.00184L18.6135 7.93164Z" fill="#919191"/>
<path d="M3.38323 9.96874L5.56912 10.5304L9.37682 11.6536C9.65887 11.7238 9.87041 11.794 9.79989 12.0748C9.72938 12.3556 9.44733 12.2854 9.23579 12.2152L3.38323 10.6006C3.2422 10.5304 2.96015 10.4602 3.03066 10.1793C3.10118 9.89854 3.2422 9.96874 3.38323 9.96874Z" fill="#919191"/>
<path d="M12.5518 12.2854C12.3402 12.2854 12.1992 12.2152 12.1992 12.0046C12.1992 11.794 12.3402 11.7238 12.4813 11.6536L15.0197 10.9516L18.4749 9.96874C18.6159 9.96874 18.8979 9.89854 18.9684 10.1793C19.039 10.4602 18.8274 10.5304 18.6159 10.6006L12.6928 12.2152L12.5518 12.2854Z" fill="#919191"/>
<path d="M11.1408 19.1655C11.1408 19.0952 11.1408 19.025 11.0703 19.025L9.51903 18.1124L8.53185 17.5508H8.46134C8.39082 17.5508 8.32031 17.5508 8.32031 17.621V20.5695H8.53185L9.51903 20.0079L11.0703 19.0952L11.1408 19.1655ZM10.6472 19.1655L9.44852 19.8675L8.74339 20.2887H8.60236V18.0422C8.60236 17.972 8.60236 17.9018 8.67288 17.9018H8.74339L9.44852 18.3932L10.6472 19.025C10.7177 19.0952 10.7177 19.0952 10.6472 19.1655Z" fill="#919191"/>
<path d="M10.9998 13.6895C9.92595 13.6895 8.87621 14.0065 7.98334 14.6005C7.09047 15.1944 6.39455 16.0387 5.98361 17.0264C5.57266 18.0142 5.46514 19.1011 5.67464 20.1497C5.88414 21.1982 6.40125 22.1614 7.16057 22.9174C7.9199 23.6734 8.88734 24.1883 9.94056 24.3968C10.9938 24.6054 12.0855 24.4984 13.0776 24.0892C14.0697 23.6801 14.9177 22.9872 15.5143 22.0983C16.1109 21.2093 16.4293 20.1642 16.4293 19.0951C16.4293 17.6614 15.8573 16.2865 14.839 15.2727C13.8208 14.259 12.4398 13.6895 10.9998 13.6895ZM8.17929 21.131C8.14189 21.131 8.10602 21.1162 8.07957 21.0898C8.05312 21.0635 8.03826 21.0278 8.03826 20.9906V17.1996C8.0515 17.1847 8.06777 17.1727 8.08601 17.1645C8.10425 17.1563 8.12403 17.1521 8.14403 17.1521C8.16404 17.1521 8.18382 17.1563 8.20206 17.1645C8.22029 17.1727 8.23657 17.1847 8.2498 17.1996L9.51903 17.9016L10.9998 18.6739L11.5639 19.0249L9.51903 20.2183L8.2498 20.9204L8.17929 21.131ZM13.3267 22.3946H13.0447L12.8331 22.2542L10.7883 20.2183V21.7628C10.7883 21.9304 10.7214 22.0911 10.6024 22.2096C10.4834 22.328 10.322 22.3946 10.1536 22.3946C9.98534 22.3946 9.82392 22.328 9.70491 22.2096C9.58589 22.0911 9.51903 21.9304 9.51903 21.7628V20.4991L11.7049 19.2355L13.7498 21.2714C13.8537 21.3547 13.9285 21.4686 13.9637 21.5967C13.9989 21.7248 13.9926 21.8607 13.9457 21.9851C13.8989 22.1095 13.8139 22.216 13.7027 22.2895C13.5916 22.363 13.46 22.3998 13.3267 22.3946ZM13.7498 16.9188L11.7049 18.9547L9.51903 17.691V16.4976C9.51903 16.33 9.58589 16.1693 9.70491 16.0508C9.82392 15.9323 9.98534 15.8657 10.1536 15.8657C10.322 15.8657 10.4834 15.9323 10.6024 16.0508C10.7214 16.1693 10.7883 16.33 10.7883 16.4976V18.042L12.8331 16.0061C12.8924 15.9446 12.9635 15.8956 13.0423 15.8621C13.1211 15.8286 13.2058 15.8113 13.2915 15.8113C13.3771 15.8113 13.4619 15.8286 13.5406 15.8621C13.6194 15.8956 13.6906 15.9446 13.7498 16.0061C13.819 16.0677 13.8738 16.1436 13.9104 16.2285C13.9469 16.3134 13.9643 16.4052 13.9613 16.4976C13.948 16.6599 13.8722 16.8108 13.7498 16.9188Z" fill="#919191"/>
<path d="M15.7227 12.7758L16.0752 12.4248L18.8252 15.1627L18.4727 15.5137L15.7227 12.7758Z" fill="#919191"/>
<path d="M18.4727 12.4248L18.8252 12.7758L16.0752 15.5137L15.7227 15.1627L18.4727 12.4248Z" fill="#919191"/>
<path d="M4.58323 15.5137L4.16016 15.0223L6.91016 12.4248L7.33323 12.9162L4.58323 15.5137Z" fill="#919191"/>
<path d="M5.07572 15.0924L4.58213 15.5136L3.17188 14.0394L3.66547 13.6182L5.07572 15.0924Z" fill="#919191"/>
</svg>
