<svg width="25" height="26" viewBox="0 0 25 26" fill="none" xmlns="http://www.w3.org/2000/svg">
<path d="M16.7159 6.97033V8.0973C16.7159 8.22885 16.69 8.35911 16.6397 8.48065C16.5893 8.60219 16.5155 8.71262 16.4225 8.80564C16.3295 8.89866 16.219 8.97245 16.0975 9.02279C15.976 9.07313 15.8457 9.09904 15.7142 9.09904H14.9628C14.8376 9.09904 14.8376 9.16165 14.775 9.22426C14.3769 9.86195 13.8146 10.3809 13.1472 10.7269C12.6596 10.9752 12.1276 11.1241 11.5819 11.1651H11.4567C11.39 11.102 11.3113 11.0529 11.2253 11.0206C11.1392 10.9884 11.0476 10.9736 10.9558 10.9773H10.5176C10.3632 10.9715 10.2114 11.0177 10.0865 11.1085C9.96163 11.1994 9.87089 11.3296 9.82888 11.4782C9.81012 11.635 9.85131 11.7931 9.94419 11.9208C10.0371 12.0485 10.1748 12.1364 10.3298 12.1669C10.5976 12.2285 10.8759 12.2285 11.1437 12.1669C11.2089 12.1723 11.2743 12.157 11.3304 12.1233C11.3866 12.0896 11.4307 12.0392 11.4567 11.9791H11.6445C12.2087 11.9297 12.7597 11.7814 13.2724 11.5408L14.1489 11.1025C14.2115 11.1025 14.2115 11.0399 14.2741 11.1025H14.2115C14.1543 11.3009 14.07 11.4905 13.9611 11.666C13.6754 12.1919 13.2931 12.6592 12.8341 13.0434C12.2259 13.4758 11.5119 13.7354 10.768 13.7947H9.45322C8.8402 13.6753 8.26223 13.4184 7.76277 13.0434C6.80394 12.2435 6.10623 11.1751 5.75927 9.97557C5.68775 9.79562 5.64547 9.60539 5.63405 9.41209C5.63405 9.34948 5.57144 9.28687 5.44622 9.28687H4.75752C4.59688 9.30227 4.4349 9.27864 4.28536 9.21798C4.13582 9.15732 4.00315 9.06143 3.89863 8.93847C3.79412 8.81552 3.72086 8.66913 3.68508 8.51177C3.64931 8.35442 3.65208 8.19074 3.69316 8.03469V5.84337C3.68826 5.68785 3.71966 5.53332 3.78486 5.39205C3.85007 5.25077 3.94729 5.12662 4.06881 5.02945C4.11226 5.00493 4.14738 4.96799 4.16969 4.92337C4.192 4.87875 4.20048 4.82848 4.19403 4.77902C4.24476 4.27502 4.39365 3.78582 4.6323 3.33901C5.16915 2.2936 5.99493 1.42436 7.01145 0.834645C7.71518 0.40852 8.50813 0.15135 9.328 0.083336C10.1827 -0.0604881 11.0584 -0.0177725 11.895 0.208554C12.9312 0.488065 13.8792 1.02671 14.6498 1.77378C15.5241 2.58256 16.0981 3.66418 16.2776 4.84163C16.2748 4.87554 16.2788 4.90969 16.2896 4.94199C16.3004 4.97428 16.3176 5.00404 16.3403 5.02945C16.4608 5.11322 16.5583 5.22591 16.6239 5.35718C16.6896 5.48845 16.7212 5.63409 16.7159 5.78076V6.97033ZM10.1419 1.14769C9.08181 1.17354 8.05498 1.5231 7.19928 2.14944C6.30569 2.7315 5.65897 3.62352 5.38361 4.6538C5.38361 4.77902 5.38361 4.90423 5.50883 4.96684C5.63405 5.02945 5.63405 5.02945 5.69666 4.90423C5.89083 4.27211 6.25982 3.70778 6.76102 3.2764C7.40172 2.68633 8.2125 2.31381 9.07756 2.21204C10.1209 2.0212 11.195 2.08564 12.208 2.39987C12.9383 2.66636 13.586 3.1197 14.0863 3.71466C14.3753 4.07365 14.6076 4.47484 14.775 4.90423C14.775 4.96684 14.775 5.02945 14.8376 5.02945C14.8711 5.0222 14.9026 5.00817 14.9304 4.98824C14.9582 4.96831 14.9817 4.94289 14.9993 4.91356C15.0169 4.88423 15.0283 4.8516 15.0328 4.8177C15.0373 4.78379 15.0348 4.74932 15.0255 4.71641C14.7979 3.71462 14.2207 2.82673 13.3976 2.21204C12.4454 1.53534 11.31 1.16413 10.1419 1.14769Z" fill="#919191"/>
<path d="M7.38791 23.4989H0.125219C0.0626092 23.4989 0 23.4989 0 23.3737L0.187828 21.558C0.226346 20.7783 0.331072 20.0034 0.500874 19.2415C0.60431 18.5851 0.815877 17.9504 1.12697 17.3632C1.27142 17.1288 1.49269 16.9518 1.75306 16.8623L4.32005 15.798L6.44876 14.984L6.57398 14.8588L7.63834 13.9823C7.78366 13.8674 7.96631 13.8102 8.15121 13.8218C8.3361 13.8333 8.51021 13.9128 8.64009 14.0449C9.07836 14.4832 9.51662 14.8588 9.89228 15.2971L10.0801 15.4849C10.2053 15.6101 10.2053 15.6101 10.3305 15.4849L11.708 14.1075C11.8364 13.9626 12.0158 13.8729 12.2088 13.8571C12.3059 13.8312 12.4078 13.8291 12.5059 13.8509C12.6039 13.8727 12.6953 13.9177 12.7723 13.9823L13.5236 14.6084C13.7626 14.8548 14.0665 15.0285 14.4002 15.1093L16.0906 15.798C16.1532 15.8606 16.2158 15.8606 16.2158 15.9232H16.0906C15.456 16.2334 14.8996 16.6828 14.4628 17.238C13.9072 17.8698 13.5577 18.6561 13.461 19.4919C13.3644 20.1914 13.4268 20.9037 13.6436 21.5758C13.8604 22.2479 14.226 22.8624 14.7132 23.3737C14.7758 23.4363 14.8384 23.4363 14.7758 23.4989H7.38791Z" fill="#919191"/>
<rect x="11.5" y="12.5" width="13" height="13" rx="6.5" stroke="white"/>
<path d="M18 13C16.4166 13.0253 14.9052 13.6656 13.7854 14.7854C12.6656 15.9052 12.0253 17.4166 12 19C12 20.5913 12.6321 22.1174 13.7574 23.2426C14.8826 24.3679 16.4087 25 18 25C19.5913 25 21.1174 24.3679 22.2426 23.2426C23.3679 22.1174 24 20.5913 24 19C24 17.4087 23.3679 15.8826 22.2426 14.7574C21.1174 13.6321 19.5913 13 18 13ZM17.8033 17.2295C18.0707 17.1858 18.3446 17.2078 18.6016 17.2934C18.8587 17.3791 19.091 17.5259 19.2787 17.7213C19.5842 18.1167 19.7564 18.5989 19.7705 19.0984H19.2787C19.2943 18.9151 19.2668 18.7307 19.1985 18.5599C19.1302 18.3892 19.0229 18.2367 18.8852 18.1148C18.7535 17.9623 18.5849 17.846 18.3955 17.7772C18.2061 17.7083 18.0022 17.6891 17.8033 17.7213V17.2295ZM20.459 21.5574C20.459 21.5574 20.2623 22.2459 18.8852 22.541C17.5082 22.8361 15.8361 21.0656 15.8361 21.0656C15.8361 21.0656 14.1639 19.1967 14.459 18.0164C14.7541 16.8361 15.4426 16.541 15.4426 16.541C15.6519 16.4937 15.8709 16.5162 16.0663 16.605C16.2616 16.6938 16.4226 16.844 16.5246 17.0328C16.918 17.8197 16.8197 18.2131 16.5246 18.4098C16.4102 18.4655 16.3111 18.5481 16.2356 18.6504C16.1602 18.7528 16.1107 18.872 16.0913 18.9977C16.072 19.1234 16.0834 19.2519 16.1246 19.3722C16.1658 19.4925 16.2355 19.6011 16.3279 19.6885C16.5783 20.0856 16.9144 20.4217 17.3115 20.6721C17.3989 20.7645 17.5075 20.8342 17.6278 20.8754C17.7481 20.9166 17.8766 20.928 18.0023 20.9087C18.128 20.8893 18.2472 20.8398 18.3496 20.7644C18.4519 20.6889 18.5345 20.5898 18.5902 20.4754C18.7869 20.1803 19.1803 20.082 19.8689 20.4754C20.0758 20.5615 20.2471 20.7157 20.3544 20.9125C20.4617 21.1093 20.4986 21.3368 20.459 21.5574ZM20.1639 18.8033C20.2076 18.5359 20.1857 18.2619 20.1 18.0049C20.0143 17.7479 19.8675 17.5156 19.6721 17.3279C19.4649 17.131 19.2153 16.9843 18.9424 16.899C18.6696 16.8138 18.3808 16.7922 18.0984 16.8361V16.3443C18.4343 16.2886 18.7787 16.3131 19.1034 16.4156C19.4282 16.5182 19.7241 16.6959 19.9672 16.9344C20.2112 17.1769 20.3993 17.4699 20.5182 17.7927C20.6371 18.1155 20.6841 18.4604 20.6557 18.8033H20.1639ZM21.0492 18.5082C21.0846 18.1648 21.041 17.8179 20.9216 17.4939C20.8023 17.17 20.6104 16.8777 20.3607 16.6393C20.1043 16.3802 19.7974 16.1766 19.4589 16.0412C19.1205 15.9058 18.7578 15.8416 18.3934 15.8525V15.3607C19.2337 15.3518 20.0447 15.6691 20.6557 16.2459C20.9726 16.5254 21.2182 16.8764 21.3722 17.2699C21.5262 17.6634 21.584 18.0879 21.541 18.5082H21.0492Z" fill="#919191"/>
</svg>
