<svg width="18" height="18" viewBox="0 0 18 18" fill="none" xmlns="http://www.w3.org/2000/svg">
<path fill-rule="evenodd" clip-rule="evenodd" d="M0.0878906 2.67368C0.0878906 1.19705 1.28494 0 2.76157 0H15.2388C16.7154 0 17.9124 1.19705 17.9124 2.67368V12.045C17.9124 13.2681 16.9209 14.2596 15.6978 14.2596C15.4154 14.2596 15.2089 14.526 15.2792 14.7995L15.3338 15.0117C15.9059 17.2366 13.3102 18.9043 11.5244 17.4591L7.8159 14.4581C7.65725 14.3297 7.45934 14.2596 7.25526 14.2596H2.76157C1.28494 14.2596 0.0878906 13.0626 0.0878906 11.586V2.67368ZM2.76157 1.78245C2.26936 1.78245 1.87035 2.18147 1.87035 2.67368V11.586C1.87035 12.0782 2.26936 12.4772 2.76157 12.4772H7.25526C7.86752 12.4772 8.46124 12.6873 8.93719 13.0725L12.6456 16.0735C13.0966 16.4384 13.752 16.0174 13.6075 15.4556L13.5529 15.2434C13.1926 13.842 14.2509 12.4772 15.6978 12.4772C15.9365 12.4772 16.13 12.2837 16.13 12.045V2.67368C16.13 2.18147 15.731 1.78245 15.2388 1.78245H2.76157Z" fill="#878787"/>
<path d="M3.6528 4.45614C3.6528 3.96393 4.05182 3.56491 4.54403 3.56491H13.4563C13.9485 3.56491 14.3475 3.96393 14.3475 4.45614C14.3475 4.94835 13.9485 5.34736 13.4563 5.34736H4.54403C4.05182 5.34736 3.6528 4.94835 3.6528 4.45614Z" fill="#878787"/>
<path d="M3.6528 8.02105C3.6528 7.52884 4.05182 7.12982 4.54403 7.12982H9.89139C10.3836 7.12982 10.7826 7.52884 10.7826 8.02105C10.7826 8.51326 10.3836 8.91228 9.89139 8.91228H4.54403C4.05182 8.91228 3.6528 8.51326 3.6528 8.02105Z" fill="#878787"/>
</svg>
