<svg width="24" height="25" viewBox="0 0 24 25" fill="none" xmlns="http://www.w3.org/2000/svg">
<g clip-path="url(#clip0_1063_59987)">
<path fill-rule="evenodd" clip-rule="evenodd" d="M24 13C24 19.6274 18.6274 25 12 25C5.37258 25 0 19.6274 0 13C0 6.37258 5.37258 1 12 1C18.6274 1 24 6.37258 24 13ZM8.69426 22.0157C8.55761 21.698 8.43169 21.3633 8.316 21.0162C7.97501 19.9933 7.70205 18.7988 7.51144 17.4886C6.20115 17.298 5.00672 17.025 3.98377 16.684C3.63669 16.5683 3.30204 16.4424 2.98434 16.3057C3.9536 18.9484 6.05161 21.0464 8.69426 22.0157ZM2.98434 9.69425C3.9536 7.05161 6.05161 4.9536 8.69426 3.98434C8.55761 4.30204 8.43169 4.63669 8.316 4.98377C7.97501 6.00672 7.70205 7.20116 7.51144 8.51144C6.20115 8.70205 5.00672 8.97501 3.98377 9.316C3.63669 9.43169 3.30204 9.55761 2.98434 9.69425ZM15.3057 3.98434C15.4424 4.30204 15.5683 4.63669 15.684 4.98377C16.025 6.00672 16.298 7.20116 16.4886 8.51144C17.7988 8.70205 18.9933 8.97501 20.0162 9.316C20.3633 9.43169 20.698 9.55761 21.0157 9.69426C20.0464 7.05161 17.9484 4.9536 15.3057 3.98434ZM21.0157 16.3057C20.698 16.4424 20.3633 16.5683 20.0162 16.684C18.9933 17.025 17.7988 17.298 16.4886 17.4886C16.298 18.7988 16.025 19.9933 15.684 21.0162C15.5683 21.3633 15.4424 21.698 15.3057 22.0157C17.9484 21.0464 20.0464 18.9484 21.0157 16.3057ZM11.9997 3.4C12.1697 3.39948 12.3716 3.68089 12.4588 3.79149C12.771 4.1877 13.1047 4.83539 13.4072 5.74272C13.6489 6.46788 13.8568 7.31671 14.019 8.26052C13.3617 8.22064 12.6869 8.2 12 8.2C11.3131 8.2 10.6383 8.22064 9.98096 8.26052C10.1432 7.31671 10.3511 6.46788 10.5928 5.74272C10.8953 4.83539 11.229 4.1877 11.5412 3.79149C11.629 3.68013 11.8291 3.40105 11.9997 3.4ZM2.79149 13.4588C3.1877 13.771 3.83539 14.1047 4.74272 14.4072C5.46788 14.6489 6.31671 14.8568 7.26052 15.019C7.22064 14.3617 7.2 13.6869 7.2 13C7.2 12.3131 7.22064 11.6383 7.26052 10.981C6.31671 11.1432 5.46788 11.3511 4.74272 11.5928C3.83539 11.8953 3.1877 12.229 2.79149 12.5412C2.56392 12.7206 2.39977 12.8599 2.4 13C2.40023 13.1389 2.56279 13.2786 2.79149 13.4588ZM9.6 13C9.6 13.7991 9.63 14.5735 9.68611 15.3139C10.4265 15.37 11.2009 15.4 12 15.4C12.7991 15.4 13.5735 15.37 14.3139 15.3139C14.37 14.5735 14.4 13.7991 14.4 13C14.4 12.2009 14.37 11.4265 14.3139 10.6861C13.5735 10.63 12.7991 10.6 12 10.6C11.2009 10.6 10.4265 10.63 9.68611 10.6861C9.63 11.4265 9.6 12.2009 9.6 13ZM10.5928 20.2573C10.3511 19.5321 10.1432 18.6833 9.98096 17.7395C10.6383 17.7794 11.3131 17.8 12 17.8C12.6869 17.8 13.3617 17.7794 14.019 17.7395C13.8568 18.6833 13.6489 19.5321 13.4072 20.2573C13.1047 21.1646 12.771 21.8123 12.4588 22.2085C12.2356 22.4917 12.0962 22.5929 12 22.5928C11.9055 22.5927 11.7649 22.4923 11.5412 22.2085C11.229 21.8123 10.8953 21.1646 10.5928 20.2573ZM19.2573 14.4072C18.5321 14.6489 17.6833 14.8568 16.7395 15.019C16.7794 14.3617 16.8 13.6869 16.8 13C16.8 12.3131 16.7794 11.6383 16.7395 10.981C17.6833 11.1432 18.5321 11.3511 19.2573 11.5928C20.1646 11.8953 20.8123 12.229 21.2085 12.5412C21.4959 12.7677 21.6 12.85 21.6 13C21.6 13.15 21.2958 13.39 21.2085 13.4588C20.8123 13.771 20.1646 14.1047 19.2573 14.4072Z" fill="#919191"/>
</g>
<defs>
<clipPath id="clip0_1063_59987">
<rect width="24" height="24" fill="white" transform="translate(0 0.5)"/>
</clipPath>
</defs>
</svg>
