<svg width="20" height="20" viewBox="0 0 20 20" fill="none" xmlns="http://www.w3.org/2000/svg">
<path d="M3.36689 11.4163C3.3677 10.7552 3.10298 10.4677 2.56477 10.4857C1.98377 10.5051 1.40153 10.5069 0.82066 10.4846C0.252794 10.4627 -0.0114172 10.7448 0.00281093 11.4608C0.0247042 12.562 0.00856919 13.6643 0.00798643 14.7662C0.00740168 15.8418 0.0266685 16.918 0.00083671 17.9927C-0.0173122 18.7479 0.259537 19.0358 0.855694 19.0086C1.43633 18.9821 2.01851 18.994 2.59982 19.0047C3.10774 19.0141 3.36469 18.7223 3.36517 18.106C3.36691 15.8761 3.36749 13.6462 3.36689 11.4163ZM1.68345 17.6512C1.37245 17.6512 1.12034 17.3441 1.12034 16.9652C1.12034 16.5863 1.37245 16.2792 1.68345 16.2792C1.99445 16.2792 2.24656 16.5863 2.24656 16.9652C2.24656 17.3441 1.99445 17.6512 1.68345 17.6512ZM1.68345 15.4329C1.37245 15.4329 1.12034 15.1257 1.12034 14.7469C1.12034 14.368 1.37245 14.0609 1.68345 14.0609C1.99445 14.0609 2.24656 14.368 2.24656 14.7469C2.24656 15.1257 1.99445 15.4329 1.68345 15.4329ZM1.68345 13.1987C1.37245 13.1987 1.12034 12.8916 1.12034 12.5127C1.12034 12.1339 1.37245 11.8268 1.68345 11.8268C1.99445 11.8268 2.24656 12.1339 2.24656 12.5127C2.24656 12.8916 1.99445 13.1987 1.68345 13.1987Z" fill="#0F82D6"/>
<path d="M18.3475 16.3837C19.9405 15.6912 20.1342 14.7555 19.164 13.5717C19.4952 12.8432 19.9685 12.2444 19.9999 11.6238C20.0414 10.8059 19.3206 10.4093 18.4933 10.2456C18.6398 10.0248 18.7883 9.84282 18.8915 9.63853C19.4817 8.47116 18.7296 7.2808 17.4181 7.37741C15.7405 7.50097 14.0691 7.7043 12.3942 7.86522C11.9737 7.90563 11.5501 7.91536 11.0643 7.94278C11.8012 5.75184 11.36 3.70114 10.6689 1.68693C10.3633 0.79635 9.79912 0.0388629 8.72855 0.00219165C8.14857 -0.0176811 7.51491 0.0823482 7.61171 0.941C7.90571 3.54886 7.11589 5.88098 5.7741 8.08371C5.39668 8.70329 5.10803 9.37546 4.77556 10.022C4.69256 10.1834 4.63064 10.4405 4.50289 10.481C3.33447 10.8513 3.72163 11.8005 3.70851 12.5655C3.67691 14.4087 3.71329 16.253 3.68905 18.0965C3.68177 18.6497 3.82909 18.8783 4.41881 19.1024C7.9824 20.457 11.5858 20.0098 15.2045 19.4962C15.931 19.3931 16.665 19.3434 17.3933 19.252C18.9145 19.061 19.4132 17.9628 18.5703 16.6733C18.5045 16.5726 18.4235 16.4817 18.3475 16.3837Z" fill="#0F82D6"/>
</svg>
