<svg width="28" height="25" viewBox="0 0 28 25" fill="none" xmlns="http://www.w3.org/2000/svg">
<path d="M8.36339 17.1483C3.35784 18.1132 1.66921 20.224 4.6243 21.8523C7.57939 23.4806 14.0926 23.9631 19.0982 22.9379C24.1037 21.9126 25.7924 19.8622 22.8373 18.2941C19.8822 16.7261 13.3689 16.1834 8.36339 17.1483ZM18.4348 22.576C14.0323 23.4806 8.36339 22.9982 5.77015 21.6111C3.17691 20.224 4.6243 18.3545 9.02678 17.5101C13.4293 16.6658 19.0982 17.088 21.6914 18.4751C24.2847 19.8622 22.8373 21.7317 18.4348 22.576Z" fill="#919191"/>
<path d="M6.73671 16.3036C0.223461 17.57 -1.94762 20.2839 1.91208 22.3947C5.77179 24.5054 14.1546 25.1085 20.7281 23.8421C27.3017 22.5756 29.4125 19.8014 25.5528 17.751C21.6931 15.7005 13.3103 14.9768 6.73671 16.3036ZM19.8235 23.3596C14.0943 24.4451 6.73671 23.9024 3.41978 22.0931C0.102846 20.2839 1.91208 17.8716 7.64133 16.786C13.3706 15.7005 20.7281 16.183 24.0451 18.0525C27.362 19.922 25.5528 22.2137 19.8235 23.3596Z" fill="#919191"/>
<path d="M9.87092 17.9326C6.19214 18.6563 4.98598 20.164 7.15706 21.3702C9.32815 22.5763 13.9719 22.8779 17.5903 22.1542C21.2088 21.4305 22.4753 19.9228 20.3042 18.7769C18.1331 17.6311 13.4894 17.2089 9.87092 17.9326ZM17.1079 21.9129C13.9719 22.516 9.87092 22.2145 8.00137 21.1892C6.13183 20.164 7.15706 18.8372 10.3534 18.2341C13.5497 17.6311 17.5903 17.9326 19.4599 18.8975C21.3294 19.8625 20.3042 21.2495 17.1079 21.9129Z" fill="#919191"/>
<path d="M11.0776 18.5956C8.605 19.1384 7.76069 20.1636 9.20808 20.9476C10.6555 21.7316 13.9121 21.9729 16.3847 21.4904C18.8573 21.0079 19.7016 19.9827 18.2543 19.1987C16.8069 18.4147 13.5502 18.1132 11.0776 18.5956ZM16.0229 21.3095C13.8518 21.7316 11.0776 21.5507 9.81115 20.827C8.54469 20.1033 9.26838 19.1987 11.4395 18.7766C13.6106 18.3544 16.3847 18.5956 17.6512 19.259C18.9176 19.9224 18.1939 20.8873 16.0229 21.3095Z" fill="#919191"/>
<path d="M12.1646 19.1986C10.6569 19.5001 10.1744 20.1032 11.0187 20.5857C11.863 21.0682 13.8532 21.1888 15.3006 20.8872C16.748 20.5857 17.2907 19.9826 16.4464 19.5001C15.0718 19.0184 13.5931 18.9143 12.1646 19.1986ZM15.1197 20.8269C13.8698 21.0815 12.5735 20.9769 11.3806 20.5254C10.5966 20.1032 11.0187 19.5605 12.3455 19.3192C13.5953 19.0647 14.8917 19.1692 16.0846 19.6208C16.8686 19.9826 16.4464 20.5254 15.1197 20.8269Z" fill="#919191"/>
<path d="M13.7078 20.4241C14.3073 20.4199 14.7921 20.2545 14.7907 20.0547C14.7893 19.8549 14.3022 19.6962 13.7027 19.7004C13.1032 19.7046 12.6183 19.87 12.6197 20.0698C12.6211 20.2697 13.1082 20.4283 13.7078 20.4241Z" fill="#919191"/>
<path fill-rule="evenodd" clip-rule="evenodd" d="M19.7633 6.35319C19.7783 5.26026 19.463 4.18825 18.8587 3.27749C18.3693 2.47617 17.6845 1.81216 16.8685 1.34764C15.6262 0.63907 14.1837 0.363294 12.7676 0.563633C11.9133 0.693733 11.098 1.00956 10.3791 1.48887C9.66009 1.96818 9.05497 2.59931 8.60633 3.3378C8.00324 4.22664 7.68749 5.27916 7.70171 6.35319C7.66877 7.43985 7.96291 8.51135 8.54602 9.4289L9.26972 10.6954C10.0537 11.9015 10.8377 13.1077 11.5614 14.3138C12.5875 16.0949 13.3205 18.0293 13.7325 20.0431C14.3959 16.7262 15.8433 14.3138 17.4716 11.9015C18.0024 11.1066 18.4857 10.2809 18.919 9.4289C19.1917 9.00112 19.3952 8.53301 19.5221 8.04181C19.6997 7.49716 19.7813 6.92579 19.7633 6.35319ZM13.7325 8.46397C13.1727 8.46397 12.6358 8.24158 12.24 7.84574C11.8441 7.44989 11.6217 6.91301 11.6217 6.35319C11.6217 5.79338 11.8441 5.2565 12.24 4.86065C12.6358 4.4648 13.1727 4.24242 13.7325 4.24242C14.2923 4.24242 14.8292 4.4648 15.225 4.86065C15.6209 5.2565 15.8433 5.79338 15.8433 6.35319C15.8433 6.91301 15.6209 7.44989 15.225 7.84574C14.8292 8.24158 14.2923 8.46397 13.7325 8.46397Z" fill="#919191"/>
</svg>
