<svg width="60" height="84" viewBox="0 0 60 84" fill="none" xmlns="http://www.w3.org/2000/svg">
<path d="M30.0006 83.6666L28.415 81.7286C27.358 80.3192 0.402344 48.7829 0.402344 29.9316C0.402344 13.5468 13.7921 0.333252 30.0006 0.333252C46.2092 0.333252 59.5989 13.723 59.5989 29.9316C59.5989 48.7829 32.6433 80.4953 31.5863 81.7286L30.0006 83.6666ZM30.0006 4.38543C15.9062 4.38543 4.63069 15.8371 4.63069 29.7554C4.63069 44.5545 24.1867 69.7483 30.0006 76.9717C35.8146 69.7483 55.3706 44.7307 55.3706 29.7554C55.3706 15.8371 44.0951 4.38543 30.0006 4.38543Z" fill="url(#paint0_linear_81_4133)"/>
<path d="M30.0021 41.2074C23.8358 41.2074 18.7266 36.0981 18.7266 29.9318C18.7266 23.7655 23.8358 18.6562 30.0021 18.6562C36.1684 18.6562 41.2776 23.7655 41.2776 29.9318C41.2776 36.0981 36.1684 41.2074 30.0021 41.2074ZM30.0021 22.8846C26.1261 22.8846 22.9549 26.0559 22.9549 29.9318C22.9549 33.8078 26.1261 36.979 30.0021 36.979C33.8781 36.979 37.0493 33.8078 37.0493 29.9318C37.0493 26.0559 33.8781 22.8846 30.0021 22.8846Z" fill="url(#paint1_linear_81_4133)"/>
<defs>
<linearGradient id="paint0_linear_81_4133" x1="30.0006" y1="-48.8735" x2="105.948" y2="9.71838" gradientUnits="userSpaceOnUse">
<stop stop-color="#8A2387"/>
<stop offset="0.422991" stop-color="#E94057"/>
<stop offset="0.784813" stop-color="#F27121"/>
</linearGradient>
<linearGradient id="paint1_linear_81_4133" x1="30.0021" y1="5.34024" x2="51.1777" y2="28.338" gradientUnits="userSpaceOnUse">
<stop stop-color="#8A2387"/>
<stop offset="0.422991" stop-color="#E94057"/>
<stop offset="0.784813" stop-color="#F27121"/>
</linearGradient>
</defs>
</svg>
