<svg width="9" height="13" viewBox="0 0 9 13" fill="none" xmlns="http://www.w3.org/2000/svg">
<path d="M4.5 0.5C3.30696 0.501474 2.16319 0.99863 1.31958 1.88241C0.475969 2.76619 0.00141225 3.96443 4.78754e-06 5.21429C-0.00142412 6.23567 0.317042 7.22934 0.906549 8.04286C0.906549 8.04286 1.02928 8.21214 1.04932 8.23657L4.5 12.5L7.95231 8.23443C7.97031 8.21171 8.09345 8.04286 8.09345 8.04286L8.09386 8.04157C8.68307 7.22841 9.00139 6.2352 9 5.21429C8.99859 3.96443 8.52403 2.76619 7.68042 1.88241C6.83681 0.99863 5.69304 0.501474 4.5 0.5ZM4.5 6.92857C4.17636 6.92857 3.85998 6.82803 3.59089 6.63966C3.32179 6.45129 3.11205 6.18356 2.9882 5.87031C2.86435 5.55707 2.83194 5.21238 2.89508 4.87985C2.95822 4.54731 3.11407 4.24185 3.34292 4.0021C3.57177 3.76236 3.86334 3.59909 4.18076 3.53294C4.49818 3.46679 4.8272 3.50074 5.12621 3.63049C5.42521 3.76024 5.68078 3.97997 5.86059 4.26188C6.04039 4.54379 6.13636 4.87523 6.13636 5.21429C6.13582 5.66877 5.96324 6.10447 5.65648 6.42584C5.34972 6.74721 4.93382 6.928 4.5 6.92857Z" fill="url(#paint0_linear_1476_138017)"/>
<defs>
<linearGradient id="paint0_linear_1476_138017" x1="4.5" y1="-6.58577" x2="15.5727" y2="2.43333" gradientUnits="userSpaceOnUse">
<stop stop-color="#8A2387"/>
<stop offset="0.422991" stop-color="#E94057"/>
<stop offset="0.784813" stop-color="#F27121"/>
</linearGradient>
</defs>
</svg>
