<svg width="40" height="40" viewBox="0 0 40 40" fill="none" xmlns="http://www.w3.org/2000/svg">
<path fill-rule="evenodd" clip-rule="evenodd" d="M10.0977 12.9708C10.0977 11.3301 11.4277 10 13.0684 10H26.932C28.5727 10 29.9027 11.3301 29.9027 12.9708V23.3833C29.9027 24.7423 28.801 25.844 27.442 25.844C27.1283 25.844 26.8988 26.14 26.9769 26.4438L27.0376 26.6796C27.6733 29.1518 24.7891 31.0048 22.8048 29.399L18.6843 26.0645C18.5081 25.9219 18.2882 25.844 18.0614 25.844H13.0684C11.4277 25.844 10.0977 24.514 10.0977 22.8733V12.9708ZM13.0684 11.9805C12.5215 11.9805 12.0782 12.4239 12.0782 12.9708V22.8733C12.0782 23.4202 12.5215 23.8635 13.0684 23.8635H18.0614C18.7417 23.8635 19.4014 24.097 19.9302 24.525L24.0507 27.8595C24.5517 28.2649 25.28 27.7971 25.1195 27.1729L25.0588 26.9371C24.6585 25.38 25.8343 23.8635 27.442 23.8635C27.7072 23.8635 27.9222 23.6485 27.9222 23.3833V12.9708C27.9222 12.4239 27.4789 11.9805 26.932 11.9805H13.0684Z" fill="#434343"/>
<path d="M14.0587 14.9513C14.0587 14.4044 14.502 13.961 15.0489 13.961H24.9514C25.4984 13.961 25.9417 14.4044 25.9417 14.9513C25.9417 15.4982 25.4983 15.9415 24.9514 15.9415H15.0489C14.502 15.9415 14.0587 15.4982 14.0587 14.9513Z" fill="#434343"/>
<path d="M14.0587 18.9123C14.0587 18.3654 14.502 17.922 15.0489 17.922H20.9904C21.5373 17.922 21.9807 18.3654 21.9807 18.9123C21.9807 19.4592 21.5373 19.9025 20.9904 19.9025H15.0489C14.502 19.9025 14.0587 19.4592 14.0587 18.9123Z" fill="#434343"/>
</svg>
