<svg width="28" height="28" viewBox="0 0 28 28" fill="none" xmlns="http://www.w3.org/2000/svg">
<path d="M16.3337 7.00028C16.3337 8.28894 15.289 9.33361 14.0003 9.33361C12.7117 9.33361 11.667 8.28894 11.667 7.00028C11.667 5.71162 12.7117 4.66695 14.0003 4.66695C15.289 4.66695 16.3337 5.71162 16.3337 7.00028Z" fill="#A4A4A4"/>
<path d="M16.3337 14.0003C16.3337 15.2889 15.289 16.3336 14.0003 16.3336C12.7117 16.3336 11.667 15.2889 11.667 14.0003C11.667 12.7116 12.7117 11.6669 14.0003 11.6669C15.289 11.6669 16.3337 12.7116 16.3337 14.0003Z" fill="#A4A4A4"/>
<path d="M16.3337 21.0003C16.3337 22.2889 15.289 23.3336 14.0003 23.3336C12.7117 23.3336 11.667 22.2889 11.667 21.0003C11.667 19.7116 12.7117 18.6669 14.0003 18.6669C15.289 18.6669 16.3337 19.7116 16.3337 21.0003Z" fill="#A4A4A4"/>
</svg>
