<svg width="18" height="18" viewBox="0 0 18 18" fill="none" xmlns="http://www.w3.org/2000/svg">
<rect width="14.8966" height="14.8966" rx="1.86207" fill="white"/>
<path d="M17.9921 10.2458C17.9921 12.221 17.9758 14.1963 17.9999 16.1712C18.01 17.0174 17.3301 17.84 16.5067 17.9785C16.4192 17.9931 16.3292 17.9991 16.2405 17.9991C12.2411 18 8.24137 18.0008 4.24195 17.9994C3.25922 17.9991 2.41764 17.0913 2.48673 16.1149C2.50817 15.812 2.73539 15.6033 3.05136 15.5964C3.42331 15.5881 3.66035 15.77 3.69579 16.0908C3.69788 16.1105 3.69787 16.1304 3.69907 16.1504C3.72885 16.5811 3.94445 16.7854 4.38072 16.7866C5.24404 16.7886 6.10765 16.7875 6.97097 16.7875C9.98795 16.7875 13.0049 16.7875 16.0219 16.7875C16.0517 16.7875 16.0815 16.7878 16.1113 16.7872C16.5469 16.7797 16.7742 16.5569 16.778 16.123C16.7822 15.6664 16.7789 15.2098 16.7789 14.7532C16.7789 11.3239 16.7789 7.89465 16.7786 4.46536C16.7786 4.40579 16.7807 4.34593 16.775 4.28696C16.7375 3.91288 16.5422 3.73298 16.1479 3.70588C15.868 3.68682 15.6842 3.5513 15.6124 3.31154C15.53 3.03575 15.608 2.75161 15.8141 2.59822C16.0112 2.45139 16.2405 2.47522 16.46 2.50619C17.3036 2.62563 18.0064 3.45272 17.9981 4.30572C17.9787 6.28544 17.9921 8.26576 17.9921 10.2458Z" fill="white"/>
</svg>
