<svg width="22" height="24" viewBox="0 0 22 24" fill="none" xmlns="http://www.w3.org/2000/svg">
<path fill-rule="evenodd" clip-rule="evenodd" d="M17.7502 13.56V8.4C17.7502 5.52 15.4552 3.12 12.3502 2.52V1.2C12.3502 0.6 11.6752 0 11.0002 0C10.3252 0 9.6502 0.6 9.6502 1.2V2.52C6.5452 3.12 4.2502 5.52 4.2502 8.4V13.68C2.7652 14.28 0.200195 15.96 0.200195 19.2C0.200195 19.8 0.875195 20.4 1.5502 20.4H6.9502C6.9502 22.3882 8.76344 24 11.0002 24C13.2369 24 15.0502 22.3882 15.0502 20.4H20.4502C21.1252 20.4 21.8002 19.8 21.8002 19.2C21.8002 15.96 19.2352 14.28 17.7502 13.56ZM3.1702 18H18.9652C18.2402 16.4963 16.7581 15.9059 16.1647 15.6695C16.0951 15.6417 16.0377 15.6189 15.9952 15.6C15.4552 15.36 15.0502 14.88 15.0502 14.4V8.4C15.0502 6.48 13.2952 4.8 11.0002 4.8C8.7052 4.8 6.9502 6.48 6.9502 8.4V14.4C6.9502 14.88 6.5452 15.36 6.14019 15.6C6.02686 15.6672 5.86 15.7326 5.66083 15.8106C4.91107 16.1045 3.70352 16.5778 3.1702 18ZM11.0002 21.6C10.2546 21.6 9.6502 21.0627 9.6502 20.4H12.3502C12.3502 21.0627 11.7458 21.6 11.0002 21.6Z" fill="#434343"/>
</svg>
