<svg width="24" height="25" viewBox="0 0 24 25" fill="none" xmlns="http://www.w3.org/2000/svg">
<g clip-path="url(#clip0_1063_60003)">
<path fill-rule="evenodd" clip-rule="evenodd" d="M18.7492 14.56V9.4C18.7492 6.52 16.4542 4.12 13.3492 3.52V2.2C13.3492 1.6 12.6742 1 11.9992 1C11.3242 1 10.6492 1.6 10.6492 2.2V3.52C7.54422 4.12 5.24922 6.52 5.24922 9.4V14.68C3.76422 15.28 1.19922 16.96 1.19922 20.2C1.19922 20.8 1.87422 21.4 2.54922 21.4H7.94922C7.94922 23.3882 9.76247 25 11.9992 25C14.236 25 16.0492 23.3882 16.0492 21.4H21.4492C22.1242 21.4 22.7992 20.8 22.7992 20.2C22.7992 16.96 20.2342 15.28 18.7492 14.56ZM4.16922 19H19.9642C19.2392 17.4963 17.7572 16.9059 17.1637 16.6695C17.0941 16.6417 17.0367 16.6189 16.9942 16.6C16.4542 16.36 16.0492 15.88 16.0492 15.4V9.4C16.0492 7.48 14.2942 5.8 11.9992 5.8C9.70422 5.8 7.94922 7.48 7.94922 9.4V15.4C7.94922 15.88 7.54422 16.36 7.13922 16.6C7.02588 16.6672 6.85902 16.7326 6.65985 16.8106C5.9101 17.1045 4.70255 17.5778 4.16922 19ZM11.9992 22.6C11.2536 22.6 10.6492 22.0627 10.6492 21.4H13.3492C13.3492 22.0627 12.7448 22.6 11.9992 22.6Z" fill="#919191"/>
</g>
<defs>
<clipPath id="clip0_1063_60003">
<rect width="24" height="24" fill="white" transform="translate(0 0.5)"/>
</clipPath>
</defs>
</svg>
