<svg width="24" height="25" viewBox="0 0 24 25" fill="none" xmlns="http://www.w3.org/2000/svg">
<path fill-rule="evenodd" clip-rule="evenodd" d="M21.5 20.5H2.5C1.3955 20.5 0.5 19.6045 0.5 18.5V6.5C0.5 5.3955 1.3955 4.5 2.5 4.5H21.5C22.6045 4.5 23.5 5.3955 23.5 6.5V18.5C23.5 19.6045 22.6045 20.5 21.5 20.5ZM1.5 11H22.5V9H1.5V11ZM22.5 6.5C22.5 5.948 22.052 5.5 21.5 5.5H2.5C1.948 5.5 1.5 5.948 1.5 6.5V8H22.5V6.5ZM22.5 12H1.5V18.5C1.5 19.052 1.948 19.5 2.5 19.5H21.5C22.052 19.5 22.5 19.052 22.5 18.5V12ZM13 15H11C10.7235 15 10.5 14.7765 10.5 14.5C10.5 14.224 10.7235 14 11 14H13C13.2765 14 13.5 14.224 13.5 14.5C13.5 14.7765 13.2765 15 13 15ZM8.5 15H4C3.7235 15 3.5 14.7765 3.5 14.5C3.5 14.224 3.7235 14 4 14H8.5C8.7765 14 9 14.224 9 14.5C9 14.7765 8.7765 15 8.5 15ZM4 16.5H7C7.2765 16.5 7.5 16.724 7.5 17C7.5 17.2765 7.2765 17.5 7 17.5H4C3.7235 17.5 3.5 17.2765 3.5 17C3.5 16.724 3.7235 16.5 4 16.5Z" fill="#919191"/>
</svg>
