<svg width="24" height="25" viewBox="0 0 24 25" fill="none" xmlns="http://www.w3.org/2000/svg">
<rect x="1.5" y="2" width="9" height="9" rx="4.5" fill="#F5F5F5"/>
<rect x="1.5" y="2" width="9" height="9" rx="4.5" stroke="#919191"/>
<path d="M8.12312 8.39639C8.12312 8.52114 8.07451 8.64038 7.98645 8.72935C7.80392 8.91189 7.50856 8.91189 7.32695 8.72935L5.86943 7.27184V8.40006C5.86943 8.65689 5.66121 8.86602 5.40347 8.86602C5.14572 8.86602 4.9375 8.65781 4.9375 8.40006V7.50665L6.51151 6.59766L7.98462 8.07076C8.07268 8.15699 8.12221 8.2744 8.12221 8.39639" fill="#919191"/>
<path d="M7.65533 4.13556C7.77824 4.13556 7.89656 4.18418 7.98462 4.27132C8.16715 4.45293 8.16715 4.74829 7.98462 4.92991L6.51426 6.40026L4.9375 5.48943V4.59878C4.9375 4.34195 5.14572 4.13281 5.40347 4.13281C5.66121 4.13281 5.86943 4.34103 5.86943 4.59878V5.727L7.32695 4.27132C7.37006 4.22821 7.42143 4.19335 7.47829 4.17042C7.53516 4.14749 7.5957 4.13556 7.65624 4.13465" fill="#919191"/>
<path d="M6.44356 6.53028C6.44998 6.50643 6.44815 6.48167 6.43806 6.45965C6.43164 6.44498 6.42247 6.43122 6.40962 6.42021C6.40504 6.41654 6.40045 6.41287 6.39495 6.41012L4.93651 5.56808L4.03669 5.04892C4.02109 5.03974 4.00275 5.03516 3.98349 5.03516C3.9257 5.03516 3.878 5.08285 3.87892 5.14064V7.86213C3.87892 7.88048 3.8835 7.89882 3.89268 7.91442C3.92203 7.96486 3.98624 7.98229 4.03669 7.95294L4.93651 7.43378L5.99778 6.82105L6.39495 6.59174C6.39495 6.59174 6.39862 6.58898 6.40137 6.58715C6.42155 6.57431 6.43622 6.55413 6.44356 6.53028ZM6.08767 6.478C6.09776 6.51377 6.08216 6.55229 6.05006 6.57156L4.91909 7.22464L4.22105 7.62823C4.20821 7.63557 4.19445 7.63924 4.1807 7.63924C4.13575 7.63924 4.09906 7.60255 4.09906 7.55761V5.44517C4.09906 5.43049 4.10273 5.41673 4.11007 5.40389C4.133 5.36537 4.18253 5.35161 4.22105 5.37454L4.91909 5.77722L6.05006 6.4303C6.06841 6.44039 6.08216 6.45782 6.08767 6.478Z" fill="#919191"/>
<path d="M5.77339 6.4851C5.77614 6.49611 5.77614 6.50803 5.77339 6.51904C5.7688 6.53463 5.75871 6.54747 5.74495 6.55481L4.89374 7.04646L4.36907 7.34915C4.3599 7.35466 4.34889 7.35741 4.3388 7.35741C4.30486 7.35741 4.27734 7.32989 4.27734 7.29595V5.70727C4.27734 5.69626 4.2801 5.68617 4.2856 5.67608C4.30303 5.64673 4.33972 5.63664 4.36907 5.65407L4.89282 5.95676L5.74403 6.44841C5.75779 6.45575 5.76788 6.46951 5.77247 6.48418" fill="#919191"/>
<rect x="13.5" y="2" width="9" height="9" rx="4.5" fill="#F5F5F5"/>
<rect x="13.5" y="2" width="9" height="9" rx="4.5" stroke="#919191"/>
<path d="M20.1231 8.39639C20.1231 8.52114 20.0745 8.64038 19.9865 8.72935C19.8039 8.91189 19.5086 8.91189 19.3269 8.72935L17.8694 7.27184V8.40006C17.8694 8.65689 17.6612 8.86602 17.4035 8.86602C17.1457 8.86602 16.9375 8.65781 16.9375 8.40006V7.50665L18.5115 6.59766L19.9846 8.07076C20.0727 8.15699 20.1222 8.2744 20.1222 8.39639" fill="#919191"/>
<path d="M19.6553 4.13556C19.7782 4.13556 19.8966 4.18418 19.9846 4.27132C20.1672 4.45293 20.1672 4.74829 19.9846 4.92991L18.5143 6.40026L16.9375 5.48943V4.59878C16.9375 4.34195 17.1457 4.13281 17.4035 4.13281C17.6612 4.13281 17.8694 4.34103 17.8694 4.59878V5.727L19.3269 4.27132C19.3701 4.22821 19.4214 4.19335 19.4783 4.17042C19.5352 4.14749 19.5957 4.13556 19.6562 4.13465" fill="#919191"/>
<path d="M18.4436 6.53028C18.45 6.50643 18.4481 6.48167 18.4381 6.45965C18.4316 6.44498 18.4225 6.43122 18.4096 6.42021C18.405 6.41654 18.4005 6.41287 18.3949 6.41012L16.9365 5.56808L16.0367 5.04892C16.0211 5.03974 16.0027 5.03516 15.9835 5.03516C15.9257 5.03516 15.878 5.08285 15.8789 5.14064V7.86213C15.8789 7.88048 15.8835 7.89882 15.8927 7.91442C15.922 7.96486 15.9862 7.98229 16.0367 7.95294L16.9365 7.43378L17.9978 6.82105L18.3949 6.59174C18.3949 6.59174 18.3986 6.58898 18.4014 6.58715C18.4215 6.57431 18.4362 6.55413 18.4436 6.53028ZM18.0877 6.478C18.0978 6.51377 18.0822 6.55229 18.0501 6.57156L16.9191 7.22464L16.2211 7.62823C16.2082 7.63557 16.1945 7.63924 16.1807 7.63924C16.1357 7.63924 16.0991 7.60255 16.0991 7.55761V5.44517C16.0991 5.43049 16.1027 5.41673 16.1101 5.40389C16.133 5.36537 16.1825 5.35161 16.2211 5.37454L16.9191 5.77722L18.0501 6.4303C18.0684 6.44039 18.0822 6.45782 18.0877 6.478Z" fill="#919191"/>
<path d="M17.7734 6.4851C17.7761 6.49611 17.7761 6.50803 17.7734 6.51904C17.7688 6.53463 17.7587 6.54747 17.745 6.55481L16.8937 7.04646L16.3691 7.34915C16.3599 7.35466 16.3489 7.35741 16.3388 7.35741C16.3049 7.35741 16.2773 7.32989 16.2773 7.29595V5.70727C16.2773 5.69626 16.2801 5.68617 16.2856 5.67608C16.303 5.64673 16.3397 5.63664 16.3691 5.65407L16.8928 5.95676L17.744 6.44841C17.7578 6.45575 17.7679 6.46951 17.7725 6.48418" fill="#919191"/>
<rect x="7.5" y="14" width="9" height="9" rx="4.5" fill="#F5F5F5"/>
<rect x="7.5" y="14" width="9" height="9" rx="4.5" stroke="#919191"/>
<path d="M14.1231 20.3964C14.1231 20.5211 14.0745 20.6404 13.9865 20.7294C13.8039 20.9119 13.5086 20.9119 13.3269 20.7294L11.8694 19.2718V20.4001C11.8694 20.6569 11.6612 20.866 11.4035 20.866C11.1457 20.866 10.9375 20.6578 10.9375 20.4001V19.5067L12.5115 18.5977L13.9846 20.0708C14.0727 20.157 14.1222 20.2744 14.1222 20.3964" fill="#919191"/>
<path d="M13.6553 16.1356C13.7782 16.1356 13.8966 16.1842 13.9846 16.2713C14.1672 16.4529 14.1672 16.7483 13.9846 16.9299L12.5143 18.4003L10.9375 17.4894V16.5988C10.9375 16.3419 11.1457 16.1328 11.4035 16.1328C11.6612 16.1328 11.8694 16.341 11.8694 16.5988V17.727L13.3269 16.2713C13.3701 16.2282 13.4214 16.1934 13.4783 16.1704C13.5352 16.1475 13.5957 16.1356 13.6562 16.1346" fill="#919191"/>
<path d="M12.4436 18.5303C12.45 18.5064 12.4481 18.4817 12.4381 18.4597C12.4316 18.445 12.4225 18.4312 12.4096 18.4202C12.405 18.4165 12.4005 18.4129 12.3949 18.4101L10.9365 17.5681L10.0367 17.0489C10.0211 17.0397 10.0027 17.0352 9.98349 17.0352C9.9257 17.0352 9.878 17.0829 9.87892 17.1406V19.8621C9.87892 19.8805 9.8835 19.8988 9.89268 19.9144C9.92203 19.9649 9.98624 19.9823 10.0367 19.9529L10.9365 19.4338L11.9978 18.821L12.3949 18.5917C12.3949 18.5917 12.3986 18.589 12.4014 18.5871C12.4215 18.5743 12.4362 18.5541 12.4436 18.5303ZM12.0877 18.478C12.0978 18.5138 12.0822 18.5523 12.0501 18.5716L10.9191 19.2246L10.2211 19.6282C10.2082 19.6356 10.1945 19.6392 10.1807 19.6392C10.1357 19.6392 10.0991 19.6026 10.0991 19.5576V17.4452C10.0991 17.4305 10.1027 17.4167 10.1101 17.4039C10.133 17.3654 10.1825 17.3516 10.2211 17.3745L10.9191 17.7772L12.0501 18.4303C12.0684 18.4404 12.0822 18.4578 12.0877 18.478Z" fill="#919191"/>
<path d="M11.7734 18.4851C11.7761 18.4961 11.7761 18.508 11.7734 18.519C11.7688 18.5346 11.7587 18.5475 11.745 18.5548L10.8937 19.0465L10.3691 19.3492C10.3599 19.3547 10.3489 19.3574 10.3388 19.3574C10.3049 19.3574 10.2773 19.3299 10.2773 19.296V17.7073C10.2773 17.6963 10.2801 17.6862 10.2856 17.6761C10.303 17.6467 10.3397 17.6366 10.3691 17.6541L10.8928 17.9568L11.744 18.4484C11.7578 18.4557 11.7679 18.4695 11.7725 18.4842" fill="#919191"/>
</svg>
