<svg width="24" height="25" viewBox="0 0 24 25" fill="none" xmlns="http://www.w3.org/2000/svg">
<path d="M12 0.5L3.04446e-06 4.57143V12.125C-0.00216492 14.852 1.15358 17.5112 3.30538 19.7303C5.45719 21.9493 8.4973 23.6171 12 24.5C15.5027 23.6171 18.5428 21.9493 20.6946 19.7303C22.8464 17.5112 24.0022 14.852 24 12.125V4.57143L12 0.5ZM21.6727 12.125C21.662 14.3989 20.7377 16.6196 19.0164 18.5072C17.295 20.3948 14.8537 21.8649 12 22.7321C9.14631 21.8649 6.70496 20.3948 4.98364 18.5072C3.26231 16.6196 2.33803 14.3989 2.32728 12.125V5.64286L12 2.32143L21.6727 5.64286V12.125Z" fill="#919191"/>
<path d="M12 9C11.4512 9.04012 10.9427 9.2276 10.5737 9.52584C10.2047 9.82408 10.0018 10.2117 10.0046 10.6129C9.97755 10.8857 10.0704 11.1577 10.2696 11.3896C10.4689 11.6215 10.7643 11.8014 11.1132 11.9032V14H12.8868V11.9032C13.2357 11.8014 13.5311 11.6215 13.7304 11.3896C13.9296 11.1577 14.0224 10.8857 13.9954 10.6129C13.9982 10.2117 13.7953 9.82408 13.4263 9.52584C13.0573 9.2276 12.5488 9.04012 12 9Z" fill="#919191"/>
</svg>
