<svg width="21" height="25" viewBox="0 0 21 25" fill="none" xmlns="http://www.w3.org/2000/svg">
<path d="M10.5 0.5L2.6639e-06 4.57143V12.125C-0.0018943 14.852 1.00938 17.5112 2.89221 19.7303C4.77504 21.9493 7.43514 23.6171 10.5 24.5C13.5649 23.6171 16.225 21.9493 18.1078 19.7303C19.9906 17.5112 21.0019 14.852 21 12.125V4.57143L10.5 0.5ZM18.9636 12.125C18.9542 14.3989 18.1455 16.6196 16.6393 18.5072C15.1332 20.3948 12.997 21.8649 10.5 22.7321C8.00302 21.8649 5.86684 20.3948 4.36068 18.5072C2.85452 16.6196 2.04578 14.3989 2.03637 12.125V5.64286L10.5 2.32143L18.9636 5.64286V12.125Z" fill="#919191"/>
<path d="M10.4957 8.61719C9.54721 8.69743 8.66831 9.07239 8.03062 9.66887C7.39293 10.2654 7.04223 11.0405 7.04701 11.843C7.00027 12.3886 7.16065 12.9325 7.50502 13.3964C7.84939 13.8602 8.35993 14.2199 8.96294 14.4236V18.6172H12.0284V14.4236C12.6314 14.2199 13.142 13.8602 13.4863 13.3964C13.8307 12.9325 13.9911 12.3886 13.9444 11.843C13.9491 11.0405 13.5984 10.2654 12.9607 9.66887C12.3231 9.07239 11.4442 8.69743 10.4957 8.61719Z" fill="#919191"/>
</svg>
