<svg width="26" height="27" viewBox="0 0 26 27" fill="none" xmlns="http://www.w3.org/2000/svg">
<path d="M9.4 1.5H2.2C1.53726 1.5 1 2.03726 1 2.7V9.9C1 10.5627 1.53726 11.1 2.2 11.1H9.4C10.0627 11.1 10.6 10.5627 10.6 9.9V2.7C10.6 2.03726 10.0627 1.5 9.4 1.5Z" stroke="#919191" stroke-width="1.2" stroke-linecap="round" stroke-linejoin="round"/>
<path d="M9.4 15.9004H2.2C1.53726 15.9004 1 16.4376 1 17.1004V24.3004C1 24.9631 1.53726 25.5004 2.2 25.5004H9.4C10.0627 25.5004 10.6 24.9631 10.6 24.3004V17.1004C10.6 16.4376 10.0627 15.9004 9.4 15.9004Z" stroke="#919191" stroke-width="1.2" stroke-linecap="round" stroke-linejoin="round"/>
<path d="M23.7984 1.5H16.5984C15.9357 1.5 15.3984 2.03726 15.3984 2.7V9.9C15.3984 10.5627 15.9357 11.1 16.5984 11.1H23.7984C24.4612 11.1 24.9984 10.5627 24.9984 9.9V2.7C24.9984 2.03726 24.4612 1.5 23.7984 1.5Z" stroke="#919191" stroke-width="1.2" stroke-linecap="round" stroke-linejoin="round"/>
<path d="M15.3984 15.9004V20.7004" stroke="#919191" stroke-width="1.2" stroke-linecap="round" stroke-linejoin="round"/>
<path d="M15.3984 25.5004H20.1984V15.9004" stroke="#919191" stroke-width="1.2" stroke-linecap="round" stroke-linejoin="round"/>
<path d="M20.1992 18.2998H24.9992" stroke="#919191" stroke-width="1.2" stroke-linecap="round" stroke-linejoin="round"/>
<path d="M25 23.0996V25.4996" stroke="#919191" stroke-width="1.2" stroke-linecap="round" stroke-linejoin="round"/>
</svg>
