<svg width="24" height="21" viewBox="0 0 24 21" fill="none" xmlns="http://www.w3.org/2000/svg">
<g clip-path="url(#clip0_2376_18101)">
<path d="M12.159 0C15.2483 0.100171 18.0736 1.54695 20.1556 4.41036C20.5352 4.93284 20.5056 5.49858 20.1072 5.88503C19.6291 6.34832 18.867 6.27376 18.472 5.71144C17.4731 4.29027 16.1829 3.23677 14.542 2.65111C12.188 1.81047 9.90285 1.99545 7.70763 3.1992C6.68601 3.75925 5.84594 4.52874 5.14645 5.45817C4.8596 5.83893 4.47599 6.01366 3.99904 5.90268C3.57559 5.80421 3.258 5.42459 3.19654 4.96813C3.15954 4.68981 3.25288 4.44508 3.41566 4.22368C4.38151 2.90951 5.58811 1.8782 7.03945 1.13375C8.50843 0.379624 10.0702 0.0108139 12.159 0Z" fill="#A1A1A1"/>
<path d="M11.7072 20.5253C8.75786 20.5048 6.27408 19.399 4.22229 17.2954C4.03731 17.1059 3.86258 16.9032 3.70834 16.6887C3.34636 16.1872 3.43401 15.5743 3.90641 15.189C4.32701 14.8458 4.94568 14.8873 5.33839 15.3318C6.00885 16.0905 6.73623 16.778 7.62582 17.2715C10.0606 18.6232 12.5626 18.7484 15.1124 17.6283C16.5194 17.0102 17.6287 16.0256 18.4978 14.7621C18.9263 14.1389 19.7214 14.0723 20.2041 14.6096C20.5108 14.9511 20.5456 15.4957 20.2667 15.9323C19.8723 16.5492 19.4118 17.1184 18.8814 17.6221C17.6668 18.7763 16.2661 19.6209 14.6543 20.107C14.2627 20.2248 13.8671 20.3221 13.4653 20.3876C12.8848 20.4832 12.3003 20.5475 11.7072 20.5253Z" fill="#A1A1A1"/>
<path d="M5.17118 14.6414C4.56958 14.7866 4.14215 14.5532 3.84619 14.033C3.83709 14.0171 3.81887 14.0057 3.8092 13.9897C3.48592 13.4354 3.02092 13.2089 2.36412 13.14C1.54056 13.0541 0.87465 12.5805 0.486489 11.8156C-0.161775 10.539 -0.15836 9.24757 0.473967 7.9647C0.785293 7.33294 1.31404 6.94364 1.97482 6.74216C2.71813 6.51564 3.4734 6.51905 4.21785 6.73874C5.30436 7.05918 6.02548 8.05804 6.13817 9.40465C6.19394 10.0706 6.1302 10.7302 5.91961 11.3705C5.72212 11.9704 5.36697 12.4485 4.82457 12.774C4.65268 12.877 4.64984 12.9471 4.78245 13.0899C5.17516 13.5145 5.55365 13.9516 5.93612 14.3853C5.98393 14.4394 6.06589 14.4906 6.02832 14.5765C5.99076 14.6619 5.89799 14.6391 5.82513 14.6403C5.60772 14.6431 5.38973 14.6414 5.17118 14.6414ZM4.6504 9.90152C4.64471 9.40351 4.60999 8.88558 4.32542 8.42173C4.00669 7.90152 3.50413 7.78086 2.9475 7.81672C2.4438 7.84916 2.03458 8.06601 1.80806 8.54125C1.38803 9.42116 1.38404 10.313 1.76082 11.2077C1.99076 11.7535 2.44153 11.9858 3.00043 11.9971C3.56617 12.0085 4.06759 11.8497 4.36412 11.3022C4.59747 10.8708 4.64471 10.4047 4.6504 9.90152Z" fill="#A1A1A1"/>
<path d="M14.7064 13.1155C14.5641 13.1161 14.4207 13.1059 14.2795 13.1184C14.0342 13.1406 13.831 13.0768 13.6802 12.8737C13.5385 12.6836 13.3973 12.6762 13.1759 12.7928C12.1981 13.3085 11.1987 13.3808 10.1737 12.8981C8.96593 12.329 8.96764 10.576 9.95569 9.84576C10.3478 9.55607 10.341 9.54696 10.0769 9.11839C9.43093 8.07058 9.86918 6.9926 11.065 6.69608C11.5544 6.57428 12.0422 6.58282 12.522 6.7473C13.5277 7.09334 13.8555 8.12806 13.2374 8.99887C13.0314 9.28913 12.777 9.52875 12.4713 9.70917C12.3399 9.78714 12.316 9.85146 12.4349 9.96472C12.7235 10.239 13.0046 10.5208 13.2869 10.8019C13.3985 10.9129 13.4753 10.8964 13.5448 10.7558C13.6745 10.4918 13.8134 10.2311 13.8771 9.94138C13.9215 9.74047 14.0348 9.66136 14.2408 9.67047C14.5345 9.68299 14.8288 9.67786 15.1224 9.67388C15.3308 9.67103 15.3882 9.75356 15.3285 9.95618C15.1492 10.5623 14.8749 11.1229 14.5277 11.6466C14.4167 11.8139 14.4173 11.9203 14.5664 12.0569C14.8601 12.3256 15.1401 12.6096 15.4241 12.8885C15.4696 12.9328 15.5493 12.9704 15.5271 13.0444C15.4987 13.1389 15.4025 13.1121 15.3313 13.1138C15.1242 13.1178 14.9153 13.1155 14.7064 13.1155ZM11.6996 12.066C11.9722 12.0353 12.2152 12.0085 12.4469 11.9169C12.5766 11.8657 12.6153 11.8048 12.5043 11.6944C12.1361 11.3284 11.7696 10.9602 11.4019 10.5936C11.3382 10.5299 11.2738 10.4923 11.1771 10.547C10.9557 10.6727 10.707 11.1167 10.7303 11.3637C10.7576 11.654 11.0035 11.9175 11.3364 12.0023C11.4634 12.0342 11.5954 12.0484 11.6996 12.066ZM11.6774 7.7621C11.3518 7.75982 11.1196 7.95276 11.1122 8.23108C11.1042 8.52419 11.3512 8.97667 11.5226 8.9835C11.7701 8.99317 12.1959 8.502 12.2044 8.19693C12.2112 7.95333 11.9813 7.76381 11.6774 7.7621Z" fill="#A1A1A1"/>
<path d="M20.913 6.67274C21.7451 6.67103 21.7548 6.66705 22.036 7.44508C22.6728 9.20945 23.3006 10.9772 23.929 12.7445C24.0542 13.0973 24.0399 13.1133 23.6689 13.1155C23.3752 13.1172 23.0809 13.1087 22.7878 13.1172C22.6051 13.1224 22.5123 13.0444 22.4628 12.8725C22.3627 12.527 22.242 12.1873 22.143 11.8412C22.0986 11.6864 22.0138 11.6272 21.8578 11.6283C21.2511 11.6323 20.645 11.6335 20.0382 11.6278C19.8629 11.6261 19.789 11.7097 19.744 11.8685C19.6489 12.206 19.5311 12.5367 19.4349 12.8737C19.3854 13.0478 19.2898 13.1218 19.1088 13.1172C18.806 13.1093 18.5021 13.1178 18.1993 13.1155C17.8442 13.1133 17.8265 13.0922 17.9403 12.7632C18.2961 11.7336 18.6546 10.7046 19.0149 9.67615C19.3342 8.76437 19.662 7.85487 19.9756 6.94138C20.0411 6.75014 20.1418 6.66022 20.345 6.67046C20.534 6.68014 20.7235 6.67274 20.913 6.67274ZM20.9819 7.9983C20.9625 7.99943 20.9438 8.00057 20.9244 8.00171C20.703 8.74104 20.4822 9.48037 20.2585 10.2191C20.2078 10.3859 20.2949 10.4172 20.4321 10.4161C20.7821 10.4132 21.1327 10.4081 21.4827 10.4155C21.6694 10.4195 21.7178 10.3534 21.6603 10.1776C21.5397 9.80877 21.4281 9.43711 21.3131 9.06659C21.2033 8.71087 21.0923 8.35458 20.9819 7.9983Z" fill="#A1A1A1"/>
<path d="M12.158 0C15.2474 0.100171 18.0726 1.54695 20.1546 4.41036C20.5342 4.93284 20.5046 5.49858 20.1062 5.88503C19.6281 6.34832 18.866 6.27376 18.471 5.71144C17.4722 4.29027 16.1819 3.23677 14.541 2.65111C12.187 1.81047 9.90188 1.99545 7.70666 3.1992C6.68503 3.75925 5.84496 4.52874 5.14547 5.45817C4.85862 5.83893 4.47501 6.01366 3.99806 5.90268C3.57461 5.80421 3.25703 5.42459 3.19556 4.96813C3.15856 4.68981 3.2519 4.44508 3.41468 4.22368C4.38053 2.90951 5.58714 1.8782 7.03847 1.13375C8.50745 0.379624 10.0692 0.0108139 12.158 0Z" fill="#A1A1A1"/>
<path d="M11.7062 20.5253C8.75688 20.5048 6.2731 19.399 4.22131 17.2954C4.03634 17.1059 3.86161 16.9032 3.70737 16.6887C3.34539 16.1872 3.43303 15.5743 3.90543 15.189C4.32603 14.8458 4.9447 14.8873 5.33742 15.3318C6.00788 16.0905 6.73525 16.778 7.62484 17.2715C10.0597 18.6232 12.5617 18.7484 15.1115 17.6283C16.5184 17.0102 17.6277 16.0256 18.4968 14.7621C18.9254 14.1389 19.7205 14.0723 20.2031 14.6096C20.5099 14.9511 20.5446 15.4957 20.2657 15.9323C19.8713 16.5492 19.4108 17.1184 18.8804 17.6221C17.6658 18.7763 16.2651 19.6209 14.6533 20.107C14.2617 20.2248 13.8662 20.3221 13.4643 20.3876C12.8838 20.4832 12.2993 20.5475 11.7062 20.5253Z" fill="#A1A1A1"/>
<path d="M5.17118 14.6414C4.56958 14.7866 4.14215 14.5532 3.84619 14.033C3.83709 14.0171 3.81887 14.0057 3.8092 13.9897C3.48592 13.4354 3.02092 13.2089 2.36412 13.14C1.54056 13.0541 0.87465 12.5805 0.486489 11.8156C-0.161775 10.539 -0.15836 9.24757 0.473967 7.9647C0.785293 7.33294 1.31404 6.94364 1.97482 6.74216C2.71813 6.51564 3.4734 6.51905 4.21785 6.73874C5.30436 7.05918 6.02548 8.05804 6.13817 9.40465C6.19394 10.0706 6.1302 10.7302 5.91961 11.3705C5.72212 11.9704 5.36697 12.4485 4.82457 12.774C4.65268 12.877 4.64984 12.9471 4.78245 13.0899C5.17516 13.5145 5.55365 13.9516 5.93612 14.3853C5.98393 14.4394 6.06589 14.4906 6.02832 14.5765C5.99076 14.6619 5.89799 14.6391 5.82513 14.6403C5.60772 14.6431 5.38973 14.6414 5.17118 14.6414ZM4.6504 9.90152C4.64471 9.40351 4.60999 8.88558 4.32542 8.42173C4.00669 7.90152 3.50413 7.78086 2.9475 7.81672C2.4438 7.84916 2.03458 8.06601 1.80806 8.54125C1.38803 9.42116 1.38404 10.313 1.76082 11.2077C1.99076 11.7535 2.44153 11.9858 3.00043 11.9971C3.56617 12.0085 4.06759 11.8497 4.36412 11.3022C4.59747 10.8708 4.64471 10.4047 4.6504 9.90152Z" fill="#A1A1A1"/>
<path d="M14.7064 13.1155C14.5641 13.1161 14.4207 13.1059 14.2795 13.1184C14.0342 13.1406 13.831 13.0768 13.6802 12.8737C13.5385 12.6836 13.3973 12.6762 13.1759 12.7928C12.1981 13.3085 11.1987 13.3808 10.1737 12.8981C8.96593 12.329 8.96764 10.576 9.95569 9.84576C10.3478 9.55607 10.341 9.54696 10.0769 9.11839C9.43093 8.07058 9.86918 6.9926 11.065 6.69608C11.5544 6.57428 12.0422 6.58282 12.522 6.7473C13.5277 7.09334 13.8555 8.12806 13.2374 8.99887C13.0314 9.28913 12.777 9.52875 12.4713 9.70917C12.3399 9.78714 12.316 9.85146 12.4349 9.96472C12.7235 10.239 13.0046 10.5208 13.2869 10.8019C13.3985 10.9129 13.4753 10.8964 13.5448 10.7558C13.6745 10.4918 13.8134 10.2311 13.8771 9.94138C13.9215 9.74047 14.0348 9.66136 14.2408 9.67047C14.5345 9.68299 14.8288 9.67786 15.1224 9.67388C15.3308 9.67103 15.3882 9.75356 15.3285 9.95618C15.1492 10.5623 14.8749 11.1229 14.5277 11.6466C14.4167 11.8139 14.4173 11.9203 14.5664 12.0569C14.8601 12.3256 15.1401 12.6096 15.4241 12.8885C15.4696 12.9328 15.5493 12.9704 15.5271 13.0444C15.4987 13.1389 15.4025 13.1121 15.3313 13.1138C15.1242 13.1178 14.9153 13.1155 14.7064 13.1155ZM11.6996 12.066C11.9722 12.0353 12.2152 12.0085 12.4469 11.9169C12.5766 11.8657 12.6153 11.8048 12.5043 11.6944C12.1361 11.3284 11.7696 10.9602 11.4019 10.5936C11.3382 10.5299 11.2738 10.4923 11.1771 10.547C10.9557 10.6727 10.707 11.1167 10.7303 11.3637C10.7576 11.654 11.0035 11.9175 11.3364 12.0023C11.4634 12.0342 11.5954 12.0484 11.6996 12.066ZM11.6774 7.7621C11.3518 7.75982 11.1196 7.95276 11.1122 8.23108C11.1042 8.52419 11.3512 8.97667 11.5226 8.9835C11.7701 8.99317 12.1959 8.502 12.2044 8.19693C12.2112 7.95333 11.9813 7.76381 11.6774 7.7621Z" fill="#A1A1A1"/>
<path d="M20.913 6.67274C21.7451 6.67103 21.7548 6.66705 22.036 7.44508C22.6728 9.20945 23.3006 10.9772 23.929 12.7445C24.0542 13.0973 24.0399 13.1133 23.6689 13.1155C23.3752 13.1172 23.0809 13.1087 22.7878 13.1172C22.6051 13.1224 22.5123 13.0444 22.4628 12.8725C22.3627 12.527 22.242 12.1873 22.143 11.8412C22.0986 11.6864 22.0138 11.6272 21.8578 11.6283C21.2511 11.6323 20.645 11.6335 20.0382 11.6278C19.8629 11.6261 19.789 11.7097 19.744 11.8685C19.6489 12.206 19.5311 12.5367 19.4349 12.8737C19.3854 13.0478 19.2898 13.1218 19.1088 13.1172C18.806 13.1093 18.5021 13.1178 18.1993 13.1155C17.8442 13.1133 17.8265 13.0922 17.9403 12.7632C18.2961 11.7336 18.6546 10.7046 19.0149 9.67615C19.3342 8.76437 19.662 7.85487 19.9756 6.94138C20.0411 6.75014 20.1418 6.66022 20.345 6.67046C20.534 6.68014 20.7235 6.67274 20.913 6.67274ZM20.9819 7.9983C20.9625 7.99943 20.9438 8.00057 20.9244 8.00171C20.703 8.74104 20.4822 9.48037 20.2585 10.2191C20.2078 10.3859 20.2949 10.4172 20.4321 10.4161C20.7821 10.4132 21.1327 10.4081 21.4827 10.4155C21.6694 10.4195 21.7178 10.3534 21.6603 10.1776C21.5397 9.80877 21.4281 9.43711 21.3131 9.06659C21.2033 8.71087 21.0923 8.35458 20.9819 7.9983Z" fill="#A1A1A1"/>
</g>
<defs>
<clipPath id="clip0_2376_18101">
<rect width="24" height="20.5299" fill="white"/>
</clipPath>
</defs>
</svg>
