<svg width="21" height="20" viewBox="0 0 21 20" fill="none" xmlns="http://www.w3.org/2000/svg">
<path d="M20.4976 4.0986C20.1873 3.29655 19.7398 2.56975 19.1803 1.95886C18.6203 1.34616 17.9602 0.85925 17.2356 0.524616C16.4843 0.176245 15.6785 -0.002072 14.865 1.81642e-05C13.7236 1.81642e-05 12.6101 0.348889 11.6424 1.00787C11.4109 1.1655 11.1909 1.33865 10.9826 1.5273C10.7742 1.33865 10.5543 1.1655 10.3228 1.00787C9.35509 0.348889 8.24154 1.81642e-05 7.1002 1.81642e-05C6.27835 1.81642e-05 5.48196 0.175746 4.72956 0.524616C4.00262 0.860566 3.34746 1.34382 2.78489 1.95886C2.22464 2.56906 1.77709 3.29604 1.46761 4.0986C1.14582 4.93331 0.981445 5.8197 0.981445 6.73193C0.981445 7.59248 1.13887 8.4892 1.45141 9.40144C1.71301 10.1638 2.08805 10.9546 2.56728 11.7531C3.32662 13.0168 4.37072 14.3347 5.66717 15.6708C7.81556 17.8855 9.94312 19.4153 10.0334 19.4773L10.5821 19.8701C10.8252 20.0433 11.1377 20.0433 11.3808 19.8701L11.9295 19.4773C12.0197 19.4127 14.145 17.8855 16.2957 15.6708C17.5921 14.3347 18.6362 13.0168 19.3956 11.7531C19.8748 10.9546 20.2522 10.1638 20.5115 9.40144C20.824 8.4892 20.9814 7.59248 20.9814 6.73193C20.9837 5.8197 20.8194 4.93331 20.4976 4.0986Z" fill="#FF0000"/>
</svg>
