<svg width="26" height="25" viewBox="0 0 26 25" fill="none" xmlns="http://www.w3.org/2000/svg">
<path fill-rule="evenodd" clip-rule="evenodd" d="M11.9572 19.6856C12.8892 18.3864 14.5397 17.4093 17.2919 17.4093C20.0441 17.4093 21.6947 18.3864 22.6267 19.6856C23.5274 20.9412 23.6708 22.3804 23.6737 23.1767C23.6766 23.9775 23.0052 24.5002 22.3169 24.5002H12.2669C11.5786 24.5002 10.9073 23.9775 10.9102 23.1767C10.913 22.3804 11.0565 20.9412 11.9572 19.6856ZM12.3296 23.082H22.2543C22.2396 22.4069 22.0944 21.3766 21.4743 20.5122C20.854 19.6475 19.6709 18.8274 17.2919 18.8274C14.913 18.8274 13.7298 19.6475 13.1096 20.5122C12.4895 21.3766 12.3442 22.4069 12.3296 23.082Z" fill="#919191"/>
<path fill-rule="evenodd" clip-rule="evenodd" d="M17.292 14.5729C18.0752 14.5729 18.7102 13.938 18.7102 13.1547C18.7102 12.3715 18.0752 11.7365 17.292 11.7365C16.5088 11.7365 15.8738 12.3715 15.8738 13.1547C15.8738 13.938 16.5088 14.5729 17.292 14.5729ZM17.292 15.9911C18.8585 15.9911 20.1284 14.7212 20.1284 13.1547C20.1284 11.5882 18.8585 10.3184 17.292 10.3184C15.7255 10.3184 14.4556 11.5882 14.4556 13.1547C14.4556 14.7212 15.7255 15.9911 17.292 15.9911Z" fill="#919191"/>
<path fill-rule="evenodd" clip-rule="evenodd" d="M1.04706 10.958C1.97903 9.65887 3.62958 8.68173 6.38178 8.68173C9.13399 8.68173 10.7845 9.65887 11.7165 10.958C12.6172 12.2137 12.7607 13.6528 12.7636 14.4492C12.7664 15.25 12.0951 15.7726 11.4068 15.7726H1.35678C0.668476 15.7726 -0.00287113 15.25 9.23532e-06 14.4492C0.00287371 13.6528 0.146336 12.2137 1.04706 10.958ZM1.41945 14.3545H11.3441C11.3295 13.6794 11.1842 12.6491 10.5642 11.7847C9.94388 10.92 8.76072 10.0999 6.38178 10.0999C4.00285 10.0999 2.81969 10.92 2.19941 11.7847C1.57932 12.6491 1.43409 13.6794 1.41945 14.3545Z" fill="#919191"/>
<path fill-rule="evenodd" clip-rule="evenodd" d="M6.38185 5.84537C7.16509 5.84537 7.80003 5.21042 7.80003 4.42718C7.80003 3.64394 7.16509 3.009 6.38185 3.009C5.59861 3.009 4.96367 3.64394 4.96367 4.42718C4.96367 5.21042 5.59861 5.84537 6.38185 5.84537ZM6.38185 7.26355C7.94833 7.26355 9.21822 5.99366 9.21822 4.42718C9.21822 2.8607 7.94833 1.59082 6.38185 1.59082C4.81537 1.59082 3.54549 2.8607 3.54549 4.42718C3.54549 5.99366 4.81537 7.26355 6.38185 7.26355Z" fill="#919191"/>
<path d="M9.9273 23.9505C9.86696 23.9609 9.80678 23.9725 9.74625 23.9817C9.49575 24.0199 9.24184 24.0307 8.989 24.0139C8.72582 23.9986 8.46626 23.9452 8.21844 23.8553C7.82739 23.715 7.48879 23.4582 7.24832 23.1194C7.11072 22.9249 7.00308 22.7108 6.92901 22.4843C6.90206 22.4035 6.87979 22.3212 6.85535 22.2396C6.85362 22.2338 6.85154 22.2281 6.84871 22.2196C6.83925 22.222 6.83052 22.2241 6.82179 22.2263C6.6608 22.2663 6.49972 22.3059 6.33889 22.3466C6.32015 22.3526 6.30008 22.3532 6.28102 22.3483C6.26196 22.3433 6.2447 22.3331 6.23127 22.3187C6.21854 22.3067 6.21026 22.2907 6.2078 22.2734C6.20534 22.2561 6.20884 22.2385 6.21773 22.2234C6.34981 21.9695 6.48192 21.7155 6.61406 21.4615C6.73369 21.2313 6.85498 21.002 6.97147 20.7702C6.97933 20.7545 6.99051 20.7407 7.00423 20.7297C7.01796 20.7187 7.0339 20.7109 7.05096 20.7067C7.06802 20.7024 7.0858 20.702 7.10305 20.7053C7.1203 20.7087 7.13663 20.7157 7.15089 20.726C7.55961 21.0122 7.97066 21.295 8.38096 21.579C8.41757 21.6043 8.45377 21.6303 8.4908 21.655C8.50579 21.6631 8.51774 21.6759 8.52487 21.6914C8.532 21.7069 8.53392 21.7243 8.53036 21.7409C8.52816 21.7591 8.52062 21.7761 8.50871 21.7899C8.49679 21.8038 8.48104 21.8137 8.46345 21.8186C8.40726 21.8343 8.35037 21.8475 8.29374 21.8616C8.18046 21.8898 8.06717 21.9179 7.95387 21.946C7.94876 21.9473 7.9438 21.9492 7.93604 21.9517C7.94443 21.9857 7.95209 22.019 7.96099 22.052C8.03144 22.3234 8.13205 22.586 8.26094 22.835C8.39619 23.1013 8.58157 23.3389 8.80691 23.5349C9.04221 23.7385 9.32886 23.8738 9.63566 23.9258C9.73167 23.9419 9.82906 23.9482 9.92634 23.9445L9.9273 23.9505Z" fill="#919191"/>
<path d="M6.64574 18.2254C6.64167 18.1914 6.6389 18.1573 6.63544 18.1225C6.64349 18.1212 6.64866 18.12 6.65391 18.1195C6.77005 18.1078 6.88621 18.0962 7.00237 18.0847C7.06044 18.0788 7.11864 18.0739 7.1765 18.0665C7.1946 18.0642 7.21162 18.0566 7.2254 18.0446C7.23917 18.0327 7.24908 18.0169 7.25386 17.9993C7.25978 17.9833 7.26037 17.9658 7.25554 17.9494C7.25071 17.9331 7.24072 17.9187 7.22706 17.9085C7.19395 17.8787 7.16186 17.8479 7.12927 17.8175C6.76399 17.4776 6.39781 17.1387 6.03442 16.7967C6.02178 16.7845 6.00663 16.7752 5.99003 16.7694C5.97344 16.7637 5.95578 16.7616 5.93829 16.7633C5.9208 16.765 5.90389 16.7705 5.88873 16.7794C5.87357 16.7883 5.86053 16.8004 5.8505 16.8148C5.70194 17.0274 5.54897 17.237 5.39753 17.4476C5.23041 17.68 5.06321 17.9124 4.89591 18.1447C4.88495 18.1583 4.87896 18.1753 4.87891 18.1928C4.87886 18.2103 4.88476 18.2272 4.89564 18.2409C4.90687 18.2571 4.92247 18.2697 4.94062 18.2774C4.95878 18.285 4.97873 18.2873 4.99814 18.284C5.16313 18.2669 5.32823 18.2508 5.4933 18.2343C5.50225 18.2334 5.5112 18.2325 5.52089 18.2316C5.52248 18.2404 5.52371 18.2463 5.5246 18.2523C5.53708 18.3366 5.5473 18.4212 5.56236 18.505C5.60315 18.7398 5.67893 18.9671 5.78718 19.1794C5.97651 19.5492 6.27473 19.852 6.64159 20.0469C6.64584 20.0492 6.65018 20.0513 6.65444 20.0536C6.85333 19.9771 7.03212 19.8562 7.17715 19.7001C7.02821 19.5004 6.91116 19.2789 6.83016 19.0434C6.73836 18.7784 6.6765 18.5041 6.64574 18.2254Z" fill="#919191"/>
<path d="M17.7466 0.50337C20.004 0.50337 22.2614 0.50294 24.5189 0.502079C24.6813 0.501942 24.8274 0.530416 24.9456 0.649839C24.9932 0.697694 25.0306 0.754718 25.0555 0.817455C25.0804 0.880191 25.0923 0.947335 25.0906 1.01482C25.0908 1.64538 25.0922 2.27596 25.0886 2.90651C25.0873 3.13577 24.9233 3.3184 24.6954 3.36209C24.0889 3.47835 23.6647 3.98369 23.6665 4.58791C23.6682 5.19189 24.0954 5.69357 24.7035 5.80566C24.9128 5.84424 25.085 6.03178 25.0863 6.24534C25.0902 6.88847 25.0909 7.53169 25.0849 8.17479C25.0822 8.4618 24.8764 8.65877 24.5832 8.66391C24.247 8.66982 23.9106 8.66599 23.5743 8.66586C19.3873 8.66421 15.2004 8.6641 11.0134 8.66554C10.5852 8.66617 10.3894 8.40514 10.3988 8.04759C10.414 7.46786 10.4107 6.88731 10.3995 6.30741C10.3954 6.08974 10.5902 5.83031 10.8241 5.7909C11.4152 5.69128 11.8329 5.16742 11.8306 4.57606C11.8286 4.28541 11.7249 4.00464 11.5375 3.78244C11.3501 3.56025 11.0909 3.41065 10.8047 3.3596C10.6939 3.34188 10.5929 3.28538 10.5198 3.20017C10.4468 3.11496 10.4063 3.00657 10.4057 2.89431C10.4028 2.26796 10.4031 1.6416 10.4065 1.01523C10.4087 0.693154 10.6208 0.50054 10.9617 0.500462C13.2233 0.499952 15.4849 0.499864 17.7466 0.500198L17.7466 0.50337ZM21.8669 8.1214H24.5449V6.31821C23.6942 6.06267 23.1859 5.47435 23.1568 4.7185C23.1204 3.77139 23.5122 3.24143 24.5468 2.84279V1.04188H21.8738C21.7927 1.24599 21.7106 1.31088 21.5375 1.31111C21.3669 1.31134 21.2853 1.24581 21.205 1.04429H10.9419C10.9419 1.6303 10.9428 2.20583 10.9409 2.78134C10.9407 2.87134 11.0102 2.86298 11.0616 2.8773C11.8215 3.08902 12.3239 3.76229 12.3451 4.55263C12.3682 5.41429 11.7726 6.07512 11.0897 6.27483C11.042 6.28881 10.9937 6.30117 10.9483 6.31359V8.12362H21.203C21.2817 7.92134 21.3694 7.85259 21.5412 7.85444C21.7086 7.85623 21.7982 7.92847 21.8669 8.1214Z" fill="#919191"/>
<path d="M21.216 3.77357C21.2161 3.69821 21.2131 3.62272 21.2167 3.54753C21.2247 3.37707 21.3443 3.26367 21.5177 3.25808C21.7064 3.252 21.8427 3.34878 21.8553 3.51988C21.8675 3.69105 21.8679 3.86285 21.8566 4.03408C21.8453 4.21183 21.7042 4.31587 21.5143 4.30604C21.3407 4.29706 21.2235 4.1829 21.2165 4.01219C21.2132 3.93277 21.2159 3.85311 21.216 3.77357Z" fill="#919191"/>
<path d="M21.2158 5.37407C21.2159 5.2987 21.2135 5.22323 21.2164 5.14797C21.2231 4.97175 21.344 4.85611 21.5239 4.85079C21.713 4.8452 21.8483 4.95274 21.8581 5.13242C21.8672 5.29549 21.867 5.45895 21.8577 5.62201C21.8473 5.8003 21.71 5.90717 21.5206 5.90048C21.3417 5.89416 21.2223 5.77757 21.2161 5.60019C21.2135 5.5249 21.2157 5.44945 21.2158 5.37407Z" fill="#919191"/>
<path d="M21.2163 2.26437C21.2165 2.18451 21.213 2.10446 21.2173 2.02484C21.2194 1.95048 21.2501 1.87981 21.3029 1.82741C21.3557 1.77501 21.4266 1.74489 21.501 1.74326C21.6939 1.73117 21.839 1.82158 21.8524 1.98853C21.8674 2.17269 21.8671 2.35776 21.8517 2.54188C21.8373 2.71047 21.6938 2.7986 21.4997 2.78518C21.3362 2.77387 21.2255 2.66582 21.2169 2.50391C21.2127 2.42427 21.2162 2.34424 21.2163 2.26437Z" fill="#919191"/>
<path d="M21.2161 6.89547C21.2162 6.81982 21.2135 6.74406 21.2168 6.66855C21.2244 6.49464 21.3403 6.38503 21.5182 6.3801C21.7122 6.37472 21.8436 6.46901 21.8548 6.64208C21.8657 6.81399 21.8657 6.98641 21.8548 7.15832C21.8438 7.33245 21.714 7.42671 21.5196 7.4219C21.342 7.4175 21.2245 7.30775 21.2166 7.13499C21.213 7.0553 21.216 6.97532 21.2161 6.89547Z" fill="#919191"/>
<path d="M13.4122 4.41982L13.2105 4.68513V4.68936L13.5309 4.64693V4.79126L13.2105 4.75305V4.75728L13.4143 5.01205L13.2805 5.08845L13.1531 4.79125H13.149L13.0109 5.09061L12.8899 5.01411L13.0916 4.7552V4.75098L12.7773 4.79125V4.64693L13.0895 4.68728V4.68305L12.8899 4.42405L13.0193 4.34973L13.151 4.64477H13.1552L13.2848 4.34766L13.4122 4.41982Z" fill="#919191"/>
<path d="M14.2911 4.41982L14.0894 4.68513V4.68936L14.4098 4.64693V4.79125L14.0894 4.75306V4.75729L14.2932 5.01206L14.1594 5.08845L14.032 4.79125H14.0279L13.8898 5.09061L13.7688 5.01412L13.9705 4.7552V4.75098L13.6562 4.79125V4.64692L13.9684 4.68728V4.68305L13.7688 4.42405L13.8984 4.34973L14.0299 4.64477H14.0343L14.1637 4.34766L14.2911 4.41982Z" fill="#919191"/>
<path d="M15.1739 4.41982L14.9722 4.68513V4.68936L15.2926 4.64693V4.79125L14.9722 4.75306V4.75729L15.176 5.01206L15.0422 5.08845L14.9148 4.79125H14.9107L14.7726 5.09061L14.6516 5.01412L14.8533 4.7552V4.75098L14.5391 4.79125V4.64692L14.8512 4.68728V4.68305L14.6516 4.42405L14.7812 4.34973L14.9127 4.64477H14.9171L15.0465 4.34766L15.1739 4.41982Z" fill="#919191"/>
<path d="M16.0567 4.41982L15.855 4.68513V4.68936L16.1755 4.64693V4.79125L15.855 4.75306V4.75729L16.0588 5.01206L15.925 5.08845L15.7976 4.79125H15.7935L15.6554 5.09061L15.5344 5.01412L15.7361 4.7552V4.75098L15.4219 4.79125V4.64692L15.734 4.68728V4.68305L15.5344 4.42405L15.6639 4.34973L15.7956 4.64477H15.7997L15.9293 4.34766L16.0567 4.41982Z" fill="#919191"/>
<path d="M16.9395 4.41982L16.7378 4.68513V4.68936L17.0583 4.64693V4.79125L16.7378 4.75306V4.75729L16.9416 5.01206L16.8078 5.08845L16.6804 4.79125H16.6763L16.5382 5.09061L16.4172 5.01412L16.6189 4.7552V4.75098L16.3047 4.79125V4.64692L16.6168 4.68728V4.68305L16.4172 4.42405L16.5467 4.34973L16.6784 4.64477H16.6825L16.8121 4.34766L16.9395 4.41982Z" fill="#919191"/>
<path d="M17.8184 4.41982L17.6167 4.68513V4.68936L17.9372 4.64693V4.79125L17.6167 4.75306V4.75729L17.8205 5.01206L17.6867 5.08845L17.5593 4.79125H17.5552L17.4171 5.09061L17.2961 5.01411L17.4978 4.75519V4.75098L17.1836 4.79125V4.64692L17.4957 4.68728V4.68305L17.2961 4.42405L17.4257 4.34973L17.5573 4.64477H17.5616L17.6911 4.34766L17.8184 4.41982Z" fill="#919191"/>
<path d="M18.7013 4.41982L18.4995 4.68513V4.68936L18.82 4.64693V4.79125L18.4995 4.75306V4.75729L18.7033 5.01206L18.5695 5.08845L18.4422 4.79125H18.438L18.2999 5.09061L18.1789 5.01412L18.3806 4.7552V4.75098L18.0664 4.79125V4.64692L18.3786 4.68728V4.68305L18.1789 4.42405L18.3086 4.34973L18.4401 4.64477H18.4444L18.5739 4.34766L18.7013 4.41982Z" fill="#919191"/>
<path d="M19.5801 4.41982L19.3784 4.68513V4.68936L19.6989 4.64693V4.79125L19.3784 4.75306V4.75729L19.5822 5.01205L19.4485 5.08844L19.3211 4.79125H19.3169L19.1788 5.09061L19.0578 5.01411L19.2595 4.75519V4.75098L18.9453 4.79125V4.64692L19.2575 4.68728V4.68305L19.0578 4.42405L19.1873 4.34973L19.319 4.64477H19.3231L19.4528 4.34766L19.5801 4.41982Z" fill="#919191"/>
<path d="M20.463 4.41982L20.2613 4.68513V4.68936L20.5817 4.64692V4.79125L20.2613 4.75305V4.75728L20.465 5.01205L20.3313 5.08844L20.2039 4.79125H20.1997L20.0616 5.09061L19.9406 5.01411L20.1424 4.75519V4.75098L19.8281 4.79125V4.64692L20.1403 4.68728V4.68305L19.9406 4.42405L20.0701 4.34973L20.2018 4.64477H20.206L20.3356 4.34766L20.463 4.41982Z" fill="#919191"/>
</svg>
