<svg width="24" height="24" viewBox="0 0 24 24" fill="none" xmlns="http://www.w3.org/2000/svg">
<path fill-rule="evenodd" clip-rule="evenodd" d="M23.495 16.9607C24.5346 15.2388 23.9177 13.0371 22.1171 12.043L22.0391 11.9999L22.117 11.9569C23.9176 10.9628 24.5345 8.76109 23.4949 7.03923L22.2401 4.96077C21.2005 3.23892 18.8981 2.64897 17.0975 3.64308L17.0195 3.68616V3.6C17.0195 1.61178 15.334 3.53303e-07 13.2548 3.48045e-07L10.7451 0C8.66595 2.42514e-07 6.98047 1.61177 6.98047 3.6L6.98047 3.68602L6.90251 3.64298C5.10192 2.64887 2.79951 3.23882 1.75994 4.96067L0.505065 7.03913C-0.534507 8.76099 0.0824201 10.9627 1.88301 11.9568L1.96109 11.9999L1.88294 12.0431C0.0823498 13.0372 -0.534579 15.2389 0.504991 16.9608L1.75987 19.0392C2.79944 20.7611 5.10185 21.351 6.90244 20.3569L6.98046 20.3138V20.4C6.98046 22.3882 8.66595 24 10.7451 24H13.2548C15.334 24 17.0195 22.3882 17.0195 20.4V20.3137L17.0976 20.3568C18.8982 21.3509 21.2006 20.761 22.2401 19.0391L23.495 16.9607ZM18.2744 5.76461C16.6012 6.68838 14.5097 5.53368 14.5097 3.68615V3.6C14.5097 2.93726 13.9479 2.4 13.2548 2.4L10.7451 2.4C10.0521 2.4 9.49026 2.93722 9.49022 3.59992L9.49022 3.68602C9.49021 5.53349 7.39887 6.68819 5.72571 5.76454L5.64764 5.72144C5.04744 5.39007 4.27997 5.58672 3.93345 6.16067L2.67857 8.23913C2.33205 8.81309 2.53769 9.54699 3.13789 9.87836L3.21585 9.9214C4.88913 10.8451 4.88918 13.1546 3.21596 14.0784L3.13782 14.1215C2.53762 14.4529 2.33198 15.1868 2.6785 15.7608L3.93337 17.8392C4.2799 18.4132 5.04737 18.6098 5.64756 18.2785L5.7256 18.2354C7.39876 17.3116 9.49021 18.4663 9.49022 20.3138V20.4C9.49021 21.0627 10.052 21.6 10.7451 21.6H13.2548C13.9479 21.6 14.5097 21.0627 14.5097 20.4V20.3137C14.5097 18.4661 16.6013 17.3114 18.2745 18.2353L18.3524 18.2784C18.9526 18.6097 19.7201 18.4131 20.0666 17.8391L21.3215 15.7607C21.668 15.1867 21.4624 14.4528 20.8622 14.1214L20.7841 14.0783C19.1111 13.1545 19.1111 10.8452 20.7842 9.92148L20.8622 9.87846C21.4623 9.54708 21.6679 8.81317 21.3214 8.23923L20.0666 6.16077C19.72 5.58682 18.9526 5.39017 18.3524 5.72154L18.2744 5.76461Z" fill="#434343"/>
<path fill-rule="evenodd" clip-rule="evenodd" d="M11.9997 14.3999C13.3858 14.3999 14.5095 13.3254 14.5095 11.9999C14.5095 10.6744 13.3858 9.59993 11.9997 9.59993C10.6136 9.59993 9.48999 10.6744 9.48999 11.9999C9.48999 13.3254 10.6136 14.3999 11.9997 14.3999ZM11.9997 16.7999C14.7719 16.7999 17.0192 14.6509 17.0192 11.9999C17.0192 9.34896 14.7719 7.19993 11.9997 7.19993C9.22755 7.19993 6.98024 9.34896 6.98024 11.9999C6.98024 14.6509 9.22755 16.7999 11.9997 16.7999Z" fill="#434343"/>
</svg>
