<svg width="28" height="28" viewBox="0 0 28 28" fill="none" xmlns="http://www.w3.org/2000/svg">
<path d="M1.75007 25.375C1.66009 25.3876 1.5688 25.3876 1.47882 25.375C1.29608 25.3157 1.13795 25.1978 1.02883 25.0397C0.919712 24.8816 0.865679 24.6919 0.87507 24.5V23.625C0.875416 19.671 2.285 15.8466 4.85081 12.8382C7.41663 9.82976 10.9707 7.83431 14.8751 7.21V3.5C14.8751 3.3375 14.9203 3.17821 15.0058 3.03999C15.0912 2.90176 15.2134 2.79005 15.3588 2.71738C15.5041 2.64471 15.6668 2.61394 15.8286 2.62854C15.9905 2.64313 16.1451 2.7025 16.2751 2.8L26.7751 10.675C26.8837 10.7565 26.9719 10.8622 27.0327 10.9837C27.0934 11.1052 27.1251 11.2392 27.1251 11.375C27.1251 11.5108 27.0934 11.6448 27.0327 11.7663C26.9719 11.8878 26.8837 11.9935 26.7751 12.075L16.2751 19.95C16.1451 20.0475 15.9905 20.1069 15.8286 20.1215C15.6668 20.1361 15.5041 20.1053 15.3588 20.0326C15.2134 19.96 15.0912 19.8482 15.0058 19.71C14.9203 19.5718 14.8751 19.4125 14.8751 19.25V15.9688C10.638 16.6603 6.84376 18.9928 4.31382 22.4613L2.45882 25.0163C2.37736 25.1277 2.27068 25.2183 2.1475 25.2807C2.02432 25.343 1.88813 25.3754 1.75007 25.375ZM16.6251 5.25V7.98C16.6264 8.19631 16.5475 8.40544 16.4037 8.56703C16.2599 8.72862 16.0613 8.83121 15.8463 8.855C12.547 9.21495 9.46278 10.668 7.08446 12.9829C4.70613 15.2978 3.1703 18.3416 2.72132 21.63L2.86132 21.4463C4.35867 19.3903 6.27265 17.673 8.47839 16.4066C10.6841 15.1401 13.1321 14.3529 15.6626 14.0963C15.7845 14.0849 15.9075 14.0993 16.0236 14.1385C16.1397 14.1777 16.2462 14.2408 16.3363 14.3238C16.427 14.4056 16.4995 14.5054 16.5492 14.6169C16.5989 14.7285 16.6248 14.8491 16.6251 14.9713V17.5L24.7888 11.375L16.6251 5.25Z" fill="#A4A4A4"/>
</svg>
