<svg xmlns="http://www.w3.org/2000/svg" width="20" height="20" fill="none"><path fill="url(#a)" d="m19.451 8.76-.306-.283a1.686 1.686 0 0 1-.47-1.748l.132-.393a1.672 1.672 0 0 0-1.234-2.14l-.404-.087a1.68 1.68 0 0 1-1.278-1.278l-.087-.404a1.665 1.665 0 0 0-2.14-1.234l-.393.131c-.623.197-1.3.011-1.748-.47L11.24.55a1.674 1.674 0 0 0-2.478 0l-.284.305a1.686 1.686 0 0 1-1.748.47l-.393-.131a1.672 1.672 0 0 0-2.14 1.234l-.087.404A1.68 1.68 0 0 1 2.83 4.109l-.404.087a1.665 1.665 0 0 0-1.234 2.14l.131.393c.197.623.011 1.3-.47 1.748L.55 8.76a1.674 1.674 0 0 0 0 2.478l.305.284c.481.437.667 1.125.47 1.748l-.131.393a1.672 1.672 0 0 0 1.234 2.14l.404.087a1.68 1.68 0 0 1 1.278 1.278l.087.404a1.665 1.665 0 0 0 2.14 1.234l.393-.131c.623-.197 1.3-.011 1.748.47l.284.305a1.674 1.674 0 0 0 2.478 0l.284-.306a1.686 1.686 0 0 1 1.748-.47l.393.132a1.672 1.672 0 0 0 2.14-1.234l.087-.404a1.68 1.68 0 0 1 1.278-1.278l.404-.087a1.665 1.665 0 0 0 1.234-2.14l-.131-.393c-.197-.623-.011-1.3.47-1.748l.305-.284a1.674 1.674 0 0 0 0-2.478Zm-1.08 2.338-.274.25c-.426.394-.59.994-.415 1.551l.11.35c.261.83-.24 1.714-1.093 1.9l-.36.076a1.492 1.492 0 0 0-1.136 1.136l-.076.36a1.478 1.478 0 0 1-1.9 1.092l-.35-.109a1.496 1.496 0 0 0-1.55.415l-.251.273a1.488 1.488 0 0 1-2.195 0l-.251-.273a1.496 1.496 0 0 0-1.551-.415l-.35.11a1.486 1.486 0 0 1-1.9-1.093l-.076-.36a1.492 1.492 0 0 0-1.136-1.136l-.36-.076a1.478 1.478 0 0 1-1.092-1.9l.11-.35a1.496 1.496 0 0 0-.416-1.55l-.273-.252a1.488 1.488 0 0 1 0-2.194l.273-.252c.426-.393.59-.993.415-1.55l-.11-.35a1.485 1.485 0 0 1 1.093-1.9l.36-.076a1.492 1.492 0 0 0 1.136-1.136l.076-.36a1.478 1.478 0 0 1 1.9-1.092l.35.109c.557.175 1.157.01 1.55-.415l.252-.273a1.488 1.488 0 0 1 2.195 0l.25.273c.394.426.994.59 1.551.415l.35-.11c.83-.261 1.714.241 1.9 1.093l.076.36c.12.568.568 1.005 1.136 1.136l.36.076a1.478 1.478 0 0 1 1.092 1.9l-.109.35a1.496 1.496 0 0 0 .415 1.55l.273.252c.645.59.645 1.605 0 2.194Z"/><path fill="url(#b)" d="m18.38 8.892-.272-.251a1.497 1.497 0 0 1-.415-1.55l.109-.35a1.485 1.485 0 0 0-1.092-1.9l-.36-.077a1.492 1.492 0 0 1-1.136-1.135l-.077-.36a1.478 1.478 0 0 0-1.9-1.093l-.35.11a1.497 1.497 0 0 1-1.55-.415l-.251-.273a1.488 1.488 0 0 0-2.195 0l-.251.273c-.393.425-.994.59-1.55.415l-.35-.11a1.485 1.485 0 0 0-1.9 1.092l-.077.36a1.492 1.492 0 0 1-1.135 1.136l-.36.077a1.478 1.478 0 0 0-1.093 1.9l.11.35c.174.556.01 1.157-.416 1.55l-.273.251a1.488 1.488 0 0 0 0 2.195l.273.251c.426.393.59.994.415 1.55l-.109.35c-.262.83.24 1.715 1.092 1.9l.36.077c.568.12 1.005.568 1.136 1.136l.077.36a1.478 1.478 0 0 0 1.9 1.092l.35-.11a1.497 1.497 0 0 1 1.55.416l.251.273c.59.644 1.605.644 2.195 0l.251-.273c.393-.426.994-.59 1.55-.415l.35.109c.83.262 1.715-.24 1.9-1.092l.077-.36a1.492 1.492 0 0 1 1.135-1.136l.36-.077a1.478 1.478 0 0 0 1.093-1.9l-.11-.35a1.497 1.497 0 0 1 .416-1.55l.273-.25a1.488 1.488 0 0 0 0-2.196Zm-8.386 8.966a7.876 7.876 0 0 1-7.873-7.874 7.876 7.876 0 0 1 7.873-7.873 7.876 7.876 0 0 1 7.873 7.873 7.876 7.876 0 0 1-7.873 7.874Z"/><path fill="url(#c)" d="M9.995 17.868a7.873 7.873 0 1 0 0-15.747 7.873 7.873 0 0 0 0 15.747Z"/><path fill="url(#d)" d="m10.42 6.052.95 2.424 2.6.153a.47.47 0 0 1 .272.83l-2.01 1.65.656 2.522c.11.415-.35.742-.699.513l-2.195-1.398L7.8 14.144a.464.464 0 0 1-.699-.513l.656-2.523-2.01-1.649a.47.47 0 0 1 .273-.83l2.6-.153.95-2.424a.463.463 0 0 1 .862 0h-.01Z"/><path stroke="#5F5F5F" stroke-miterlimit="10" stroke-width=".1" d="M16.42 11.047A6.508 6.508 0 1 0 3.573 8.94a6.508 6.508 0 0 0 12.845 2.106Z"/><path fill="url(#e)" d="M10.288 2.547s0 .033-.022.044l-.219.218-.229-.13v-.132s.033-.065.066-.065c.021 0 .032 0 .043.021.011.011.022.033.022.044v.164l.219-.218s.032-.022.043-.022c.044 0 .066.032.066.065l.01.011Z"/><path fill="url(#f)" d="M10.222 3.18H10.2s-.01 0-.022-.01l-.218-.22v.165s-.033.065-.066.065c-.021 0-.032 0-.043-.022a.083.083 0 0 1-.022-.043v-.131l.23-.131.218.218s.01.12-.044.12l-.011-.01Z"/><path fill="url(#g)" d="m10.037 2.83-.218-.131-.131-.077s-.022 0-.022.011v.404s.01.022.022.011l.13-.076.22-.12V2.83Zm-.054 0-.164.109-.098.054h-.022v-.316s0-.011.022 0l.098.054.164.099Z"/><path fill="url(#h)" d="m9.939 2.83-.131.076-.077.044h-.01v-.24s0-.011.01 0l.077.043.13.077Z"/><path fill="url(#i)" d="M11.174 8.948a.217.217 0 0 1-.077.174l-.83.798-.884-.492v-.48c0-.142.12-.252.262-.252a.263.263 0 0 1 .262.252v.611l.82-.797s.12-.076.185-.076c.153 0 .262.12.262.25v.012Z"/><path fill="url(#j)" d="M10.912 11.263s-.066 0-.099-.022a.236.236 0 0 1-.087-.055l-.819-.797v.612c0 .142-.12.25-.262.25a.263.263 0 0 1-.262-.25v-.48l.885-.492.83.797c.163.164.043.437-.186.437Z"/><path fill="url(#k)" d="M10.235 9.963s-.011-.022-.033-.033l-.819-.458-.502-.284s-.088 0-.088.054v1.474s.055.077.088.055l.502-.284.819-.459.033-.032v-.033Zm-.197.033s0 .021-.022.021l-.633.36-.393.22s-.066 0-.066-.044V9.406s.033-.055.066-.044l.393.219.633.36s.022.011.022.022v.032Z"/><path fill="url(#l)" d="M9.853 9.984s0 .011-.011.022l-.48.262-.295.164s-.055 0-.055-.033v-.862s.033-.044.055-.033l.294.164.48.262s.012.01.012.022v.032Z"/><path fill="url(#m)" d="M11.392 2.71s-.011.033-.033.044l-.262.153-.186-.186.033-.13c0-.001.044-.056.087-.045.022 0 .033.022.044.033 0 .011.011.033 0 .055l-.044.164.262-.153s.033-.011.055 0c.044 0 .055.054.044.087V2.71Z"/><path fill="url(#n)" d="M11.163 3.3s-.022 0-.022-.01l-.022-.022-.153-.262-.044.163s-.043.055-.087.044c-.022 0-.033-.022-.044-.033 0-.01-.01-.033 0-.054l.033-.131.262-.066.153.262s-.022.12-.076.098V3.3Z"/><path fill="url(#o)" d="m11.086 2.917-.175-.186-.109-.11h-.021l-.11.394s0 .022.022.022l.153-.044.24-.065h.011l-.01-.011Zm-.054-.022-.186.054-.12.033s-.022 0-.011-.01l.076-.306s.011-.011.022 0l.088.087.142.142h-.011Z"/><path fill="url(#p)" d="m10.989 2.894-.142.044-.088.022s-.01 0-.01-.011l.065-.23h.01l.066.066.098.098v.011Z"/><path fill="url(#q)" d="M9.23 3.159s0-.033-.022-.044l-.23-.197-.218.153v.131s.044.066.087.066c.022 0 .033 0 .044-.022a.083.083 0 0 0 .022-.055v-.163l.218.196s.033.022.055.022c.044 0 .066-.044.066-.076l-.022-.011Z"/><path fill="url(#r)" d="M9.11 2.537h-.023s-.01 0-.021.021l-.197.23v-.164s-.044-.066-.087-.066c-.022 0-.033 0-.044.022a.083.083 0 0 0-.022.055v.13l.251.121.197-.23s0-.12-.055-.108v-.011Z"/><path fill="url(#s)" d="m8.956 2.898-.229-.12-.142-.066s-.022 0-.022.011l.033.404s.01.022.022.011l.13-.087.208-.142v-.022.011Zm-.054.011-.164.12-.098.066h-.022l-.022-.317s0-.011.022-.011l.109.055.175.087Z"/><path fill="url(#t)" d="m8.859 2.91-.132-.066-.076-.044h-.01l.021.24h.01l.077-.054.12-.088-.01.011Z"/><path fill="url(#u)" d="M12.834 3.63a.251.251 0 1 0 0-.503.251.251 0 0 0 0 .503Z"/><path fill="url(#v)" d="M7.112 3.64a.251.251 0 1 0 0-.503.251.251 0 0 0 0 .502Z"/><path fill="url(#w)" d="M7.908 3.367a.251.251 0 1 0 0-.502.251.251 0 0 0 0 .502Z"/><path fill="url(#x)" d="M11.982 3.367a.251.251 0 1 0 0-.502.251.251 0 0 0 0 .502Z"/><path fill="url(#y)" d="M10.419 17.476s0-.033-.022-.044l-.219-.219-.229.131v.131s.033.066.066.066c.022 0 .032 0 .043-.022a.083.083 0 0 0 .022-.043v-.164l.219.218s.032.022.043.022c.044 0 .066-.033.066-.066l.01-.01Z"/><path fill="url(#z)" d="M10.353 16.842h-.022s-.01 0-.021.011l-.219.219v-.164s-.033-.066-.065-.066c-.022 0-.033 0-.044.022a.082.082 0 0 0-.022.044v.13l.23.132.218-.219s.01-.12-.044-.12l-.01.011Z"/><path fill="url(#A)" d="m10.18 17.192-.219-.132-.13-.076s-.023 0-.023.01v.405s.011.022.022.01l.131-.076.219-.12v-.021Zm-.055 0-.164.109-.098.054H9.84v-.316s0-.011.022 0l.098.054.164.099Z"/><path fill="url(#B)" d="m10.08 17.192-.13-.076-.077-.044h-.01v.24s0 .011.01 0l.077-.043.13-.077Z"/><path fill="url(#C)" d="M11.512 17.345s-.01-.033-.032-.044l-.251-.175-.208.175.022.131s.044.066.076.055c.022 0 .033-.011.044-.033 0-.011.011-.033.011-.055l-.033-.164.251.175s.033.011.055.011c.044 0 .066-.043.055-.076h.01Z"/><path fill="url(#D)" d="M11.327 16.733h-.021l-.022.022-.175.251-.033-.164s-.043-.065-.076-.054c-.022 0-.033.01-.044.032 0 .011-.01.033-.01.055l.021.131.251.087.175-.25s0-.12-.066-.11Z"/><path fill="url(#E)" d="m11.217 17.105-.24-.087-.142-.055s-.022 0-.022.022l.076.393s.011.022.022 0l.12-.098.186-.164v-.022.011Zm-.055.022-.153.131-.087.076H10.9l-.054-.305s0-.022.01-.011l.11.043.186.066h.01Z"/><path fill="url(#F)" d="m11.12 17.128-.142-.055-.088-.033h-.01l.043.23h.011l.066-.055.109-.098.01.01Z"/><path fill="url(#G)" d="M9.393 16.909s-.01.032-.033.043l-.262.164-.196-.186.032-.13s.044-.066.088-.055c.022 0 .032.01.043.032 0 .011.011.033 0 .055l-.032.164.262-.164s.032-.01.054 0c.044 0 .066.044.055.087l-.011-.01Z"/><path fill="url(#H)" d="M9.197 17.52h-.022l-.022-.022-.164-.262-.032.163s-.044.066-.088.055c-.022 0-.032-.01-.043-.033 0-.01-.011-.032 0-.054l.032-.131.262-.088.164.262s-.01.12-.076.11h-.011Z"/><path fill="url(#I)" d="m9.1 17.127-.186-.175-.11-.098h-.021l-.087.393s0 .022.022.022l.141-.044.24-.076v-.022Zm-.055-.022-.186.065-.109.033s-.022 0-.01-.01l.065-.306s.01-.011.022 0l.087.076.142.131-.01.01Z"/><path fill="url(#J)" d="m9.001 17.115-.141.044-.088.032h-.01l.054-.229h.01l.066.066.11.098v-.011Z"/><path fill="url(#K)" d="M12.976 16.82a.251.251 0 1 0 0-.503.251.251 0 0 0 0 .503Z"/><path fill="url(#L)" d="M12.123 17.148a.251.251 0 1 0 0-.502.251.251 0 0 0 0 .502Z"/><path fill="url(#M)" d="M8.093 17.223a.251.251 0 1 0 0-.502.251.251 0 0 0 0 .502Z"/><path fill="url(#N)" d="M7.242 16.82a.251.251 0 1 0 0-.503.251.251 0 0 0 0 .503Z"/><path fill="url(#O)" d="M2.471 9.657s.033 0 .044.022l.218.218-.13.23H2.47s-.065-.033-.065-.066c0-.022 0-.033.022-.043a.082.082 0 0 1 .043-.022h.164l-.218-.219s-.022-.033-.022-.043c0-.044.033-.066.065-.066l.011-.01Z"/><path fill="url(#P)" d="M3.106 9.734v.022s0 .011-.011.022l-.219.218h.164s.066.033.066.066c0 .022 0 .033-.022.043a.083.083 0 0 1-.044.022h-.13l-.132-.229.218-.218s.12-.011.12.043l-.01.011Z"/><path fill="url(#Q)" d="m2.754 9.908-.12.219-.076.13s0 .023.01.023h.405s.021-.011.01-.022l-.076-.131-.12-.219h-.032Zm0 .044.098.175.055.098v.022H2.59s-.01 0 0-.022l.055-.098.098-.164h.011v-.01Z"/><path fill="url(#R)" d="m2.754 10.007.076.131.044.077v.01h-.24s-.011 0 0-.01l.043-.077.077-.13Z"/><path fill="url(#S)" d="M2.602 8.574s.033.011.044.033l.174.251-.174.208-.131-.022S2.449 9 2.46 8.967c0-.022.01-.032.033-.043.01 0 .032-.011.054-.011l.164.032-.175-.25s-.01-.033-.01-.055c0-.044.043-.066.076-.055v-.01Z"/><path fill="url(#T)" d="M3.213 8.76v.022l-.022.022-.25.175.163.032s.066.044.055.077c0 .022-.011.033-.033.044-.011 0-.033.01-.055.01l-.13-.021-.088-.252.251-.174s.12 0 .11.065Z"/><path fill="url(#U)" d="m2.83 8.87-.164.196-.098.12v.022l.393.076s.022 0 .022-.021l-.055-.142-.087-.24H2.83v-.012Zm0 .043.065.186.044.109s0 .022-.011.01l-.306-.054s-.01-.01 0-.022l.077-.087.12-.153h.01v.011Z"/><path fill="url(#V)" d="m2.818 8.967.055.142.032.088v.01l-.229-.043v-.011l.055-.066.098-.109h.01l-.021-.01Z"/><path fill="url(#W)" d="M3.037 10.692s-.033.011-.044.033l-.164.262.186.196.13-.032s.066-.044.055-.088c0-.022-.01-.032-.032-.043-.011 0-.033-.011-.055 0l-.164.032.164-.262s.011-.032 0-.054c0-.044-.044-.066-.087-.055l.01.011Z"/><path fill="url(#X)" d="M2.437 10.888v.022l.021.022.263.164-.164.033s-.066.043-.055.087c0 .022.011.033.033.043.01 0 .033.011.054 0l.132-.032.087-.262-.262-.164s-.12.01-.11.076v.011Z"/><path fill="url(#Y)" d="m2.808 10.987-.077.251-.043.142s0 .022.022.022l.393-.087s.01-.022 0-.022l-.099-.11-.163-.185h-.022l-.011-.011Zm.022.044.13.152.077.088v.022l-.306.065s-.021 0-.01-.01l.032-.11.055-.185h.01l.012-.022Z"/><path fill="url(#Z)" d="m2.83 11.085-.044.142-.033.087v.011l.23-.055v-.01l-.066-.066-.098-.11h-.011.021Z"/><path fill="url(#aa)" d="M3.377 7.363a.251.251 0 1 0 0-.502.251.251 0 0 0 0 .502Z"/><path fill="url(#ab)" d="M3.05 8.215a.251.251 0 1 0 0-.502.251.251 0 0 0 0 .502Z"/><path fill="url(#ac)" d="M2.972 12.245a.251.251 0 1 0 0-.502.251.251 0 0 0 0 .502Z"/><path fill="url(#ad)" d="M3.377 13.097a.251.251 0 1 0 0-.503.251.251 0 0 0 0 .503Z"/><path fill="url(#ae)" d="M17.407 9.721s-.032 0-.043.022l-.219.219.131.229h.131s.066-.033.066-.066c0-.032 0-.032-.022-.043a.083.083 0 0 0-.044-.022h-.163l.218-.219s.022-.032.022-.043c0-.011-.033-.066-.066-.066l-.01-.01Z"/><path fill="url(#af)" d="M16.774 9.787v.021s0 .011.011.022l.218.219h-.163s-.066.032-.066.065c0 .022 0 .033.022.044.011.01.033.022.044.022h.13l.132-.23-.219-.218s-.12-.01-.12.044l.011.01Z"/><path fill="url(#ag)" d="m17.124 9.962-.12.218-.076.131s0 .022.01.022h.405s.021-.011.01-.022l-.076-.131-.12-.218h-.032Zm0 .043.099.175.054.098v.022h-.317s-.01 0 0-.022l.055-.098.098-.164h.011v-.01Z"/><path fill="url(#ah)" d="m17.125 10.07-.077.131-.043.077v.01h.24s.01 0 0-.01L17.2 10.2l-.076-.13Z"/><path fill="url(#ai)" d="M17.278 8.629s-.033.01-.044.033l-.174.25.174.208.131-.022s.066-.043.055-.076c0-.022-.011-.033-.033-.044-.01 0-.033-.01-.054-.01L17.169 9l.174-.251s.011-.033.011-.055c0-.043-.043-.065-.076-.054v-.011Z"/><path fill="url(#aj)" d="M16.666 8.815v.022l.022.022.251.174-.163.033s-.066.044-.055.077c0 .021.01.032.033.043.01 0 .032.011.054.011l.131-.022.088-.25-.251-.176s-.12 0-.11.066Z"/><path fill="url(#ak)" d="m17.039 8.935-.088.24-.054.142s0 .022.022.022l.393-.076s.021-.011 0-.022l-.099-.12-.163-.186h-.022.01Zm.021.044.12.153.077.087v.022l-.306.055s-.021 0-.01-.011l.043-.11.066-.185h.01v-.011Z"/><path fill="url(#al)" d="m17.061 9.033-.054.142-.033.087v.011l.23-.044v-.01l-.055-.066-.099-.11h-.01l.021-.01Z"/><path fill="url(#am)" d="M16.841 10.748s.033.011.044.033l.164.262-.186.197-.13-.033s-.066-.044-.055-.087c0-.022.01-.033.032-.044.011 0 .033-.011.055 0l.164.033-.164-.262s-.01-.033 0-.055c0-.044.044-.066.087-.055l-.01.011Z"/><path fill="url(#an)" d="M17.453 10.945v.022l-.022.021-.262.164.164.033s.066.044.055.087c0 .022-.011.033-.033.044-.011 0-.033.011-.055 0l-.13-.033-.088-.262.262-.164s.12.011.11.077v.01Z"/><path fill="url(#ao)" d="m17.06 11.043-.164.186-.098.109v.022l.393.087s.022 0 .022-.022l-.044-.142-.076-.24h-.033Zm0 .044.055.196.033.11s0 .021-.011.01l-.306-.065s-.011-.011 0-.022l.076-.087.131-.142h.022Z"/><path fill="url(#ap)" d="m17.05 11.14.043.142.033.088v.01l-.23-.054v-.01l.066-.066.098-.11h.011-.022Z"/><path fill="url(#aq)" d="M16.503 7.417a.251.251 0 1 0 0-.502.251.251 0 0 0 0 .502Z"/><path fill="url(#ar)" d="M16.83 8.27a.251.251 0 1 0 0-.502.251.251 0 0 0 0 .502Z"/><path fill="url(#as)" d="M16.906 12.3a.251.251 0 1 0 0-.503.251.251 0 0 0 0 .502Z"/><path fill="url(#at)" d="M16.503 13.151a.251.251 0 1 0 0-.502.251.251 0 0 0 0 .502Z"/><defs><linearGradient id="c" x1="4.83" x2="17.584" y1="6.249" y2="15.487" gradientUnits="userSpaceOnUse"><stop stop-color="#A19E9B"/><stop offset=".22" stop-color="#EDEEF0"/><stop offset=".51" stop-color="#A9ABAE"/><stop offset=".75" stop-color="#ECEDEF"/><stop offset="1" stop-color="#DCDEE0"/></linearGradient><linearGradient id="d" x1="5.572" x2="14.417" y1="9.994" y2="9.994" gradientUnits="userSpaceOnUse"><stop stop-color="#868686"/><stop offset="1" stop-color="#BABABC"/></linearGradient><linearGradient id="e" x1="9.818" x2="10.288" y1="2.645" y2="2.645" gradientUnits="userSpaceOnUse"><stop stop-color="#868686"/><stop offset="1" stop-color="#BABABC"/></linearGradient><linearGradient id="f" x1="9.818" x2="10.287" y1="3.016" y2="3.016" gradientUnits="userSpaceOnUse"><stop stop-color="#868686"/><stop offset="1" stop-color="#BABABC"/></linearGradient><linearGradient id="g" x1="9.655" x2="10.037" y1="2.83" y2="2.83" gradientUnits="userSpaceOnUse"><stop stop-color="#868686"/><stop offset="1" stop-color="#BABABC"/></linearGradient><linearGradient id="h" x1="9.72" x2="9.939" y1="2.83" y2="2.83" gradientUnits="userSpaceOnUse"><stop stop-color="#868686"/><stop offset="1" stop-color="#BABABC"/></linearGradient><linearGradient id="m" x1="10.9" x2="11.392" y1="2.721" y2="2.721" gradientUnits="userSpaceOnUse"><stop stop-color="#868686"/><stop offset="1" stop-color="#BABABC"/></linearGradient><linearGradient id="n" x1="10.791" x2="11.25" y1="3.126" y2="3.126" gradientUnits="userSpaceOnUse"><stop stop-color="#868686"/><stop offset="1" stop-color="#BABABC"/></linearGradient><linearGradient id="o" x1="10.66" x2="11.086" y1="2.818" y2="2.818" gradientUnits="userSpaceOnUse"><stop stop-color="#868686"/><stop offset="1" stop-color="#BABABC"/></linearGradient><linearGradient id="p" x1="10.737" x2="10.989" y1="2.84" y2="2.84" gradientUnits="userSpaceOnUse"><stop stop-color="#868686"/><stop offset="1" stop-color="#BABABC"/></linearGradient><linearGradient id="q" x1="8.749" x2="9.23" y1="3.082" y2="3.082" gradientUnits="userSpaceOnUse"><stop stop-color="#868686"/><stop offset="1" stop-color="#BABABC"/></linearGradient><linearGradient id="r" x1="8.716" x2="9.186" y1="2.711" y2="2.711" gradientUnits="userSpaceOnUse"><stop stop-color="#868686"/><stop offset="1" stop-color="#BABABC"/></linearGradient><linearGradient id="s" x1="8.563" x2="8.956" y1="2.931" y2="2.931" gradientUnits="userSpaceOnUse"><stop stop-color="#868686"/><stop offset="1" stop-color="#BABABC"/></linearGradient><linearGradient id="t" x1="8.629" x2="8.859" y1="2.92" y2="2.92" gradientUnits="userSpaceOnUse"><stop stop-color="#868686"/><stop offset="1" stop-color="#BABABC"/></linearGradient><linearGradient id="u" x1="12.582" x2="13.096" y1="3.378" y2="3.378" gradientUnits="userSpaceOnUse"><stop stop-color="#868686"/><stop offset="1" stop-color="#BABABC"/></linearGradient><linearGradient id="v" x1="6.86" x2="7.363" y1="3.388" y2="3.388" gradientUnits="userSpaceOnUse"><stop stop-color="#868686"/><stop offset="1" stop-color="#BABABC"/></linearGradient><linearGradient id="w" x1="7.657" x2="8.159" y1="3.116" y2="3.116" gradientUnits="userSpaceOnUse"><stop stop-color="#868686"/><stop offset="1" stop-color="#BABABC"/></linearGradient><linearGradient id="x" x1="11.731" x2="12.233" y1="3.116" y2="3.116" gradientUnits="userSpaceOnUse"><stop stop-color="#868686"/><stop offset="1" stop-color="#BABABC"/></linearGradient><linearGradient id="y" x1="9.949" x2="10.419" y1="17.377" y2="17.377" gradientUnits="userSpaceOnUse"><stop stop-color="#868686"/><stop offset="1" stop-color="#BABABC"/></linearGradient><linearGradient id="z" x1="9.949" x2="10.419" y1="17.006" y2="17.006" gradientUnits="userSpaceOnUse"><stop stop-color="#868686"/><stop offset="1" stop-color="#BABABC"/></linearGradient><linearGradient id="A" x1="9.797" x2="10.18" y1="17.192" y2="17.192" gradientUnits="userSpaceOnUse"><stop stop-color="#868686"/><stop offset="1" stop-color="#BABABC"/></linearGradient><linearGradient id="B" x1="9.852" x2="10.081" y1="17.192" y2="17.192" gradientUnits="userSpaceOnUse"><stop stop-color="#868686"/><stop offset="1" stop-color="#BABABC"/></linearGradient><linearGradient id="C" x1="11.021" x2="11.512" y1="17.301" y2="17.301" gradientUnits="userSpaceOnUse"><stop stop-color="#868686"/><stop offset="1" stop-color="#BABABC"/></linearGradient><linearGradient id="D" x1="10.945" x2="11.415" y1="16.908" y2="16.908" gradientUnits="userSpaceOnUse"><stop stop-color="#868686"/><stop offset="1" stop-color="#BABABC"/></linearGradient><linearGradient id="E" x1="10.802" x2="11.217" y1="17.171" y2="17.171" gradientUnits="userSpaceOnUse"><stop stop-color="#868686"/><stop offset="1" stop-color="#BABABC"/></linearGradient><linearGradient id="F" x1="10.879" x2="11.12" y1="17.171" y2="17.171" gradientUnits="userSpaceOnUse"><stop stop-color="#868686"/><stop offset="1" stop-color="#BABABC"/></linearGradient><linearGradient id="G" x1="8.913" x2="9.404" y1="16.941" y2="16.941" gradientUnits="userSpaceOnUse"><stop stop-color="#868686"/><stop offset="1" stop-color="#BABABC"/></linearGradient><linearGradient id="H" x1="8.815" x2="9.284" y1="17.334" y2="17.334" gradientUnits="userSpaceOnUse"><stop stop-color="#868686"/><stop offset="1" stop-color="#BABABC"/></linearGradient><linearGradient id="I" x1="8.685" x2="9.1" y1="17.061" y2="17.061" gradientUnits="userSpaceOnUse"><stop stop-color="#868686"/><stop offset="1" stop-color="#BABABC"/></linearGradient><linearGradient id="J" x1="8.761" x2="9.001" y1="17.071" y2="17.071" gradientUnits="userSpaceOnUse"><stop stop-color="#868686"/><stop offset="1" stop-color="#BABABC"/></linearGradient><linearGradient id="K" x1="12.725" x2="13.227" y1="16.568" y2="16.568" gradientUnits="userSpaceOnUse"><stop stop-color="#868686"/><stop offset="1" stop-color="#BABABC"/></linearGradient><linearGradient id="L" x1="11.872" x2="12.386" y1="16.897" y2="16.897" gradientUnits="userSpaceOnUse"><stop stop-color="#868686"/><stop offset="1" stop-color="#BABABC"/></linearGradient><linearGradient id="M" x1="7.831" x2="8.345" y1="16.972" y2="16.972" gradientUnits="userSpaceOnUse"><stop stop-color="#868686"/><stop offset="1" stop-color="#BABABC"/></linearGradient><linearGradient id="N" x1="6.991" x2="7.493" y1="16.568" y2="16.568" gradientUnits="userSpaceOnUse"><stop stop-color="#868686"/><stop offset="1" stop-color="#BABABC"/></linearGradient><linearGradient id="O" x1="2.406" x2="2.744" y1="9.897" y2="9.897" gradientUnits="userSpaceOnUse"><stop stop-color="#868686"/><stop offset="1" stop-color="#BABABC"/></linearGradient><linearGradient id="P" x1="2.767" x2="3.106" y1="9.898" y2="9.898" gradientUnits="userSpaceOnUse"><stop stop-color="#868686"/><stop offset="1" stop-color="#BABABC"/></linearGradient><linearGradient id="Q" x1="2.536" x2="2.973" y1="10.105" y2="10.105" gradientUnits="userSpaceOnUse"><stop stop-color="#868686"/><stop offset="1" stop-color="#BABABC"/></linearGradient><linearGradient id="R" x1="2.623" x2="2.885" y1="10.127" y2="10.127" gradientUnits="userSpaceOnUse"><stop stop-color="#868686"/><stop offset="1" stop-color="#BABABC"/></linearGradient><linearGradient id="S" x1="2.471" x2="2.831" y1="8.825" y2="8.825" gradientUnits="userSpaceOnUse"><stop stop-color="#868686"/><stop offset="1" stop-color="#BABABC"/></linearGradient><linearGradient id="T" x1="2.853" x2="3.213" y1="8.913" y2="8.913" gradientUnits="userSpaceOnUse"><stop stop-color="#868686"/><stop offset="1" stop-color="#BABABC"/></linearGradient><linearGradient id="U" x1="2.557" x2="2.983" y1="9.077" y2="9.077" gradientUnits="userSpaceOnUse"><stop stop-color="#868686"/><stop offset="1" stop-color="#BABABC"/></linearGradient><linearGradient id="V" x1="2.654" x2="2.905" y1="9.087" y2="9.087" gradientUnits="userSpaceOnUse"><stop stop-color="#868686"/><stop offset="1" stop-color="#BABABC"/></linearGradient><linearGradient id="W" x1="2.829" x2="3.19" y1="10.932" y2="10.932" gradientUnits="userSpaceOnUse"><stop stop-color="#868686"/><stop offset="1" stop-color="#BABABC"/></linearGradient><linearGradient id="X" x1="2.426" x2="2.797" y1="11.041" y2="11.041" gradientUnits="userSpaceOnUse"><stop stop-color="#868686"/><stop offset="1" stop-color="#BABABC"/></linearGradient><linearGradient id="Y" x1="2.677" x2="3.103" y1="11.194" y2="11.194" gradientUnits="userSpaceOnUse"><stop stop-color="#868686"/><stop offset="1" stop-color="#BABABC"/></linearGradient><linearGradient id="Z" x1="2.753" x2="3.004" y1="11.205" y2="11.205" gradientUnits="userSpaceOnUse"><stop stop-color="#868686"/><stop offset="1" stop-color="#BABABC"/></linearGradient><linearGradient id="aa" x1="3.125" x2="3.628" y1="7.112" y2="7.112" gradientUnits="userSpaceOnUse"><stop stop-color="#868686"/><stop offset="1" stop-color="#BABABC"/></linearGradient><linearGradient id="ab" x1="2.798" x2="3.301" y1="7.964" y2="7.964" gradientUnits="userSpaceOnUse"><stop stop-color="#868686"/><stop offset="1" stop-color="#BABABC"/></linearGradient><linearGradient id="ac" x1="2.721" x2="3.224" y1="11.994" y2="11.994" gradientUnits="userSpaceOnUse"><stop stop-color="#868686"/><stop offset="1" stop-color="#BABABC"/></linearGradient><linearGradient id="ad" x1="3.125" x2="3.628" y1="12.845" y2="12.845" gradientUnits="userSpaceOnUse"><stop stop-color="#868686"/><stop offset="1" stop-color="#BABABC"/></linearGradient><linearGradient id="ae" x1="17.134" x2="17.473" y1="9.951" y2="9.951" gradientUnits="userSpaceOnUse"><stop stop-color="#868686"/><stop offset="1" stop-color="#BABABC"/></linearGradient><linearGradient id="af" x1="16.774" x2="17.113" y1="9.95" y2="9.95" gradientUnits="userSpaceOnUse"><stop stop-color="#868686"/><stop offset="1" stop-color="#BABABC"/></linearGradient><linearGradient id="ag" x1="16.906" x2="17.343" y1="10.158" y2="10.158" gradientUnits="userSpaceOnUse"><stop stop-color="#868686"/><stop offset="1" stop-color="#BABABC"/></linearGradient><linearGradient id="ah" x1="16.994" x2="17.256" y1="10.179" y2="10.179" gradientUnits="userSpaceOnUse"><stop stop-color="#868686"/><stop offset="1" stop-color="#BABABC"/></linearGradient><linearGradient id="ai" x1="17.06" x2="17.42" y1="8.88" y2="8.88" gradientUnits="userSpaceOnUse"><stop stop-color="#868686"/><stop offset="1" stop-color="#BABABC"/></linearGradient><linearGradient id="aj" x1="16.666" x2="17.027" y1="8.968" y2="8.968" gradientUnits="userSpaceOnUse"><stop stop-color="#868686"/><stop offset="1" stop-color="#BABABC"/></linearGradient><linearGradient id="ak" x1="16.897" x2="17.323" y1="9.132" y2="9.132" gradientUnits="userSpaceOnUse"><stop stop-color="#868686"/><stop offset="1" stop-color="#BABABC"/></linearGradient><linearGradient id="al" x1="16.974" x2="17.225" y1="9.142" y2="9.142" gradientUnits="userSpaceOnUse"><stop stop-color="#868686"/><stop offset="1" stop-color="#BABABC"/></linearGradient><linearGradient id="am" x1="16.689" x2="17.06" y1="10.989" y2="10.989" gradientUnits="userSpaceOnUse"><stop stop-color="#868686"/><stop offset="1" stop-color="#BABABC"/></linearGradient><linearGradient id="an" x1="17.082" x2="17.453" y1="11.098" y2="11.098" gradientUnits="userSpaceOnUse"><stop stop-color="#868686"/><stop offset="1" stop-color="#BABABC"/></linearGradient><linearGradient id="ao" x1="16.776" x2="17.202" y1="11.25" y2="11.25" gradientUnits="userSpaceOnUse"><stop stop-color="#868686"/><stop offset="1" stop-color="#BABABC"/></linearGradient><linearGradient id="ap" x1="16.875" x2="17.126" y1="11.261" y2="11.261" gradientUnits="userSpaceOnUse"><stop stop-color="#868686"/><stop offset="1" stop-color="#BABABC"/></linearGradient><linearGradient id="aq" x1="16.252" x2="16.765" y1="7.166" y2="7.166" gradientUnits="userSpaceOnUse"><stop stop-color="#868686"/><stop offset="1" stop-color="#BABABC"/></linearGradient><linearGradient id="ar" x1="16.578" x2="17.081" y1="8.019" y2="8.019" gradientUnits="userSpaceOnUse"><stop stop-color="#868686"/><stop offset="1" stop-color="#BABABC"/></linearGradient><linearGradient id="as" x1="16.655" x2="17.169" y1="12.048" y2="12.048" gradientUnits="userSpaceOnUse"><stop stop-color="#868686"/><stop offset="1" stop-color="#BABABC"/></linearGradient><linearGradient id="at" x1="16.252" x2="16.755" y1="12.9" y2="12.9" gradientUnits="userSpaceOnUse"><stop stop-color="#868686"/><stop offset="1" stop-color="#BABABC"/></linearGradient><radialGradient id="a" cx="0" cy="0" r="1" gradientTransform="translate(9.995 9.995) scale(10.0137)" gradientUnits="userSpaceOnUse"><stop stop-color="#A19E9B"/><stop offset=".22" stop-color="#EDEEF0"/><stop offset=".51" stop-color="#A9ABAE"/><stop offset=".75" stop-color="#ECEDEF"/><stop offset="1" stop-color="#DCDEE0"/></radialGradient><radialGradient id="b" cx="0" cy="0" r="1" gradientTransform="translate(9.994 9.995) scale(8.86705)" gradientUnits="userSpaceOnUse"><stop stop-color="#EEF6FD"/><stop offset="1" stop-color="#D2D2D8"/></radialGradient><radialGradient id="i" cx="0" cy="0" r="1" gradientTransform="matrix(.775866 0 0 .749113 9.923 9.365)" gradientUnits="userSpaceOnUse"><stop stop-color="#D1D1D1"/><stop offset="1" stop-color="#ABABAB"/></radialGradient><radialGradient id="j" cx="0" cy="0" r="1" gradientTransform="matrix(.775867 0 0 .749113 9.923 10.695)" gradientUnits="userSpaceOnUse"><stop stop-color="#D1D1D1"/><stop offset="1" stop-color="#ABABAB"/></radialGradient><radialGradient id="k" cx="0" cy="0" r="1" gradientTransform="matrix(.775867 0 0 .749113 9.164 10.037)" gradientUnits="userSpaceOnUse"><stop stop-color="#D1D1D1"/><stop offset="1" stop-color="#ABABAB"/></radialGradient><radialGradient id="l" cx="0" cy="0" r="1" gradientTransform="matrix(.459186 0 0 .443353 9.085 10.037)" gradientUnits="userSpaceOnUse"><stop stop-color="#D1D1D1"/><stop offset="1" stop-color="#ABABAB"/></radialGradient></defs></svg>