<svg width="24" height="24" viewBox="0 0 24 24" fill="none" xmlns="http://www.w3.org/2000/svg">
<g clip-path="url(#clip0_2376_18125)">
<path d="M6.27689 14.9168C6.29868 14.549 6.39231 14.2127 6.45952 13.8723C6.68664 12.7206 6.91609 11.5694 7.15109 10.4195C7.18678 10.2447 7.12791 10.1282 7.00879 10.01C6.11559 9.12218 5.22656 8.2307 4.33754 7.33875C3.95467 6.9547 3.76278 6.51081 3.97136 5.9737C4.18736 5.41849 4.60638 5.15504 5.20246 5.12118C6.39648 5.05299 7.58865 4.95837 8.78174 4.8823C9.0084 4.86793 9.12892 4.77655 9.22023 4.55809C9.74679 3.29647 10.2877 2.04041 10.8333 0.786678C11.0497 0.288523 11.4391 0.00280352 11.9874 2.05379e-05C12.5358 -0.00276245 12.9316 0.277391 13.149 0.775546C13.702 2.04273 14.2461 3.31409 14.7806 4.58916C14.8612 4.78165 14.9688 4.86607 15.1695 4.87767C15.9704 4.92498 16.7709 4.97832 17.5714 5.03212C18.041 5.06366 18.5124 5.08314 18.9791 5.13973C19.502 5.20281 19.8529 5.51172 20.0276 6.00524C20.2014 6.49597 20.0549 6.92501 19.7059 7.27985C18.8554 8.14443 18.0048 9.00994 17.1292 9.84854C16.865 10.1018 16.8057 10.336 16.8799 10.682C17.1584 11.9808 17.4092 13.2855 17.6715 14.588C17.7828 15.1404 17.6405 15.6121 17.1756 15.9368C16.694 16.2726 16.1915 16.2318 15.6983 15.9257C14.5307 15.2007 13.359 14.4817 12.1918 13.7559C12.056 13.6714 11.9499 13.6691 11.8113 13.7554C10.6238 14.4924 9.43345 15.2248 8.24128 15.9549C7.45701 16.4349 6.4915 16.0435 6.30749 15.1747C6.28756 15.0847 6.28524 14.991 6.27689 14.9168ZM11.9944 2.49218C11.9462 2.59376 11.9211 2.64154 11.9003 2.6907C11.4391 3.7705 10.9774 4.84937 10.5181 5.9301C10.3619 6.29792 10.1 6.51035 9.69348 6.53864C8.66215 6.611 7.63129 6.68753 6.60043 6.76453C6.49846 6.77195 6.3886 6.76267 6.29173 6.84756C6.35708 6.91574 6.40853 6.97233 6.46276 7.02613C7.1942 7.75852 7.9196 8.49694 8.66076 9.21912C8.95834 9.50902 9.04363 9.83277 8.96251 10.2284C8.73076 11.3555 8.50641 12.484 8.27929 13.6121C8.26446 13.6863 8.2144 13.7823 8.27465 13.8319C8.35716 13.8996 8.42854 13.7981 8.4939 13.7582C9.47516 13.1575 10.4578 12.5592 11.4312 11.9464C11.8159 11.7043 12.171 11.7048 12.5548 11.9455C13.5291 12.5573 14.5113 13.1561 15.4916 13.7582C15.5547 13.7971 15.6288 13.8788 15.697 13.8356C15.7827 13.7809 15.7197 13.6807 15.7039 13.6023C15.4782 12.4743 15.2534 11.3458 15.0225 10.2187C14.9437 9.83277 15.0253 9.51366 15.3164 9.22933C16.0627 8.50111 16.7941 7.75806 17.5292 7.01825C17.5844 6.96305 17.6739 6.92548 17.6692 6.80999C17.577 6.79468 17.4871 6.77334 17.3957 6.76639C16.3881 6.68939 15.3808 6.60265 14.3718 6.54467C13.9036 6.51777 13.6176 6.29931 13.4433 5.87629C13.105 5.05531 12.7522 4.2399 12.4032 3.42309C12.2776 3.1267 12.145 2.83356 11.9944 2.49218Z" fill="#A1A1A1"/>
<path d="M15.9099 21.601C16.1857 21.435 16.4281 21.2917 16.6677 21.1442C16.9704 20.9577 17.2712 20.7689 17.5721 20.5797C17.935 20.351 18.2924 20.3487 18.659 20.5815C19.1415 20.8877 19.631 21.1831 20.1191 21.4804C20.1733 21.5134 20.2317 21.5964 20.2989 21.537C20.3545 21.4879 20.3124 21.4062 20.2989 21.339C20.1817 20.7481 20.0639 20.1571 19.9476 19.5662C19.8827 19.2346 19.9898 18.9581 20.2234 18.7239C20.6109 18.3352 20.9979 17.947 21.3845 17.5578C21.4053 17.537 21.4206 17.5101 21.4628 17.4539C21.2422 17.4312 21.0489 17.4071 20.8547 17.3922C20.4394 17.3602 20.0213 17.3519 19.6087 17.2995C19.136 17.2396 18.8161 16.8296 18.85 16.376C18.8829 15.9367 19.2898 15.5457 19.7469 15.5745C20.8324 15.6422 21.9171 15.7299 23.0008 15.8254C23.4583 15.8658 23.7674 16.1334 23.9246 16.5629C24.0905 17.0175 23.976 17.4187 23.646 17.7554C23.0833 18.3292 22.5201 18.9025 21.9388 19.4572C21.7646 19.6233 21.7488 19.7824 21.7919 19.992C21.969 20.8543 22.1396 21.7184 22.3101 22.582C22.4098 23.0867 22.2633 23.5069 21.8355 23.7973C21.4146 24.083 20.9798 24.0542 20.552 23.7889C19.8234 23.3372 19.0896 22.8937 18.3661 22.4345C18.1853 22.32 18.0476 22.3144 17.8641 22.4313C17.147 22.8868 16.417 23.3214 15.6976 23.7736C15.2457 24.058 14.7947 24.0918 14.3566 23.7759C13.9279 23.467 13.8139 23.0287 13.9181 22.5217C14.0985 21.6442 14.2723 20.7652 14.4586 19.889C14.492 19.7313 14.4503 19.6279 14.3409 19.5198C13.7531 18.9387 13.1696 18.3528 12.586 17.7675C12.3287 17.5091 12.2421 17.2007 12.3584 16.8528C12.472 16.5137 12.7195 16.3203 13.0718 16.2716C13.3503 16.2331 13.5955 16.3254 13.7911 16.5193C14.5374 17.2587 15.2823 18.0003 16.0188 18.7494C16.2733 19.0082 16.3502 19.3218 16.2663 19.6896C16.1338 20.2689 16.0313 20.8552 15.9173 21.4387C15.9108 21.474 15.9136 21.5115 15.9099 21.601Z" fill="#A1A1A1"/>
<path d="M2.52905 17.5032C2.92443 17.8923 3.31332 18.2884 3.71704 18.6688C4.02204 18.9559 4.12633 19.2838 4.03502 19.6943C3.91079 20.2523 3.80743 20.8149 3.69619 21.3752C3.68321 21.4411 3.64427 21.5065 3.69711 21.5951C4.17036 21.3047 4.64222 21.0153 5.11408 20.7259C5.19288 20.6772 5.27214 20.6285 5.34955 20.5779C5.71249 20.3418 6.07218 20.3515 6.43604 20.5811C6.913 20.8822 7.39366 21.1767 7.87387 21.4722C7.93042 21.507 7.99067 21.5849 8.05649 21.5422C8.12556 21.4977 8.07225 21.4137 8.05974 21.3492C7.94757 20.7732 7.84096 20.1957 7.71673 19.6219C7.64628 19.2963 7.72369 19.0199 7.94942 18.7912C8.69893 18.0329 9.45261 17.2787 10.2109 16.5291C10.5678 16.1761 11.0777 16.1715 11.4175 16.5008C11.7679 16.8408 11.7762 17.383 11.4216 17.7485C10.991 18.192 10.5493 18.6247 10.1127 19.0616C9.95969 19.2147 9.81137 19.3724 9.65192 19.5185C9.53789 19.6229 9.50406 19.7254 9.53836 19.8854C9.72654 20.7616 9.90407 21.6396 10.077 22.519C10.2309 23.3015 9.8072 23.9115 9.06371 23.9884C8.78282 24.0172 8.53438 23.9217 8.29845 23.7746C7.56424 23.3168 6.82446 22.8683 6.0935 22.4059C5.93915 22.3085 5.82512 22.3168 5.67401 22.4114C4.90133 22.8947 4.13282 23.3859 3.34252 23.8391C2.62731 24.2496 1.78279 23.8113 1.65995 22.9991C1.63029 22.8024 1.67664 22.6146 1.71372 22.4253C1.88059 21.5844 2.04467 20.7426 2.22081 19.9035C2.25511 19.7388 2.22035 19.6284 2.10308 19.5125C1.52507 18.9429 0.949845 18.371 0.382037 17.7917C-0.166768 17.2323 -0.119025 16.4874 0.481693 16.0166C0.687495 15.8552 0.930841 15.8153 1.1779 15.7958C2.17029 15.7174 3.16314 15.6446 4.15599 15.5718C4.63064 15.537 5.08303 15.8793 5.13587 16.3083C5.19891 16.819 4.88974 17.2388 4.35994 17.3019C3.8167 17.3663 3.26836 17.3895 2.72187 17.4313C2.66903 17.4354 2.61665 17.441 2.56428 17.4461C2.55315 17.4651 2.5411 17.4841 2.52905 17.5032Z" fill="#A1A1A1"/>
</g>
<defs>
<clipPath id="clip0_2376_18125">
<rect width="24" height="24" fill="white"/>
</clipPath>
</defs>
</svg>
