<svg width="25" height="25" viewBox="0 0 25 25" fill="none" xmlns="http://www.w3.org/2000/svg">
<path d="M24.6134 12.5L22.7137 10.1234L23.3965 7.15939L20.6514 5.84664L19.98 2.87813L16.9376 2.88155L15.0454 0.5L12.3067 1.82817L9.56802 0.5L7.67587 2.88155L4.63348 2.87813L3.96208 5.84656L1.217 7.15924L1.89965 10.1234L0 12.5L1.89965 14.8766L1.217 17.8406L3.96206 19.1534L4.63341 22.1219L7.67584 22.1185L9.56802 24.5L12.3067 23.1719L15.0454 24.5L16.9375 22.1185L19.9799 22.1219L20.6514 19.1534L23.3964 17.8408L22.7137 14.8766L24.6134 12.5ZM12.3067 22.1186C7.00299 22.1186 2.68813 17.8037 2.68813 12.5001C2.68813 7.19628 7.00299 2.88142 12.3067 2.88142C17.6104 2.88142 21.9253 7.19628 21.9253 12.5001C21.9253 17.8037 17.6104 22.1186 12.3067 22.1186Z" fill="#919191"/>
<path d="M12.3057 3.7334C7.47179 3.7334 3.53906 7.66609 3.53906 12.5001C3.53906 17.3339 7.47179 21.2667 12.3057 21.2667C17.1396 21.2667 21.0723 17.3339 21.0723 12.5001C21.0723 7.66609 17.1396 3.7334 12.3057 3.7334ZM12.3057 20.1733C8.06786 20.1733 4.6324 16.7379 4.6324 12.5C4.6324 8.26219 8.06786 4.82672 12.3057 4.82672C16.5436 4.82672 19.979 8.26219 19.979 12.5C19.979 16.7379 16.5436 20.1733 12.3057 20.1733Z" fill="#919191"/>
<path d="M10.5171 17.0982L6.59375 13.1749L8.28326 11.4854L10.5171 13.7192L16.3349 7.90137L18.0244 9.59088L10.5171 17.0982Z" fill="#919191"/>
</svg>
