<svg width="24" height="25" viewBox="0 0 24 25" fill="none" xmlns="http://www.w3.org/2000/svg">
<path d="M4.19355 21.7925H1.87097C1.60112 21.7942 1.34005 21.7051 1.1377 21.5424C0.935357 21.3796 0.805935 21.1545 0.774194 20.9103V2.26654C0.805935 2.02225 0.935357 1.7972 1.1377 1.63444C1.34005 1.47168 1.60112 1.38264 1.87097 1.38434H17.871C18.0066 1.37638 18.1426 1.3929 18.2712 1.43296C18.3998 1.47302 18.5184 1.53584 18.6203 1.6178C18.7222 1.69976 18.8054 1.79927 18.865 1.91059C18.9246 2.02192 18.9595 2.14288 18.9677 2.26654V3.14873H19.8065V1.38434C19.774 1.12958 19.6353 0.895936 19.4192 0.731739C19.203 0.567541 18.9259 0.485346 18.6452 0.50215H1.09677C0.961158 0.494181 0.825151 0.510701 0.696556 0.550763C0.567961 0.590825 0.449308 0.653641 0.347407 0.735605C0.245506 0.81757 0.162362 0.91707 0.102745 1.0284C0.0431283 1.13972 0.00821212 1.26069 0 1.38434V21.7925C0.00821212 21.9161 0.0431283 22.0371 0.102745 22.1484C0.162362 22.2597 0.245506 22.3592 0.347407 22.4412C0.449308 22.5232 0.567961 22.586 0.696556 22.626C0.825151 22.6661 0.961158 22.6826 1.09677 22.6746H4.19355V21.7925Z" fill="#919191"/>
<path d="M23.8727 5.9718C23.6794 5.8651 23.4511 5.82349 23.2276 5.85417V22.7335C23.1958 22.9778 23.0664 23.2028 22.8641 23.3656C22.6617 23.5284 22.4006 23.6174 22.1308 23.6157H6.1308C5.99518 23.6237 5.85917 23.6071 5.73058 23.5671C5.60198 23.527 5.48333 23.4642 5.38143 23.3822C5.27953 23.3003 5.19638 23.2008 5.13677 23.0894C5.07715 22.9781 5.04223 22.8572 5.03402 22.7335V4.08978C5.04223 3.96612 5.07715 3.84516 5.13677 3.73383C5.19638 3.62251 5.27953 3.52301 5.38143 3.44104C5.48333 3.35908 5.60198 3.29626 5.73058 3.2562C5.85917 3.21614 5.99518 3.19962 6.1308 3.20759H19.034C18.8694 2.89848 18.6751 2.60326 18.4534 2.32539H5.3566C5.07585 2.30859 4.79875 2.39078 4.58261 2.55498C4.36647 2.71918 4.22781 2.95282 4.19531 3.20759V23.6157C4.22781 23.8705 4.36647 24.1041 4.58261 24.2683C4.79875 24.4325 5.07585 24.5147 5.3566 24.4979H22.905C23.0406 24.5059 23.1766 24.4893 23.3052 24.4493C23.4338 24.4092 23.5525 24.3464 23.6544 24.2644C23.7563 24.1825 23.8394 24.083 23.899 23.9716C23.9586 23.8603 23.9936 23.7394 24.0018 23.6157V6.03061L23.8727 5.9718Z" fill="#919191"/>
<path d="M19.6137 9.26465H7.42011C7.31322 9.26465 7.22656 9.34364 7.22656 9.44109V9.47638C7.22656 9.57382 7.31322 9.65281 7.42011 9.65281H19.6137C19.7206 9.65281 19.8072 9.57382 19.8072 9.47638V9.44109C19.8072 9.34364 19.7206 9.26465 19.6137 9.26465Z" fill="#919191"/>
<path d="M19.6137 12.0879H7.42011C7.31322 12.0879 7.22656 12.1669 7.22656 12.2643V12.2996C7.22656 12.3971 7.31322 12.4761 7.42011 12.4761H19.6137C19.7206 12.4761 19.8072 12.3971 19.8072 12.2996V12.2643C19.8072 12.1669 19.7206 12.0879 19.6137 12.0879Z" fill="#919191"/>
<path d="M19.6137 14.9697H7.42011C7.31322 14.9697 7.22656 15.0487 7.22656 15.1462V15.1815C7.22656 15.2789 7.31322 15.3579 7.42011 15.3579H19.6137C19.7206 15.3579 19.8072 15.2789 19.8072 15.1815V15.1462C19.8072 15.0487 19.7206 14.9697 19.6137 14.9697Z" fill="#919191"/>
<path d="M19.6137 17.793H7.42011C7.31322 17.793 7.22656 17.872 7.22656 17.9694V18.0047C7.22656 18.1021 7.31322 18.1811 7.42011 18.1811H19.6137C19.7206 18.1811 19.8072 18.1021 19.8072 18.0047V17.9694C19.8072 17.872 19.7206 17.793 19.6137 17.793Z" fill="#919191"/>
<path d="M19.6137 20.6152H7.42011C7.31322 20.6152 7.22656 20.6942 7.22656 20.7917V20.827C7.22656 20.9244 7.31322 21.0034 7.42011 21.0034H19.6137C19.7206 21.0034 19.8072 20.9244 19.8072 20.827V20.7917C19.8072 20.6942 19.7206 20.6152 19.6137 20.6152Z" fill="#919191"/>
<path d="M11.5483 5.79492V6.08899H11.0966V8.50032H10.645V6.08899H10.1289V5.79492H11.5483Z" fill="#919191"/>
<path d="M13.937 8.50032H12.9047C12.6467 8.50032 12.4531 8.38269 12.4531 8.14744V7.67694C12.4531 7.55931 12.5176 7.5005 12.5176 7.44169L12.7757 7.26525L12.9047 7.14762L12.7112 6.97118V6.79474C12.6599 6.72573 12.637 6.64239 12.6467 6.55949V6.1478C12.6467 5.91255 12.7757 5.79492 13.0983 5.79492H13.5499C13.8725 5.79492 14.0015 5.91255 14.0015 6.1478V6.55949C14.0015 6.73593 14.0015 6.85356 13.937 6.91237C13.8607 7.0209 13.7473 7.10355 13.6144 7.14762H13.5499L14.066 7.79456V7.44169H14.4531V8.08863H14.3886L14.8402 8.55913H14.3241L14.1951 8.38269L13.937 8.50032ZM13.0338 8.20625H13.8725L13.1628 7.44169H12.9047V7.971H13.0338V8.20625ZM13.0338 6.20661V6.6183C13.0682 6.74774 13.1344 6.86838 13.2273 6.97118L13.4854 6.85356V6.08899H13.0338V6.20661Z" fill="#919191"/>
<path d="M16.8373 6.6183H16.3857V6.20661C16.3857 6.1478 16.3857 6.1478 16.3212 6.08899H15.8696V8.20625H16.3212C16.3857 8.14744 16.3857 8.14744 16.3857 8.08863V7.67694H16.8373V8.14744C16.8373 8.38269 16.6438 8.50032 16.3857 8.50032H15.8696C15.547 8.50032 15.418 8.38269 15.418 8.14744V6.1478C15.418 5.91255 15.547 5.79492 15.8696 5.79492H16.3857C16.6438 5.79492 16.8373 5.91255 16.8373 6.1478V6.6183Z" fill="#919191"/>
<path d="M21.1641 9.73535H22.1963V15.9695H21.2286L21.1641 9.73535Z" fill="#919191"/>
<path d="M21.2305 16.0293H22.2627L22.0692 17.4996H21.424L21.2305 16.0293Z" fill="#919191"/>
<path d="M21.5508 17.499H21.9379L21.8088 18.3812L21.5508 17.499Z" fill="#919191"/>
<path d="M21.8754 8.50053C21.7463 8.3829 21.6173 8.44172 21.4883 8.50053V9.67679H21.8754V8.50053Z" fill="#919191"/>
<path d="M22.5195 9.73535H22.7131V12.1467H22.5195V9.73535Z" fill="#919191"/>
<path d="M22.5178 11.6172V12.0877L22.3242 11.8524L22.5178 11.6172Z" fill="#919191"/>
<path d="M22.5198 9.9706V9.73535H22.2617V9.9706H22.5198Z" fill="#919191"/>
<path d="M21.1641 9.73535H22.1963V15.9695H21.2286L21.1641 9.73535Z" fill="#919191"/>
<path d="M21.2305 16.0293H22.2627L22.0692 17.4996H21.424L21.2305 16.0293Z" fill="#919191"/>
<path d="M21.5508 17.499H21.9379L21.8088 18.3812L21.5508 17.499Z" fill="#919191"/>
<path d="M21.8754 8.50053C21.7463 8.3829 21.6173 8.44172 21.4883 8.50053V9.67679H21.8754V8.50053Z" fill="#919191"/>
<path d="M22.5195 9.73535H22.7131V12.1467H22.5195V9.73535Z" fill="#919191"/>
<path d="M22.5178 11.6172V12.0877L22.3242 11.8524L22.5178 11.6172Z" fill="#919191"/>
<path d="M22.5198 9.9706V9.73535H22.2617V9.9706H22.5198Z" fill="#919191"/>
<path d="M24.0035 6.03041V5.91279C22.6487 4.91297 18.5842 2.3252 18.5842 2.3252H18.3906C19.0358 2.91333 19.8745 4.79534 20.1326 5.9716C20.3906 7.14786 23.0358 5.55991 23.939 5.9716L24.0035 6.03041Z" fill="#919191"/>
</svg>
