<svg width="24" height="25" viewBox="0 0 24 25" fill="none" xmlns="http://www.w3.org/2000/svg">
<path d="M21.2069 20.4023C21.1584 20.3559 21.1198 20.3001 21.0934 20.2383C21.067 20.1765 21.0534 20.1101 21.0534 20.0429C21.0534 19.9757 21.067 19.9092 21.0934 19.8475C21.1198 19.7857 21.1584 19.7299 21.2069 19.6834C21.5336 19.2437 21.8293 18.7817 22.0917 18.3008C22.2023 18.0796 22.2576 17.8031 21.9811 17.6372C21.7046 17.4713 21.5387 17.6925 21.3728 17.9137L20.7645 18.9645C20.4879 19.3516 20.4879 19.3516 20.2114 18.9645C16.8932 14.2085 13.6304 9.39712 10.091 4.7517C9.95479 4.62122 9.87535 4.44247 9.86974 4.25397C9.7839 3.56478 9.47284 2.92323 8.98489 2.42899C8.81899 2.20777 8.87429 2.15247 9.0955 2.09717C10.7278 1.69289 12.4319 1.67396 14.0728 2.04187C14.2511 2.08108 14.4199 2.15522 14.5694 2.26001C14.7189 2.36481 14.8462 2.49818 14.9439 2.65243C15.0416 2.80668 15.1078 2.97876 15.1386 3.15872C15.1694 3.33869 15.1643 3.52297 15.1235 3.70095C15.0411 4.09604 14.8495 4.46009 14.5705 4.7517C14.1585 5.16359 13.8642 5.6783 13.7183 6.24235C13.5725 6.80641 13.5803 7.39924 13.741 7.95925C13.8881 8.55549 14.1927 9.10127 14.6228 9.53956C15.053 9.97784 15.593 10.2925 16.1864 10.4508C16.7798 10.609 17.4048 10.605 17.9961 10.4391C18.5874 10.2732 19.1233 9.95154 19.5478 9.50772C19.7484 9.2748 20.0098 9.10219 20.3029 9.00918C20.5959 8.91616 20.909 8.90639 21.2072 8.98095C21.5055 9.05551 21.7771 9.21147 21.9919 9.43144C22.2067 9.6514 22.3561 9.92672 22.4235 10.2267C22.5512 10.7524 22.6253 11.2898 22.6448 11.8304C22.7655 13.3638 22.5774 14.9058 22.0917 16.3653C22.0632 16.4117 22.0449 16.4637 22.0378 16.5177C22.0308 16.5718 22.0353 16.6267 22.0509 16.6789C22.0666 16.7311 22.0931 16.7794 22.1287 16.8207C22.1643 16.8619 22.2083 16.8952 22.2576 16.9183C22.3113 16.945 22.3705 16.9588 22.4304 16.9587C22.4903 16.9587 22.5495 16.9447 22.6031 16.9179C22.6567 16.8911 22.7034 16.8522 22.7394 16.8043C22.7754 16.7563 22.7998 16.7007 22.8107 16.6418L22.9213 16.3653C23.2935 15.183 23.4983 13.9544 23.5296 12.7153C23.528 11.8566 23.4165 11.0017 23.1978 10.1714C23.0895 9.59722 22.7985 9.07347 22.3682 8.67819C21.9121 8.27063 21.3136 8.05946 20.7027 8.09052C20.0918 8.12158 19.5178 8.39237 19.1054 8.84409C18.7695 9.22891 18.3317 9.51097 17.8424 9.65774C17.3532 9.80451 16.8324 9.81002 16.3402 9.67363C15.8957 9.54785 15.4917 9.30824 15.1681 8.97847C14.8446 8.64871 14.6127 8.24021 14.4954 7.79336C14.3781 7.34652 14.3794 6.8768 14.4993 6.43064C14.6192 5.98447 14.8534 5.57732 15.1788 5.24942C15.5299 4.95522 15.786 4.56382 15.9152 4.12443C16.0444 3.68503 16.0408 3.21725 15.9049 2.7799C15.7689 2.34254 15.5067 1.95513 15.1512 1.66638C14.7957 1.37763 14.3628 1.20041 13.9069 1.15702C12.0845 0.833441 10.2124 0.92799 8.43186 1.43354C7.54701 1.71005 7.54701 1.71005 6.99398 0.935813C6.99049 0.893196 6.97068 0.853572 6.93868 0.825208C6.60686 0.382787 6.27504 0.382787 5.99853 0.880511C5.84137 1.28702 5.82194 1.73386 5.94323 2.15247C5.99853 2.42899 5.88792 2.53959 5.66671 2.7055C4.59434 3.32659 3.63963 4.13153 2.84625 5.08351C1.74021 6.33826 0.924038 7.82116 0.455698 9.42688C-0.0126416 11.0326 -0.121655 12.7218 0.136402 14.3744C0.455086 17.0825 1.75331 19.5806 3.78641 21.3978C5.04855 22.5739 6.55796 23.4525 8.20392 23.9693C9.84989 24.486 11.5907 24.6278 13.2985 24.3841C15.5492 24.1004 17.6656 23.1576 19.3819 21.6743C19.6031 21.4531 19.7137 21.4531 19.8796 21.7296L21.3728 23.7205C21.5602 24.0129 21.8294 24.2437 22.147 24.3841C22.2673 24.4503 22.404 24.4806 22.541 24.4715C22.6779 24.4625 22.8094 24.4144 22.9199 24.333C23.0305 24.2515 23.1153 24.1402 23.1646 24.0121C23.2138 23.8839 23.2253 23.7444 23.1978 23.6099C23.1554 23.3107 23.0416 23.0262 22.866 22.7804L21.2069 20.4023ZM9.26141 5.13882C9.37202 5.13882 9.42732 5.24942 9.53793 5.30472L11.4182 7.90395C11.4528 7.92308 11.4816 7.95112 11.5017 7.98516C11.5218 8.0192 11.5323 8.05799 11.5323 8.09751C11.5323 8.13702 11.5218 8.17582 11.5017 8.20986C11.4816 8.2439 11.4528 8.27194 11.4182 8.29107C11.197 8.40167 11.1417 8.23576 11.0864 8.12516L9.26141 5.52593C9.20611 5.41533 9.0402 5.24942 9.26141 5.13882ZM8.10005 2.8161C8.34626 2.93172 8.55767 3.11016 8.71301 3.33345C8.86834 3.55674 8.96212 3.81701 8.98489 4.08806C9.0955 4.41988 8.76368 4.41988 8.65308 4.58579C8.54247 4.7517 8.26595 4.64109 8.10005 4.53049C7.38777 3.8758 6.91966 2.99809 6.77277 2.04187C7.17486 2.3636 7.62207 2.62447 8.10005 2.8161ZM4.89247 6.18957C5.19752 6.19674 5.49817 6.26395 5.77723 6.38736C6.0563 6.51077 6.30832 6.68795 6.51888 6.90879C6.72945 7.12963 6.89444 7.38979 7.00443 7.67441C7.11442 7.95903 7.16724 8.26254 7.15989 8.56758C7.13202 9.16946 6.87671 9.73832 6.44555 10.1592C6.0144 10.5801 5.43955 10.8216 4.83716 10.835C4.23528 10.8071 3.66642 10.5518 3.24553 10.1207C2.82464 9.6895 2.5831 9.11465 2.56974 8.51228C2.5838 7.90068 2.83303 7.31802 3.26562 6.88544C3.6982 6.45286 4.28086 6.20363 4.89247 6.18957ZM1.74019 14.0425C1.73982 13.7425 1.80048 13.4455 1.91851 13.1697C2.03653 12.8938 2.20944 12.6448 2.42671 12.4379C2.64399 12.231 2.90109 12.0704 3.18237 11.966C3.46366 11.8616 3.76325 11.8154 4.06292 11.8304C4.66428 11.8304 5.24101 12.0693 5.66623 12.4945C6.09146 12.9198 6.33035 13.4965 6.33035 14.0978C6.33833 14.4098 6.28186 14.72 6.16444 15.0091C6.04703 15.2982 5.87122 15.5599 5.648 15.7779C5.42479 15.996 5.15898 16.1656 4.8672 16.2761C4.57542 16.3867 4.26396 16.4359 3.95231 16.4206C3.34597 16.3918 2.77497 16.1269 2.36153 15.6825C1.94808 15.238 1.72506 14.6494 1.74019 14.0425ZM6.99398 21.2319C6.38742 21.2321 5.80485 20.995 5.37081 20.5712C4.93677 20.1475 4.6857 19.5709 4.67125 18.9645C4.67116 18.662 4.73159 18.3626 4.84899 18.0838C4.96638 17.805 5.13836 17.5526 5.3548 17.3413C5.57124 17.13 5.82777 16.9642 6.10928 16.8535C6.3908 16.7429 6.6916 16.6897 6.99398 16.6971C7.29637 16.6897 7.59717 16.7429 7.87868 16.8535C8.1602 16.9642 8.41673 17.13 8.63317 17.3413C8.84961 17.5526 9.02159 17.805 9.13898 18.0838C9.25637 18.3626 9.3168 18.662 9.31671 18.9645C9.3168 19.267 9.25637 19.5664 9.13898 19.8451C9.02159 20.1239 8.84961 20.3764 8.63317 20.5877C8.41673 20.7989 8.1602 20.9648 7.87868 21.0754C7.59717 21.1861 7.29637 21.2393 6.99398 21.2319ZM12.469 22.9463C11.853 22.9463 11.2622 22.7016 10.8266 22.266C10.391 21.8304 10.1463 21.2396 10.1463 20.6236C10.1596 20.0212 10.4012 19.4463 10.822 19.0152C11.2429 18.584 11.8118 18.3287 12.4137 18.3008C13.0349 18.3007 13.6315 18.5436 14.076 18.9777C14.5204 19.4118 14.7773 20.0025 14.7917 20.6236C14.7647 21.2309 14.5113 21.8061 14.0814 22.236C13.6515 22.6658 13.0763 22.9192 12.469 22.9463ZM21.8152 23.0016C18.5523 18.4668 15.1788 13.9872 11.9713 9.39712C11.8692 9.33169 11.7915 9.23453 11.75 9.12061C11.75 9.01 11.8607 8.9547 11.916 8.8994C11.9713 8.84409 12.1925 8.9547 12.3031 9.0653L13.9622 11.388C16.672 15.3145 19.3819 19.241 22.147 23.1122L22.3682 23.5546C22.0917 23.444 21.9811 23.2228 21.8152 23.0016Z" fill="#919191"/>
</svg>
