<svg width="24" height="25" viewBox="0 0 24 25" fill="none" xmlns="http://www.w3.org/2000/svg">
<path fill-rule="evenodd" clip-rule="evenodd" d="M23.5 20.4999C23.5 21.8809 22.381 22.9999 21 22.9999H3C1.619 22.9999 0.5 21.8809 0.5 20.4999V5.99992C0.5 4.89542 1.3955 3.99992 2.5 3.99992H12.5855L16.635 2.53292C16.8915 2.43942 17.1755 2.57192 17.269 2.82742L17.6955 3.99992H19.5C20.6045 3.99992 21.5 4.89542 21.5 5.99992V6.99992C22.6045 6.99992 23.5 7.89542 23.5 8.99992V20.4999ZM2.5 4.99992C1.948 4.99992 1.5 5.44792 1.5 5.99992C1.5 6.55192 1.948 6.99992 2.5 6.99992H4.2225H4.317C4.3235 6.99742 4.3275 6.99192 4.334 6.98942L9.825 4.99992H2.5ZM17.039 5.09042L16.508 3.62842L15.482 3.99992H15.4835L12.7265 4.99992H12.7215L7.202 6.99992H17.733L17.039 5.09042ZM20.5 5.99992C20.5 5.44792 20.052 4.99992 19.5 4.99992H18.0585L18.7855 6.99992H20.5V5.99992ZM21.5 7.99992H2.5C2.134 7.99992 1.795 7.89442 1.5 7.72242V20.4999C1.5 21.3284 2.172 21.9999 3 21.9999H21C21.8285 21.9999 22.5 21.3284 22.5 20.4999V16.9999H20.5C19.3955 16.9999 18.5 16.1044 18.5 14.9999C18.5 13.8954 19.3955 12.9999 20.5 12.9999H22.5V8.99992C22.5 8.44792 22.052 7.99992 21.5 7.99992ZM22.5 15.9999V13.9999H20.5C19.948 13.9999 19.5 14.4479 19.5 14.9999C19.5 15.5519 19.948 15.9999 20.5 15.9999H22.5ZM20.5 14.4999H21.5V15.4999H20.5V14.4999Z" fill="#919191"/>
</svg>
