<svg xmlns="http://www.w3.org/2000/svg" width="32" height="32" fill="none">
  <path fill="#DD0B0B" d="M16 32a16 16 0 1 0 0-32 16 16 0 0 0 0 32Z" />
  <path fill="#fff" d="M24.5 12.7a3.2 3.2 0 1 1-6.1 1.7c.1-.2 1.3-2.1 3.5-2.3 1.3 0 2.2.4 2.6.6Z" />
  <path fill="#000" d="M21.3 15a1.2 1.2 0 1 0 0-2.4 1.2 1.2 0 0 0 0 2.4Z" />
  <path fill="#000"
    d="M17.4 11.6a5.5 5.5 0 0 0 .7 2.2 30 30 0 0 0 9.5-5 23.9 23.9 0 0 1-10.2 2.8Z" />
  <path fill="#fff" d="M7.5 12.7a3.2 3.2 0 1 0 6.1 1.7 4.9 4.9 0 0 0-3.5-2.3c-1.3 0-2.2.4-2.6.6Z" />
  <path fill="#000" d="M10.7 15a1.2 1.2 0 1 0 0-2.4 1.2 1.2 0 0 0 0 2.4Z" />
  <path fill="#000"
    d="M14.6 11.6a5.5 5.5 0 0 1-.7 2.2 30 30 0 0 1-9.5-5 23.9 23.9 0 0 0 10.2 2.8ZM22.8 25.1c-.1-.2-2.8-4-7.4-3.7-3.8.2-6 3.1-6.2 3.5 1-2.6 3.5-4.4 6.2-4.6a7.5 7.5 0 0 1 7.4 4.8Z" />
</svg>