<svg xmlns="http://www.w3.org/2000/svg" width="33" height="33" fill="none"><path fill="#FCCC44" d="M5.7 14.7s-1.5-1.2-2.1-.4c-.6.7-.3 1.9 0 2.5.6 1 4 5.4 7.5 7 1 .4 5 1.3 6.2 5.1.3.8 2 2.3 6-2 4.6-6.5-.3-4.9-.7-7-.4-2 .7-4.2-1.7-7.1-2.3-2.9-2.7-3.2-3.1-4 0 0-.5-1-1.1-.8-.7.2-1.6 1.8-1 3l-5.4-5.5s-1.4-1-2.2 0C6.9 7 8 8.3 8 8.3S6.8 6 5.4 7.5c-.3.3-1 1.4.2 2.6 0 0-1-.4-1.7.5-.4.6-.4 2.4 2 4.1Z"/><path fill="#DF9A17" d="M12.3 16.5c.2-.3-.5-1.1-1-1.5-1.7-2.1-3.7-3.9-5.6-6-.3-.3-.4-1.1-.2-1.7l-.2.2c-.3.3-1 1.4.2 2.6 1.7 2 3.7 3.6 5.4 5.5l1.4 1Z"/><path fill="#FCCC44" d="M8.2 8.3Z"/><path fill="#DF9A17" d="M8 8ZM8.1 8.2 8 8.2l.1.1Z"/><path fill="#DF9A17" d="m8 8 .2.3.3.3c1.7 2 2.4 2.2 4.1 4.1.4.4 1.3 1 1.4.9.1-.3-.6-1.1-1-1.5-1.8-2.1-2.7-2.8-4.6-4.9C8.1 7 8 6 8.2 5.3l-.2.2a2 2 0 0 0 0 2.6Z"/><path fill="#FCCC44" d="m17.3 29 .1.2V29Z"/><path fill="#DF9A17" d="m22.7 27.5-.4.1c-2 0-3.5-1.3-5-2.5-.4-.4-1-.4-1.4-.6-3.5-1.1-4.5-.5-8-3.5l-1.5-1.7-2.2-2.7c-.3-.4-.8-1.3-.4-2 .3-.5 1.4 0 1.8.4l1 1L9 18.8c.3.2 1.1.8 1.3.7.1-.2-.8-1.5-1.2-1.9-1-1.2-1.3-1.4-2.4-2.5-.9-1-3-2.9-2.9-4.5v.1c-.5.6-.5 2.4 1.8 4v.1c-.2-.1-1.6-1.1-2.1-.4-.6.7-.5 2-.2 2.6A26 26 0 0 0 13 25c1 .5 2.5.5 4.3 3.8v.1l.2.2c.4.7 2 1.6 5.2-1.7Z"/><path fill="#FCCC44" d="M8.2 8.3 8 8l.2.2Z"/><path fill="#DF9A17" d="M22.6 20c-.4-2 .7-4.3-1.7-7.2-2.3-2.9-2.7-3.2-3.1-4 0 0-.5-1-1.1-.8-.7.2-1.7 1.8-.7 3.4.8 1.2.9 1.1 2.2 2.6.3.3.7.6.9.2 0-.2-.3-.4-.6-.7l-.5-.6c-.9-.9-1.9-1.6-2-3 0-.3.3-1.3.7-1.5.4-.2.8.4.9.7.5 1.3 1.5 2 2.2 3 1.4 2.2 2.3 3.9 2.2 7.3 0 .5-.4 1.3.1 1.5.9.5 2.2 1.5 3.1 2.3.4-2.2-2.3-1.7-2.6-3.2Z"/><path fill="#FCCC44" d="M9 14.5S7.5 13.3 7 14c-.6.8-.3 2 0 2.5.6 1 4 5.5 7.4 7.1 1 .5 5.1 1.4 6.2 5.3.3.8 2 2.3 6-2 4.7-6.5-.2-4.9-.6-7-.4-2 .7-4.3-1.7-7.2-2.3-2.9-2.6-3.2-3-4 0 0-.5-1-1.1-.8-.7.2-1.6 1.8-1 3l-5.4-5.5s-1.4-1.2-2.2-.1c-1.2 1.5 0 2.8 0 2.8s-1.4-2.2-2.8-.8c-.4.3-1 1.4.1 2.6 0 0-.9-.4-1.6.5-.5.6-.5 2.4 1.8 4Z"/><path fill="#DF9A17" d="M15.6 16.4c.2-.3-.5-1.2-1-1.6-1.7-2.1-3.7-3.9-5.5-6-.4-.3-.4-1.2-.2-1.8l-.2.3c-.4.3-1 1.4.1 2.6 1.7 1.9 3.7 3.6 5.4 5.6.4.4 1.4 1 1.4.9Z"/><path fill="#FCCC44" d="M11.6 8Z"/><path fill="#DF9A17" d="M11.4 7.9ZM11.5 8l-.1-.1V8Z"/><path fill="#DF9A17" d="m11.4 7.9.1.2.4.3c1.7 2 2.3 2.2 4 4.2.4.4 1.3 1 1.4.9.2-.3-.6-1.2-1-1.6-1.7-2.1-2.6-2.8-4.5-4.8-.3-.4-.4-1.4-.2-2l-.1.2a2.1 2.1 0 0 0-.1 2.6Z"/><path fill="#FCCC44" d="m20.5 28.8.1.3V29l-.1-.2Z"/><path fill="#DF9A17" d="m26 27.4-.5.2c-2 0-3.5-1.4-5-2.6-.4-.4-1-.4-1.4-.6-3.5-1.2-4.5-.5-7.9-3.6L9.6 19l-2-2.7c-.4-.4-1-1.3-.5-2 .3-.5 1.4 0 1.8.4l1 1 2.5 2.7c.2.3 1 .9 1.2.7.2-.2-.8-1.5-1.1-1.9-1-1.2-1.4-1.4-2.4-2.5-.9-1-3-3-2.8-4.5h-.1c-.5.7-.5 2.5 1.8 4.2-.2-.2-1.6-1.2-2.1-.5-.6.8-.6 2-.2 2.6a26 26 0 0 0 9.5 8.4c1 .4 2.5.5 4.3 3.8v.2h.1c.5.9 2 1.7 5.3-1.6Z"/><path fill="#FCCC44" d="m11.6 8-.2-.1.2.2Z"/><path fill="#DF9A17" d="M25.9 20c-.4-2 .7-4.4-1.6-7.3-2.4-2.9-2.7-3.2-3.1-4 0 0-.5-1-1.1-.8-.7.2-1.8 1.8-.8 3.4.8 1.2.9 1.1 2.2 2.6.3.3.7.7.9.2l-.5-.7-.5-.6c-1-.9-2-1.6-2-3 0-.3.3-1.3.6-1.5.5-.2.8.4 1 .7.5 1.3 1.5 2 2.1 3.1 1.4 2.2 2.3 3.8 2.1 7.3 0 .5-.3 1.3.2 1.5a17 17 0 0 1 3 2.3C29 21 26.2 21.5 26 20Z"/></svg>