<svg xmlns="http://www.w3.org/2000/svg" width="33" height="33" fill="none"><path fill="url(#a)" d="M16 32.6a16 16 0 1 0 0-32 16 16 0 0 0 0 32Z"/><path fill="#000" d="M6.6 10.5c.7.5 1-.7 2.5-1.5 1.3-.6 2.3-.1 2.4-.7.2-.6-1.1-1-3-.2-1.5.6-2.7 1.8-1.9 2.4ZM25.6 10.5c-.7.5-1-.8-2.7-1.6-1.4-.6-2.5-.1-2.6-.7-.2-.7 1.2-1.2 3.3-.3 1.6.6 2.8 2 2 2.6Z"/><path fill="#fff" d="M13.9 12 6 15.2s.3 4.6 4.6 4.1c4.3-.4 3.2-7.5 3.2-7.5Z"/><path fill="#7ECDEC" d="M7 17.8s4.6 0 6.4-.8c0 0-2 5-6.4.8Z"/><path fill="#000" d="M10.1 19.6c-1 0-1.9-.3-2.6-.9A5.3 5.3 0 0 1 6 15.3a.2.2 0 0 1 .1-.1l7.8-3.4a.2.2 0 0 1 .2 0c0 .3.7 4.3-1 6.5-.6.7-1.3 1.2-2.3 1.3h-.6Zm-3.8-4.2c0 .4.3 2 1.5 3 .7.7 1.7 1 2.9.8a3 3 0 0 0 2-1.1c1.4-1.8 1.2-5.1 1-6l-7.4 3.3Z"/><path fill="#000" d="M11.7 18A1.4 1.4 0 1 1 9 18a1.4 1.4 0 0 1 2.7 0Z"/><path fill="#fff" d="M10.6 17.8a.6.6 0 1 1-1.2 0 .6.6 0 0 1 1.2 0ZM18.4 12l7.8 3.3s-.2 4.5-4.5 4.1c-4.3-.4-3.3-7.4-3.3-7.4Z"/><path fill="#7ECDEC" d="M18.5 16.6s4.7 1.6 6.8 1.3c0 0-3.7 4.4-6.8-1.3Z"/><path fill="#000" d="M22.2 19.6h-.5c-1-.1-1.8-.5-2.4-1.3-1.7-2.1-1.1-6.2-1-6.4a.2.2 0 0 1 .1 0l7.9 3.2a.2.2 0 0 1 0 .2s0 2.1-1.5 3.4c-.7.6-1.6.9-2.6.9Zm-3.7-7.4c0 .8-.3 4.1 1 6a3 3 0 0 0 2.2 1c1.2.2 2.2-.1 2.9-.8a5 5 0 0 0 1.4-3l-7.5-3.2Z"/><path fill="#000" d="M20.6 18a1.4 1.4 0 1 0 2.8 0 1.4 1.4 0 0 0-2.8 0Z"/><path fill="#fff" d="M21.7 17.8a.6.6 0 1 0 1.2 0 .6.6 0 0 0-1.2 0Z"/><path fill="#000" d="M9.2 24.7c.6 1 3-1.2 7-1.3 4.5-.1 6.4 3 7.3 2.3 1-.7-.3-3-3.2-4-2.9-.8-5.4-.7-7.9 0-2.2.6-4.1 1.5-3.2 3Z"/><path fill="#7ECDEC" d="M5.8 20.7c-.3.7-.6 1.3-.5 2 .1.5.4 1 .8 1.1.4.2.8 0 1-.2.3-.3.5-.7.5-1L7.5 21c0-1.2.5-2.4.5-2.4s-1.7 1-2.2 2.1Z"/><path fill="#fff" d="m6 22.1-.2.8v.7c0 .3.2.5.5.5a.4.4 0 0 0 .3-.3v-.7c-.2-.6 0-1.1.2-1.7v-.2c-.3-.3-.7.8-.7 1Z"/><path fill="#7ECDEC" d="m25.1 19 .1 2 .1.9c.1.3.3.6.6.6.3.1.6-.1.8-.5.1-.3.2-.8.1-1.2l-.1-.8a4 4 0 0 0-.9-1.6c-.2-.2-1-1.1-1.2-1l.5 1.6Z"/><path fill="#fff" d="M25.5 23a7.5 7.5 0 0 1 0 1.3c0 .2 0 .3.2.5 0 0 .3.1.4 0 .2 0 .3-.2.2-.3 0-.2-.2-.3-.3-.4l-.1-.5c0-.3 0-.6-.2-.9-.2-.4-.2 0-.2.3Z"/><path fill="red" d="M15 22.2s1-1.6 2.6 0c0 0-2.4-.3-2.7 0Z"/><defs><linearGradient id="a" x1="16.1" x2="16.1" y1=".6" y2="32.6" gradientUnits="userSpaceOnUse"><stop stop-color="#F3701F"/><stop offset=".5" stop-color="#FF0"/><stop offset=".6" stop-color="#FEF602"/><stop offset=".7" stop-color="#FCDD07"/><stop offset=".8" stop-color="#F9B410"/><stop offset=".9" stop-color="#F47C1D"/><stop offset="1" stop-color="#F15A24"/></linearGradient></defs></svg>