<svg xmlns="http://www.w3.org/2000/svg" width="33" height="33" fill="none"><path fill="url(#a)" d="M17 26.5c7 0 12.6-5.2 12.6-11.6C29.6 8.6 24 3.4 17 3.4S4.5 8.6 4.5 15c0 6.4 5.6 11.6 12.5 11.6Z"/><path fill="url(#b)" d="M26 21.8c2.8 0 5.1-3.4 5.1-7.6 0-4.2-2.3-7.6-5.2-7.6-2.8 0-5.1 3.4-5.1 7.6 0 4.2 2.3 7.6 5.1 7.6Z" opacity=".4" style="mix-blend-mode:screen"/><path fill="url(#c)" d="M15.7 14a6.2 6.2 0 0 0 0-9.3 7.7 7.7 0 0 0-10.2 0 6.2 6.2 0 0 0 0 9.3 7.7 7.7 0 0 0 10.2 0Z" opacity=".4" style="mix-blend-mode:screen"/><path fill="url(#d)" d="M20.8 32c5.6 0 10.2-4.2 10.2-9.3 0-5.1-4.6-9.3-10.2-9.3s-10.2 4.2-10.2 9.3c0 5.1 4.6 9.3 10.2 9.3Z" opacity=".4" style="mix-blend-mode:multiply"/><path fill="#000" d="M24.6 8.6c-.3.6-1.3.1-3.2.8-1.6.5-2.2 1.4-2.7 1.2-.5-.3.4-1.3 2.8-2.2 1.7-.6 3.5-.6 3.1.2ZM9.8 8.7c.4.7 1.3.2 3.2.7 1.6.5 2.3 1.4 2.8 1.2.4-.2-.5-1.3-2.8-2-1.8-.7-3.6-.7-3.2 0Z"/><path fill="#fff" d="M24.8 13.5c.3-1.3-.7-2.5-2.1-2.8-1.4-.2-2.8.7-3 2-.2 1.3.7 2.5 2.2 2.7 1.4.2 2.7-.6 3-2Z"/><path fill="#EFEFEF" d="M23.8 11.2a2.2 2.2 0 0 1-.4 3c-.4.4-1 .6-1.6.6-.6 0-1.2 0-1.7-.4l.8.7a2.8 2.8 0 0 0 3.2-.3c.2-.2.5-.5.6-.8a2.2 2.2 0 0 0-.1-2c-.2-.4-.5-.6-.8-.8Z"/><path fill="#000" d="M22.3 15.6c-.6 0-1-.2-1.5-.4-.5-.3-.8-.7-1-1.2-.2-.4-.3-1-.2-1.4.1-.5.4-1 .8-1.3a3 3 0 0 1 3-.5c.4.2.8.5 1.1 1a2.3 2.3 0 0 1-.3 3c-.5.5-1.2.8-2 .8Zm0-4.8c-.5 0-1 .2-1.4.4l-1 1a2 2 0 0 0 0 1.3c0 .5.3.9.6 1.2.4.3.8.5 1.3.6.5.1 1 0 1.4-.1.5-.2.9-.5 1.1-.8a2.1 2.1 0 0 0-.3-3c-.4-.3-1-.6-1.7-.6Z"/><path fill="#000" d="M23.6 14.2c0 .2 0 .4-.2.5a1 1 0 0 1-.4.4 1 1 0 0 1-1.1-.2.9.9 0 0 1-.3-.5V14l.4-.4a1 1 0 0 1 1.3 0l.2.4v.3Z"/><path fill="#fff" d="M22.7 14v.3l-.2.1a.4.4 0 0 1-.5 0v-.5l.1-.1a.4.4 0 0 1 .5 0l.1.1v.2ZM12.2 15.4c1.4-.2 2.4-1.5 2.2-2.8-.3-1.3-1.6-2.1-3-2-1.4.3-2.4 1.5-2.2 2.8.3 1.3 1.6 2.2 3 2Z"/><path fill="#EFEFEF" d="M13.3 11.1a2.2 2.2 0 0 1-.4 3c-.4.4-1 .6-1.6.7-.6 0-1.2-.2-1.7-.5l.8.7a2.8 2.8 0 0 0 2.2.3c.4-.1.7-.3 1-.6.3-.2.5-.5.6-.8a2.2 2.2 0 0 0-.1-2l-.8-.8Z"/><path fill="#000" d="M11.8 15.5c-.5 0-1-.1-1.5-.4-.5-.3-.8-.7-1-1.1-.2-.5-.3-1-.2-1.5.1-.5.4-.9.8-1.2.3-.4.8-.6 1.4-.7.5-.1 1 0 1.5.1.5.2 1 .5 1.2 1a2.3 2.3 0 0 1-.3 3c-.5.5-1.2.8-2 .8Zm0-4.8c-.5 0-1 .2-1.4.4-.4.3-.7.6-.9 1a2 2 0 0 0-.1 1.4c0 .4.3.8.6 1.1.4.3.8.6 1.3.6h1.4c.5-.3.9-.6 1.2-1 .2-.3.4-.7.4-1.2 0-.6-.3-1.2-.8-1.6-.4-.4-1-.7-1.7-.7Z"/><path fill="#000" d="M12.8 14.2c0 .2 0 .4-.2.5a1 1 0 0 1-.4.4 1 1 0 0 1-1.1-.2.9.9 0 0 1-.3-.5v-.5l.4-.4a1 1 0 0 1 1.3 0l.2.4v.3Z"/><path fill="#fff" d="m12 14-.1.3-.2.1a.4.4 0 0 1-.4 0L11 14V14l.2-.2a.4.4 0 0 1 .5 0l.1.2v.2Z"/><path fill="#000" d="m11.2 21.4-.2-.1V21c0-.1.7-1.1 1.8-2.2 1-1 2.6-2.1 4.5-2.4 3.1-.5 4.5.8 4.5 1v.2a.3.3 0 0 1-.4 0s-.3-.3-1-.5a6 6 0 0 0-3-.3 8.3 8.3 0 0 0-4.2 2.3 11.1 11.1 0 0 0-1.8 2.1h-.2Zm.3-.2Zm0 0ZM21.9 16.8a1.8 1.8 0 0 1 .1 1.7l.1.1h.1a2 2 0 0 0-.2-1.9H22ZM10.5 20.4a1.7 1.7 0 0 0 0 1.5h.1v-.1a1.6 1.6 0 0 1 0-1.4h-.1ZM15.6 8.7c.2 0 .3.2.3.3l.3.5c.2.3.2.7.1 1 0 .2-.1.3-.3.5h.1c.3-.2.5-.5.4-.9 0-.4-.2-.8-.4-1.2l-.5-.4v.1ZM18.5 11.2a1 1 0 0 1-.6-.6c-.2-.3-.1-.7 0-1L18 9H18c-.2.3-.4.7-.4 1.1 0 .3.1.7.4 1l.5.2s.1-.1 0-.1Z"/><path fill="url(#e)" d="M23.9 26v.5c0 .6.2 1.1.5 1.6.5.5 1 .7 1.8.4.2-.1.3-.3.3-.5l-.1-.8-.2-1 .5-2c0-.2.2-.4.3-.5.1-.2.2-.3 0-.5l-1.9-3.4-.5-.2-1.2.3a9 9 0 0 0-3.3 1c-.8.5-1 1.2-.6 2v.2c0 .4 0 .7.3 1l.1.2c0 .4.1.7.4 1l.1.4c0 .4.1.8.6 1 .4.4.9.4 1.3.1l1.6-.7Zm5-5.8-1-1.7c-.2-.3-.4-.3-.7-.2l-1.5.8c-.3.1-.4.3-.2.6l1.9 3.3c.2.3.4.3.7.2l1.5-.8c.3-.1.4-.3.2-.6l-1-1.6Z"/><path fill="url(#f)" d="m23.9 26-1.6.8c-.4.3-.9.3-1.3 0-.5-.3-.6-.7-.6-1.2l-.1-.3c-.3-.3-.4-.6-.4-1v-.2c-.3-.3-.4-.6-.4-1v-.3c-.4-.7-.2-1.4.6-1.9a9 9 0 0 1 3.3-1l1.2-.3c.2 0 .4 0 .5.2l2 3.4-.1.5-.3.4-.5 2.1.2 1 .1.8c0 .2-.1.4-.3.5-.8.3-1.3.1-1.8-.4-.3-.5-.5-1-.5-1.6V26Z"/><path fill="url(#g)" d="m28.9 20.2 1 1.6c0 .3 0 .5-.3.6l-1.5.8c-.3.1-.5 0-.7-.2l-1.9-3.3c-.2-.3 0-.5.2-.6l1.5-.8c.3-.1.5 0 .7.2l1 1.7Z"/><path fill="url(#h)" d="M11.7 26.8c.5.3 1 .3 1.4 0 .4-.3.6-.7.6-1.1l.1-.4c.3-.3.4-.6.4-1v-.2c.3-.3.4-.6.3-1v-.3c.5-.7.3-1.4-.5-1.9a9 9 0 0 0-3.4-1c-.4 0-.7-.2-1.1-.3-.2 0-.4 0-.5.2l-2 3.4v.5l.4.4.5 2.1-.2 1-.1.8c0 .2 0 .4.3.5.7.3 1.2.1 1.7-.4.4-.5.6-1 .6-1.6V26l1.5.7Zm-7.4-5c-.2.3-.1.5.2.6l1.5.8c.3.1.5 0 .7-.2l1.9-3.3c.1-.3 0-.5-.3-.6L7 18.3c-.4-.1-.6 0-.7.2a521.4 521.4 0 0 0-2 3.3Z"/><path fill="url(#i)" d="m10.2 26 1.5.8c.5.3 1 .3 1.4 0 .4-.3.6-.7.6-1.2v-.3c.4-.3.5-.6.5-1v-.2c.3-.3.4-.6.3-1v-.3c.5-.7.3-1.4-.5-1.9a9 9 0 0 0-3.4-1c-.4 0-.7-.2-1.1-.3-.2 0-.4 0-.5.2l-2 3.4v.5l.4.4.4 2.1-.1 1-.1.8c0 .2 0 .4.3.5.7.3 1.2.1 1.7-.4.4-.5.6-1 .5-1.6V26Z"/><path fill="url(#j)" d="M6.2 18.5c.1-.3.3-.3.7-.2l1.4.8c.4.1.4.3.3.6l-2 3.3c-.1.3-.3.3-.6.2l-1.5-.8c-.3-.1-.4-.3-.2-.6a453.6 453.6 0 0 1 1.9-3.3Z"/><defs><linearGradient id="a" x1="17" x2="17" y1="3.4" y2="26.5" gradientUnits="userSpaceOnUse"><stop stop-color="#F3701F"/><stop offset=".5" stop-color="#FF0"/><stop offset=".6" stop-color="#FEF602"/><stop offset=".7" stop-color="#FCDD07"/><stop offset=".8" stop-color="#F9B410"/><stop offset=".9" stop-color="#F47C1D"/><stop offset="1" stop-color="#F15A24"/></linearGradient><linearGradient id="e" x1="27.4" x2="23.3" y1="27.9" y2="19.4" gradientUnits="userSpaceOnUse"><stop stop-color="#FF0"/><stop offset=".1" stop-color="#FEF602"/><stop offset=".3" stop-color="#FCDD07"/><stop offset=".6" stop-color="#F9B410"/><stop offset=".8" stop-color="#F47C1D"/><stop offset="1" stop-color="#F15A24"/></linearGradient><linearGradient id="f" x1="26" x2="21.9" y1="28.6" y2="20.1" gradientUnits="userSpaceOnUse"><stop stop-color="#FF0"/><stop offset=".1" stop-color="#FEF602"/><stop offset=".3" stop-color="#FCDD07"/><stop offset=".6" stop-color="#F9B410"/><stop offset=".8" stop-color="#F47C1D"/><stop offset="1" stop-color="#F15A24"/></linearGradient><linearGradient id="g" x1="28.9" x2="26.8" y1="22.8" y2="18.6" gradientUnits="userSpaceOnUse"><stop stop-color="#FF0"/><stop offset=".1" stop-color="#FEF602"/><stop offset=".3" stop-color="#FCDD07"/><stop offset=".6" stop-color="#F9B410"/><stop offset=".8" stop-color="#F47C1D"/><stop offset="1" stop-color="#F15A24"/></linearGradient><linearGradient id="h" x1="6.7" x2="10.8" y1="27.9" y2="19.4" gradientUnits="userSpaceOnUse"><stop stop-color="#FF0"/><stop offset=".1" stop-color="#FEF602"/><stop offset=".3" stop-color="#FCDD07"/><stop offset=".6" stop-color="#F9B410"/><stop offset=".8" stop-color="#F47C1D"/><stop offset="1" stop-color="#F15A24"/></linearGradient><linearGradient id="i" x1="8.1" x2="12.2" y1="28.6" y2="20.1" gradientUnits="userSpaceOnUse"><stop stop-color="#FF0"/><stop offset=".1" stop-color="#FEF602"/><stop offset=".3" stop-color="#FCDD07"/><stop offset=".6" stop-color="#F9B410"/><stop offset=".8" stop-color="#F47C1D"/><stop offset="1" stop-color="#F15A24"/></linearGradient><linearGradient id="j" x1="5.2" x2="7.3" y1="22.8" y2="18.6" gradientUnits="userSpaceOnUse"><stop stop-color="#FF0"/><stop offset=".1" stop-color="#FEF602"/><stop offset=".3" stop-color="#FCDD07"/><stop offset=".6" stop-color="#F9B410"/><stop offset=".8" stop-color="#F47C1D"/><stop offset="1" stop-color="#F15A24"/></linearGradient><radialGradient id="b" cx="0" cy="0" r="1" gradientTransform="matrix(5.17494 0 0 7.60938 26 14.2)" gradientUnits="userSpaceOnUse"><stop stop-color="#ECC7FC"/><stop offset=".3" stop-color="#F2D8FD" stop-opacity=".7"/><stop offset=".6" stop-color="#F9EDFE" stop-opacity=".3"/><stop offset=".9" stop-color="#FDFAFF" stop-opacity=".1"/><stop offset="1" stop-color="#fff" stop-opacity="0"/></radialGradient><radialGradient id="c" cx="0" cy="0" r="1" gradientTransform="matrix(7.20618 0 0 6.58844 10.6 9.3)" gradientUnits="userSpaceOnUse"><stop stop-color="#fff"/><stop offset="0" stop-color="#fff" stop-opacity=".9"/><stop offset=".2" stop-color="#fff" stop-opacity=".7"/><stop offset=".3" stop-color="#fff" stop-opacity=".5"/><stop offset=".4" stop-color="#fff" stop-opacity=".3"/><stop offset=".5" stop-color="#fff" stop-opacity=".2"/><stop offset=".6" stop-color="#fff" stop-opacity=".1"/><stop offset=".7" stop-color="#fff" stop-opacity=".1"/><stop offset=".8" stop-color="#fff" stop-opacity="0"/><stop offset="1" stop-color="#fff" stop-opacity="0"/></radialGradient><radialGradient id="d" cx="0" cy="0" r="1" gradientTransform="matrix(10.183 0 0 9.31004 20.8 22.7)" gradientUnits="userSpaceOnUse"><stop stop-color="#74408A"/><stop offset=".1" stop-color="#7D4D92" stop-opacity=".9"/><stop offset=".4" stop-color="#966FA7" stop-opacity=".8"/><stop offset=".6" stop-color="#BEA6C8" stop-opacity=".5"/><stop offset=".9" stop-color="#F6F2F7" stop-opacity=".1"/><stop offset="1" stop-color="#fff" stop-opacity="0"/></radialGradient></defs></svg>