<svg xmlns="http://www.w3.org/2000/svg" width="32" height="32" fill="none"><path fill="url(#a)" d="M16 32a16 16 0 1 0 0-32 16 16 0 0 0 0 32Z"/><path fill="#000" d="M7.5 10.3S9 8.7 11 8.8c2 0 2.7 1.5 2.7 1.5s-1.3-.5-3.1-.5c-1.5 0-3.1.5-3.1.5Z"/><path fill="#000" d="M11.6 7.9a6 6 0 0 1 2.1 2h.1v-.2a6.2 6.2 0 0 0-2-2c-.2 0-.3.1-.2.2ZM10 12.2a7.3 7.3 0 0 0 3.7-1.7h-.1A7.2 7.2 0 0 1 10 12v.1ZM7.7 4.9c.4.6.8-.4 2.2-.6 1.1-.2 1.8.5 2 0 .3-.4-.6-1.2-2.2-1-1.3 0-2.5.8-2 1.6ZM23.8 10.3s-1.5-1.6-3.4-1.5c-2 0-2.8 1.5-2.8 1.5s1.3-.5 3.1-.5c1.5 0 3.1.5 3.1.5ZM19.6 7.7a6.2 6.2 0 0 0-2.1 2v.1h.1a6 6 0 0 1 2-1.9c.2 0 .1-.2 0-.2ZM21.3 12a7.2 7.2 0 0 1-3.6-1.6h-.1v.2a7.4 7.4 0 0 0 3.7 1.6V12ZM23.6 5c-.4.5-.9-.5-2.2-.8-1.1-.2-1.8.6-2 0-.3-.4.6-1.2 2.2-1 1.3.2 2.4 1 2 1.7ZM4.5 14.1s.9 6.5 3.5 9c2 1.7 4.8 2.3 8.1 2.5 3.9-.2 5.6-.8 7.5-2.6 2.7-2.4 3.6-8.9 3.6-8.9s-4 3.5-11.4 3.5C8.6 17.6 4.5 14 4.5 14Z"/><path fill="#fff" d="M15.8 21c4.4 0 7.6-1.6 8.9-2.4a1.1 1.1 0 0 0 .5-1.2l-.4-1.8c-1.9 1-4.9 2-9 2-4 0-7.2-1.1-9.1-2a66.5 66.5 0 0 1 .1 2.4l.4.4c1.3.8 4.7 2.6 8.6 2.7Z"/><path fill="#EFEFEF" d="M15.8 17.6c-4 0-7.2-1.1-9.1-2a44.5 44.5 0 0 1 .2 1.2c0 .2.2.3.3.4 1.3.7 4.7 2.6 8.6 2.6 4.4 0 7.6-1.7 8.9-2.5l.4-.4-.3-1.3c-1.9 1-4.9 2-9 2Z"/><path fill="red" d="M9 22.4s6.3 1.7 14.1-.2c0 0-7.1 4.3-14.1.2Z"/><path fill="#fff" d="M16 23.9c-5.3.1-9.4-2.9-9.5-3 .4.8 1 1.5 1.5 2.1 2 1.8 4.8 2.4 8.1 2.6 3.9-.2 5.6-.8 7.5-2.6.6-.5 1-1.2 1.5-2 0 0-3 2.8-9.2 2.9Z"/><path fill="#000" d="M3.5 15c0-.3 0-.7.3-1a1.5 1.5 0 0 1 1.6-.6c.1 0 .2-.2 0-.2-.4-.1-.9 0-1.3.1a1.7 1.7 0 0 0-.8 1.9h.1a.1.1 0 0 0 .1-.1ZM26.2 13.5c.4-.3.9-.3 1.3-.1.5.1.8.6 1 1v.8c-.1.2.2.3.2 0a2 2 0 0 0-.3-1.5 1.7 1.7 0 0 0-1.5-.7l-.9.3a.1.1 0 0 0 0 .2h.2Z"/><defs><linearGradient id="a" x1="16" x2="16" y1="32" y2="0" gradientUnits="userSpaceOnUse"><stop offset=".2" stop-color="#F3701F"/><stop offset=".8" stop-color="#FF0"/><stop offset=".8" stop-color="#FEF602"/><stop offset=".9" stop-color="#FCDD07"/><stop offset=".9" stop-color="#F9B410"/><stop offset="1" stop-color="#F47C1D"/><stop offset="1" stop-color="#F15A24"/></linearGradient></defs></svg>