<svg xmlns="http://www.w3.org/2000/svg" width="33" height="32" fill="none"><path fill="#0F82D6" d="M5.9 18.3c0-1-.4-1.6-1.3-1.5H1.8c-.9 0-1.3.4-1.3 1.5v10.5c0 1.2.4 1.7 1.4 1.6h2.8c.8 0 1.2-.4 1.2-1.4V18.3Zm-2.7 10c-.5 0-.9-.5-.9-1.2 0-.6.4-1 .9-1s.9.4.9 1c0 .7-.4 1.1-.9 1.1Zm0-3.6c-.5 0-.9-.5-.9-1.1 0-.6.4-1.1.9-1.1s.9.5.9 1.1c0 .6-.4 1-.9 1Zm0-3.6c-.5 0-.9-.5-.9-1 0-.7.4-1.2.9-1.2s.9.5.9 1.1c0 .6-.4 1.1-.9 1.1ZM29.9 26.2c2.5-1 2.8-2.6 1.3-4.5.5-1.2 1.3-2.1 1.3-3.1 0-1.3-1-2-2.4-2.2l.6-1c1-1.8-.2-3.8-2.3-3.6l-8 .8-2.2.1a15 15 0 0 0-.6-10C17 1.3 16.2.1 14.5 0c-1 0-2 .1-1.8 1.5.5 4.2-.8 8-3 11.4L8.1 16c0 .3-.2.7-.4.8-1.9.6-1.2 2-1.3 3.3V29c0 .8.2 1.2 1.2 1.6a33.8 33.8 0 0 0 17.2.6l3.5-.4c2.5-.3 3.3-2 2-4.1l-.4-.5Z"/></svg>