<svg xmlns="http://www.w3.org/2000/svg" width="33" height="32" fill="none"><path fill="url(#a)" d="M0 31.6 9 15c0 .9 1.3 2.6 3.3 4.2 2 1.7 4 2.7 5 2.6L.3 32c-.2.1-.5-.1-.4-.4Z"/><path fill="url(#b)" d="M9.2 14.7c.8-.4 3 .6 5.2 2.4 2.2 1.8 3.6 3.7 3.2 4.4l-.4.3c-.8.1-2.9-1-4.9-2.6C10.3 17.6 9 16 9 15l.2-.3Z"/><path fill="url(#c)" d="M13.3 15 12 17l-1-.1a31.2 31.2 0 0 0 3.4-7.2c.5-1.8.8-3.3.3-5-.2-.4-.7-1.9-2.1-3.2L10.7.3l.7-.3c.6.3 1.4.8 2.2 1.5 1.5 1.3 2 2.8 2.1 3.1.6 1.8.2 3.3-.2 5.1-.6 2.2-1.4 3.8-2.2 5.3Z"/><path fill="url(#d)" d="M15.9 17.3A32.2 32.2 0 0 0 14 19l.4.8.8-.7s.4-.5.9-.8c1-.9 3.5-1.3 5-1.9 3.1-1.1 2.7-3 5-3.2 1.8-.2 3.4.7 4 1 .7.3 1.3.8 1.8 1.2l.1-.6c-.5-.6-1.2-1.1-2.1-1.6-.8-.4-2.3-1.2-3.9-1-2.4.3-2 2.6-4.8 3.7-1.8.6-4.2.5-5.3 1.4Z"/><path fill="url(#e)" d="M14.7 16.9a27 27 0 0 1-2 1.4l-.8-.4a30.7 30.7 0 0 0 1.8-1.3c1.1-.9-.5-4 .6-5.7 1.2-2 5-.8 6-2.8.5-1.1-.2-2.7-.6-3.6-.3-.8-.7-1.4-1.1-1.8h.7c.5.5 1 1.2 1.4 2.1.4 1 1.1 2.5.6 3.6-1 2.2-5.4 1-6.5 3-1 1.7 1 4.5 0 5.5Z"/><path fill="url(#f)" d="M25.2 9.3c.4-.9.6-1.6 1.1-1.7.6 0 1 .8 1.5 1.6l.3.7c-1-1.4-1.6-1.6-1.9-1.5-.5.1-.5 1-1.2 2.3 0 0-.8 1.4-2.3 2.3-2.9 1.7-6.7-.6-7.5.5-.6.8 1.3 2.2.8 3.6-.4 1-1.8 1.6-2.8 1.8l-.6-.3c1-.3 2.4-.7 2.8-1.8.7-1.6-1.5-3.1-.8-4 .8-1.3 5 1.3 7.8-.5 1.8-1.2 2.8-3 2.8-3Z"/><path fill="url(#g)" d="m24 5.2.7-.3c.1-.1.2 0 .2 0l-.1.9v.1l.6.6c.1 0 0 .2 0 .2l-1 .1-.4.8h-.3l-.4-.7v-.1l-1-.1v-.2l.6-.6V5c-.1-.1 0-.2.1-.1l.8.3h.1Z"/><path fill="url(#h)" d="m19 14.6.3-.2h.1v.4l.2.3v.1h-.4v.1l-.2.3h-.1l-.2-.3h-.4V15l.2-.2v-.4s0-.1 0 0h.4c0 .1 0 .1 0 0Z"/><path fill="url(#i)" d="m12.7 7.8.6-.4.1.1v.7c-.1 0 0 0 0 0l.5.5-.1.2h-.7V9l-.4.6h-.2l-.3-.6-.8-.1v-.2l.5-.4v-.1l-.1-.7h.1l.7.3Z"/><path fill="url(#j)" d="m20.2 18 .8-.4.2.1-.2.8.7.7v.1l-1 .1v.1l-.4.7c0 .1-.2.1-.2 0l-.4-.7-1-.2v-.1l.6-.6v-.1l-.1-.8.2-.1.7.4h.1Z"/><path fill="url(#k)" d="m17.3 6.5.5-.2V7l.4.4v.1h-.6v.1l-.3.5h-.1l-.3-.5-.6-.1s-.1 0 0-.1l.3-.4v-.6l.6.2Z"/><path fill="url(#l)" d="m11.4 11.9.4-.2v.4l.3.4-.5.1-.2.4-.3-.4h-.5v-.1l.3-.3v-.5l.4.2Z"/><path fill="url(#m)" d="m26.4 14.4.6-.3v.7l.4.4v.1h-.7v.1l-.3.6-.4-.6-.7-.1.5-.5-.1-.6V14l.6.3Z"/><path fill="url(#n)" d="m18.7 11.4.3-.2v.3l.2.3h-.4l-.1.4-.2-.3H18v-.1l.2-.2v-.4l.3.2Z"/><defs><linearGradient id="a" x1="8.9" x2="4.7" y1="27.1" y2="23" gradientUnits="userSpaceOnUse"><stop stop-color="#FF0" stop-opacity=".9"/><stop offset="1" stop-color="#F7931E"/></linearGradient><linearGradient id="c" x1="7.2" x2="15.3" y1="6.8" y2="11.1" gradientUnits="userSpaceOnUse"><stop stop-color="#0F0" stop-opacity=".9"/><stop offset="1" stop-color="#009245"/></linearGradient><linearGradient id="d" x1="26.1" x2="20.3" y1="20.3" y2="13.5" gradientUnits="userSpaceOnUse"><stop stop-color="#0F0" stop-opacity=".9"/><stop offset="1" stop-color="#009245"/></linearGradient><linearGradient id="e" x1="12.8" x2="18.2" y1="7.1" y2="14.2" gradientUnits="userSpaceOnUse"><stop stop-color="red" stop-opacity=".9"/><stop offset="1" stop-color="#C1272D"/></linearGradient><linearGradient id="f" x1="20.8" x2="19.9" y1="18.3" y2="8.2" gradientUnits="userSpaceOnUse"><stop stop-color="red" stop-opacity=".9"/><stop offset="1" stop-color="#C1272D"/></linearGradient><linearGradient id="g" x1="22.3" x2="25.5" y1="6.3" y2="6.3" gradientUnits="userSpaceOnUse"><stop stop-color="#FF0" stop-opacity=".9"/><stop offset="1" stop-color="#F7931E"/></linearGradient><linearGradient id="h" x1="18.2" x2="19.7" y1="15" y2="15" gradientUnits="userSpaceOnUse"><stop stop-color="#FF0" stop-opacity=".9"/><stop offset="1" stop-color="#F7931E"/></linearGradient><linearGradient id="j" x1="21.2" x2="19.3" y1="19.7" y2="17.5" gradientUnits="userSpaceOnUse"><stop stop-color="#0F0" stop-opacity=".9"/><stop offset="1" stop-color="#009245"/></linearGradient><linearGradient id="k" x1="17.9" x2="16.7" y1="7.7" y2="6.2" gradientUnits="userSpaceOnUse"><stop stop-color="#0F0" stop-opacity=".9"/><stop offset="1" stop-color="#009245"/></linearGradient><linearGradient id="l" x1="11.9" x2="10.9" y1="12.8" y2="11.7" gradientUnits="userSpaceOnUse"><stop stop-color="#0F0" stop-opacity=".9"/><stop offset="1" stop-color="#009245"/></linearGradient><linearGradient id="m" x1="26.4" x2="26.3" y1="16" y2="14.1" gradientUnits="userSpaceOnUse"><stop stop-color="red" stop-opacity=".9"/><stop offset="1" stop-color="#C1272D"/></linearGradient><linearGradient id="n" x1="18.7" x2="18.6" y1="12.2" y2="11.2" gradientUnits="userSpaceOnUse"><stop stop-color="red" stop-opacity=".9"/><stop offset="1" stop-color="#C1272D"/></linearGradient><radialGradient id="b" cx="0" cy="0" r="1" gradientTransform="rotate(-140.7 10 6.7) scale(3.96174 3.91163)" gradientUnits="userSpaceOnUse"><stop stop-color="#F7931E"/><stop offset="1" stop-color="#F15A24"/></radialGradient><radialGradient id="i" cx="0" cy="0" r="1" gradientTransform="matrix(1.23801 0 0 1.14178 12.6 8.6)" gradientUnits="userSpaceOnUse"><stop stop-color="#F7931E"/><stop offset="1" stop-color="#F15A24"/></radialGradient></defs></svg>