<svg xmlns="http://www.w3.org/2000/svg" width="32" height="32" fill="none"><path fill="url(#a)" d="M16 32a16 16 0 1 0 0-32 16 16 0 0 0 0 32Z"/><path fill="#603813" d="M12.9 5.7s.5 0 .8.2c.4.3.4 1 0 1.6-3.7 2-7.2 2.9-8.8 2.1a19.8 19.8 0 0 0 8-3.9ZM19 5.7s-.4 0-.7.2c-.4.3-.4 1 0 1.6 3.7 2 7.2 2.9 8.7 2.1a19.8 19.8 0 0 1-8-3.9Z"/><path fill="#fff" d="M11 17.1a3.2 3.2 0 1 0 0-6.4 3.2 3.2 0 0 0 0 6.4Z"/><path fill="#000" d="M11 14.7a1 1 0 1 0 0-2 1 1 0 0 0 0 2Z"/><path fill="#fff" d="M21 17.1a3.2 3.2 0 1 0 0-6.4 3.2 3.2 0 0 0 0 6.4Z"/><path fill="#000" d="M21 14.7a1 1 0 1 0 0-2 1 1 0 0 0 0 2Z"/><path fill="#754C24" d="M22.3 23.8a7.1 7.1 0 0 0-12.8.2c.2-.3 2.3-3.5 6.4-3.5a8 8 0 0 1 6.4 3.3Z"/><defs><radialGradient id="a" cx="0" cy="0" r="1" gradientTransform="matrix(16 0 0 16 16 16)" gradientUnits="userSpaceOnUse"><stop stop-color="#FCEE21"/><stop offset=".4" stop-color="#FBEC21"/><stop offset=".6" stop-color="#FBE521"/><stop offset=".7" stop-color="#FAD921"/><stop offset=".8" stop-color="#F9C821"/><stop offset=".8" stop-color="#F7B222"/><stop offset=".9" stop-color="#F59722"/><stop offset="1" stop-color="#F37723"/><stop offset="1" stop-color="#F15A24"/></radialGradient></defs></svg>