<svg xmlns="http://www.w3.org/2000/svg" width="33" height="33" fill="none"><path fill="url(#a)" d="M16.6 32.6a16 16 0 1 0 0-32 16 16 0 0 0 0 32Z"/><path fill="#fff" d="M11.6 17.8a3.2 3.2 0 1 0 0-6.4 3.2 3.2 0 0 0 0 6.4Z"/><path fill="#603813" d="M19.2 27.6v-.1a2.4 2.4 0 0 0-4.8 0c-.8-.8-1.3-2-1.3-3.3 0-.5 0-1 .2-1.5.5-1.7 1.9-2.9 3.5-2.9s3 1.2 3.5 3c.2.4.2.9.2 1.4 0 1.3-.5 2.5-1.3 3.4Z"/><path fill="#42210B" d="M19.2 27.5c-.6.7-1.5 1-2.4 1-.9 0-1.7-.3-2.4-1a2.4 2.4 0 0 1 4.8 0Z"/><path fill="red" d="M19.6 27.1c-.1.6-1 1-1.5 1.2-.2 0-.7.3-1.3.3-.9 0-1.7-.4-2.4-1L14 27c-.1-.8 1.3-2 2.8-2 1.5 0 3 1.2 2.8 2Z"/><path fill="#000" d="M11.6 16.3a1.7 1.7 0 1 0 0-3.5 1.7 1.7 0 0 0 0 3.5Z"/><path fill="#fff" d="M21.7 17.8a3.2 3.2 0 1 0 0-6.4 3.2 3.2 0 0 0 0 6.4Z"/><path fill="#000" d="M21.7 16.3a1.7 1.7 0 1 0 0-3.5 1.7 1.7 0 0 0 0 3.5Z"/><defs><radialGradient id="a" cx="0" cy="0" r="1" gradientTransform="matrix(16 0 0 16 16.6 16.6)" gradientUnits="userSpaceOnUse"><stop stop-color="#FCEE21"/><stop offset=".4" stop-color="#FBEC21"/><stop offset=".6" stop-color="#FBE521"/><stop offset=".7" stop-color="#FAD921"/><stop offset=".8" stop-color="#F9C821"/><stop offset=".8" stop-color="#F7B222"/><stop offset=".9" stop-color="#F59722"/><stop offset="1" stop-color="#F37723"/><stop offset="1" stop-color="#F15A24"/></radialGradient></defs></svg>